ISO-10303-21;
HEADER;
/* Generated by software containing ST-Developer
 * from STEP Tools, Inc. (www.steptools.com) 
 */

FILE_DESCRIPTION(
/* description */ (''),
/* implementation_level */ '2;1');

FILE_NAME(
/* name */ '2.8inch LCD Display Module.step',
/* time_stamp */ '2026-01-07T11:28:59Z',
/* author */ (''),
/* organization */ (''),
/* preprocessor_version */ 'ST-DEVELOPER v20.1',
/* originating_system */ 'Autodesk Translation Framework v14.21.0.0',
/* authorisation */ '');

FILE_SCHEMA (('AUTOMOTIVE_DESIGN { 1 0 10303 214 3 1 1 }'));
ENDSEC;

DATA;
#10=MECHANICAL_DESIGN_GEOMETRIC_PRESENTATION_REPRESENTATION('',(#13),#1249);
#11=SHAPE_REPRESENTATION_RELATIONSHIP('SRR','None',#1256,#12);
#12=ADVANCED_BREP_SHAPE_REPRESENTATION('',(#14),#1248);
#13=STYLED_ITEM('',(#1265),#14);
#14=MANIFOLD_SOLID_BREP('Body1',#729);
#15=FACE_BOUND('',#137,.T.);
#16=FACE_BOUND('',#139,.T.);
#17=FACE_BOUND('',#140,.T.);
#18=FACE_BOUND('',#141,.T.);
#19=FACE_BOUND('',#142,.T.);
#20=FACE_BOUND('',#143,.T.);
#21=FACE_BOUND('',#144,.T.);
#22=FACE_BOUND('',#148,.T.);
#23=FACE_BOUND('',#153,.T.);
#24=FACE_BOUND('',#158,.T.);
#25=FACE_BOUND('',#174,.T.);
#26=CYLINDRICAL_SURFACE('',#759,5.00000007450581);
#27=CYLINDRICAL_SURFACE('',#762,5.00000007450581);
#28=CYLINDRICAL_SURFACE('',#764,1.25);
#29=CYLINDRICAL_SURFACE('',#767,3.);
#30=CYLINDRICAL_SURFACE('',#779,1.25);
#31=CYLINDRICAL_SURFACE('',#782,3.);
#32=CYLINDRICAL_SURFACE('',#786,1.25);
#33=CYLINDRICAL_SURFACE('',#789,3.);
#34=CYLINDRICAL_SURFACE('',#793,1.25);
#35=CYLINDRICAL_SURFACE('',#796,3.);
#36=CYLINDRICAL_SURFACE('',#801,2.);
#37=CYLINDRICAL_SURFACE('',#804,2.);
#38=CYLINDRICAL_SURFACE('',#807,1.99999999999998);
#39=CYLINDRICAL_SURFACE('',#810,1.99999999999999);
#40=CYLINDRICAL_SURFACE('',#813,5.00000007450581);
#41=CYLINDRICAL_SURFACE('',#816,5.00000007450581);
#42=CIRCLE('',#754,5.00000007450581);
#43=CIRCLE('',#755,5.00000007450581);
#44=CIRCLE('',#756,5.00000007450581);
#45=CIRCLE('',#757,5.00000007450581);
#46=CIRCLE('',#760,5.00000007450581);
#47=CIRCLE('',#763,5.00000007450581);
#48=CIRCLE('',#765,1.25);
#49=CIRCLE('',#766,1.25);
#50=CIRCLE('',#768,3.);
#51=CIRCLE('',#769,3.);
#52=CIRCLE('',#772,1.99999999999999);
#53=CIRCLE('',#773,1.99999999999998);
#54=CIRCLE('',#774,2.);
#55=CIRCLE('',#775,2.);
#56=CIRCLE('',#776,3.);
#57=CIRCLE('',#777,3.);
#58=CIRCLE('',#778,3.);
#59=CIRCLE('',#780,1.25);
#60=CIRCLE('',#781,1.25);
#61=CIRCLE('',#783,3.);
#62=CIRCLE('',#787,1.25);
#63=CIRCLE('',#788,1.25);
#64=CIRCLE('',#790,3.);
#65=CIRCLE('',#794,1.25);
#66=CIRCLE('',#795,1.25);
#67=CIRCLE('',#797,3.);
#68=CIRCLE('',#802,2.);
#69=CIRCLE('',#805,2.);
#70=CIRCLE('',#808,1.99999999999998);
#71=CIRCLE('',#811,1.99999999999999);
#72=CIRCLE('',#814,5.00000007450581);
#73=CIRCLE('',#817,5.00000007450581);
#74=FACE_OUTER_BOUND('',#119,.T.);
#75=FACE_OUTER_BOUND('',#120,.T.);
#76=FACE_OUTER_BOUND('',#121,.T.);
#77=FACE_OUTER_BOUND('',#122,.T.);
#78=FACE_OUTER_BOUND('',#123,.T.);
#79=FACE_OUTER_BOUND('',#124,.T.);
#80=FACE_OUTER_BOUND('',#125,.T.);
#81=FACE_OUTER_BOUND('',#126,.T.);
#82=FACE_OUTER_BOUND('',#127,.T.);
#83=FACE_OUTER_BOUND('',#128,.T.);
#84=FACE_OUTER_BOUND('',#129,.T.);
#85=FACE_OUTER_BOUND('',#130,.T.);
#86=FACE_OUTER_BOUND('',#131,.T.);
#87=FACE_OUTER_BOUND('',#132,.T.);
#88=FACE_OUTER_BOUND('',#133,.T.);
#89=FACE_OUTER_BOUND('',#134,.T.);
#90=FACE_OUTER_BOUND('',#135,.T.);
#91=FACE_OUTER_BOUND('',#136,.T.);
#92=FACE_OUTER_BOUND('',#138,.T.);
#93=FACE_OUTER_BOUND('',#145,.T.);
#94=FACE_OUTER_BOUND('',#146,.T.);
#95=FACE_OUTER_BOUND('',#147,.T.);
#96=FACE_OUTER_BOUND('',#149,.T.);
#97=FACE_OUTER_BOUND('',#150,.T.);
#98=FACE_OUTER_BOUND('',#151,.T.);
#99=FACE_OUTER_BOUND('',#152,.T.);
#100=FACE_OUTER_BOUND('',#154,.T.);
#101=FACE_OUTER_BOUND('',#155,.T.);
#102=FACE_OUTER_BOUND('',#156,.T.);
#103=FACE_OUTER_BOUND('',#157,.T.);
#104=FACE_OUTER_BOUND('',#159,.T.);
#105=FACE_OUTER_BOUND('',#160,.T.);
#106=FACE_OUTER_BOUND('',#161,.T.);
#107=FACE_OUTER_BOUND('',#162,.T.);
#108=FACE_OUTER_BOUND('',#163,.T.);
#109=FACE_OUTER_BOUND('',#164,.T.);
#110=FACE_OUTER_BOUND('',#165,.T.);
#111=FACE_OUTER_BOUND('',#166,.T.);
#112=FACE_OUTER_BOUND('',#167,.T.);
#113=FACE_OUTER_BOUND('',#168,.T.);
#114=FACE_OUTER_BOUND('',#169,.T.);
#115=FACE_OUTER_BOUND('',#170,.T.);
#116=FACE_OUTER_BOUND('',#171,.T.);
#117=FACE_OUTER_BOUND('',#172,.T.);
#118=FACE_OUTER_BOUND('',#173,.T.);
#119=EDGE_LOOP('',(#463,#464,#465,#466));
#120=EDGE_LOOP('',(#467,#468,#469,#470));
#121=EDGE_LOOP('',(#471,#472,#473,#474));
#122=EDGE_LOOP('',(#475,#476,#477,#478));
#123=EDGE_LOOP('',(#479,#480,#481,#482));
#124=EDGE_LOOP('',(#483,#484,#485,#486));
#125=EDGE_LOOP('',(#487,#488,#489,#490));
#126=EDGE_LOOP('',(#491,#492,#493,#494));
#127=EDGE_LOOP('',(#495,#496,#497,#498));
#128=EDGE_LOOP('',(#499,#500,#501,#502));
#129=EDGE_LOOP('',(#503,#504,#505,#506,#507,#508,#509,#510));
#130=EDGE_LOOP('',(#511,#512,#513,#514));
#131=EDGE_LOOP('',(#515,#516,#517,#518));
#132=EDGE_LOOP('',(#519,#520,#521,#522));
#133=EDGE_LOOP('',(#523,#524,#525,#526));
#134=EDGE_LOOP('',(#527,#528,#529,#530));
#135=EDGE_LOOP('',(#531,#532,#533,#534));
#136=EDGE_LOOP('',(#535));
#137=EDGE_LOOP('',(#536));
#138=EDGE_LOOP('',(#537,#538,#539,#540,#541,#542,#543,#544));
#139=EDGE_LOOP('',(#545,#546,#547,#548));
#140=EDGE_LOOP('',(#549,#550,#551,#552));
#141=EDGE_LOOP('',(#553));
#142=EDGE_LOOP('',(#554));
#143=EDGE_LOOP('',(#555));
#144=EDGE_LOOP('',(#556));
#145=EDGE_LOOP('',(#557,#558,#559,#560));
#146=EDGE_LOOP('',(#561,#562,#563,#564));
#147=EDGE_LOOP('',(#565));
#148=EDGE_LOOP('',(#566));
#149=EDGE_LOOP('',(#567));
#150=EDGE_LOOP('',(#568,#569,#570,#571));
#151=EDGE_LOOP('',(#572,#573,#574,#575));
#152=EDGE_LOOP('',(#576));
#153=EDGE_LOOP('',(#577));
#154=EDGE_LOOP('',(#578));
#155=EDGE_LOOP('',(#579,#580,#581,#582));
#156=EDGE_LOOP('',(#583,#584,#585,#586));
#157=EDGE_LOOP('',(#587));
#158=EDGE_LOOP('',(#588));
#159=EDGE_LOOP('',(#589));
#160=EDGE_LOOP('',(#590,#591,#592,#593));
#161=EDGE_LOOP('',(#594,#595,#596,#597));
#162=EDGE_LOOP('',(#598,#599,#600,#601));
#163=EDGE_LOOP('',(#602,#603,#604,#605));
#164=EDGE_LOOP('',(#606,#607,#608,#609));
#165=EDGE_LOOP('',(#610,#611,#612,#613));
#166=EDGE_LOOP('',(#614,#615,#616,#617));
#167=EDGE_LOOP('',(#618,#619,#620,#621));
#168=EDGE_LOOP('',(#622));
#169=EDGE_LOOP('',(#623,#624,#625,#626));
#170=EDGE_LOOP('',(#627,#628,#629,#630));
#171=EDGE_LOOP('',(#631,#632,#633,#634));
#172=EDGE_LOOP('',(#635,#636,#637,#638));
#173=EDGE_LOOP('',(#639,#640,#641,#642,#643,#644,#645,#646));
#174=EDGE_LOOP('',(#647,#648,#649,#650,#651,#652,#653,#654));
#175=LINE('',#1044,#239);
#176=LINE('',#1046,#240);
#177=LINE('',#1048,#241);
#178=LINE('',#1049,#242);
#179=LINE('',#1052,#243);
#180=LINE('',#1054,#244);
#181=LINE('',#1055,#245);
#182=LINE('',#1058,#246);
#183=LINE('',#1060,#247);
#184=LINE('',#1061,#248);
#185=LINE('',#1063,#249);
#186=LINE('',#1064,#250);
#187=LINE('',#1069,#251);
#188=LINE('',#1071,#252);
#189=LINE('',#1073,#253);
#190=LINE('',#1074,#254);
#191=LINE('',#1077,#255);
#192=LINE('',#1079,#256);
#193=LINE('',#1080,#257);
#194=LINE('',#1083,#258);
#195=LINE('',#1085,#259);
#196=LINE('',#1086,#260);
#197=LINE('',#1088,#261);
#198=LINE('',#1089,#262);
#199=LINE('',#1096,#263);
#200=LINE('',#1100,#264);
#201=LINE('',#1104,#265);
#202=LINE('',#1107,#266);
#203=LINE('',#1110,#267);
#204=LINE('',#1112,#268);
#205=LINE('',#1113,#269);
#206=LINE('',#1116,#270);
#207=LINE('',#1120,#271);
#208=LINE('',#1121,#272);
#209=LINE('',#1124,#273);
#210=LINE('',#1130,#274);
#211=LINE('',#1136,#275);
#212=LINE('',#1144,#276);
#213=LINE('',#1148,#277);
#214=LINE('',#1152,#278);
#215=LINE('',#1155,#279);
#216=LINE('',#1166,#280);
#217=LINE('',#1171,#281);
#218=LINE('',#1178,#282);
#219=LINE('',#1183,#283);
#220=LINE('',#1190,#284);
#221=LINE('',#1195,#285);
#222=LINE('',#1201,#286);
#223=LINE('',#1202,#287);
#224=LINE('',#1203,#288);
#225=LINE('',#1207,#289);
#226=LINE('',#1210,#290);
#227=LINE('',#1211,#291);
#228=LINE('',#1215,#292);
#229=LINE('',#1218,#293);
#230=LINE('',#1219,#294);
#231=LINE('',#1223,#295);
#232=LINE('',#1226,#296);
#233=LINE('',#1227,#297);
#234=LINE('',#1234,#298);
#235=LINE('',#1237,#299);
#236=LINE('',#1238,#300);
#237=LINE('',#1242,#301);
#238=LINE('',#1244,#302);
#239=VECTOR('',#824,10.);
#240=VECTOR('',#825,10.);
#241=VECTOR('',#826,10.);
#242=VECTOR('',#827,10.);
#243=VECTOR('',#830,10.);
#244=VECTOR('',#831,10.);
#245=VECTOR('',#832,10.);
#246=VECTOR('',#835,10.);
#247=VECTOR('',#836,10.);
#248=VECTOR('',#837,10.);
#249=VECTOR('',#840,10.);
#250=VECTOR('',#841,10.);
#251=VECTOR('',#846,10.);
#252=VECTOR('',#847,10.);
#253=VECTOR('',#848,10.);
#254=VECTOR('',#849,10.);
#255=VECTOR('',#852,10.);
#256=VECTOR('',#853,10.);
#257=VECTOR('',#854,10.);
#258=VECTOR('',#857,10.);
#259=VECTOR('',#858,10.);
#260=VECTOR('',#859,10.);
#261=VECTOR('',#862,10.);
#262=VECTOR('',#863,10.);
#263=VECTOR('',#870,10.);
#264=VECTOR('',#873,10.);
#265=VECTOR('',#876,10.);
#266=VECTOR('',#879,10.);
#267=VECTOR('',#882,10.);
#268=VECTOR('',#883,10.);
#269=VECTOR('',#884,10.);
#270=VECTOR('',#887,10.);
#271=VECTOR('',#892,10.);
#272=VECTOR('',#893,10.);
#273=VECTOR('',#896,10.);
#274=VECTOR('',#903,1.25);
#275=VECTOR('',#910,3.);
#276=VECTOR('',#919,10.);
#277=VECTOR('',#922,10.);
#278=VECTOR('',#925,10.);
#279=VECTOR('',#928,10.);
#280=VECTOR('',#939,1.25);
#281=VECTOR('',#946,3.);
#282=VECTOR('',#955,1.25);
#283=VECTOR('',#962,3.);
#284=VECTOR('',#971,1.25);
#285=VECTOR('',#978,3.);
#286=VECTOR('',#985,10.);
#287=VECTOR('',#986,10.);
#288=VECTOR('',#987,10.);
#289=VECTOR('',#992,10.);
#290=VECTOR('',#995,10.);
#291=VECTOR('',#996,10.);
#292=VECTOR('',#1001,10.);
#293=VECTOR('',#1004,10.);
#294=VECTOR('',#1005,10.);
#295=VECTOR('',#1010,10.);
#296=VECTOR('',#1013,10.);
#297=VECTOR('',#1014,10.);
#298=VECTOR('',#1025,10.);
#299=VECTOR('',#1028,10.);
#300=VECTOR('',#1029,10.);
#301=VECTOR('',#1034,10.);
#302=VECTOR('',#1037,10.);
#303=VERTEX_POINT('',#1042);
#304=VERTEX_POINT('',#1043);
#305=VERTEX_POINT('',#1045);
#306=VERTEX_POINT('',#1047);
#307=VERTEX_POINT('',#1051);
#308=VERTEX_POINT('',#1053);
#309=VERTEX_POINT('',#1057);
#310=VERTEX_POINT('',#1059);
#311=VERTEX_POINT('',#1067);
#312=VERTEX_POINT('',#1068);
#313=VERTEX_POINT('',#1070);
#314=VERTEX_POINT('',#1072);
#315=VERTEX_POINT('',#1076);
#316=VERTEX_POINT('',#1078);
#317=VERTEX_POINT('',#1082);
#318=VERTEX_POINT('',#1084);
#319=VERTEX_POINT('',#1092);
#320=VERTEX_POINT('',#1093);
#321=VERTEX_POINT('',#1095);
#322=VERTEX_POINT('',#1097);
#323=VERTEX_POINT('',#1099);
#324=VERTEX_POINT('',#1101);
#325=VERTEX_POINT('',#1103);
#326=VERTEX_POINT('',#1105);
#327=VERTEX_POINT('',#1109);
#328=VERTEX_POINT('',#1111);
#329=VERTEX_POINT('',#1115);
#330=VERTEX_POINT('',#1119);
#331=VERTEX_POINT('',#1123);
#332=VERTEX_POINT('',#1127);
#333=VERTEX_POINT('',#1129);
#334=VERTEX_POINT('',#1133);
#335=VERTEX_POINT('',#1135);
#336=VERTEX_POINT('',#1140);
#337=VERTEX_POINT('',#1141);
#338=VERTEX_POINT('',#1143);
#339=VERTEX_POINT('',#1145);
#340=VERTEX_POINT('',#1147);
#341=VERTEX_POINT('',#1149);
#342=VERTEX_POINT('',#1151);
#343=VERTEX_POINT('',#1153);
#344=VERTEX_POINT('',#1156);
#345=VERTEX_POINT('',#1158);
#346=VERTEX_POINT('',#1160);
#347=VERTEX_POINT('',#1163);
#348=VERTEX_POINT('',#1165);
#349=VERTEX_POINT('',#1169);
#350=VERTEX_POINT('',#1175);
#351=VERTEX_POINT('',#1177);
#352=VERTEX_POINT('',#1181);
#353=VERTEX_POINT('',#1187);
#354=VERTEX_POINT('',#1189);
#355=VERTEX_POINT('',#1193);
#356=VERTEX_POINT('',#1199);
#357=VERTEX_POINT('',#1200);
#358=VERTEX_POINT('',#1205);
#359=VERTEX_POINT('',#1209);
#360=VERTEX_POINT('',#1213);
#361=VERTEX_POINT('',#1217);
#362=VERTEX_POINT('',#1221);
#363=VERTEX_POINT('',#1225);
#364=VERTEX_POINT('',#1232);
#365=VERTEX_POINT('',#1236);
#366=VERTEX_POINT('',#1240);
#367=EDGE_CURVE('',#303,#304,#175,.T.);
#368=EDGE_CURVE('',#303,#305,#176,.T.);
#369=EDGE_CURVE('',#306,#305,#177,.T.);
#370=EDGE_CURVE('',#304,#306,#178,.T.);
#371=EDGE_CURVE('',#304,#307,#179,.T.);
#372=EDGE_CURVE('',#308,#306,#180,.T.);
#373=EDGE_CURVE('',#307,#308,#181,.T.);
#374=EDGE_CURVE('',#307,#309,#182,.T.);
#375=EDGE_CURVE('',#310,#308,#183,.T.);
#376=EDGE_CURVE('',#309,#310,#184,.T.);
#377=EDGE_CURVE('',#309,#303,#185,.T.);
#378=EDGE_CURVE('',#305,#310,#186,.T.);
#379=EDGE_CURVE('',#311,#312,#187,.T.);
#380=EDGE_CURVE('',#311,#313,#188,.T.);
#381=EDGE_CURVE('',#314,#313,#189,.T.);
#382=EDGE_CURVE('',#312,#314,#190,.T.);
#383=EDGE_CURVE('',#312,#315,#191,.T.);
#384=EDGE_CURVE('',#316,#314,#192,.T.);
#385=EDGE_CURVE('',#315,#316,#193,.T.);
#386=EDGE_CURVE('',#315,#317,#194,.T.);
#387=EDGE_CURVE('',#318,#316,#195,.T.);
#388=EDGE_CURVE('',#317,#318,#196,.T.);
#389=EDGE_CURVE('',#317,#311,#197,.T.);
#390=EDGE_CURVE('',#313,#318,#198,.T.);
#391=EDGE_CURVE('',#319,#320,#42,.T.);
#392=EDGE_CURVE('',#321,#319,#199,.T.);
#393=EDGE_CURVE('',#322,#321,#43,.T.);
#394=EDGE_CURVE('',#323,#322,#200,.T.);
#395=EDGE_CURVE('',#324,#323,#44,.T.);
#396=EDGE_CURVE('',#325,#324,#201,.T.);
#397=EDGE_CURVE('',#326,#325,#45,.T.);
#398=EDGE_CURVE('',#320,#326,#202,.T.);
#399=EDGE_CURVE('',#322,#327,#203,.T.);
#400=EDGE_CURVE('',#328,#327,#204,.T.);
#401=EDGE_CURVE('',#323,#328,#205,.T.);
#402=EDGE_CURVE('',#321,#329,#206,.T.);
#403=EDGE_CURVE('',#327,#329,#46,.T.);
#404=EDGE_CURVE('',#319,#330,#207,.T.);
#405=EDGE_CURVE('',#329,#330,#208,.T.);
#406=EDGE_CURVE('',#320,#331,#209,.T.);
#407=EDGE_CURVE('',#330,#331,#47,.T.);
#408=EDGE_CURVE('',#332,#332,#48,.T.);
#409=EDGE_CURVE('',#332,#333,#210,.T.);
#410=EDGE_CURVE('',#333,#333,#49,.T.);
#411=EDGE_CURVE('',#334,#334,#50,.T.);
#412=EDGE_CURVE('',#334,#335,#211,.T.);
#413=EDGE_CURVE('',#335,#335,#51,.T.);
#414=EDGE_CURVE('',#336,#337,#52,.T.);
#415=EDGE_CURVE('',#337,#338,#212,.T.);
#416=EDGE_CURVE('',#338,#339,#53,.T.);
#417=EDGE_CURVE('',#339,#340,#213,.T.);
#418=EDGE_CURVE('',#340,#341,#54,.T.);
#419=EDGE_CURVE('',#341,#342,#214,.T.);
#420=EDGE_CURVE('',#342,#343,#55,.T.);
#421=EDGE_CURVE('',#343,#336,#215,.T.);
#422=EDGE_CURVE('',#344,#344,#56,.T.);
#423=EDGE_CURVE('',#345,#345,#57,.T.);
#424=EDGE_CURVE('',#346,#346,#58,.T.);
#425=EDGE_CURVE('',#347,#347,#59,.T.);
#426=EDGE_CURVE('',#347,#348,#216,.T.);
#427=EDGE_CURVE('',#348,#348,#60,.T.);
#428=EDGE_CURVE('',#349,#349,#61,.T.);
#429=EDGE_CURVE('',#349,#344,#217,.T.);
#430=EDGE_CURVE('',#350,#350,#62,.T.);
#431=EDGE_CURVE('',#350,#351,#218,.T.);
#432=EDGE_CURVE('',#351,#351,#63,.T.);
#433=EDGE_CURVE('',#352,#352,#64,.T.);
#434=EDGE_CURVE('',#352,#346,#219,.T.);
#435=EDGE_CURVE('',#353,#353,#65,.T.);
#436=EDGE_CURVE('',#353,#354,#220,.T.);
#437=EDGE_CURVE('',#354,#354,#66,.T.);
#438=EDGE_CURVE('',#355,#355,#67,.T.);
#439=EDGE_CURVE('',#355,#345,#221,.T.);
#440=EDGE_CURVE('',#356,#357,#222,.T.);
#441=EDGE_CURVE('',#356,#336,#223,.T.);
#442=EDGE_CURVE('',#357,#343,#224,.T.);
#443=EDGE_CURVE('',#357,#358,#68,.T.);
#444=EDGE_CURVE('',#358,#342,#225,.T.);
#445=EDGE_CURVE('',#358,#359,#226,.T.);
#446=EDGE_CURVE('',#359,#341,#227,.T.);
#447=EDGE_CURVE('',#359,#360,#69,.T.);
#448=EDGE_CURVE('',#360,#340,#228,.T.);
#449=EDGE_CURVE('',#360,#361,#229,.T.);
#450=EDGE_CURVE('',#361,#339,#230,.T.);
#451=EDGE_CURVE('',#361,#362,#70,.T.);
#452=EDGE_CURVE('',#362,#338,#231,.T.);
#453=EDGE_CURVE('',#362,#363,#232,.T.);
#454=EDGE_CURVE('',#363,#337,#233,.T.);
#455=EDGE_CURVE('',#363,#356,#71,.T.);
#456=EDGE_CURVE('',#364,#328,#72,.T.);
#457=EDGE_CURVE('',#324,#364,#234,.T.);
#458=EDGE_CURVE('',#365,#364,#235,.T.);
#459=EDGE_CURVE('',#325,#365,#236,.T.);
#460=EDGE_CURVE('',#366,#365,#73,.T.);
#461=EDGE_CURVE('',#326,#366,#237,.T.);
#462=EDGE_CURVE('',#331,#366,#238,.T.);
#463=ORIENTED_EDGE('',*,*,#367,.F.);
#464=ORIENTED_EDGE('',*,*,#368,.T.);
#465=ORIENTED_EDGE('',*,*,#369,.F.);
#466=ORIENTED_EDGE('',*,*,#370,.F.);
#467=ORIENTED_EDGE('',*,*,#371,.F.);
#468=ORIENTED_EDGE('',*,*,#370,.T.);
#469=ORIENTED_EDGE('',*,*,#372,.F.);
#470=ORIENTED_EDGE('',*,*,#373,.F.);
#471=ORIENTED_EDGE('',*,*,#374,.F.);
#472=ORIENTED_EDGE('',*,*,#373,.T.);
#473=ORIENTED_EDGE('',*,*,#375,.F.);
#474=ORIENTED_EDGE('',*,*,#376,.F.);
#475=ORIENTED_EDGE('',*,*,#377,.F.);
#476=ORIENTED_EDGE('',*,*,#376,.T.);
#477=ORIENTED_EDGE('',*,*,#378,.F.);
#478=ORIENTED_EDGE('',*,*,#368,.F.);
#479=ORIENTED_EDGE('',*,*,#378,.T.);
#480=ORIENTED_EDGE('',*,*,#375,.T.);
#481=ORIENTED_EDGE('',*,*,#372,.T.);
#482=ORIENTED_EDGE('',*,*,#369,.T.);
#483=ORIENTED_EDGE('',*,*,#379,.F.);
#484=ORIENTED_EDGE('',*,*,#380,.T.);
#485=ORIENTED_EDGE('',*,*,#381,.F.);
#486=ORIENTED_EDGE('',*,*,#382,.F.);
#487=ORIENTED_EDGE('',*,*,#383,.F.);
#488=ORIENTED_EDGE('',*,*,#382,.T.);
#489=ORIENTED_EDGE('',*,*,#384,.F.);
#490=ORIENTED_EDGE('',*,*,#385,.F.);
#491=ORIENTED_EDGE('',*,*,#386,.F.);
#492=ORIENTED_EDGE('',*,*,#385,.T.);
#493=ORIENTED_EDGE('',*,*,#387,.F.);
#494=ORIENTED_EDGE('',*,*,#388,.F.);
#495=ORIENTED_EDGE('',*,*,#389,.F.);
#496=ORIENTED_EDGE('',*,*,#388,.T.);
#497=ORIENTED_EDGE('',*,*,#390,.F.);
#498=ORIENTED_EDGE('',*,*,#380,.F.);
#499=ORIENTED_EDGE('',*,*,#390,.T.);
#500=ORIENTED_EDGE('',*,*,#387,.T.);
#501=ORIENTED_EDGE('',*,*,#384,.T.);
#502=ORIENTED_EDGE('',*,*,#381,.T.);
#503=ORIENTED_EDGE('',*,*,#391,.F.);
#504=ORIENTED_EDGE('',*,*,#392,.F.);
#505=ORIENTED_EDGE('',*,*,#393,.F.);
#506=ORIENTED_EDGE('',*,*,#394,.F.);
#507=ORIENTED_EDGE('',*,*,#395,.F.);
#508=ORIENTED_EDGE('',*,*,#396,.F.);
#509=ORIENTED_EDGE('',*,*,#397,.F.);
#510=ORIENTED_EDGE('',*,*,#398,.F.);
#511=ORIENTED_EDGE('',*,*,#394,.T.);
#512=ORIENTED_EDGE('',*,*,#399,.T.);
#513=ORIENTED_EDGE('',*,*,#400,.F.);
#514=ORIENTED_EDGE('',*,*,#401,.F.);
#515=ORIENTED_EDGE('',*,*,#393,.T.);
#516=ORIENTED_EDGE('',*,*,#402,.T.);
#517=ORIENTED_EDGE('',*,*,#403,.F.);
#518=ORIENTED_EDGE('',*,*,#399,.F.);
#519=ORIENTED_EDGE('',*,*,#392,.T.);
#520=ORIENTED_EDGE('',*,*,#404,.T.);
#521=ORIENTED_EDGE('',*,*,#405,.F.);
#522=ORIENTED_EDGE('',*,*,#402,.F.);
#523=ORIENTED_EDGE('',*,*,#391,.T.);
#524=ORIENTED_EDGE('',*,*,#406,.T.);
#525=ORIENTED_EDGE('',*,*,#407,.F.);
#526=ORIENTED_EDGE('',*,*,#404,.F.);
#527=ORIENTED_EDGE('',*,*,#408,.F.);
#528=ORIENTED_EDGE('',*,*,#409,.T.);
#529=ORIENTED_EDGE('',*,*,#410,.F.);
#530=ORIENTED_EDGE('',*,*,#409,.F.);
#531=ORIENTED_EDGE('',*,*,#411,.F.);
#532=ORIENTED_EDGE('',*,*,#412,.T.);
#533=ORIENTED_EDGE('',*,*,#413,.F.);
#534=ORIENTED_EDGE('',*,*,#412,.F.);
#535=ORIENTED_EDGE('',*,*,#411,.T.);
#536=ORIENTED_EDGE('',*,*,#408,.T.);
#537=ORIENTED_EDGE('',*,*,#414,.T.);
#538=ORIENTED_EDGE('',*,*,#415,.T.);
#539=ORIENTED_EDGE('',*,*,#416,.T.);
#540=ORIENTED_EDGE('',*,*,#417,.T.);
#541=ORIENTED_EDGE('',*,*,#418,.T.);
#542=ORIENTED_EDGE('',*,*,#419,.T.);
#543=ORIENTED_EDGE('',*,*,#420,.T.);
#544=ORIENTED_EDGE('',*,*,#421,.T.);
#545=ORIENTED_EDGE('',*,*,#367,.T.);
#546=ORIENTED_EDGE('',*,*,#371,.T.);
#547=ORIENTED_EDGE('',*,*,#374,.T.);
#548=ORIENTED_EDGE('',*,*,#377,.T.);
#549=ORIENTED_EDGE('',*,*,#379,.T.);
#550=ORIENTED_EDGE('',*,*,#383,.T.);
#551=ORIENTED_EDGE('',*,*,#386,.T.);
#552=ORIENTED_EDGE('',*,*,#389,.T.);
#553=ORIENTED_EDGE('',*,*,#422,.T.);
#554=ORIENTED_EDGE('',*,*,#423,.T.);
#555=ORIENTED_EDGE('',*,*,#424,.T.);
#556=ORIENTED_EDGE('',*,*,#413,.T.);
#557=ORIENTED_EDGE('',*,*,#425,.F.);
#558=ORIENTED_EDGE('',*,*,#426,.T.);
#559=ORIENTED_EDGE('',*,*,#427,.F.);
#560=ORIENTED_EDGE('',*,*,#426,.F.);
#561=ORIENTED_EDGE('',*,*,#428,.F.);
#562=ORIENTED_EDGE('',*,*,#429,.T.);
#563=ORIENTED_EDGE('',*,*,#422,.F.);
#564=ORIENTED_EDGE('',*,*,#429,.F.);
#565=ORIENTED_EDGE('',*,*,#428,.T.);
#566=ORIENTED_EDGE('',*,*,#425,.T.);
#567=ORIENTED_EDGE('',*,*,#410,.T.);
#568=ORIENTED_EDGE('',*,*,#430,.F.);
#569=ORIENTED_EDGE('',*,*,#431,.T.);
#570=ORIENTED_EDGE('',*,*,#432,.F.);
#571=ORIENTED_EDGE('',*,*,#431,.F.);
#572=ORIENTED_EDGE('',*,*,#433,.F.);
#573=ORIENTED_EDGE('',*,*,#434,.T.);
#574=ORIENTED_EDGE('',*,*,#424,.F.);
#575=ORIENTED_EDGE('',*,*,#434,.F.);
#576=ORIENTED_EDGE('',*,*,#433,.T.);
#577=ORIENTED_EDGE('',*,*,#430,.T.);
#578=ORIENTED_EDGE('',*,*,#427,.T.);
#579=ORIENTED_EDGE('',*,*,#435,.F.);
#580=ORIENTED_EDGE('',*,*,#436,.T.);
#581=ORIENTED_EDGE('',*,*,#437,.F.);
#582=ORIENTED_EDGE('',*,*,#436,.F.);
#583=ORIENTED_EDGE('',*,*,#438,.F.);
#584=ORIENTED_EDGE('',*,*,#439,.T.);
#585=ORIENTED_EDGE('',*,*,#423,.F.);
#586=ORIENTED_EDGE('',*,*,#439,.F.);
#587=ORIENTED_EDGE('',*,*,#438,.T.);
#588=ORIENTED_EDGE('',*,*,#435,.T.);
#589=ORIENTED_EDGE('',*,*,#432,.T.);
#590=ORIENTED_EDGE('',*,*,#440,.F.);
#591=ORIENTED_EDGE('',*,*,#441,.T.);
#592=ORIENTED_EDGE('',*,*,#421,.F.);
#593=ORIENTED_EDGE('',*,*,#442,.F.);
#594=ORIENTED_EDGE('',*,*,#443,.F.);
#595=ORIENTED_EDGE('',*,*,#442,.T.);
#596=ORIENTED_EDGE('',*,*,#420,.F.);
#597=ORIENTED_EDGE('',*,*,#444,.F.);
#598=ORIENTED_EDGE('',*,*,#445,.F.);
#599=ORIENTED_EDGE('',*,*,#444,.T.);
#600=ORIENTED_EDGE('',*,*,#419,.F.);
#601=ORIENTED_EDGE('',*,*,#446,.F.);
#602=ORIENTED_EDGE('',*,*,#447,.F.);
#603=ORIENTED_EDGE('',*,*,#446,.T.);
#604=ORIENTED_EDGE('',*,*,#418,.F.);
#605=ORIENTED_EDGE('',*,*,#448,.F.);
#606=ORIENTED_EDGE('',*,*,#449,.F.);
#607=ORIENTED_EDGE('',*,*,#448,.T.);
#608=ORIENTED_EDGE('',*,*,#417,.F.);
#609=ORIENTED_EDGE('',*,*,#450,.F.);
#610=ORIENTED_EDGE('',*,*,#451,.F.);
#611=ORIENTED_EDGE('',*,*,#450,.T.);
#612=ORIENTED_EDGE('',*,*,#416,.F.);
#613=ORIENTED_EDGE('',*,*,#452,.F.);
#614=ORIENTED_EDGE('',*,*,#453,.F.);
#615=ORIENTED_EDGE('',*,*,#452,.T.);
#616=ORIENTED_EDGE('',*,*,#415,.F.);
#617=ORIENTED_EDGE('',*,*,#454,.F.);
#618=ORIENTED_EDGE('',*,*,#455,.F.);
#619=ORIENTED_EDGE('',*,*,#454,.T.);
#620=ORIENTED_EDGE('',*,*,#414,.F.);
#621=ORIENTED_EDGE('',*,*,#441,.F.);
#622=ORIENTED_EDGE('',*,*,#437,.T.);
#623=ORIENTED_EDGE('',*,*,#395,.T.);
#624=ORIENTED_EDGE('',*,*,#401,.T.);
#625=ORIENTED_EDGE('',*,*,#456,.F.);
#626=ORIENTED_EDGE('',*,*,#457,.F.);
#627=ORIENTED_EDGE('',*,*,#396,.T.);
#628=ORIENTED_EDGE('',*,*,#457,.T.);
#629=ORIENTED_EDGE('',*,*,#458,.F.);
#630=ORIENTED_EDGE('',*,*,#459,.F.);
#631=ORIENTED_EDGE('',*,*,#397,.T.);
#632=ORIENTED_EDGE('',*,*,#459,.T.);
#633=ORIENTED_EDGE('',*,*,#460,.F.);
#634=ORIENTED_EDGE('',*,*,#461,.F.);
#635=ORIENTED_EDGE('',*,*,#398,.T.);
#636=ORIENTED_EDGE('',*,*,#461,.T.);
#637=ORIENTED_EDGE('',*,*,#462,.F.);
#638=ORIENTED_EDGE('',*,*,#406,.F.);
#639=ORIENTED_EDGE('',*,*,#407,.T.);
#640=ORIENTED_EDGE('',*,*,#462,.T.);
#641=ORIENTED_EDGE('',*,*,#460,.T.);
#642=ORIENTED_EDGE('',*,*,#458,.T.);
#643=ORIENTED_EDGE('',*,*,#456,.T.);
#644=ORIENTED_EDGE('',*,*,#400,.T.);
#645=ORIENTED_EDGE('',*,*,#403,.T.);
#646=ORIENTED_EDGE('',*,*,#405,.T.);
#647=ORIENTED_EDGE('',*,*,#440,.T.);
#648=ORIENTED_EDGE('',*,*,#443,.T.);
#649=ORIENTED_EDGE('',*,*,#445,.T.);
#650=ORIENTED_EDGE('',*,*,#447,.T.);
#651=ORIENTED_EDGE('',*,*,#449,.T.);
#652=ORIENTED_EDGE('',*,*,#451,.T.);
#653=ORIENTED_EDGE('',*,*,#453,.T.);
#654=ORIENTED_EDGE('',*,*,#455,.T.);
#655=PLANE('',#743);
#656=PLANE('',#744);
#657=PLANE('',#745);
#658=PLANE('',#746);
#659=PLANE('',#747);
#660=PLANE('',#748);
#661=PLANE('',#749);
#662=PLANE('',#750);
#663=PLANE('',#751);
#664=PLANE('',#752);
#665=PLANE('',#753);
#666=PLANE('',#758);
#667=PLANE('',#761);
#668=PLANE('',#770);
#669=PLANE('',#771);
#670=PLANE('',#784);
#671=PLANE('',#785);
#672=PLANE('',#791);
#673=PLANE('',#792);
#674=PLANE('',#798);
#675=PLANE('',#799);
#676=PLANE('',#800);
#677=PLANE('',#803);
#678=PLANE('',#806);
#679=PLANE('',#809);
#680=PLANE('',#812);
#681=PLANE('',#815);
#682=PLANE('',#818);
#683=PLANE('',#819);
#684=ADVANCED_FACE('',(#74),#655,.T.);
#685=ADVANCED_FACE('',(#75),#656,.T.);
#686=ADVANCED_FACE('',(#76),#657,.T.);
#687=ADVANCED_FACE('',(#77),#658,.T.);
#688=ADVANCED_FACE('',(#78),#659,.T.);
#689=ADVANCED_FACE('',(#79),#660,.T.);
#690=ADVANCED_FACE('',(#80),#661,.T.);
#691=ADVANCED_FACE('',(#81),#662,.T.);
#692=ADVANCED_FACE('',(#82),#663,.T.);
#693=ADVANCED_FACE('',(#83),#664,.T.);
#694=ADVANCED_FACE('',(#84),#665,.F.);
#695=ADVANCED_FACE('',(#85),#666,.T.);
#696=ADVANCED_FACE('',(#86),#26,.T.);
#697=ADVANCED_FACE('',(#87),#667,.T.);
#698=ADVANCED_FACE('',(#88),#27,.T.);
#699=ADVANCED_FACE('',(#89),#28,.F.);
#700=ADVANCED_FACE('',(#90),#29,.T.);
#701=ADVANCED_FACE('',(#91,#15),#668,.T.);
#702=ADVANCED_FACE('',(#92,#16,#17,#18,#19,#20,#21),#669,.T.);
#703=ADVANCED_FACE('',(#93),#30,.F.);
#704=ADVANCED_FACE('',(#94),#31,.T.);
#705=ADVANCED_FACE('',(#95,#22),#670,.T.);
#706=ADVANCED_FACE('',(#96),#671,.T.);
#707=ADVANCED_FACE('',(#97),#32,.F.);
#708=ADVANCED_FACE('',(#98),#33,.T.);
#709=ADVANCED_FACE('',(#99,#23),#672,.T.);
#710=ADVANCED_FACE('',(#100),#673,.T.);
#711=ADVANCED_FACE('',(#101),#34,.F.);
#712=ADVANCED_FACE('',(#102),#35,.T.);
#713=ADVANCED_FACE('',(#103,#24),#674,.T.);
#714=ADVANCED_FACE('',(#104),#675,.T.);
#715=ADVANCED_FACE('',(#105),#676,.T.);
#716=ADVANCED_FACE('',(#106),#36,.T.);
#717=ADVANCED_FACE('',(#107),#677,.T.);
#718=ADVANCED_FACE('',(#108),#37,.T.);
#719=ADVANCED_FACE('',(#109),#678,.T.);
#720=ADVANCED_FACE('',(#110),#38,.T.);
#721=ADVANCED_FACE('',(#111),#679,.T.);
#722=ADVANCED_FACE('',(#112),#39,.T.);
#723=ADVANCED_FACE('',(#113),#680,.T.);
#724=ADVANCED_FACE('',(#114),#40,.T.);
#725=ADVANCED_FACE('',(#115),#681,.T.);
#726=ADVANCED_FACE('',(#116),#41,.T.);
#727=ADVANCED_FACE('',(#117),#682,.T.);
#728=ADVANCED_FACE('',(#118,#25),#683,.T.);
#729=CLOSED_SHELL('',(#684,#685,#686,#687,#688,#689,#690,#691,#692,#693,
#694,#695,#696,#697,#698,#699,#700,#701,#702,#703,#704,#705,#706,#707,#708,
#709,#710,#711,#712,#713,#714,#715,#716,#717,#718,#719,#720,#721,#722,#723,
#724,#725,#726,#727,#728));
#730=DERIVED_UNIT_ELEMENT(#732,1.);
#731=DERIVED_UNIT_ELEMENT(#1251,-3.);
#732=(
MASS_UNIT()
NAMED_UNIT(*)
SI_UNIT(.KILO.,.GRAM.)
);
#733=DERIVED_UNIT((#730,#731));
#734=MEASURE_REPRESENTATION_ITEM('density measure',
POSITIVE_RATIO_MEASURE(7850.),#733);
#735=PROPERTY_DEFINITION_REPRESENTATION(#740,#737);
#736=PROPERTY_DEFINITION_REPRESENTATION(#741,#738);
#737=REPRESENTATION('material name',(#739),#1248);
#738=REPRESENTATION('density',(#734),#1248);
#739=DESCRIPTIVE_REPRESENTATION_ITEM('Steel','Steel');
#740=PROPERTY_DEFINITION('material property','material name',#1258);
#741=PROPERTY_DEFINITION('material property','density of part',#1258);
#742=AXIS2_PLACEMENT_3D('',#1040,#820,#821);
#743=AXIS2_PLACEMENT_3D('',#1041,#822,#823);
#744=AXIS2_PLACEMENT_3D('',#1050,#828,#829);
#745=AXIS2_PLACEMENT_3D('',#1056,#833,#834);
#746=AXIS2_PLACEMENT_3D('',#1062,#838,#839);
#747=AXIS2_PLACEMENT_3D('',#1065,#842,#843);
#748=AXIS2_PLACEMENT_3D('',#1066,#844,#845);
#749=AXIS2_PLACEMENT_3D('',#1075,#850,#851);
#750=AXIS2_PLACEMENT_3D('',#1081,#855,#856);
#751=AXIS2_PLACEMENT_3D('',#1087,#860,#861);
#752=AXIS2_PLACEMENT_3D('',#1090,#864,#865);
#753=AXIS2_PLACEMENT_3D('',#1091,#866,#867);
#754=AXIS2_PLACEMENT_3D('',#1094,#868,#869);
#755=AXIS2_PLACEMENT_3D('',#1098,#871,#872);
#756=AXIS2_PLACEMENT_3D('',#1102,#874,#875);
#757=AXIS2_PLACEMENT_3D('',#1106,#877,#878);
#758=AXIS2_PLACEMENT_3D('',#1108,#880,#881);
#759=AXIS2_PLACEMENT_3D('',#1114,#885,#886);
#760=AXIS2_PLACEMENT_3D('',#1117,#888,#889);
#761=AXIS2_PLACEMENT_3D('',#1118,#890,#891);
#762=AXIS2_PLACEMENT_3D('',#1122,#894,#895);
#763=AXIS2_PLACEMENT_3D('',#1125,#897,#898);
#764=AXIS2_PLACEMENT_3D('',#1126,#899,#900);
#765=AXIS2_PLACEMENT_3D('',#1128,#901,#902);
#766=AXIS2_PLACEMENT_3D('',#1131,#904,#905);
#767=AXIS2_PLACEMENT_3D('',#1132,#906,#907);
#768=AXIS2_PLACEMENT_3D('',#1134,#908,#909);
#769=AXIS2_PLACEMENT_3D('',#1137,#911,#912);
#770=AXIS2_PLACEMENT_3D('',#1138,#913,#914);
#771=AXIS2_PLACEMENT_3D('',#1139,#915,#916);
#772=AXIS2_PLACEMENT_3D('',#1142,#917,#918);
#773=AXIS2_PLACEMENT_3D('',#1146,#920,#921);
#774=AXIS2_PLACEMENT_3D('',#1150,#923,#924);
#775=AXIS2_PLACEMENT_3D('',#1154,#926,#927);
#776=AXIS2_PLACEMENT_3D('',#1157,#929,#930);
#777=AXIS2_PLACEMENT_3D('',#1159,#931,#932);
#778=AXIS2_PLACEMENT_3D('',#1161,#933,#934);
#779=AXIS2_PLACEMENT_3D('',#1162,#935,#936);
#780=AXIS2_PLACEMENT_3D('',#1164,#937,#938);
#781=AXIS2_PLACEMENT_3D('',#1167,#940,#941);
#782=AXIS2_PLACEMENT_3D('',#1168,#942,#943);
#783=AXIS2_PLACEMENT_3D('',#1170,#944,#945);
#784=AXIS2_PLACEMENT_3D('',#1172,#947,#948);
#785=AXIS2_PLACEMENT_3D('',#1173,#949,#950);
#786=AXIS2_PLACEMENT_3D('',#1174,#951,#952);
#787=AXIS2_PLACEMENT_3D('',#1176,#953,#954);
#788=AXIS2_PLACEMENT_3D('',#1179,#956,#957);
#789=AXIS2_PLACEMENT_3D('',#1180,#958,#959);
#790=AXIS2_PLACEMENT_3D('',#1182,#960,#961);
#791=AXIS2_PLACEMENT_3D('',#1184,#963,#964);
#792=AXIS2_PLACEMENT_3D('',#1185,#965,#966);
#793=AXIS2_PLACEMENT_3D('',#1186,#967,#968);
#794=AXIS2_PLACEMENT_3D('',#1188,#969,#970);
#795=AXIS2_PLACEMENT_3D('',#1191,#972,#973);
#796=AXIS2_PLACEMENT_3D('',#1192,#974,#975);
#797=AXIS2_PLACEMENT_3D('',#1194,#976,#977);
#798=AXIS2_PLACEMENT_3D('',#1196,#979,#980);
#799=AXIS2_PLACEMENT_3D('',#1197,#981,#982);
#800=AXIS2_PLACEMENT_3D('',#1198,#983,#984);
#801=AXIS2_PLACEMENT_3D('',#1204,#988,#989);
#802=AXIS2_PLACEMENT_3D('',#1206,#990,#991);
#803=AXIS2_PLACEMENT_3D('',#1208,#993,#994);
#804=AXIS2_PLACEMENT_3D('',#1212,#997,#998);
#805=AXIS2_PLACEMENT_3D('',#1214,#999,#1000);
#806=AXIS2_PLACEMENT_3D('',#1216,#1002,#1003);
#807=AXIS2_PLACEMENT_3D('',#1220,#1006,#1007);
#808=AXIS2_PLACEMENT_3D('',#1222,#1008,#1009);
#809=AXIS2_PLACEMENT_3D('',#1224,#1011,#1012);
#810=AXIS2_PLACEMENT_3D('',#1228,#1015,#1016);
#811=AXIS2_PLACEMENT_3D('',#1229,#1017,#1018);
#812=AXIS2_PLACEMENT_3D('',#1230,#1019,#1020);
#813=AXIS2_PLACEMENT_3D('',#1231,#1021,#1022);
#814=AXIS2_PLACEMENT_3D('',#1233,#1023,#1024);
#815=AXIS2_PLACEMENT_3D('',#1235,#1026,#1027);
#816=AXIS2_PLACEMENT_3D('',#1239,#1030,#1031);
#817=AXIS2_PLACEMENT_3D('',#1241,#1032,#1033);
#818=AXIS2_PLACEMENT_3D('',#1243,#1035,#1036);
#819=AXIS2_PLACEMENT_3D('',#1245,#1038,#1039);
#820=DIRECTION('axis',(0.,0.,1.));
#821=DIRECTION('refdir',(1.,0.,0.));
#822=DIRECTION('center_axis',(1.,0.,0.));
#823=DIRECTION('ref_axis',(0.,1.,0.));
#824=DIRECTION('',(0.,-1.,0.));
#825=DIRECTION('',(0.,0.,1.));
#826=DIRECTION('',(0.,1.,0.));
#827=DIRECTION('',(0.,0.,1.));
#828=DIRECTION('center_axis',(0.,-1.,0.));
#829=DIRECTION('ref_axis',(1.,0.,0.));
#830=DIRECTION('',(-1.,0.,0.));
#831=DIRECTION('',(1.,0.,0.));
#832=DIRECTION('',(0.,0.,1.));
#833=DIRECTION('center_axis',(-1.,0.,0.));
#834=DIRECTION('ref_axis',(0.,-1.,0.));
#835=DIRECTION('',(0.,1.,0.));
#836=DIRECTION('',(0.,-1.,0.));
#837=DIRECTION('',(0.,0.,1.));
#838=DIRECTION('center_axis',(0.,1.,0.));
#839=DIRECTION('ref_axis',(-1.,0.,0.));
#840=DIRECTION('',(1.,0.,0.));
#841=DIRECTION('',(-1.,0.,0.));
#842=DIRECTION('center_axis',(0.,0.,1.));
#843=DIRECTION('ref_axis',(1.,0.,0.));
#844=DIRECTION('center_axis',(-1.,0.,0.));
#845=DIRECTION('ref_axis',(0.,-1.,0.));
#846=DIRECTION('',(0.,1.,0.));
#847=DIRECTION('',(0.,0.,1.));
#848=DIRECTION('',(0.,-1.,0.));
#849=DIRECTION('',(0.,0.,1.));
#850=DIRECTION('center_axis',(0.,1.,0.));
#851=DIRECTION('ref_axis',(-1.,0.,0.));
#852=DIRECTION('',(1.,0.,0.));
#853=DIRECTION('',(-1.,0.,0.));
#854=DIRECTION('',(0.,0.,1.));
#855=DIRECTION('center_axis',(1.,0.,0.));
#856=DIRECTION('ref_axis',(0.,1.,0.));
#857=DIRECTION('',(0.,-1.,0.));
#858=DIRECTION('',(0.,1.,0.));
#859=DIRECTION('',(0.,0.,1.));
#860=DIRECTION('center_axis',(0.,-1.,0.));
#861=DIRECTION('ref_axis',(1.,0.,0.));
#862=DIRECTION('',(-1.,0.,0.));
#863=DIRECTION('',(1.,0.,0.));
#864=DIRECTION('center_axis',(0.,0.,1.));
#865=DIRECTION('ref_axis',(1.,0.,0.));
#866=DIRECTION('center_axis',(0.,0.,1.));
#867=DIRECTION('ref_axis',(1.,0.,0.));
#868=DIRECTION('center_axis',(0.,0.,1.));
#869=DIRECTION('ref_axis',(-1.,0.,0.));
#870=DIRECTION('',(1.83783460749758E-9,-1.,0.));
#871=DIRECTION('center_axis',(0.,0.,1.));
#872=DIRECTION('ref_axis',(0.,1.,0.));
#873=DIRECTION('',(-1.,0.,0.));
#874=DIRECTION('center_axis',(0.,0.,1.));
#875=DIRECTION('ref_axis',(1.,0.,0.));
#876=DIRECTION('',(-9.18917193360914E-10,1.,0.));
#877=DIRECTION('center_axis',(0.,0.,1.));
#878=DIRECTION('ref_axis',(0.,-1.,0.));
#879=DIRECTION('',(1.,-5.90753157704444E-10,0.));
#880=DIRECTION('center_axis',(0.,1.,0.));
#881=DIRECTION('ref_axis',(-1.,0.,0.));
#882=DIRECTION('',(0.,0.,1.));
#883=DIRECTION('',(-1.,0.,0.));
#884=DIRECTION('',(0.,0.,1.));
#885=DIRECTION('center_axis',(0.,0.,1.));
#886=DIRECTION('ref_axis',(0.,1.,0.));
#887=DIRECTION('',(0.,0.,1.));
#888=DIRECTION('center_axis',(0.,0.,1.));
#889=DIRECTION('ref_axis',(0.,1.,0.));
#890=DIRECTION('center_axis',(-1.,-1.83783460749758E-9,0.));
#891=DIRECTION('ref_axis',(1.83783460749758E-9,-1.,0.));
#892=DIRECTION('',(0.,0.,1.));
#893=DIRECTION('',(1.83783460749758E-9,-1.,0.));
#894=DIRECTION('center_axis',(0.,0.,1.));
#895=DIRECTION('ref_axis',(-1.,0.,0.));
#896=DIRECTION('',(0.,0.,1.));
#897=DIRECTION('center_axis',(0.,0.,1.));
#898=DIRECTION('ref_axis',(-1.,0.,0.));
#899=DIRECTION('center_axis',(0.,0.,1.));
#900=DIRECTION('ref_axis',(-1.,0.,0.));
#901=DIRECTION('center_axis',(0.,0.,-1.));
#902=DIRECTION('ref_axis',(-1.,0.,0.));
#903=DIRECTION('',(0.,0.,-1.));
#904=DIRECTION('center_axis',(0.,0.,1.));
#905=DIRECTION('ref_axis',(-1.,0.,0.));
#906=DIRECTION('center_axis',(0.,0.,1.));
#907=DIRECTION('ref_axis',(-1.,0.,0.));
#908=DIRECTION('center_axis',(0.,0.,1.));
#909=DIRECTION('ref_axis',(-1.,0.,0.));
#910=DIRECTION('',(0.,0.,-1.));
#911=DIRECTION('center_axis',(0.,0.,-1.));
#912=DIRECTION('ref_axis',(-1.,0.,0.));
#913=DIRECTION('center_axis',(0.,0.,1.));
#914=DIRECTION('ref_axis',(-1.,0.,0.));
#915=DIRECTION('center_axis',(0.,0.,1.));
#916=DIRECTION('ref_axis',(-1.,0.,0.));
#917=DIRECTION('center_axis',(0.,0.,1.));
#918=DIRECTION('ref_axis',(4.44089209850064E-15,1.,0.));
#919=DIRECTION('',(0.,-1.,0.));
#920=DIRECTION('center_axis',(0.,0.,1.));
#921=DIRECTION('ref_axis',(-1.,4.44089209850066E-15,0.));
#922=DIRECTION('',(1.,0.,0.));
#923=DIRECTION('center_axis',(0.,0.,1.));
#924=DIRECTION('ref_axis',(-2.77555756156289E-16,-1.,0.));
#925=DIRECTION('',(0.,1.,0.));
#926=DIRECTION('center_axis',(0.,0.,1.));
#927=DIRECTION('ref_axis',(1.,-2.77555756156289E-16,0.));
#928=DIRECTION('',(-1.,0.,0.));
#929=DIRECTION('center_axis',(0.,0.,-1.));
#930=DIRECTION('ref_axis',(-1.,0.,0.));
#931=DIRECTION('center_axis',(0.,0.,-1.));
#932=DIRECTION('ref_axis',(-1.,0.,0.));
#933=DIRECTION('center_axis',(0.,0.,-1.));
#934=DIRECTION('ref_axis',(-1.,0.,0.));
#935=DIRECTION('center_axis',(0.,0.,1.));
#936=DIRECTION('ref_axis',(-1.,0.,0.));
#937=DIRECTION('center_axis',(0.,0.,-1.));
#938=DIRECTION('ref_axis',(-1.,0.,0.));
#939=DIRECTION('',(0.,0.,-1.));
#940=DIRECTION('center_axis',(0.,0.,1.));
#941=DIRECTION('ref_axis',(-1.,0.,0.));
#942=DIRECTION('center_axis',(0.,0.,1.));
#943=DIRECTION('ref_axis',(-1.,0.,0.));
#944=DIRECTION('center_axis',(0.,0.,1.));
#945=DIRECTION('ref_axis',(-1.,0.,0.));
#946=DIRECTION('',(0.,0.,-1.));
#947=DIRECTION('center_axis',(0.,0.,1.));
#948=DIRECTION('ref_axis',(-1.,0.,0.));
#949=DIRECTION('center_axis',(0.,0.,1.));
#950=DIRECTION('ref_axis',(-1.,0.,0.));
#951=DIRECTION('center_axis',(0.,0.,1.));
#952=DIRECTION('ref_axis',(-1.,0.,0.));
#953=DIRECTION('center_axis',(0.,0.,-1.));
#954=DIRECTION('ref_axis',(-1.,0.,0.));
#955=DIRECTION('',(0.,0.,-1.));
#956=DIRECTION('center_axis',(0.,0.,1.));
#957=DIRECTION('ref_axis',(-1.,0.,0.));
#958=DIRECTION('center_axis',(0.,0.,1.));
#959=DIRECTION('ref_axis',(-1.,0.,0.));
#960=DIRECTION('center_axis',(0.,0.,1.));
#961=DIRECTION('ref_axis',(-1.,0.,0.));
#962=DIRECTION('',(0.,0.,-1.));
#963=DIRECTION('center_axis',(0.,0.,1.));
#964=DIRECTION('ref_axis',(-1.,0.,0.));
#965=DIRECTION('center_axis',(0.,0.,1.));
#966=DIRECTION('ref_axis',(-1.,0.,0.));
#967=DIRECTION('center_axis',(0.,0.,1.));
#968=DIRECTION('ref_axis',(-1.,0.,0.));
#969=DIRECTION('center_axis',(0.,0.,-1.));
#970=DIRECTION('ref_axis',(-1.,0.,0.));
#971=DIRECTION('',(0.,0.,-1.));
#972=DIRECTION('center_axis',(0.,0.,1.));
#973=DIRECTION('ref_axis',(-1.,0.,0.));
#974=DIRECTION('center_axis',(0.,0.,1.));
#975=DIRECTION('ref_axis',(-1.,0.,0.));
#976=DIRECTION('center_axis',(0.,0.,1.));
#977=DIRECTION('ref_axis',(-1.,0.,0.));
#978=DIRECTION('',(0.,0.,-1.));
#979=DIRECTION('center_axis',(0.,0.,1.));
#980=DIRECTION('ref_axis',(-1.,0.,0.));
#981=DIRECTION('center_axis',(0.,0.,1.));
#982=DIRECTION('ref_axis',(-1.,0.,0.));
#983=DIRECTION('center_axis',(0.,1.,0.));
#984=DIRECTION('ref_axis',(-1.,0.,0.));
#985=DIRECTION('',(1.,0.,0.));
#986=DIRECTION('',(0.,0.,1.));
#987=DIRECTION('',(0.,0.,1.));
#988=DIRECTION('center_axis',(0.,0.,1.));
#989=DIRECTION('ref_axis',(1.,-2.77555756156289E-16,0.));
#990=DIRECTION('center_axis',(0.,0.,-1.));
#991=DIRECTION('ref_axis',(1.,-2.77555756156289E-16,0.));
#992=DIRECTION('',(0.,0.,1.));
#993=DIRECTION('center_axis',(1.,0.,0.));
#994=DIRECTION('ref_axis',(0.,1.,0.));
#995=DIRECTION('',(0.,-1.,0.));
#996=DIRECTION('',(0.,0.,1.));
#997=DIRECTION('center_axis',(0.,0.,1.));
#998=DIRECTION('ref_axis',(-2.77555756156289E-16,-1.,0.));
#999=DIRECTION('center_axis',(0.,0.,-1.));
#1000=DIRECTION('ref_axis',(-2.77555756156289E-16,-1.,0.));
#1001=DIRECTION('',(0.,0.,1.));
#1002=DIRECTION('center_axis',(0.,-1.,0.));
#1003=DIRECTION('ref_axis',(1.,0.,0.));
#1004=DIRECTION('',(-1.,0.,0.));
#1005=DIRECTION('',(0.,0.,1.));
#1006=DIRECTION('center_axis',(0.,0.,1.));
#1007=DIRECTION('ref_axis',(-1.,4.44089209850066E-15,0.));
#1008=DIRECTION('center_axis',(0.,0.,-1.));
#1009=DIRECTION('ref_axis',(-1.,4.44089209850066E-15,0.));
#1010=DIRECTION('',(0.,0.,1.));
#1011=DIRECTION('center_axis',(-1.,0.,0.));
#1012=DIRECTION('ref_axis',(0.,-1.,0.));
#1013=DIRECTION('',(0.,1.,0.));
#1014=DIRECTION('',(0.,0.,1.));
#1015=DIRECTION('center_axis',(0.,0.,1.));
#1016=DIRECTION('ref_axis',(4.44089209850064E-15,1.,0.));
#1017=DIRECTION('center_axis',(0.,0.,-1.));
#1018=DIRECTION('ref_axis',(4.44089209850064E-15,1.,0.));
#1019=DIRECTION('center_axis',(0.,0.,1.));
#1020=DIRECTION('ref_axis',(-1.,0.,0.));
#1021=DIRECTION('center_axis',(0.,0.,1.));
#1022=DIRECTION('ref_axis',(1.,0.,0.));
#1023=DIRECTION('center_axis',(0.,0.,1.));
#1024=DIRECTION('ref_axis',(1.,0.,0.));
#1025=DIRECTION('',(0.,0.,1.));
#1026=DIRECTION('center_axis',(1.,9.18917193360914E-10,0.));
#1027=DIRECTION('ref_axis',(-9.18917193360914E-10,1.,0.));
#1028=DIRECTION('',(-9.18917193360914E-10,1.,0.));
#1029=DIRECTION('',(0.,0.,1.));
#1030=DIRECTION('center_axis',(0.,0.,1.));
#1031=DIRECTION('ref_axis',(0.,-1.,0.));
#1032=DIRECTION('center_axis',(0.,0.,1.));
#1033=DIRECTION('ref_axis',(0.,-1.,0.));
#1034=DIRECTION('',(0.,0.,1.));
#1035=DIRECTION('center_axis',(-5.90753157704444E-10,-1.,0.));
#1036=DIRECTION('ref_axis',(1.,-5.90753157704444E-10,0.));
#1037=DIRECTION('',(1.,-5.90753157704444E-10,0.));
#1038=DIRECTION('center_axis',(0.,0.,1.));
#1039=DIRECTION('ref_axis',(1.,0.,0.));
#1040=CARTESIAN_POINT('',(0.,0.,0.));
#1041=CARTESIAN_POINT('Origin',(-5.00000007450581,-30.0000004470348,6.));
#1042=CARTESIAN_POINT('',(-5.00000007450581,-20.0000002980232,6.));
#1043=CARTESIAN_POINT('',(-5.00000007450581,-30.0000004470348,6.));
#1044=CARTESIAN_POINT('',(-5.00000007450581,-27.6350002514571,6.));
#1045=CARTESIAN_POINT('',(-5.00000007450581,-20.0000002980232,8.));
#1046=CARTESIAN_POINT('',(-5.00000007450581,-20.0000002980232,6.));
#1047=CARTESIAN_POINT('',(-5.00000007450581,-30.0000004470348,8.));
#1048=CARTESIAN_POINT('',(-5.00000007450581,-20.0000002980232,8.));
#1049=CARTESIAN_POINT('',(-5.00000007450581,-30.0000004470348,6.));
#1050=CARTESIAN_POINT('Origin',(-10.0000001490116,-30.0000004470348,6.));
#1051=CARTESIAN_POINT('',(-10.0000001490116,-30.0000004470348,6.));
#1052=CARTESIAN_POINT('',(-23.2650001024455,-30.0000004470348,6.));
#1053=CARTESIAN_POINT('',(-10.0000001490116,-30.0000004470348,8.));
#1054=CARTESIAN_POINT('',(-5.00000007450581,-30.0000004470348,8.));
#1055=CARTESIAN_POINT('',(-10.0000001490116,-30.0000004470348,6.));
#1056=CARTESIAN_POINT('Origin',(-10.0000001490116,-20.0000002980232,6.));
#1057=CARTESIAN_POINT('',(-10.0000001490116,-20.0000002980232,6.));
#1058=CARTESIAN_POINT('',(-10.0000001490116,-22.6350001769513,6.));
#1059=CARTESIAN_POINT('',(-10.0000001490116,-20.0000002980232,8.));
#1060=CARTESIAN_POINT('',(-10.0000001490116,-30.0000004470348,8.));
#1061=CARTESIAN_POINT('',(-10.0000001490116,-20.0000002980232,6.));
#1062=CARTESIAN_POINT('Origin',(-5.00000007450581,-20.0000002980232,6.));
#1063=CARTESIAN_POINT('',(-20.7650000651926,-20.0000002980232,6.));
#1064=CARTESIAN_POINT('',(-10.0000001490116,-20.0000002980232,8.));
#1065=CARTESIAN_POINT('Origin',(-7.50000011175871,-25.000000372529,8.));
#1066=CARTESIAN_POINT('Origin',(-65.0000009685755,-15.0000002235174,6.));
#1067=CARTESIAN_POINT('',(-65.0000009685755,-35.0000005215406,6.));
#1068=CARTESIAN_POINT('',(-65.0000009685755,-15.0000002235174,6.));
#1069=CARTESIAN_POINT('',(-65.0000009685755,-20.1350001396984,6.));
#1070=CARTESIAN_POINT('',(-65.0000009685755,-35.0000005215406,9.));
#1071=CARTESIAN_POINT('',(-65.0000009685755,-35.0000005215406,6.));
#1072=CARTESIAN_POINT('',(-65.0000009685755,-15.0000002235174,9.));
#1073=CARTESIAN_POINT('',(-65.0000009685755,-35.0000005215406,9.));
#1074=CARTESIAN_POINT('',(-65.0000009685755,-15.0000002235174,6.));
#1075=CARTESIAN_POINT('Origin',(-60.0000008940697,-15.0000002235174,6.));
#1076=CARTESIAN_POINT('',(-60.0000008940697,-15.0000002235174,6.));
#1077=CARTESIAN_POINT('',(-48.2650004749745,-15.0000002235174,6.));
#1078=CARTESIAN_POINT('',(-60.0000008940697,-15.0000002235174,9.));
#1079=CARTESIAN_POINT('',(-65.0000009685755,-15.0000002235174,9.));
#1080=CARTESIAN_POINT('',(-60.0000008940697,-15.0000002235174,6.));
#1081=CARTESIAN_POINT('Origin',(-60.0000008940697,-35.0000005215406,6.));
#1082=CARTESIAN_POINT('',(-60.0000008940697,-35.0000005215406,6.));
#1083=CARTESIAN_POINT('',(-60.0000008940697,-30.13500028871,6.));
#1084=CARTESIAN_POINT('',(-60.0000008940697,-35.0000005215406,9.));
#1085=CARTESIAN_POINT('',(-60.0000008940697,-15.0000002235174,9.));
#1086=CARTESIAN_POINT('',(-60.0000008940697,-35.0000005215406,6.));
#1087=CARTESIAN_POINT('Origin',(-65.0000009685755,-35.0000005215406,6.));
#1088=CARTESIAN_POINT('',(-50.7650005122274,-35.0000005215406,6.));
#1089=CARTESIAN_POINT('',(-60.0000008940697,-35.0000005215406,9.));
#1090=CARTESIAN_POINT('Origin',(-62.5000009313226,-25.000000372529,9.));
#1091=CARTESIAN_POINT('Origin',(-36.5300000558794,-25.2700000558794,1.));
#1092=CARTESIAN_POINT('',(-73.0600000745058,-45.54,1.));
#1093=CARTESIAN_POINT('',(-68.06,-50.5400000745058,1.));
#1094=CARTESIAN_POINT('Origin',(-68.06,-45.54,1.));
#1095=CARTESIAN_POINT('',(-73.0600001490116,-5.00000007450581,1.));
#1096=CARTESIAN_POINT('',(-73.0600001303852,-15.1350000987606,1.));
#1097=CARTESIAN_POINT('',(-68.0600000745058,0.,1.));
#1098=CARTESIAN_POINT('Origin',(-68.0600000745058,-5.00000007450581,1.));
#1099=CARTESIAN_POINT('',(-5.00000007450581,0.,1.));
#1100=CARTESIAN_POINT('',(-20.7650000651926,0.,1.));
#1101=CARTESIAN_POINT('',(0.,-5.00000007450581,1.));
#1102=CARTESIAN_POINT('Origin',(-5.00000007450581,-5.00000007450581,1.));
#1103=CARTESIAN_POINT('',(3.72529029846191E-8,-45.5400000372529,1.));
#1104=CARTESIAN_POINT('',(2.79396772384644E-8,-35.4050000297821,1.));
#1105=CARTESIAN_POINT('',(-5.0000000372529,-50.5400001117587,1.));
#1106=CARTESIAN_POINT('Origin',(-5.0000000372529,-45.5400000372529,1.));
#1107=CARTESIAN_POINT('',(-52.2950000354038,-50.5400000838191,1.));
#1108=CARTESIAN_POINT('Origin',(-5.00000007450581,0.,0.));
#1109=CARTESIAN_POINT('',(-68.0600000745058,0.,3.));
#1110=CARTESIAN_POINT('',(-68.0600000745058,0.,0.));
#1111=CARTESIAN_POINT('',(-5.00000007450581,0.,3.));
#1112=CARTESIAN_POINT('',(-5.00000007450581,0.,3.));
#1113=CARTESIAN_POINT('',(-5.00000007450581,0.,0.));
#1114=CARTESIAN_POINT('Origin',(-68.0600000745058,-5.00000007450581,0.));
#1115=CARTESIAN_POINT('',(-73.0600001490116,-5.00000007450581,3.));
#1116=CARTESIAN_POINT('',(-73.0600001490116,-5.00000007450581,0.));
#1117=CARTESIAN_POINT('Origin',(-68.0600000745058,-5.00000007450581,3.));
#1118=CARTESIAN_POINT('Origin',(-73.0600001490116,-5.00000007450581,0.));
#1119=CARTESIAN_POINT('',(-73.0600000745058,-45.54,3.));
#1120=CARTESIAN_POINT('',(-73.0600000745058,-45.54,0.));
#1121=CARTESIAN_POINT('',(-73.0600001490116,-5.00000007450581,3.));
#1122=CARTESIAN_POINT('Origin',(-68.06,-45.54,0.));
#1123=CARTESIAN_POINT('',(-68.06,-50.5400000745058,3.));
#1124=CARTESIAN_POINT('',(-68.06,-50.5400000745058,0.));
#1125=CARTESIAN_POINT('Origin',(-68.06,-45.54,3.));
#1126=CARTESIAN_POINT('Origin',(-66.5300000558794,-4.82000005587936,6.));
#1127=CARTESIAN_POINT('',(-65.2800000558794,-4.82000005587936,11.));
#1128=CARTESIAN_POINT('Origin',(-66.5300000558794,-4.82000005587936,11.));
#1129=CARTESIAN_POINT('',(-65.2800000558794,-4.82000005587936,6.));
#1130=CARTESIAN_POINT('',(-65.2800000558794,-4.82000005587936,6.));
#1131=CARTESIAN_POINT('Origin',(-66.5300000558794,-4.82000005587936,6.));
#1132=CARTESIAN_POINT('Origin',(-66.5300000558794,-4.82000005587936,6.));
#1133=CARTESIAN_POINT('',(-63.5300000558794,-4.82000005587936,11.));
#1134=CARTESIAN_POINT('Origin',(-66.5300000558794,-4.82000005587936,11.));
#1135=CARTESIAN_POINT('',(-63.5300000558794,-4.82000005587936,6.));
#1136=CARTESIAN_POINT('',(-63.5300000558794,-4.82000005587936,6.));
#1137=CARTESIAN_POINT('Origin',(-66.5300000558794,-4.82000005587936,6.));
#1138=CARTESIAN_POINT('Origin',(-66.5300000558794,-4.82000005587936,11.));
#1139=CARTESIAN_POINT('Origin',(-36.5300000558793,-25.2700000558794,6.));
#1140=CARTESIAN_POINT('',(-69.0300000558794,-0.320000055879359,6.));
#1141=CARTESIAN_POINT('',(-71.0300000558794,-2.32000005587936,6.));
#1142=CARTESIAN_POINT('Origin',(-69.0300000558794,-2.32000005587935,6.));
#1143=CARTESIAN_POINT('',(-71.0300000558794,-48.2200000558793,6.));
#1144=CARTESIAN_POINT('',(-71.0300000558794,-2.32000005587936,6.));
#1145=CARTESIAN_POINT('',(-69.0300000558794,-50.2200000558793,6.));
#1146=CARTESIAN_POINT('Origin',(-69.0300000558794,-48.2200000558794,6.));
#1147=CARTESIAN_POINT('',(-4.03000005587935,-50.2200000558794,6.));
#1148=CARTESIAN_POINT('',(-69.0300000558794,-50.2200000558794,6.));
#1149=CARTESIAN_POINT('',(-2.03000005587935,-48.2200000558793,6.));
#1150=CARTESIAN_POINT('Origin',(-4.03000005587935,-48.2200000558794,6.));
#1151=CARTESIAN_POINT('',(-2.03000005587936,-2.32000005587936,6.));
#1152=CARTESIAN_POINT('',(-2.03000005587935,-48.2200000558794,6.));
#1153=CARTESIAN_POINT('',(-4.03000005587935,-0.320000055879359,6.));
#1154=CARTESIAN_POINT('Origin',(-4.03000005587935,-2.32000005587936,6.));
#1155=CARTESIAN_POINT('',(-4.03000005587935,-0.320000055879359,6.));
#1156=CARTESIAN_POINT('',(-63.5300000558794,-45.7200000558794,6.));
#1157=CARTESIAN_POINT('Origin',(-66.5300000558794,-45.7200000558794,6.));
#1158=CARTESIAN_POINT('',(-3.53000005587935,-45.7200000558794,6.));
#1159=CARTESIAN_POINT('Origin',(-6.53000005587935,-45.7200000558794,6.));
#1160=CARTESIAN_POINT('',(-3.53000005587935,-4.82000005587936,6.));
#1161=CARTESIAN_POINT('Origin',(-6.53000005587935,-4.82000005587936,6.));
#1162=CARTESIAN_POINT('Origin',(-66.5300000558794,-45.7200000558794,6.));
#1163=CARTESIAN_POINT('',(-65.2800000558794,-45.7200000558794,11.));
#1164=CARTESIAN_POINT('Origin',(-66.5300000558794,-45.7200000558794,11.));
#1165=CARTESIAN_POINT('',(-65.2800000558794,-45.7200000558794,6.));
#1166=CARTESIAN_POINT('',(-65.2800000558794,-45.7200000558794,6.));
#1167=CARTESIAN_POINT('Origin',(-66.5300000558794,-45.7200000558794,6.));
#1168=CARTESIAN_POINT('Origin',(-66.5300000558794,-45.7200000558794,6.));
#1169=CARTESIAN_POINT('',(-63.5300000558794,-45.7200000558794,11.));
#1170=CARTESIAN_POINT('Origin',(-66.5300000558794,-45.7200000558794,11.));
#1171=CARTESIAN_POINT('',(-63.5300000558794,-45.7200000558794,6.));
#1172=CARTESIAN_POINT('Origin',(-66.5300000558794,-45.7200000558794,11.));
#1173=CARTESIAN_POINT('Origin',(-36.5300000558793,-25.2700000558794,6.));
#1174=CARTESIAN_POINT('Origin',(-6.53000005587935,-4.82000005587936,6.));
#1175=CARTESIAN_POINT('',(-5.28000005587935,-4.82000005587936,11.));
#1176=CARTESIAN_POINT('Origin',(-6.53000005587935,-4.82000005587936,11.));
#1177=CARTESIAN_POINT('',(-5.28000005587935,-4.82000005587936,6.));
#1178=CARTESIAN_POINT('',(-5.28000005587935,-4.82000005587936,6.));
#1179=CARTESIAN_POINT('Origin',(-6.53000005587935,-4.82000005587936,6.));
#1180=CARTESIAN_POINT('Origin',(-6.53000005587935,-4.82000005587936,6.));
#1181=CARTESIAN_POINT('',(-3.53000005587935,-4.82000005587936,11.));
#1182=CARTESIAN_POINT('Origin',(-6.53000005587935,-4.82000005587936,11.));
#1183=CARTESIAN_POINT('',(-3.53000005587935,-4.82000005587936,6.));
#1184=CARTESIAN_POINT('Origin',(-6.53000005587935,-4.82000005587936,11.));
#1185=CARTESIAN_POINT('Origin',(-36.5300000558793,-25.2700000558794,6.));
#1186=CARTESIAN_POINT('Origin',(-6.53000005587935,-45.7200000558794,6.));
#1187=CARTESIAN_POINT('',(-5.28000005587935,-45.7200000558794,11.));
#1188=CARTESIAN_POINT('Origin',(-6.53000005587935,-45.7200000558794,11.));
#1189=CARTESIAN_POINT('',(-5.28000005587935,-45.7200000558794,6.));
#1190=CARTESIAN_POINT('',(-5.28000005587935,-45.7200000558794,6.));
#1191=CARTESIAN_POINT('Origin',(-6.53000005587935,-45.7200000558794,6.));
#1192=CARTESIAN_POINT('Origin',(-6.53000005587935,-45.7200000558794,6.));
#1193=CARTESIAN_POINT('',(-3.53000005587935,-45.7200000558794,11.));
#1194=CARTESIAN_POINT('Origin',(-6.53000005587935,-45.7200000558794,11.));
#1195=CARTESIAN_POINT('',(-3.53000005587935,-45.7200000558794,6.));
#1196=CARTESIAN_POINT('Origin',(-6.53000005587935,-45.7200000558794,11.));
#1197=CARTESIAN_POINT('Origin',(-36.5300000558793,-25.2700000558794,6.));
#1198=CARTESIAN_POINT('Origin',(-4.03000005587935,-0.320000055879359,3.));
#1199=CARTESIAN_POINT('',(-69.0300000558794,-0.320000055879359,3.));
#1200=CARTESIAN_POINT('',(-4.03000005587935,-0.320000055879359,3.));
#1201=CARTESIAN_POINT('',(-20.2800000558794,-0.320000055879359,3.));
#1202=CARTESIAN_POINT('',(-69.0300000558794,-0.320000055879359,3.));
#1203=CARTESIAN_POINT('',(-4.03000005587935,-0.320000055879359,3.));
#1204=CARTESIAN_POINT('Origin',(-4.03000005587935,-2.32000005587936,3.));
#1205=CARTESIAN_POINT('',(-2.03000005587935,-2.32000005587936,3.));
#1206=CARTESIAN_POINT('Origin',(-4.03000005587935,-2.32000005587936,3.));
#1207=CARTESIAN_POINT('',(-2.03000005587935,-2.32000005587936,3.));
#1208=CARTESIAN_POINT('Origin',(-2.03000005587935,-48.2200000558794,3.));
#1209=CARTESIAN_POINT('',(-2.03000005587935,-48.2200000558794,3.));
#1210=CARTESIAN_POINT('',(-2.03000005587935,-36.7450000558794,3.));
#1211=CARTESIAN_POINT('',(-2.03000005587935,-48.2200000558794,3.));
#1212=CARTESIAN_POINT('Origin',(-4.03000005587935,-48.2200000558794,3.));
#1213=CARTESIAN_POINT('',(-4.03000005587935,-50.2200000558794,3.));
#1214=CARTESIAN_POINT('Origin',(-4.03000005587935,-48.2200000558794,3.));
#1215=CARTESIAN_POINT('',(-4.03000005587935,-50.2200000558794,3.));
#1216=CARTESIAN_POINT('Origin',(-69.0300000558794,-50.2200000558794,3.));
#1217=CARTESIAN_POINT('',(-69.0300000558794,-50.2200000558793,3.));
#1218=CARTESIAN_POINT('',(-52.7800000558793,-50.2200000558794,3.));
#1219=CARTESIAN_POINT('',(-69.0300000558794,-50.2200000558793,3.));
#1220=CARTESIAN_POINT('Origin',(-69.0300000558794,-48.2200000558794,3.));
#1221=CARTESIAN_POINT('',(-71.0300000558794,-48.2200000558794,3.));
#1222=CARTESIAN_POINT('Origin',(-69.0300000558794,-48.2200000558794,3.));
#1223=CARTESIAN_POINT('',(-71.0300000558794,-48.2200000558794,3.));
#1224=CARTESIAN_POINT('Origin',(-71.0300000558794,-2.32000005587936,3.));
#1225=CARTESIAN_POINT('',(-71.0300000558794,-2.32000005587936,3.));
#1226=CARTESIAN_POINT('',(-71.0300000558794,-13.7950000558794,3.));
#1227=CARTESIAN_POINT('',(-71.0300000558794,-2.32000005587936,3.));
#1228=CARTESIAN_POINT('Origin',(-69.0300000558794,-2.32000005587935,3.));
#1229=CARTESIAN_POINT('Origin',(-69.0300000558794,-2.32000005587935,3.));
#1230=CARTESIAN_POINT('Origin',(-36.5300000558793,-25.2700000558794,6.));
#1231=CARTESIAN_POINT('Origin',(-5.00000007450581,-5.00000007450581,0.));
#1232=CARTESIAN_POINT('',(0.,-5.00000007450581,3.));
#1233=CARTESIAN_POINT('Origin',(-5.00000007450581,-5.00000007450581,3.));
#1234=CARTESIAN_POINT('',(0.,-5.00000007450581,0.));
#1235=CARTESIAN_POINT('Origin',(3.72529029846191E-8,-45.5400000372529,0.));
#1236=CARTESIAN_POINT('',(3.72529029846191E-8,-45.5400000372529,3.));
#1237=CARTESIAN_POINT('',(3.72529029846191E-8,-45.5400000372529,3.));
#1238=CARTESIAN_POINT('',(3.72529029846191E-8,-45.5400000372529,0.));
#1239=CARTESIAN_POINT('Origin',(-5.0000000372529,-45.5400000372529,0.));
#1240=CARTESIAN_POINT('',(-5.0000000372529,-50.5400001117587,3.));
#1241=CARTESIAN_POINT('Origin',(-5.0000000372529,-45.5400000372529,3.));
#1242=CARTESIAN_POINT('',(-5.0000000372529,-50.5400001117587,0.));
#1243=CARTESIAN_POINT('Origin',(-68.06,-50.5400000745058,0.));
#1244=CARTESIAN_POINT('',(-68.06,-50.5400000745058,3.));
#1245=CARTESIAN_POINT('Origin',(-36.5300000558794,-25.2700000558794,3.));
#1246=UNCERTAINTY_MEASURE_WITH_UNIT(LENGTH_MEASURE(0.01),#1250,
'DISTANCE_ACCURACY_VALUE',
'Maximum model space distance between geometric entities at asserted c
onnectivities');
#1247=UNCERTAINTY_MEASURE_WITH_UNIT(LENGTH_MEASURE(0.01),#1250,
'DISTANCE_ACCURACY_VALUE',
'Maximum model space distance between geometric entities at asserted c
onnectivities');
#1248=(
GEOMETRIC_REPRESENTATION_CONTEXT(3)
GLOBAL_UNCERTAINTY_ASSIGNED_CONTEXT((#1246))
GLOBAL_UNIT_ASSIGNED_CONTEXT((#1250,#1252,#1253))
REPRESENTATION_CONTEXT('','3D')
);
#1249=(
GEOMETRIC_REPRESENTATION_CONTEXT(3)
GLOBAL_UNCERTAINTY_ASSIGNED_CONTEXT((#1247))
GLOBAL_UNIT_ASSIGNED_CONTEXT((#1250,#1252,#1253))
REPRESENTATION_CONTEXT('','3D')
);
#1250=(
LENGTH_UNIT()
NAMED_UNIT(*)
SI_UNIT(.MILLI.,.METRE.)
);
#1251=(
LENGTH_UNIT()
NAMED_UNIT(*)
SI_UNIT($,.METRE.)
);
#1252=(
NAMED_UNIT(*)
PLANE_ANGLE_UNIT()
SI_UNIT($,.RADIAN.)
);
#1253=(
NAMED_UNIT(*)
SI_UNIT($,.STERADIAN.)
SOLID_ANGLE_UNIT()
);
#1254=SHAPE_DEFINITION_REPRESENTATION(#1255,#1256);
#1255=PRODUCT_DEFINITION_SHAPE('',$,#1258);
#1256=SHAPE_REPRESENTATION('',(#742),#1248);
#1257=PRODUCT_DEFINITION_CONTEXT('part definition',#1262,'design');
#1258=PRODUCT_DEFINITION('2.8inch LCD Display Module',
'2.8inch LCD Display Module v1',#1259,#1257);
#1259=PRODUCT_DEFINITION_FORMATION('',$,#1264);
#1260=PRODUCT_RELATED_PRODUCT_CATEGORY('2.8inch LCD Display Module v1',
'2.8inch LCD Display Module v1',(#1264));
#1261=APPLICATION_PROTOCOL_DEFINITION('international standard',
'automotive_design',2009,#1262);
#1262=APPLICATION_CONTEXT(
'Core Data for Automotive Mechanical Design Process');
#1263=PRODUCT_CONTEXT('part definition',#1262,'mechanical');
#1264=PRODUCT('2.8inch LCD Display Module',
'2.8inch LCD Display Module v1',$,(#1263));
#1265=PRESENTATION_STYLE_ASSIGNMENT((#1266));
#1266=SURFACE_STYLE_USAGE(.BOTH.,#1267);
#1267=SURFACE_SIDE_STYLE('',(#1268));
#1268=SURFACE_STYLE_FILL_AREA(#1269);
#1269=FILL_AREA_STYLE('Steel - Satin',(#1270));
#1270=FILL_AREA_STYLE_COLOUR('Steel - Satin',#1271);
#1271=COLOUR_RGB('Steel - Satin',0.627450980392157,0.627450980392157,0.627450980392157);
ENDSEC;
END-ISO-10303-21;
