G04*
G04 #@! TF.GenerationSoftware,Altium Limited,Altium Designer,25.8.1 (18)*
G04*
G04 Layer_Physical_Order=4*
G04 Layer_Color=16711680*
%FSLAX44Y44*%
%MOMM*%
G71*
G04*
G04 #@! TF.SameCoordinates,AE27A26B-8DB4-4DA6-B640-D1B86F1D9442*
G04*
G04*
G04 #@! TF.FilePolarity,Positive*
G04*
G01*
G75*
%ADD12C,0.2540*%
%ADD70C,0.2032*%
%ADD73C,0.3048*%
%ADD136R,1.5000X1.5000*%
%ADD137C,1.5000*%
%ADD138C,1.5300*%
%ADD139R,1.3980X1.3980*%
%ADD140C,1.3980*%
%ADD141C,2.4450*%
%ADD142C,0.6000*%
D12*
X58674Y17107D02*
Y194500D01*
X353822Y54901D02*
X362800Y63879D01*
X353822Y17780D02*
Y54901D01*
X346456Y10414D02*
X353822Y17780D01*
X110330Y10414D02*
X346456D01*
X102100Y18644D02*
X110330Y10414D01*
X102100Y18644D02*
Y48032D01*
X446875Y11518D02*
Y63485D01*
X440182Y4826D02*
X446875Y11518D01*
X366196Y147933D02*
X418240Y95889D01*
X366196Y195760D02*
X373634Y203198D01*
X366196Y147933D02*
Y195760D01*
X360996Y141801D02*
Y204338D01*
X373839Y217182D01*
X360996Y141801D02*
X406908Y95889D01*
X70955Y4826D02*
X440182D01*
X58674Y17107D02*
X70955Y4826D01*
D70*
X157176Y147066D02*
X223266D01*
X239522Y163322D01*
X140200Y130090D02*
X157176Y147066D01*
X234912Y234990D02*
X251620Y251698D01*
X258750D02*
X263144Y247304D01*
X251620Y251698D02*
X258750D01*
X161642Y140030D02*
X234276D01*
X238848Y135458D01*
X152900Y131289D02*
X161642Y140030D01*
X140200Y76968D02*
Y130090D01*
X263144Y113762D02*
Y247304D01*
X251853Y259378D02*
X296723D01*
X306631Y249469D01*
Y109348D02*
Y249469D01*
X106137Y258861D02*
X120647Y244351D01*
X45493Y258861D02*
X106137D01*
X38600Y251968D02*
X45493Y258861D01*
X76700Y251968D02*
X93678Y234990D01*
X102100Y251968D02*
X114523Y239545D01*
X93678Y234990D02*
X234912D01*
X249438Y263686D02*
X299686D01*
X120647Y244351D02*
X230103D01*
X249438Y263686D01*
X299686D02*
X311665Y251707D01*
X232019Y239545D02*
X251853Y259378D01*
X114523Y239545D02*
X232019D01*
X25900Y251968D02*
X48145Y229723D01*
X239809D02*
X252544Y216989D01*
X48145Y229723D02*
X239809D01*
X125253Y294894D02*
X351945D01*
X357124Y280444D02*
Y289715D01*
X351945Y294894D02*
X357124Y289715D01*
X299899Y102616D02*
X306631Y109348D01*
X311665Y102616D02*
Y251707D01*
X469685Y93872D02*
Y187120D01*
X457672Y81859D02*
X469685Y93872D01*
X346456Y81859D02*
X457672D01*
X353381Y200856D02*
Y214203D01*
X369178Y230000D01*
X346456Y193931D02*
X353381Y200856D01*
X29408Y67776D02*
X38600Y76968D01*
X5080Y71228D02*
X8532Y67776D01*
X29408D01*
X5080Y71228D02*
Y286258D01*
X127500Y76968D02*
Y128952D01*
X161870Y163322D02*
X228346D01*
X127500Y128952D02*
X161870Y163322D01*
X237280Y223032D02*
X247247Y213065D01*
X114800Y223032D02*
X237280D01*
X247247Y130629D02*
Y213065D01*
X252544Y102616D02*
Y216989D01*
X254000Y244094D02*
X257702Y240392D01*
Y107660D02*
Y240392D01*
X274289Y102616D02*
X287588D01*
X263144Y113762D02*
X274289Y102616D01*
X257702Y107660D02*
X262746Y102616D01*
X241388Y124771D02*
X247247Y130629D01*
X13716Y294894D02*
X125253D01*
X121920Y291561D02*
X125253Y294894D01*
X121920Y281940D02*
Y291561D01*
X5080Y286258D02*
X13716Y294894D01*
X346456Y205869D02*
Y216546D01*
X364606Y234696D02*
X553974D01*
X346456Y216546D02*
X364606Y234696D01*
X369178Y230000D02*
X556390D01*
X682244Y254762D02*
X696245Y240761D01*
Y126445D02*
Y240761D01*
X678950Y109150D02*
X696245Y126445D01*
X553974Y234696D02*
X574040Y254762D01*
X682244D01*
X556390Y230000D02*
X576580Y250190D01*
X679704D01*
X691896Y237998D01*
X678950Y190850D02*
X691896Y203796D01*
Y237998D01*
X152900Y76968D02*
Y131289D01*
D73*
X541050Y143600D02*
X542771Y145321D01*
X549461D02*
X558379Y154239D01*
X564389D01*
X566450Y156300D01*
X542771Y145321D02*
X549461D01*
D136*
X230886Y26162D02*
D03*
X336296D02*
D03*
X45720Y281940D02*
D03*
D137*
X256286Y26162D02*
D03*
X310896D02*
D03*
X147320Y281940D02*
D03*
X71120D02*
D03*
X96520D02*
D03*
X121920D02*
D03*
X172720D02*
D03*
D138*
X678950Y216250D02*
D03*
Y83750D02*
D03*
Y109150D02*
D03*
Y190850D02*
D03*
D139*
X566450Y105500D02*
D03*
D140*
X541050Y118200D02*
D03*
X566450Y130900D02*
D03*
X541050Y143600D02*
D03*
X566450Y156300D02*
D03*
X541050Y169000D02*
D03*
X566450Y181700D02*
D03*
X541050Y194400D02*
D03*
D141*
X599450Y72550D02*
D03*
Y227450D02*
D03*
D142*
X76400Y130500D02*
D03*
Y144500D02*
D03*
X83400Y123500D02*
D03*
Y137500D02*
D03*
Y151500D02*
D03*
X90400Y130500D02*
D03*
Y144500D02*
D03*
X97400Y123500D02*
D03*
Y137500D02*
D03*
Y151500D02*
D03*
X104400Y130500D02*
D03*
Y144500D02*
D03*
X76700Y251968D02*
D03*
X102100D02*
D03*
X332657Y218890D02*
D03*
X176332Y207200D02*
D03*
X202145Y280524D02*
D03*
X288419Y280670D02*
D03*
X58674Y194500D02*
D03*
X30226Y189334D02*
D03*
X176332Y181800D02*
D03*
X152900D02*
D03*
X141926D02*
D03*
X470588Y262810D02*
D03*
Y278890D02*
D03*
X299022Y184186D02*
D03*
Y176728D02*
D03*
X346456Y81859D02*
D03*
X278892Y64436D02*
D03*
X271519D02*
D03*
X461750Y103682D02*
D03*
X418240Y95889D02*
D03*
X386182Y144964D02*
D03*
X321161Y180313D02*
D03*
X314142Y68834D02*
D03*
X165600Y92837D02*
D03*
X176332Y92900D02*
D03*
X446875Y63485D02*
D03*
X362800Y63879D02*
D03*
X505372Y67456D02*
D03*
X212090Y153222D02*
D03*
X199186Y251714D02*
D03*
X225563D02*
D03*
X360792Y103588D02*
D03*
Y94624D02*
D03*
X234636Y102616D02*
D03*
X119979Y181800D02*
D03*
X130952D02*
D03*
X30226Y200308D02*
D03*
Y178360D02*
D03*
Y167386D02*
D03*
X119300Y103811D02*
D03*
Y92837D02*
D03*
X165600Y103811D02*
D03*
X452515Y112777D02*
D03*
X441541D02*
D03*
X430567D02*
D03*
X419594D02*
D03*
X541627Y50546D02*
D03*
X552600D02*
D03*
X563574D02*
D03*
X574548D02*
D03*
X165600Y27495D02*
D03*
X140200Y27308D02*
D03*
X114800D02*
D03*
X89400D02*
D03*
X362800Y15487D02*
D03*
X362714Y30876D02*
D03*
X428750Y144964D02*
D03*
X414561D02*
D03*
X400371D02*
D03*
X357124Y271046D02*
D03*
X332657Y246890D02*
D03*
X574548Y17018D02*
D03*
X563574D02*
D03*
X552600D02*
D03*
X541627D02*
D03*
X571636Y271653D02*
D03*
X560662D02*
D03*
X549688D02*
D03*
X538714D02*
D03*
X644629D02*
D03*
X655602D02*
D03*
X666576D02*
D03*
X677550D02*
D03*
X10883Y30560D02*
D03*
Y40212D02*
D03*
X302386Y68834D02*
D03*
X373634Y203198D02*
D03*
X346456Y205869D02*
D03*
X373634Y187198D02*
D03*
X250953Y55681D02*
D03*
X469685Y187120D02*
D03*
Y203120D02*
D03*
X373839Y217182D02*
D03*
X469739Y218488D02*
D03*
X470588Y246890D02*
D03*
X254000Y244094D02*
D03*
X271308Y251765D02*
D03*
X165600Y251968D02*
D03*
X178300D02*
D03*
X293308Y246380D02*
D03*
X406908Y95889D02*
D03*
X152900Y76968D02*
D03*
X140200D02*
D03*
X127500D02*
D03*
X422300Y67536D02*
D03*
X421679Y50212D02*
D03*
X193001Y31546D02*
D03*
Y18742D02*
D03*
X278892Y144526D02*
D03*
X287114Y136304D02*
D03*
X270670Y152748D02*
D03*
X229849Y214579D02*
D03*
X673354Y17526D02*
D03*
X673608Y28871D02*
D03*
Y40217D02*
D03*
Y51562D02*
D03*
X293308Y210054D02*
D03*
X143151Y255539D02*
D03*
X152900Y251968D02*
D03*
X238106Y202358D02*
D03*
X210660Y132498D02*
D03*
X228346Y163322D02*
D03*
X239522D02*
D03*
X314142Y86420D02*
D03*
X335956Y68305D02*
D03*
X13200Y76968D02*
D03*
X25900D02*
D03*
X38600D02*
D03*
X102100Y48032D02*
D03*
X114800Y223032D02*
D03*
X38600Y251968D02*
D03*
X25900D02*
D03*
X13200D02*
D03*
X311665Y102616D02*
D03*
X299899D02*
D03*
X287588D02*
D03*
X252544D02*
D03*
X262746D02*
D03*
X241388Y124771D02*
D03*
X238848Y135458D02*
D03*
X373634Y278888D02*
D03*
Y246888D02*
D03*
X40002Y27050D02*
D03*
X32718D02*
D03*
X10883Y16082D02*
D03*
X346456Y193931D02*
D03*
Y182120D02*
D03*
X212090Y181422D02*
D03*
X377930Y103870D02*
D03*
X222471Y132498D02*
D03*
X210660Y91020D02*
D03*
X242599Y88345D02*
D03*
Y77495D02*
D03*
X421679Y36369D02*
D03*
Y22526D02*
D03*
X503975Y52498D02*
D03*
Y37512D02*
D03*
Y22526D02*
D03*
X512992Y278810D02*
D03*
Y262810D02*
D03*
Y246810D02*
D03*
X490689Y201470D02*
D03*
Y214080D02*
D03*
X346456Y121081D02*
D03*
Y138560D02*
D03*
Y150749D02*
D03*
Y168656D02*
D03*
X357124Y280444D02*
D03*
M02*
