G04*
G04 #@! TF.GenerationSoftware,Altium Limited,Altium Designer,25.8.1 (18)*
G04*
G04 Layer_Physical_Order=1*
G04 Layer_Color=255*
%FSLAX44Y44*%
%MOMM*%
G71*
G04*
G04 #@! TF.SameCoordinates,AE27A26B-8DB4-4DA6-B640-D1B86F1D9442*
G04*
G04*
G04 #@! TF.FilePolarity,Positive*
G04*
G01*
G75*
%ADD12C,0.2540*%
%ADD26R,0.4572X0.6350*%
%ADD27R,0.7620X0.8890*%
%ADD28R,0.9000X1.5000*%
%ADD29R,0.6350X0.4572*%
%ADD30R,0.8200X0.9200*%
%ADD31R,1.4000X1.8200*%
G04:AMPARAMS|DCode=32|XSize=1mm|YSize=1mm|CornerRadius=0mm|HoleSize=0mm|Usage=FLASHONLY|Rotation=90.000|XOffset=0mm|YOffset=0mm|HoleType=Round|Shape=Octagon|*
%AMOCTAGOND32*
4,1,8,0.2500,0.5000,-0.2500,0.5000,-0.5000,0.2500,-0.5000,-0.2500,-0.2500,-0.5000,0.2500,-0.5000,0.5000,-0.2500,0.5000,0.2500,0.2500,0.5000,0.0*
%
%ADD32OCTAGOND32*%

G04:AMPARAMS|DCode=33|XSize=0.2393mm|YSize=0.9611mm|CornerRadius=0.1196mm|HoleSize=0mm|Usage=FLASHONLY|Rotation=270.000|XOffset=0mm|YOffset=0mm|HoleType=Round|Shape=RoundedRectangle|*
%AMROUNDEDRECTD33*
21,1,0.2393,0.7218,0,0,270.0*
21,1,0.0000,0.9611,0,0,270.0*
1,1,0.2393,-0.3609,0.0000*
1,1,0.2393,-0.3609,0.0000*
1,1,0.2393,0.3609,0.0000*
1,1,0.2393,0.3609,0.0000*
%
%ADD33ROUNDEDRECTD33*%
%ADD34R,0.2393X0.9611*%
%ADD35R,1.6000X1.0000*%
G04:AMPARAMS|DCode=36|XSize=0.9611mm|YSize=0.2393mm|CornerRadius=0.1196mm|HoleSize=0mm|Usage=FLASHONLY|Rotation=270.000|XOffset=0mm|YOffset=0mm|HoleType=Round|Shape=RoundedRectangle|*
%AMROUNDEDRECTD36*
21,1,0.9611,0.0000,0,0,270.0*
21,1,0.7218,0.2393,0,0,270.0*
1,1,0.2393,0.0000,-0.3609*
1,1,0.2393,0.0000,0.3609*
1,1,0.2393,0.0000,0.3609*
1,1,0.2393,0.0000,-0.3609*
%
%ADD36ROUNDEDRECTD36*%
%ADD37R,0.8200X1.7200*%
%ADD38R,0.9000X0.8000*%
%ADD39R,0.8890X0.7620*%
%ADD40R,1.4000X1.2000*%
%ADD41R,1.5240X1.7780*%
%ADD42R,0.9000X0.9000*%
%ADD43R,1.5000X0.9000*%
%ADD53R,2.6000X2.6000*%
%ADD70C,0.2032*%
%ADD71C,0.3810*%
%ADD72C,0.5080*%
%ADD73C,0.3048*%
%ADD74R,1.0883X0.6350*%
%ADD75R,0.6350X1.2551*%
%ADD76R,0.6350X1.2641*%
%ADD77R,0.6238X0.4572*%
%ADD78R,0.4572X5.2193*%
%ADD79R,1.7936X0.4572*%
%ADD80R,2.8056X1.2500*%
%ADD81R,2.8056X1.2688*%
%ADD82R,0.8890X1.7604*%
%ADD83R,1.8161X0.4572*%
%ADD84R,0.7532X0.6350*%
%ADD85R,0.5004X0.8349*%
%ADD86R,0.9000X2.1968*%
%ADD87R,0.9000X2.5107*%
%ADD88R,0.6350X1.0441*%
%ADD89R,2.6170X4.1910*%
%ADD90R,0.6350X0.7532*%
%ADD91R,0.9000X2.1968*%
%ADD92R,0.9000X2.6192*%
%ADD93R,0.9000X2.5133*%
%ADD94R,2.4740X0.9000*%
%ADD95R,0.9000X2.5209*%
%ADD96R,0.9000X2.5818*%
%ADD97R,0.9000X2.5209*%
%ADD98R,0.9000X2.5361*%
%ADD99R,0.9000X2.5151*%
%ADD100R,0.9000X2.5385*%
%ADD101R,1.4000X2.8988*%
%ADD102R,1.4000X1.6436*%
%ADD103R,1.3716X0.8890*%
%ADD104R,2.5625X1.0000*%
%ADD105R,2.3116X1.0000*%
%ADD106R,1.9812X0.6350*%
%ADD107R,1.0707X0.6350*%
%ADD108R,1.2966X0.9200*%
%ADD109R,1.3244X0.9200*%
%ADD110R,1.0726X0.6350*%
%ADD111R,0.9056X0.6350*%
%ADD112R,1.8025X0.4572*%
%ADD113R,0.6350X0.7532*%
%ADD114R,1.0364X0.6350*%
%ADD115R,0.6350X0.9246*%
%ADD116R,1.0587X0.6350*%
%ADD117R,2.7540X1.7200*%
%ADD118R,0.8200X2.1204*%
%ADD119R,1.0000X1.9121*%
%ADD120R,0.6350X2.0463*%
%ADD121R,1.6814X0.6350*%
%ADD122R,2.0605X0.6350*%
%ADD123R,0.4572X1.8960*%
%ADD124R,2.7353X2.4105*%
%ADD125R,0.7620X1.9872*%
%ADD126R,2.3115X0.5334*%
%ADD127R,2.5164X0.4572*%
%ADD128R,2.7831X0.4572*%
%ADD129R,0.4572X1.7201*%
%ADD130R,2.4163X1.2000*%
%ADD131R,0.6350X1.4328*%
%ADD132R,1.8012X0.4598*%
%ADD133R,1.9000X0.6350*%
%ADD134R,1.9454X0.8890*%
%ADD135R,0.6350X1.7535*%
%ADD136R,1.5000X1.5000*%
%ADD137C,1.5000*%
%ADD138C,1.5300*%
%ADD139R,1.3980X1.3980*%
%ADD140C,1.3980*%
%ADD141C,2.4450*%
%ADD142C,0.6000*%
G36*
X148117Y295910D02*
X145519Y293312D01*
X144902Y292388D01*
X144685Y291298D01*
X144685Y291298D01*
Y290839D01*
X143739Y290586D01*
X141623Y289364D01*
X139896Y287637D01*
X138674Y285521D01*
X138042Y283162D01*
Y280718D01*
X138674Y278359D01*
X139896Y276243D01*
X141623Y274516D01*
X143739Y273294D01*
X146098Y272662D01*
X148541D01*
X150901Y273294D01*
X153017Y274516D01*
X154744Y276243D01*
X155966Y278359D01*
X156598Y280718D01*
Y283162D01*
X155966Y285521D01*
X154744Y287637D01*
X153017Y289364D01*
X152224Y289822D01*
X152030Y291127D01*
X152858Y292045D01*
X211608D01*
X213940Y289713D01*
Y285397D01*
X212725D01*
Y285303D01*
X211455Y284740D01*
Y285397D01*
X209852D01*
X209677Y285432D01*
X202145D01*
X201493Y285302D01*
X201195D01*
X199438Y284575D01*
X198094Y283231D01*
X197367Y281475D01*
Y279574D01*
X198094Y277818D01*
X199438Y276474D01*
X201195Y275746D01*
X201224D01*
X201451Y275594D01*
X202145Y275456D01*
X209677D01*
X209852Y275491D01*
X211455D01*
Y276148D01*
X212725Y275586D01*
Y275491D01*
X213940D01*
Y267499D01*
X211164Y264723D01*
X183300D01*
X183300Y264723D01*
X182209Y264506D01*
X181285Y263888D01*
X181285Y263888D01*
X176286Y258889D01*
X175668Y257965D01*
X175481Y257022D01*
X173800D01*
X173106Y256884D01*
X172518Y256491D01*
X171382D01*
X171112Y256672D01*
X170794Y256884D01*
X170100Y257022D01*
X161100D01*
X160406Y256884D01*
X159818Y256491D01*
X158682D01*
X158412Y256672D01*
X158094Y256884D01*
X157400Y257022D01*
X148400D01*
X147761Y256895D01*
X147202Y258246D01*
X145858Y259590D01*
X144102Y260317D01*
X144073D01*
X143845Y260469D01*
X143151Y260607D01*
X135619D01*
X135444Y260572D01*
X133841D01*
Y259915D01*
X132571Y260478D01*
Y260572D01*
X124443D01*
Y258468D01*
X117975D01*
X117975Y258468D01*
X116885Y258251D01*
X115961Y257634D01*
X115961Y257634D01*
X112786Y254459D01*
X112168Y253535D01*
X111951Y252444D01*
X111951Y252444D01*
Y246813D01*
X110300D01*
X110125Y246778D01*
X108522Y246778D01*
X108413Y248003D01*
Y255361D01*
X108275Y256055D01*
X107882Y256643D01*
X107294Y257036D01*
X106600Y257174D01*
X97600D01*
X96906Y257036D01*
X96318Y256643D01*
X95925Y256055D01*
X95787Y255361D01*
Y248003D01*
X95678Y246778D01*
X94517Y246778D01*
X83122Y246778D01*
X83013Y248003D01*
Y255151D01*
X82875Y255844D01*
X82482Y256433D01*
X81894Y256826D01*
X81200Y256964D01*
X72200D01*
X71506Y256826D01*
X70918Y256433D01*
X70525Y255844D01*
X70387Y255151D01*
Y248003D01*
X70278Y246778D01*
X68653Y246778D01*
X67755Y247676D01*
Y261335D01*
X73775Y267355D01*
X74589Y268573D01*
X74875Y270010D01*
Y273395D01*
X76817Y274516D01*
X78544Y276243D01*
X79766Y278359D01*
X80398Y280718D01*
Y283162D01*
X79766Y285521D01*
X78544Y287637D01*
X76817Y289364D01*
X74701Y290586D01*
X72341Y291218D01*
X69899D01*
X67539Y290586D01*
X65423Y289364D01*
X63696Y287637D01*
X62474Y285521D01*
X61842Y283162D01*
Y280718D01*
X62474Y278359D01*
X63696Y276243D01*
X65423Y274516D01*
X67365Y273395D01*
Y271565D01*
X61345Y265545D01*
X60531Y264327D01*
X60245Y262890D01*
Y247676D01*
X59347Y246778D01*
X57722Y246778D01*
X56452Y246778D01*
X55055D01*
Y262890D01*
X54769Y264327D01*
X53955Y265545D01*
X49475Y270025D01*
Y272662D01*
X54998D01*
Y291218D01*
X36442D01*
Y272662D01*
X41965D01*
Y268470D01*
X42251Y267033D01*
X43065Y265815D01*
X47545Y261335D01*
Y247676D01*
X46647Y246778D01*
X45022Y246778D01*
X44913Y248003D01*
Y255385D01*
X44775Y256079D01*
X44382Y256667D01*
X43794Y257060D01*
X43100Y257198D01*
X34100D01*
X33406Y257060D01*
X32818Y256667D01*
X31682D01*
X31411Y256847D01*
X31094Y257060D01*
X30400Y257198D01*
X21400D01*
X20706Y257060D01*
X20118Y256667D01*
X19725Y256079D01*
X19587Y255385D01*
Y230000D01*
X19622Y229825D01*
Y228222D01*
X21225D01*
X21400Y228187D01*
X30400D01*
X30575Y228222D01*
X32178Y228222D01*
X33925Y228222D01*
X34100Y228187D01*
X43100D01*
X43275Y228222D01*
X44878Y228222D01*
X46148Y228222D01*
X56452D01*
X57578Y228222D01*
X58848Y228222D01*
X69152D01*
X70278Y228222D01*
X72025Y228222D01*
X72200Y228187D01*
X81200D01*
X81375Y228222D01*
X82978Y228222D01*
X84248Y228222D01*
X94552D01*
X95678Y228222D01*
X97425Y228222D01*
X97600Y228187D01*
X106600D01*
X106775Y228222D01*
X108378Y228222D01*
X108487Y226997D01*
Y219182D01*
X108625Y218488D01*
X109018Y217900D01*
X109606Y217507D01*
X110300Y217369D01*
X119300D01*
X119994Y217507D01*
X120582Y217900D01*
X120975Y218488D01*
X121113Y219182D01*
Y226997D01*
X121222Y228222D01*
X122383Y228222D01*
X132652D01*
X133778Y228222D01*
X135048Y228222D01*
X145352D01*
X146478Y228222D01*
X148225Y228222D01*
X148400Y228187D01*
X157400D01*
X157575Y228222D01*
X159178Y228222D01*
X160925Y228222D01*
X161100Y228187D01*
X162751D01*
Y224798D01*
X162751Y224798D01*
X162968Y223708D01*
X163586Y222784D01*
X166642Y219728D01*
X166642Y219728D01*
X167566Y219110D01*
X168656Y218893D01*
X168656Y218893D01*
X207618D01*
X207618Y218893D01*
X208708Y219110D01*
X209632Y219728D01*
X212834Y222930D01*
X213452Y223854D01*
X213669Y224944D01*
X213669Y224944D01*
Y230712D01*
X214209D01*
X217598Y234101D01*
Y240879D01*
X214209Y244268D01*
X207431D01*
X204042Y240879D01*
Y234101D01*
X207431Y230712D01*
X207971D01*
Y226124D01*
X206438Y224591D01*
X169836D01*
X168449Y225978D01*
Y228187D01*
X170100D01*
X170275Y228222D01*
X171878Y228222D01*
X173625Y228222D01*
X173800Y228187D01*
X182800D01*
X182975Y228222D01*
X184578D01*
Y229825D01*
X184613Y230000D01*
Y255209D01*
X184475Y255903D01*
X184082Y256491D01*
X183878Y256627D01*
X183582Y257849D01*
X183610Y258156D01*
X184480Y259025D01*
X212344D01*
X212344Y259025D01*
X213434Y259242D01*
X214358Y259860D01*
X218803Y264305D01*
X218803Y264305D01*
X219421Y265229D01*
X219638Y266319D01*
Y275491D01*
X220853D01*
Y276345D01*
X238742D01*
Y270292D01*
X250498D01*
X251297Y269353D01*
Y248146D01*
X251294Y248145D01*
X249949Y246800D01*
X249222Y245044D01*
Y244417D01*
X249158Y244094D01*
Y233653D01*
X249193Y233478D01*
Y231875D01*
X249206D01*
X249715Y230605D01*
X249193D01*
Y229390D01*
X245683D01*
Y234629D01*
X242295Y238018D01*
X235516D01*
X232127Y234629D01*
Y227851D01*
X235516Y224462D01*
X242162D01*
X242990Y223909D01*
X244080Y223692D01*
X244080Y223692D01*
X249158D01*
Y220722D01*
X248557D01*
Y208276D01*
X259734D01*
Y211131D01*
X266320D01*
Y201409D01*
X266355Y201234D01*
Y199631D01*
X267013D01*
X266450Y198361D01*
X266355D01*
Y190233D01*
X268543D01*
Y171558D01*
X268188Y171247D01*
X267273Y170748D01*
X266392Y170923D01*
X265231Y170692D01*
X264248Y170035D01*
X263590Y169051D01*
X263359Y167890D01*
Y167595D01*
X258500D01*
X252549Y173546D01*
Y183599D01*
X254653D01*
Y185253D01*
X254688Y185428D01*
Y190026D01*
X254653Y190201D01*
Y191727D01*
X253438D01*
X252875Y191838D01*
X234863D01*
X234559Y191778D01*
X233073D01*
Y190138D01*
X233050Y190026D01*
Y185428D01*
X233073Y185316D01*
Y183650D01*
X234688D01*
X234863Y183615D01*
X244748D01*
Y183599D01*
X246852D01*
Y172366D01*
X246852Y172366D01*
X247069Y171276D01*
X247686Y170352D01*
X255306Y162732D01*
X256230Y162114D01*
X257320Y161897D01*
X257321Y161897D01*
X262326D01*
X262495Y161598D01*
X262271Y160482D01*
X261906Y160059D01*
X255528D01*
X254603Y159875D01*
X249538D01*
X244076Y165336D01*
X243776Y165537D01*
X243573Y166028D01*
X242229Y167373D01*
X240472Y168100D01*
X238572D01*
X236815Y167373D01*
X235471Y166028D01*
X234744Y164272D01*
Y162372D01*
X235196Y161281D01*
X234119Y160562D01*
X232885Y161795D01*
X233124Y162372D01*
Y164272D01*
X232397Y166028D01*
X231052Y167373D01*
X229296Y168100D01*
X227396D01*
X225639Y167373D01*
X224295Y166028D01*
X223568Y164272D01*
Y162372D01*
X224295Y160616D01*
X225639Y159271D01*
X227396Y158544D01*
X228079D01*
X235420Y151203D01*
X234894Y149933D01*
X227504D01*
Y151206D01*
X225901D01*
X225726Y151241D01*
X218268D01*
Y164746D01*
X218233Y164921D01*
Y166524D01*
X216630D01*
X216455Y166559D01*
X207565D01*
X207390Y166524D01*
X205787D01*
Y164921D01*
X205752Y164746D01*
Y149428D01*
Y144856D01*
X205787Y144681D01*
Y143078D01*
X207390D01*
X207565Y143043D01*
X225726D01*
X225901Y143078D01*
X227504D01*
Y144235D01*
X230350D01*
X230877Y142965D01*
X229126Y141214D01*
X228508Y140290D01*
X228291Y139200D01*
X228291Y139200D01*
Y117512D01*
X219419Y108640D01*
X215693D01*
Y109728D01*
X215205D01*
X215197Y109740D01*
X214609Y110133D01*
X213915Y110271D01*
X200976D01*
X200078Y111169D01*
Y111878D01*
X200078Y113148D01*
Y123452D01*
X200078Y124578D01*
X200078Y125848D01*
Y136152D01*
X200078Y137278D01*
X200078Y138548D01*
Y148852D01*
X200078Y149978D01*
X200078Y151248D01*
Y161552D01*
X200078Y162678D01*
X200078Y163948D01*
Y174252D01*
X200078Y175378D01*
X200078Y176648D01*
Y186952D01*
X200078Y188078D01*
X200078Y189348D01*
Y199652D01*
X200078Y200778D01*
X200078Y202525D01*
X200113Y202700D01*
Y204161D01*
X204042D01*
Y203621D01*
X207431Y200232D01*
X214209D01*
X217598Y203621D01*
Y210399D01*
X214209Y213788D01*
X207431D01*
X204042Y210399D01*
Y209859D01*
X200113D01*
Y211700D01*
X200078Y211875D01*
Y213478D01*
X198475D01*
X198300Y213513D01*
X173560D01*
X172866Y213375D01*
X172278Y212982D01*
X171885Y212394D01*
X171747Y211700D01*
Y208617D01*
X171554Y208150D01*
Y206250D01*
X171747Y205783D01*
Y202700D01*
X171885Y202006D01*
X172278Y201418D01*
X172866Y201025D01*
X173560Y200887D01*
X180297D01*
X181522Y200778D01*
X181522Y198506D01*
X180624Y197608D01*
X62323D01*
X61381Y198551D01*
X59624Y199278D01*
X57724D01*
X55967Y198551D01*
X54623Y197206D01*
X53896Y195450D01*
Y193550D01*
X54623Y191793D01*
X55967Y190449D01*
X57724Y189722D01*
X59624D01*
X61381Y190449D01*
X62323Y191392D01*
X180624D01*
X181522Y190494D01*
X181522Y188222D01*
X181522Y186952D01*
Y185026D01*
X180864Y184726D01*
X180252Y184637D01*
X179039Y185851D01*
X177282Y186578D01*
X175382D01*
X173626Y185851D01*
X172424Y184649D01*
X166335D01*
X166335Y184649D01*
X165245Y184432D01*
X164320Y183814D01*
X164320Y183814D01*
X155386Y174880D01*
X154768Y173956D01*
X154551Y172865D01*
X154551Y172865D01*
Y88293D01*
X154551Y88292D01*
X154768Y87202D01*
X155386Y86278D01*
X158878Y82785D01*
X158094Y81782D01*
X157400Y81920D01*
X148400D01*
X147706Y81782D01*
X147118Y81389D01*
X145982D01*
X145711Y81570D01*
X145394Y81782D01*
X144700Y81920D01*
X135700D01*
X135006Y81782D01*
X134418Y81389D01*
X133282D01*
X133012Y81570D01*
X132694Y81782D01*
X132000Y81920D01*
X123000D01*
X122306Y81782D01*
X121718Y81389D01*
X121325Y80801D01*
X121187Y80107D01*
Y73003D01*
X121078Y71778D01*
X119917Y71778D01*
X109648D01*
X108522Y71778D01*
X106775Y71778D01*
X106600Y71813D01*
X97600D01*
X97425Y71778D01*
X95822Y71778D01*
X94552Y71778D01*
X84248D01*
X83122Y71778D01*
X81852Y71778D01*
X71548D01*
X70422Y71778D01*
X69152Y71778D01*
X57722D01*
Y71778D01*
X57578D01*
Y71778D01*
X45022Y71778D01*
X44913Y73003D01*
Y81192D01*
X44775Y81886D01*
X44382Y82474D01*
X43794Y82867D01*
X43100Y83005D01*
X34100D01*
X33406Y82867D01*
X32818Y82474D01*
X31682D01*
X31094Y82867D01*
X30400Y83005D01*
X21400D01*
X20706Y82867D01*
X20118Y82474D01*
X19725Y81886D01*
X19587Y81192D01*
Y76968D01*
Y55000D01*
Y47439D01*
Y27308D01*
X19725Y26614D01*
X20118Y26026D01*
X20706Y25633D01*
X21400Y25495D01*
X24365D01*
X24462Y11545D01*
X24532Y11205D01*
X24599Y10863D01*
X24603Y10858D01*
X24604Y10852D01*
X24800Y10564D01*
X24992Y10275D01*
X24998Y10272D01*
X25001Y10266D01*
X25293Y10075D01*
X25581Y9882D01*
X25587Y9881D01*
X25592Y9877D01*
X25934Y9812D01*
X26274Y9744D01*
X43531D01*
X44225Y9882D01*
X44813Y10275D01*
X45206Y10863D01*
X45344Y11557D01*
Y37211D01*
X45206Y37905D01*
X44813Y38493D01*
X44225Y38886D01*
X43531Y39024D01*
X43561Y40259D01*
X43561D01*
Y41862D01*
X43596Y42037D01*
Y52324D01*
X44494Y53222D01*
X48713Y53222D01*
Y11938D01*
X48713Y11938D01*
X48930Y10848D01*
X49548Y9924D01*
X55661Y3810D01*
X55135Y2540D01*
X2540D01*
Y297180D01*
X147591D01*
X148117Y295910D01*
D02*
G37*
G36*
X697230Y231394D02*
X616755D01*
X616493Y231656D01*
Y241808D01*
X616355Y242502D01*
X615962Y243090D01*
X613168Y245884D01*
X612580Y246277D01*
X611886Y246415D01*
X586740D01*
X586046Y246277D01*
X585458Y245884D01*
X585301Y245649D01*
X582605Y242953D01*
X582212Y242365D01*
X582074Y241671D01*
Y231323D01*
X581891Y231140D01*
X552565D01*
Y217367D01*
X509397D01*
Y218953D01*
X507794D01*
X507619Y218988D01*
X503047D01*
X502872Y218953D01*
X501269D01*
Y218859D01*
X499999Y218296D01*
Y218953D01*
X498396D01*
X498221Y218988D01*
X487634D01*
X486940Y218850D01*
X486352Y218457D01*
X485959Y217869D01*
X485821Y217175D01*
Y210825D01*
X485959Y210131D01*
X486352Y209543D01*
X486940Y209150D01*
X487634Y209012D01*
X498221D01*
X498396Y209047D01*
X499964D01*
X499999Y209047D01*
X501234Y208963D01*
Y198215D01*
X501269Y198040D01*
Y196437D01*
X502872D01*
X503047Y196402D01*
X507619D01*
X507794Y196437D01*
X509397D01*
Y198040D01*
X509432Y198215D01*
Y210633D01*
X552565D01*
Y191168D01*
X548040Y186643D01*
X523240D01*
Y186491D01*
X485140D01*
X484050Y186274D01*
X483126Y185656D01*
X483126Y185656D01*
X471664Y174195D01*
X471664Y174195D01*
X461483Y164014D01*
X350367D01*
X349841Y165284D01*
X350507Y165949D01*
X351234Y167706D01*
Y169606D01*
X350507Y171362D01*
X349162Y172707D01*
X347406Y173434D01*
X347377D01*
X347150Y173586D01*
X346456Y173724D01*
X338924D01*
X338749Y173689D01*
X337146D01*
Y173032D01*
X335876Y173595D01*
Y173689D01*
X329841D01*
X329355Y174863D01*
X331739Y177247D01*
X335876D01*
Y187153D01*
X327748D01*
Y181314D01*
X319889Y173454D01*
X315929D01*
X315929Y173454D01*
X314839Y173238D01*
X313915Y172620D01*
X313915Y172620D01*
X301353Y160059D01*
X299289D01*
Y168329D01*
X301318Y170357D01*
X308608D01*
X309301Y170495D01*
X309890Y170888D01*
X311474Y172472D01*
X311866Y173060D01*
X312004Y173754D01*
Y186216D01*
X311866Y186910D01*
X311474Y187498D01*
X309694Y189277D01*
X309106Y189671D01*
X308412Y189809D01*
X300886D01*
X300208Y191078D01*
X300264Y191162D01*
X327748D01*
Y189058D01*
X335876D01*
Y189153D01*
X337146Y189716D01*
Y189058D01*
X338749D01*
X338924Y189023D01*
X346456D01*
X347108Y189153D01*
X347406D01*
X349162Y189880D01*
X350507Y191224D01*
X351234Y192980D01*
Y194881D01*
X350507Y196637D01*
X349162Y197981D01*
X347406Y198709D01*
X347377D01*
X347150Y198861D01*
X346456Y198999D01*
X338924D01*
X338749Y198964D01*
X337146D01*
Y198306D01*
X335876Y198869D01*
Y198964D01*
X331659D01*
X331176Y200083D01*
X331912Y200996D01*
X335876D01*
Y201091D01*
X337146Y201654D01*
Y200996D01*
X338749D01*
X338924Y200961D01*
X346456D01*
X347108Y201091D01*
X347406D01*
X349162Y201818D01*
X350507Y203162D01*
X351234Y204918D01*
Y206819D01*
X350507Y208575D01*
X349162Y209919D01*
X347406Y210647D01*
X347377D01*
X347150Y210799D01*
X346456Y210937D01*
X338924D01*
X338749Y210902D01*
X337146D01*
Y210244D01*
X335876Y210807D01*
Y210902D01*
X327748D01*
Y205025D01*
X327150Y204427D01*
X297477D01*
X297477Y204427D01*
X296387Y204210D01*
X295462Y203592D01*
X295462Y203592D01*
X279378Y187508D01*
X278760Y186584D01*
X278543Y185493D01*
X278543Y185493D01*
Y171558D01*
X278188Y171247D01*
X277273Y170748D01*
X276392Y170923D01*
X275511Y170748D01*
X274596Y171247D01*
X274241Y171558D01*
Y190233D01*
X276261D01*
Y198361D01*
X276167D01*
X275604Y199631D01*
X276261D01*
Y201234D01*
X276296Y201409D01*
Y211131D01*
X278308D01*
X278483Y211166D01*
X280086D01*
Y212769D01*
X280121Y212944D01*
Y224944D01*
X280086Y225119D01*
Y226722D01*
X278483D01*
X278308Y226757D01*
X259133D01*
Y228827D01*
X259098Y229002D01*
Y230605D01*
X259085D01*
X258576Y231875D01*
X259098D01*
Y233478D01*
X259133Y233653D01*
Y244094D01*
X258995Y244788D01*
X258703Y245225D01*
X258051Y246800D01*
X256994Y247857D01*
Y277331D01*
X256994Y277331D01*
X256777Y278421D01*
X256160Y279345D01*
X256160Y279345D01*
X252821Y282684D01*
X251896Y283302D01*
X250806Y283519D01*
X250498Y284724D01*
Y291048D01*
X238742D01*
Y284543D01*
X220853D01*
Y285397D01*
X219638D01*
Y290893D01*
X219638Y290893D01*
X219421Y291983D01*
X218803Y292907D01*
X218803Y292907D01*
X215801Y295910D01*
X216327Y297180D01*
X697230D01*
Y231394D01*
D02*
G37*
G36*
X180864Y178874D02*
X181522Y178574D01*
X181522Y175522D01*
X181522Y174252D01*
Y163948D01*
X181522Y162822D01*
X181522Y161552D01*
Y151248D01*
X181522Y150122D01*
X181522Y148852D01*
Y138548D01*
X181522Y137422D01*
X181522Y136152D01*
Y125848D01*
X181522Y124722D01*
X181522Y123452D01*
Y113148D01*
X181522Y112022D01*
X181522Y110752D01*
Y99322D01*
X200078D01*
Y101311D01*
X205090D01*
X205787Y100330D01*
X205787Y100041D01*
Y98727D01*
X205752Y98552D01*
Y91020D01*
X205882Y90368D01*
Y90070D01*
X206609Y88314D01*
X207953Y86969D01*
X209709Y86242D01*
X211610D01*
X213366Y86969D01*
X214710Y88314D01*
X215438Y90070D01*
Y90099D01*
X215590Y90326D01*
X215728Y91020D01*
Y98552D01*
X215693Y98727D01*
Y100330D01*
X215693Y100330D01*
Y101600D01*
Y101600D01*
X215693Y101600D01*
Y102942D01*
X220599D01*
X220599Y102942D01*
X221689Y103159D01*
X222613Y103777D01*
X233154Y114318D01*
X233154Y114318D01*
X233772Y115242D01*
X233989Y116332D01*
X233989Y116332D01*
Y131764D01*
X235259Y132290D01*
X236141Y131408D01*
X237898Y130680D01*
X239798D01*
X241555Y131408D01*
X242663Y132515D01*
X243343Y132550D01*
X243896Y131307D01*
X242137Y129549D01*
X240438D01*
X238682Y128821D01*
X237337Y127477D01*
X236610Y125721D01*
Y123820D01*
X237337Y122064D01*
X238682Y120720D01*
X240438Y119993D01*
X242338D01*
X244095Y120720D01*
X245439Y122064D01*
X246166Y123820D01*
Y125520D01*
X249823Y129177D01*
X254603D01*
X255528Y128993D01*
X262187D01*
X262956Y128590D01*
X263359Y127821D01*
Y121162D01*
X263543Y120237D01*
Y118012D01*
X252925Y107394D01*
X251593D01*
X249837Y106667D01*
X248493Y105323D01*
X247766Y103566D01*
Y101666D01*
X248493Y99909D01*
X249837Y98565D01*
X251593Y97838D01*
X253494D01*
X255250Y98565D01*
X256594Y99909D01*
X256957Y100786D01*
X258332D01*
X258695Y99909D01*
X260039Y98565D01*
X261795Y97838D01*
X263696D01*
X265033Y98392D01*
X265752Y97315D01*
X261710Y93273D01*
X258513D01*
X258513Y93273D01*
X258412Y93253D01*
X254957D01*
X254782Y93218D01*
X253179D01*
Y91615D01*
X253144Y91440D01*
Y82538D01*
X251911Y82448D01*
X251874Y82448D01*
X243783D01*
Y82402D01*
X242599D01*
X241947Y82273D01*
X241648D01*
X239892Y81545D01*
X238548Y80201D01*
X237821Y78445D01*
Y76544D01*
X238548Y74788D01*
X239892Y73444D01*
X241648Y72717D01*
X241677D01*
X241905Y72565D01*
X242599Y72427D01*
X250131D01*
X250709Y72542D01*
X251911D01*
Y72544D01*
X253181Y73106D01*
Y72542D01*
X254378D01*
X254957Y72427D01*
X259529D01*
X260107Y72542D01*
X261309D01*
Y74077D01*
X261341Y74239D01*
Y87575D01*
X262890D01*
X262890Y87575D01*
X263980Y87792D01*
X264904Y88410D01*
X265116Y88622D01*
X266386Y88096D01*
Y60701D01*
X266524Y60008D01*
X266917Y59419D01*
X267505Y59026D01*
X268199Y58888D01*
X282199D01*
X282893Y59026D01*
X283481Y59419D01*
X283874Y60008D01*
X284012Y60701D01*
Y89689D01*
X283977Y89865D01*
Y91467D01*
X282374D01*
X282199Y91502D01*
X269793D01*
X269267Y92772D01*
X278406Y101912D01*
X278406Y101912D01*
X279024Y102836D01*
X279241Y103926D01*
X279241Y103926D01*
Y105139D01*
X280511Y105665D01*
X282810Y103365D01*
Y101666D01*
X283538Y99909D01*
X284882Y98565D01*
X286638Y97838D01*
X288539D01*
X290295Y98565D01*
X291639Y99909D01*
X292366Y101666D01*
Y103566D01*
X291831Y104860D01*
X292907Y105579D01*
X295121Y103365D01*
Y101666D01*
X295849Y99909D01*
X297193Y98565D01*
X298949Y97838D01*
X300849D01*
X302606Y98565D01*
X303950Y99909D01*
X304677Y101666D01*
Y102052D01*
X305947Y102578D01*
X306906Y101619D01*
X307614Y99909D01*
X308958Y98565D01*
X310714Y97838D01*
X312615D01*
X314035Y98426D01*
X315305Y97840D01*
Y96628D01*
X310179Y91502D01*
X295399D01*
X295224Y91467D01*
X293621D01*
Y89865D01*
X293586Y89689D01*
Y65584D01*
X293724Y64890D01*
X294117Y64302D01*
X294705Y63909D01*
X295399Y63771D01*
X295586D01*
Y61468D01*
X295621Y61293D01*
Y58079D01*
X298019Y55681D01*
X297493Y54411D01*
X282956D01*
X281866Y54194D01*
X280942Y53576D01*
X280942Y53576D01*
X278982Y51617D01*
X234833D01*
X233735Y52715D01*
Y55722D01*
X234275D01*
X237664Y59111D01*
Y65889D01*
X234275Y69278D01*
X227497D01*
X224108Y65889D01*
Y59111D01*
X227497Y55722D01*
X228037D01*
Y51617D01*
X171752D01*
X171528Y51952D01*
X171691Y52542D01*
X172207Y53222D01*
X173625Y53222D01*
X173800Y53187D01*
X182800D01*
X182975Y53222D01*
X184578D01*
Y54825D01*
X184613Y55000D01*
Y59651D01*
X203962D01*
Y59111D01*
X207351Y55722D01*
X214129D01*
X217518Y59111D01*
Y65889D01*
X214129Y69278D01*
X207351D01*
X203962Y65889D01*
Y65349D01*
X184613D01*
Y76968D01*
X184475Y77662D01*
X184082Y78250D01*
X183494Y78643D01*
X182800Y78781D01*
X182080D01*
X181149Y79500D01*
X180932Y80590D01*
X180314Y81514D01*
X180314Y81514D01*
X175814Y86014D01*
X174890Y86632D01*
X173800Y86849D01*
X173800Y86849D01*
X162872D01*
X160249Y89472D01*
Y171685D01*
X167515Y178951D01*
X172424D01*
X173626Y177749D01*
X175382Y177022D01*
X177282D01*
X179039Y177749D01*
X180252Y178963D01*
X180864Y178874D01*
D02*
G37*
G36*
X310192Y186216D02*
Y173754D01*
X308608Y172170D01*
X300567D01*
X297477Y169080D01*
Y160059D01*
X295038D01*
X293878Y159828D01*
X293351Y159476D01*
X290196D01*
Y179803D01*
X298388Y187996D01*
X308412D01*
X310192Y186216D01*
D02*
G37*
G36*
X285231Y157871D02*
X286392Y157640D01*
X287148Y157790D01*
X288418Y157698D01*
X288418Y157698D01*
X288418Y157698D01*
X290021D01*
X290196Y157663D01*
X291483D01*
X292006Y157026D01*
X292237Y155865D01*
X292517Y155446D01*
X292789Y154526D01*
X292517Y153606D01*
X292237Y153187D01*
X292006Y152026D01*
X292237Y150865D01*
X292894Y149882D01*
Y149170D01*
X292237Y148187D01*
X292006Y147026D01*
X292237Y145865D01*
X292894Y144882D01*
Y144170D01*
X292237Y143187D01*
X292006Y142026D01*
X292237Y140865D01*
X292517Y140446D01*
X292789Y139526D01*
X292517Y138606D01*
X292237Y138187D01*
X292006Y137026D01*
X292237Y135865D01*
X292894Y134882D01*
Y134170D01*
X292237Y133187D01*
X292006Y132026D01*
X290854Y131305D01*
X290231Y131181D01*
X289248Y130524D01*
X288536D01*
X287553Y131181D01*
X286392Y131412D01*
X285231Y131181D01*
X284248Y130524D01*
X283536D01*
X282553Y131181D01*
X281392Y131412D01*
X280231Y131181D01*
X279248Y130524D01*
X278536D01*
X277553Y131181D01*
X276392Y131412D01*
X275231Y131181D01*
X274248Y130524D01*
X273536D01*
X272553Y131181D01*
X271392Y131412D01*
X270231Y131181D01*
X269248Y130524D01*
X268536D01*
X267553Y131181D01*
X266930Y131305D01*
X265778Y132026D01*
X265547Y133187D01*
X264890Y134170D01*
Y134882D01*
X265547Y135865D01*
X265778Y137026D01*
X265547Y138187D01*
X265267Y138606D01*
X264995Y139526D01*
X265267Y140446D01*
X265547Y140865D01*
X265778Y142026D01*
X265547Y143187D01*
X264890Y144170D01*
Y144882D01*
X265547Y145865D01*
X265778Y147026D01*
X265547Y148187D01*
X264890Y149170D01*
Y149882D01*
X265547Y150865D01*
X265778Y152026D01*
X265547Y153187D01*
X265267Y153606D01*
X264995Y154526D01*
X265267Y155446D01*
X265547Y155865D01*
X265778Y157026D01*
X266930Y157747D01*
X267553Y157871D01*
X268536Y158528D01*
X269248D01*
X270231Y157871D01*
X271392Y157640D01*
X272553Y157871D01*
X273536Y158528D01*
X274248D01*
X275231Y157871D01*
X276392Y157640D01*
X277553Y157871D01*
X278536Y158528D01*
X279248D01*
X280231Y157871D01*
X281392Y157640D01*
X282553Y157871D01*
X283536Y158528D01*
X284248D01*
X285231Y157871D01*
D02*
G37*
G36*
X495249Y177217D02*
X495735Y177016D01*
X495936Y176530D01*
X495956D01*
Y168845D01*
X495887D01*
X496380Y166367D01*
X497783Y164267D01*
X499883Y162863D01*
X502361Y162371D01*
X504839Y162863D01*
X506939Y164267D01*
X508343Y166367D01*
X508835Y168845D01*
X508766D01*
Y175045D01*
X510002Y175539D01*
X510180Y175385D01*
Y168845D01*
X510111D01*
X510603Y166367D01*
X512007Y164267D01*
X514108Y162863D01*
X516585Y162371D01*
X519063Y162863D01*
X521163Y164267D01*
X521970Y165474D01*
X523240Y165089D01*
Y134643D01*
X521541D01*
Y134674D01*
X518955Y134333D01*
X516545Y133335D01*
X514476Y131747D01*
X512888Y129678D01*
X511890Y127268D01*
X511550Y124682D01*
X511580D01*
Y114046D01*
X510344Y113552D01*
X510166Y113707D01*
Y124682D01*
X510196D01*
X509856Y127268D01*
X508858Y129678D01*
X507270Y131747D01*
X505201Y133335D01*
X502791Y134333D01*
X500205Y134674D01*
Y134643D01*
X351092D01*
X350507Y135853D01*
X351234Y137609D01*
Y139510D01*
X350507Y141266D01*
X349162Y142610D01*
X347406Y143338D01*
X347377D01*
X347150Y143490D01*
X346456Y143628D01*
X338924D01*
X338749Y143593D01*
X337146D01*
Y142936D01*
X335876Y143499D01*
Y143593D01*
X327748D01*
Y134657D01*
X322341D01*
X313679Y143318D01*
X312755Y143936D01*
X311868Y144112D01*
X311615Y144667D01*
X311543Y145423D01*
X312008Y145734D01*
X321035Y154761D01*
X327748D01*
Y145877D01*
X335876D01*
Y145971D01*
X337146Y146534D01*
Y145877D01*
X338749D01*
X338924Y145842D01*
X346456D01*
X347108Y145971D01*
X347406D01*
X349162Y146699D01*
X350507Y148043D01*
X351234Y149799D01*
Y151700D01*
X350507Y153456D01*
X350375Y153587D01*
X350861Y154761D01*
X464136D01*
X464136Y154761D01*
X465227Y154978D01*
X466151Y155595D01*
X487793Y177237D01*
X495249D01*
Y177217D01*
D02*
G37*
G36*
X523240Y68580D02*
X582930D01*
X584927Y66583D01*
Y54610D01*
X585065Y53916D01*
X585458Y53328D01*
X625082Y13704D01*
X625602Y13184D01*
Y12192D01*
X627205D01*
X627380Y12157D01*
X642620D01*
X642795Y12192D01*
X644398D01*
Y13795D01*
X644433Y13970D01*
Y55880D01*
X644398Y56055D01*
Y57658D01*
X642795D01*
X642620Y57693D01*
X622289D01*
X613699Y66283D01*
Y66329D01*
X615950Y68580D01*
X697230D01*
Y2540D01*
X431783D01*
X431257Y3810D01*
X437116Y9670D01*
X437116Y9670D01*
X437734Y10594D01*
X437951Y11684D01*
X437951Y11684D01*
Y75782D01*
X439897Y77728D01*
X441833D01*
Y76513D01*
X441833D01*
X441894Y75243D01*
X441833D01*
Y74453D01*
X441682Y74227D01*
X441544Y73533D01*
Y68961D01*
X441682Y68267D01*
X441798Y68094D01*
Y60588D01*
X441936Y59895D01*
X442329Y59307D01*
X442917Y58914D01*
X443611Y58776D01*
X445759D01*
X445924Y58707D01*
X447825D01*
X447990Y58776D01*
X449961D01*
X450655Y58914D01*
X451243Y59307D01*
X451636Y59895D01*
X451774Y60588D01*
Y67148D01*
X455357D01*
Y62936D01*
X455495Y62242D01*
X455888Y61654D01*
X456476Y61261D01*
X457170Y61123D01*
X462118D01*
Y19431D01*
X462153Y19256D01*
Y17653D01*
X463756D01*
X463931Y17618D01*
X468503D01*
X468678Y17653D01*
X470281D01*
X470281Y17653D01*
X471535Y17668D01*
X471551Y17653D01*
Y17653D01*
X471805Y17618D01*
X491617D01*
X491792Y17653D01*
X493395D01*
Y18310D01*
X494665Y17747D01*
Y17653D01*
X496268D01*
X496443Y17618D01*
X507326D01*
X508020Y17756D01*
X508608Y18149D01*
X509001Y18737D01*
X509139Y19431D01*
Y25781D01*
X509001Y26475D01*
X508608Y27063D01*
X508020Y27456D01*
X507326Y27594D01*
X496443D01*
X496268Y27559D01*
X494665D01*
Y27465D01*
X493395Y26902D01*
Y27559D01*
X491792D01*
X491617Y27594D01*
X472807D01*
X471805Y27594D01*
X471551Y27559D01*
X470517Y28207D01*
X470506Y28213D01*
X470316Y28452D01*
Y31746D01*
X470506Y31985D01*
X470517Y31991D01*
X471551Y32639D01*
X471805Y32604D01*
X472782Y32604D01*
X491617D01*
X491792Y32639D01*
X493395D01*
Y33296D01*
X494665Y32733D01*
Y32639D01*
X496268D01*
X496443Y32604D01*
X507326D01*
X508020Y32742D01*
X508608Y33135D01*
X509001Y33723D01*
X509139Y34417D01*
Y40767D01*
X509001Y41461D01*
X508608Y42049D01*
X508020Y42442D01*
X507326Y42580D01*
X496443D01*
X496268Y42545D01*
X494665D01*
Y42451D01*
X493395Y41888D01*
Y42545D01*
X491792D01*
X491617Y42580D01*
X472807D01*
X471805Y42580D01*
X471551Y42545D01*
X470517Y43193D01*
X470506Y43199D01*
X470316Y43438D01*
Y46732D01*
X470506Y46971D01*
X470517Y46977D01*
X471551Y47625D01*
X471805Y47590D01*
X472782Y47590D01*
X491617D01*
X491792Y47625D01*
X493395D01*
Y48282D01*
X494665Y47719D01*
Y47625D01*
X496268D01*
X496443Y47590D01*
X507326D01*
X508020Y47728D01*
X508608Y48121D01*
X509001Y48709D01*
X509139Y49403D01*
Y55753D01*
X509001Y56447D01*
X508608Y57035D01*
X508020Y57428D01*
X507326Y57566D01*
X496443D01*
X496268Y57531D01*
X494665D01*
Y57437D01*
X493395Y56874D01*
Y57531D01*
X491792D01*
X491617Y57566D01*
X472807D01*
X471805Y57566D01*
X471551Y57531D01*
X470517Y58179D01*
X470506Y58185D01*
X470316Y58424D01*
Y61123D01*
X485226D01*
X485401Y61158D01*
X487004D01*
Y62761D01*
X487039Y62936D01*
Y75436D01*
X486901Y76130D01*
X486508Y76718D01*
X485920Y77111D01*
X485226Y77249D01*
X457170D01*
X456995Y77214D01*
X455392D01*
Y75611D01*
X455357Y75436D01*
Y75346D01*
X451987D01*
X451739Y76513D01*
X451739Y76616D01*
Y81595D01*
X453009Y82268D01*
X453460Y81967D01*
X454649Y81730D01*
X484748D01*
Y81158D01*
X486351D01*
X486526Y81123D01*
X494726D01*
X494901Y81158D01*
X496504D01*
Y82761D01*
X496539Y82936D01*
Y99784D01*
X497506Y100751D01*
Y107529D01*
X494117Y110918D01*
X487339D01*
X483950Y107529D01*
Y100751D01*
X484713Y99988D01*
Y87945D01*
X455936D01*
X445795Y98087D01*
X444787Y98760D01*
X443598Y98997D01*
X421890D01*
X420947Y99940D01*
X419191Y100667D01*
X417290D01*
X415534Y99940D01*
X414190Y98596D01*
X413989Y98111D01*
X412719Y98363D01*
Y99784D01*
X413686Y100751D01*
Y107529D01*
X410297Y110918D01*
X403519D01*
X400130Y107529D01*
Y100751D01*
X400893Y99988D01*
Y82936D01*
X400928Y82761D01*
Y81158D01*
X402531D01*
X402706Y81123D01*
X410906D01*
X411081Y81158D01*
X412684D01*
Y82761D01*
X412719Y82936D01*
Y93415D01*
X413989Y93667D01*
X414190Y93182D01*
X415534Y91838D01*
X417290Y91111D01*
X419191D01*
X420947Y91838D01*
X421890Y92781D01*
X442311D01*
X449277Y85814D01*
X448792Y84641D01*
X441833D01*
Y83426D01*
X438717D01*
X438717Y83426D01*
X437627Y83209D01*
X436703Y82591D01*
X436703Y82591D01*
X433088Y78976D01*
X432470Y78052D01*
X432253Y76962D01*
X432253Y76962D01*
Y12864D01*
X427064Y7675D01*
X285279D01*
X282376Y10578D01*
Y13709D01*
X283591D01*
Y13723D01*
X284861Y14231D01*
Y13709D01*
X286464D01*
X286639Y13674D01*
X318073D01*
X318767Y13812D01*
X319355Y14205D01*
X321926Y16776D01*
X322319Y17364D01*
X322457Y18058D01*
Y33566D01*
X322319Y34259D01*
X321926Y34848D01*
X321664Y35110D01*
X322150Y36283D01*
X324202D01*
X326983Y33502D01*
Y18662D01*
X327018Y18487D01*
Y16884D01*
X328621D01*
X328796Y16849D01*
X343796D01*
X343971Y16884D01*
X345574D01*
Y18487D01*
X345609Y18662D01*
Y33662D01*
X345574Y33837D01*
Y35440D01*
X344582D01*
X338530Y41492D01*
X339016Y42665D01*
X342625D01*
X342625Y42665D01*
X343715Y42882D01*
X344639Y43499D01*
X353804Y52664D01*
X354422Y53589D01*
X354639Y54679D01*
X354639Y54679D01*
Y74766D01*
X356489Y76616D01*
X357759Y76581D01*
Y76581D01*
X357853D01*
X358416Y75311D01*
X357759D01*
Y73708D01*
X357724Y73533D01*
Y60892D01*
X357862Y60198D01*
X358255Y59610D01*
X358843Y59217D01*
X359537Y59079D01*
X365887D01*
X366581Y59217D01*
X367169Y59610D01*
X367562Y60198D01*
X367700Y60892D01*
Y67148D01*
X371537D01*
Y62936D01*
X371675Y62242D01*
X372068Y61654D01*
X372656Y61261D01*
X373350Y61123D01*
X378298D01*
Y19431D01*
X378333Y19256D01*
Y17653D01*
X379936D01*
X380111Y17618D01*
X384683D01*
X384858Y17653D01*
X386461D01*
Y17667D01*
X387731Y18175D01*
Y17653D01*
X389334D01*
X389509Y17618D01*
X409321D01*
X409496Y17653D01*
X411099D01*
Y18310D01*
X412369Y17747D01*
Y17653D01*
X413972D01*
X414147Y17618D01*
X425030D01*
X425724Y17756D01*
X426312Y18149D01*
X426705Y18737D01*
X426843Y19431D01*
Y25781D01*
X426705Y26475D01*
X426312Y27063D01*
X425724Y27456D01*
X425030Y27594D01*
X414147D01*
X413972Y27559D01*
X412369D01*
Y27465D01*
X411099Y26902D01*
Y27559D01*
X409496D01*
X409321Y27594D01*
X389509D01*
X389334Y27559D01*
X387766D01*
X387731Y27559D01*
X386496Y27643D01*
Y31412D01*
X387731Y31496D01*
X387766Y31496D01*
X389334D01*
X389509Y31461D01*
X409321D01*
X409496Y31496D01*
X411099D01*
Y32153D01*
X412369Y31590D01*
Y31496D01*
X413972D01*
X414147Y31461D01*
X425030D01*
X425724Y31599D01*
X426312Y31992D01*
X426705Y32580D01*
X426843Y33274D01*
Y39624D01*
X426705Y40318D01*
X426312Y40906D01*
X425724Y41299D01*
X425030Y41437D01*
X414147D01*
X413972Y41402D01*
X412369D01*
Y41308D01*
X411099Y40745D01*
Y41402D01*
X409496D01*
X409321Y41437D01*
X389509D01*
X389334Y41402D01*
X387766D01*
X387731Y41402D01*
X386496Y41486D01*
Y45255D01*
X387731Y45339D01*
X387766Y45339D01*
X389334D01*
X389509Y45304D01*
X409321D01*
X409496Y45339D01*
X411099D01*
Y45996D01*
X412369Y45433D01*
Y45339D01*
X413972D01*
X414147Y45304D01*
X425030D01*
X425724Y45442D01*
X426312Y45835D01*
X426705Y46423D01*
X426843Y47117D01*
Y53467D01*
X426705Y54161D01*
X426312Y54749D01*
X425724Y55142D01*
X425030Y55280D01*
X414147D01*
X413972Y55245D01*
X412369D01*
Y55151D01*
X411099Y54588D01*
Y55245D01*
X409496D01*
X409321Y55280D01*
X389509D01*
X389334Y55245D01*
X387766D01*
X387731Y55245D01*
X386496Y55329D01*
Y61123D01*
X401406D01*
X401581Y61158D01*
X403184D01*
Y62761D01*
X403219Y62936D01*
Y75624D01*
X403081Y76318D01*
X402688Y76906D01*
X402100Y77299D01*
X401406Y77437D01*
X373350D01*
X373175Y77402D01*
X371572D01*
Y75799D01*
X371537Y75624D01*
Y75346D01*
X367749D01*
X367665Y76581D01*
X367665Y76616D01*
Y84709D01*
X357759D01*
Y83494D01*
X356489D01*
X356489Y83494D01*
X355399Y83277D01*
X354475Y82659D01*
X354475Y82659D01*
X352407Y80592D01*
X352129Y80667D01*
X351234Y81215D01*
Y82810D01*
X350507Y84566D01*
X349162Y85910D01*
X347406Y86637D01*
X345506D01*
X343750Y85910D01*
X342405Y84566D01*
X341678Y82810D01*
Y80909D01*
X342405Y79153D01*
X343607Y77951D01*
Y58898D01*
X339120Y54411D01*
X307305D01*
X306779Y55681D01*
X309177Y58079D01*
Y61293D01*
X309212Y61468D01*
Y63771D01*
X324143D01*
X324837Y63909D01*
X325425Y64302D01*
X325818Y64890D01*
X325956Y65584D01*
Y88034D01*
X328706Y90784D01*
X329099Y91372D01*
X329237Y92066D01*
Y112522D01*
X329099Y113216D01*
X328706Y113804D01*
X327447Y115064D01*
X328097Y116209D01*
X335876D01*
Y116303D01*
X337146Y116866D01*
Y116209D01*
X338749D01*
X338924Y116174D01*
X346456D01*
X347108Y116304D01*
X347406D01*
X349162Y117031D01*
X350507Y118375D01*
X351234Y120131D01*
Y122032D01*
X350507Y123788D01*
X350175Y124119D01*
X350701Y125389D01*
X351116D01*
X351116Y125389D01*
X359061D01*
X359882Y124459D01*
X360375Y121981D01*
X361778Y119881D01*
X363879Y118478D01*
X366356Y117985D01*
X368834Y118478D01*
X370934Y119881D01*
X372338Y121981D01*
X372831Y124459D01*
X373651Y125389D01*
X500205D01*
Y125369D01*
X500691Y125168D01*
X500892Y124682D01*
X500912D01*
Y112561D01*
X500882D01*
X501222Y109975D01*
X502220Y107565D01*
X503808Y105496D01*
X505877Y103908D01*
X508287Y102910D01*
X510873Y102570D01*
X513459Y102910D01*
X515869Y103908D01*
X517938Y105496D01*
X519526Y107565D01*
X520524Y109975D01*
X520864Y112561D01*
X520834D01*
Y124682D01*
X520854D01*
X521055Y125168D01*
X521541Y125369D01*
Y125389D01*
X523240D01*
Y68580D01*
D02*
G37*
G36*
X327425Y112522D02*
Y92066D01*
X324143Y88785D01*
Y65584D01*
X295399D01*
Y89689D01*
X310930D01*
X317118Y95877D01*
Y108750D01*
X309758Y116110D01*
X295038Y130830D01*
Y133222D01*
X306724D01*
X327425Y112522D01*
D02*
G37*
G36*
X161100Y53187D02*
X161572D01*
X162751Y52840D01*
X162968Y51750D01*
X163586Y50826D01*
X167658Y46754D01*
X167658Y46754D01*
X168582Y46136D01*
X169672Y45919D01*
X169672Y45919D01*
X233653D01*
X233653Y45919D01*
X233653Y45919D01*
X280162D01*
X280162Y45919D01*
X281252Y46136D01*
X281584Y46358D01*
X282394Y45372D01*
X279432Y42410D01*
X278211Y43631D01*
X277623Y44024D01*
X276929Y44162D01*
X223355D01*
X222661Y44024D01*
X222073Y43631D01*
X214895Y36453D01*
X210494D01*
Y38241D01*
X210494Y38241D01*
X210277Y39331D01*
X209659Y40255D01*
X209659Y40255D01*
X206752Y43162D01*
X205828Y43780D01*
X204738Y43997D01*
X204738Y43997D01*
X185420D01*
X185420Y43997D01*
X184330Y43780D01*
X183406Y43162D01*
X183406Y43162D01*
X180786Y40542D01*
X180168Y39618D01*
X179951Y38528D01*
X179951Y38528D01*
Y20287D01*
X175721Y16057D01*
X70522D01*
X66849Y19730D01*
Y52324D01*
X67747Y53222D01*
X70278Y53222D01*
X71548Y53222D01*
X81852D01*
X82978Y53222D01*
X84248Y53222D01*
X95678Y53222D01*
X95787Y51997D01*
Y44867D01*
X95925Y44173D01*
X96318Y43585D01*
X96906Y43192D01*
X97600Y43054D01*
X106600D01*
X107294Y43192D01*
X107882Y43585D01*
X108275Y44173D01*
X108413Y44867D01*
Y51997D01*
X108522Y53222D01*
X109683Y53222D01*
X119952D01*
X121078Y53222D01*
X122825Y53222D01*
X123000Y53187D01*
X132000D01*
X132175Y53222D01*
X133778Y53222D01*
X135525Y53222D01*
X135700Y53187D01*
X144700D01*
X144875Y53222D01*
X146478Y53222D01*
X148225Y53222D01*
X148400Y53187D01*
X157400D01*
X157575Y53222D01*
X159178Y53222D01*
X160926Y53222D01*
X161100Y53187D01*
D02*
G37*
G36*
X61151Y18550D02*
X61151Y18550D01*
X61368Y17460D01*
X61986Y16536D01*
X67328Y11194D01*
X67328Y11194D01*
X68252Y10576D01*
X69342Y10359D01*
X176901D01*
X176901Y10359D01*
X177991Y10576D01*
X178916Y11194D01*
X184814Y17092D01*
X184814Y17092D01*
X185432Y18017D01*
X185649Y19107D01*
Y37348D01*
X186600Y38299D01*
X203120D01*
X203590Y37688D01*
X203581Y36418D01*
X203581D01*
Y35761D01*
X202311Y36324D01*
Y36418D01*
X200708D01*
X200533Y36453D01*
X193001D01*
X192349Y36323D01*
X192051D01*
X190294Y35596D01*
X188950Y34252D01*
X188223Y32496D01*
Y30595D01*
X188950Y28839D01*
X190294Y27495D01*
X192051Y26768D01*
X192080D01*
X192307Y26616D01*
X193001Y26478D01*
X200533D01*
X200708Y26512D01*
X202311D01*
Y26607D01*
X203581Y27170D01*
Y26512D01*
X205184D01*
X205359Y26477D01*
X213007D01*
X221608Y17876D01*
Y16884D01*
X223211D01*
X223386Y16849D01*
X238386D01*
X238561Y16884D01*
X240164D01*
Y18487D01*
X240199Y18662D01*
Y32911D01*
X243575Y36287D01*
X246617D01*
X247143Y35017D01*
X246095Y33970D01*
X245702Y33382D01*
X245564Y32688D01*
Y16770D01*
X243816Y15021D01*
X219311D01*
X211709Y22623D01*
Y23615D01*
X210106D01*
X209931Y23650D01*
X205359D01*
X205184Y23615D01*
X203581D01*
Y22958D01*
X202311Y23521D01*
Y23615D01*
X200708D01*
X200533Y23650D01*
X193001D01*
X192349Y23520D01*
X192051D01*
X190294Y22793D01*
X188950Y21449D01*
X188223Y19693D01*
Y17792D01*
X188950Y16036D01*
X190294Y14692D01*
X192051Y13964D01*
X192080D01*
X192307Y13812D01*
X193001Y13674D01*
X200533D01*
X200708Y13709D01*
X202311D01*
Y13803D01*
X203581Y14366D01*
Y13709D01*
X204796D01*
Y10705D01*
X201766Y7675D01*
X59854D01*
X54411Y13118D01*
Y53222D01*
X57578D01*
Y53222D01*
X57722D01*
Y53222D01*
X61151D01*
Y18550D01*
D02*
G37*
G36*
X281813Y37465D02*
Y28290D01*
X277241D01*
Y34640D01*
X273781Y38100D01*
X242824D01*
X238386Y33662D01*
Y18662D01*
X223386D01*
X213758Y28290D01*
X205359D01*
Y34640D01*
X215646D01*
X223355Y42349D01*
X276929D01*
X281813Y37465D01*
D02*
G37*
G36*
X275428Y33889D02*
Y28290D01*
X275463Y28115D01*
Y26512D01*
X277066D01*
X277241Y26477D01*
X281813D01*
X281988Y26512D01*
X283591D01*
Y26526D01*
X284861Y27035D01*
Y26512D01*
X286464D01*
X286639Y26477D01*
X291211D01*
X291386Y26512D01*
X292989D01*
Y28115D01*
X293024Y28290D01*
Y33889D01*
X295417Y36283D01*
X300758D01*
X301244Y35110D01*
X300411Y34276D01*
X300018Y33688D01*
X299880Y32994D01*
Y24902D01*
X298628Y23650D01*
X286639D01*
X286464Y23615D01*
X284861D01*
Y23601D01*
X283591Y23093D01*
Y23615D01*
X281988D01*
X281813Y23650D01*
X269716D01*
X267048Y26318D01*
Y32980D01*
X266910Y33674D01*
X266517Y34262D01*
X265761Y35017D01*
X266287Y36287D01*
X273030D01*
X275428Y33889D01*
D02*
G37*
G36*
X343796Y33662D02*
Y18662D01*
X328796D01*
Y33662D01*
Y34253D01*
X324953Y38096D01*
X294666D01*
X291211Y34640D01*
Y28290D01*
X286639D01*
Y35814D01*
X292474Y41649D01*
X335810D01*
X343796Y33662D01*
D02*
G37*
G36*
X320644Y33566D02*
Y18058D01*
X318073Y15487D01*
X286639D01*
Y21837D01*
X299379D01*
X301693Y24151D01*
Y32994D01*
X304513Y35814D01*
X318396D01*
X320644Y33566D01*
D02*
G37*
G36*
X614680Y241808D02*
Y220586D01*
X606044Y211950D01*
Y89601D01*
X611886Y83759D01*
Y65532D01*
X621538Y55880D01*
X642620D01*
Y13970D01*
X627380D01*
X626364Y14986D01*
X586740Y54610D01*
Y84582D01*
X592051Y89893D01*
Y211605D01*
X583887Y219769D01*
Y241671D01*
X586740Y244524D01*
Y244602D01*
X611886D01*
X614680Y241808D01*
D02*
G37*
G36*
X265235Y32980D02*
Y25567D01*
X268965Y21837D01*
X281813D01*
Y15487D01*
X253993D01*
X247904Y9398D01*
X217050D01*
X211204Y15244D01*
X210961Y15487D01*
X205359D01*
Y21837D01*
X209931D01*
X218560Y13208D01*
X244566D01*
X247377Y16019D01*
Y32688D01*
X249387Y34697D01*
X263517D01*
X265235Y32980D01*
D02*
G37*
G36*
X30400Y41882D02*
X35071Y37211D01*
X43531D01*
Y11557D01*
X26274D01*
X26166Y27308D01*
X21400D01*
Y47439D01*
Y81192D01*
X30400D01*
Y41882D01*
D02*
G37*
G36*
X276678Y9398D02*
X276678Y9398D01*
X276895Y8308D01*
X277513Y7384D01*
X281086Y3810D01*
X280560Y2540D01*
X206485D01*
X205959Y3810D01*
X209659Y7511D01*
X209659Y7511D01*
X210277Y8435D01*
X210494Y9525D01*
X210494Y9525D01*
Y11731D01*
X211667Y12217D01*
X215768Y8116D01*
X216356Y7723D01*
X217050Y7585D01*
X247904D01*
X248598Y7723D01*
X249186Y8116D01*
X254744Y13674D01*
X276678D01*
Y9398D01*
D02*
G37*
%LPC*%
G36*
X123141Y291218D02*
X120698D01*
X118339Y290586D01*
X116223Y289364D01*
X114496Y287637D01*
X113274Y285521D01*
X112642Y283162D01*
Y280718D01*
X113274Y278359D01*
X114496Y276243D01*
X116223Y274516D01*
X118339Y273294D01*
X120698Y272662D01*
X123141D01*
X125501Y273294D01*
X127617Y274516D01*
X129344Y276243D01*
X130566Y278359D01*
X131198Y280718D01*
Y283162D01*
X130566Y285521D01*
X129344Y287637D01*
X127617Y289364D01*
X125501Y290586D01*
X123141Y291218D01*
D02*
G37*
G36*
X97741D02*
X95299D01*
X92939Y290586D01*
X90823Y289364D01*
X89096Y287637D01*
X87874Y285521D01*
X87242Y283162D01*
Y280718D01*
X87874Y278359D01*
X89096Y276243D01*
X90823Y274516D01*
X92939Y273294D01*
X95299Y272662D01*
X97741D01*
X100101Y273294D01*
X102217Y274516D01*
X103944Y276243D01*
X105166Y278359D01*
X105798Y280718D01*
Y283162D01*
X105166Y285521D01*
X103944Y287637D01*
X102217Y289364D01*
X100101Y290586D01*
X97741Y291218D01*
D02*
G37*
G36*
X337838Y291048D02*
X326082D01*
Y270292D01*
X337838D01*
Y276345D01*
X354534D01*
X356174Y275666D01*
X358074D01*
X359831Y276393D01*
X361175Y277738D01*
X361902Y279494D01*
Y281394D01*
X361175Y283151D01*
X359831Y284495D01*
X358074Y285222D01*
X356174D01*
X354534Y284543D01*
X337838D01*
Y291048D01*
D02*
G37*
G36*
X446528Y285668D02*
X426972D01*
Y272112D01*
X446528D01*
Y273902D01*
X457355D01*
X457530Y273937D01*
X459133D01*
Y273951D01*
X460403Y274459D01*
Y273937D01*
X462006D01*
X462181Y273902D01*
X478994D01*
X479170Y273937D01*
X480773D01*
Y273951D01*
X482043Y274459D01*
Y273937D01*
X483645D01*
X483820Y273902D01*
X500634D01*
X500809Y273937D01*
X502412D01*
Y275540D01*
X502447Y275715D01*
Y282065D01*
X502412Y282240D01*
Y283843D01*
X500809D01*
X500634Y283878D01*
X483820D01*
X483645Y283843D01*
X482043D01*
Y283829D01*
X480773Y283321D01*
Y283843D01*
X479170D01*
X478994Y283878D01*
X462181D01*
X462006Y283843D01*
X460403D01*
Y283829D01*
X459133Y283321D01*
Y283843D01*
X457530D01*
X457355Y283878D01*
X446528D01*
Y285668D01*
D02*
G37*
G36*
Y269668D02*
X426972D01*
Y256112D01*
X446528D01*
Y257902D01*
X457355D01*
X457530Y257937D01*
X459133D01*
Y257951D01*
X460403Y258459D01*
Y257937D01*
X462006D01*
X462181Y257902D01*
X478994D01*
X479170Y257937D01*
X480773D01*
Y257951D01*
X482043Y258459D01*
Y257937D01*
X483645D01*
X483820Y257902D01*
X500634D01*
X500809Y257937D01*
X502412D01*
Y259540D01*
X502447Y259715D01*
Y266065D01*
X502412Y266240D01*
Y267843D01*
X500809D01*
X500634Y267878D01*
X483820D01*
X483645Y267843D01*
X482043D01*
Y267829D01*
X480773Y267321D01*
Y267843D01*
X479170D01*
X478994Y267878D01*
X462181D01*
X462006Y267843D01*
X460403D01*
Y267829D01*
X459133Y267321D01*
Y267843D01*
X457530D01*
X457355Y267878D01*
X446528D01*
Y269668D01*
D02*
G37*
G36*
Y253668D02*
X426972D01*
Y240112D01*
X446528D01*
Y241902D01*
X457355D01*
X457530Y241937D01*
X459133D01*
Y241951D01*
X460403Y242459D01*
Y241937D01*
X462006D01*
X462181Y241902D01*
X478994D01*
X479170Y241937D01*
X480773D01*
Y241951D01*
X482043Y242459D01*
Y241937D01*
X483645D01*
X483820Y241902D01*
X500634D01*
X500809Y241937D01*
X502412D01*
Y243540D01*
X502447Y243715D01*
Y250065D01*
X502412Y250240D01*
Y251843D01*
X500809D01*
X500634Y251878D01*
X483820D01*
X483645Y251843D01*
X482043D01*
Y251829D01*
X480773Y251321D01*
Y251843D01*
X479170D01*
X478994Y251878D01*
X462181D01*
X462006Y251843D01*
X460403D01*
Y251829D01*
X459133Y251321D01*
Y251843D01*
X457530D01*
X457355Y251878D01*
X446528D01*
Y253668D01*
D02*
G37*
G36*
X294259Y251158D02*
X292358D01*
X290602Y250431D01*
X289258Y249086D01*
X288530Y247330D01*
Y245430D01*
X288800Y244778D01*
X288095Y243722D01*
X284530D01*
Y228166D01*
X302086D01*
Y230956D01*
X312308D01*
X312483Y230991D01*
X314086D01*
Y232594D01*
X314121Y232769D01*
Y239119D01*
X314086Y239294D01*
Y240897D01*
X312483D01*
X312308Y240932D01*
X302086D01*
Y243722D01*
X298522D01*
X297816Y244778D01*
X298086Y245430D01*
Y247330D01*
X297359Y249086D01*
X296015Y250431D01*
X294259Y251158D01*
D02*
G37*
G36*
X446528Y225978D02*
X426972D01*
Y212422D01*
X446528D01*
Y214212D01*
X457327D01*
X457502Y214247D01*
X459105D01*
Y215850D01*
X459140Y216025D01*
Y222375D01*
X459105Y222550D01*
Y224153D01*
X457502D01*
X457327Y224188D01*
X446528D01*
Y225978D01*
D02*
G37*
G36*
X396750Y226013D02*
X371125D01*
X370432Y225875D01*
X369844Y225482D01*
X369451Y224894D01*
X369313Y224200D01*
Y218739D01*
X369061Y218132D01*
Y216231D01*
X369313Y215624D01*
Y214200D01*
X369451Y213506D01*
X369844Y212918D01*
X370432Y212525D01*
X371125Y212387D01*
X396750D01*
X396925Y212422D01*
X398528D01*
Y214025D01*
X398563Y214200D01*
Y224200D01*
X398528Y224375D01*
Y225978D01*
X396925D01*
X396750Y226013D01*
D02*
G37*
G36*
X302086Y226722D02*
X284530D01*
Y211166D01*
X288422D01*
X288530Y211004D01*
Y209104D01*
X289258Y207348D01*
X290602Y206003D01*
X292358Y205276D01*
X294259D01*
X296015Y206003D01*
X297359Y207348D01*
X298086Y209104D01*
Y211004D01*
X298194Y211166D01*
X302086D01*
Y212686D01*
X312762D01*
X312937Y212721D01*
X314540D01*
Y214324D01*
X314575Y214499D01*
Y223389D01*
X314540Y223564D01*
Y225167D01*
X312937D01*
X312762Y225202D01*
X302086D01*
Y226722D01*
D02*
G37*
G36*
X446528Y209978D02*
X426972D01*
Y196422D01*
X446528D01*
Y198212D01*
X457327D01*
X457502Y198247D01*
X459105D01*
Y199850D01*
X459140Y200025D01*
Y206375D01*
X459105Y206550D01*
Y208153D01*
X457502D01*
X457327Y208188D01*
X446528D01*
Y209978D01*
D02*
G37*
G36*
X396750Y210013D02*
X371125D01*
X370432Y209875D01*
X369844Y209482D01*
X369451Y208894D01*
X369313Y208200D01*
Y205251D01*
X368856Y204148D01*
Y202248D01*
X369313Y201145D01*
Y198200D01*
X369451Y197506D01*
X369844Y196918D01*
X370432Y196525D01*
X371125Y196387D01*
X396750D01*
X396925Y196422D01*
X398528D01*
Y198025D01*
X398563Y198200D01*
Y208200D01*
X398528Y208375D01*
Y209978D01*
X396925D01*
X396750Y210013D01*
D02*
G37*
G36*
X446528Y193978D02*
X426972D01*
Y180422D01*
X446528D01*
Y182212D01*
X457327D01*
X457502Y182247D01*
X459105D01*
Y182904D01*
X460375Y182341D01*
Y182247D01*
X461978D01*
X462153Y182212D01*
X472517D01*
X473211Y182350D01*
X473799Y182743D01*
X474192Y183331D01*
X474330Y184025D01*
Y185848D01*
X474463Y186169D01*
Y188070D01*
X474330Y188392D01*
Y190375D01*
X474192Y191069D01*
X473799Y191657D01*
X473211Y192050D01*
X472517Y192188D01*
X462153D01*
X461978Y192153D01*
X460375D01*
Y192059D01*
X459105Y191496D01*
Y192153D01*
X457502D01*
X457327Y192188D01*
X446528D01*
Y193978D01*
D02*
G37*
G36*
X396750Y194013D02*
X371125D01*
X370432Y193875D01*
X369844Y193482D01*
X369451Y192894D01*
X369313Y192200D01*
Y189251D01*
X368856Y188148D01*
Y186248D01*
X369313Y185145D01*
Y182200D01*
X369451Y181506D01*
X369844Y180918D01*
X370432Y180525D01*
X371125Y180387D01*
X396750D01*
X396925Y180422D01*
X398528D01*
Y182025D01*
X398563Y182200D01*
Y192200D01*
X398528Y192375D01*
Y193978D01*
X396925D01*
X396750Y194013D01*
D02*
G37*
G36*
X508992Y73949D02*
X496026D01*
X495851Y73914D01*
X494248D01*
Y72311D01*
X494213Y72136D01*
Y62936D01*
X494248Y62761D01*
Y61158D01*
X495851D01*
X496026Y61123D01*
X508992D01*
X509686Y61261D01*
X510274Y61654D01*
X510667Y62242D01*
X510805Y62936D01*
Y72136D01*
X510667Y72830D01*
X510274Y73418D01*
X509686Y73811D01*
X508992Y73949D01*
D02*
G37*
G36*
X425450D02*
X412206D01*
X412031Y73914D01*
X410428D01*
Y72311D01*
X410393Y72136D01*
Y62936D01*
X410428Y62761D01*
Y61158D01*
X412031D01*
X412206Y61123D01*
X425450D01*
X426144Y61261D01*
X426732Y61654D01*
X427125Y62242D01*
X427263Y62936D01*
Y72136D01*
X427125Y72830D01*
X426732Y73418D01*
X426144Y73811D01*
X425450Y73949D01*
D02*
G37*
%LPD*%
D12*
X58674Y194500D02*
X190800D01*
X443598Y95889D02*
X454649Y84838D01*
X487928D02*
X490626Y87536D01*
X454649Y84838D02*
X487928D01*
X418240Y95889D02*
X443598D01*
D26*
X25527Y30482D02*
D03*
X16129D02*
D03*
X279527Y18662D02*
D03*
X288925D02*
D03*
X207645Y31465D02*
D03*
X198247D02*
D03*
X207645Y18662D02*
D03*
X198247D02*
D03*
X279527Y31465D02*
D03*
X288925D02*
D03*
X314668Y180313D02*
D03*
X305270D02*
D03*
X495935Y214000D02*
D03*
X341210Y138640D02*
D03*
Y121162D02*
D03*
Y168736D02*
D03*
Y150830D02*
D03*
X216789Y280444D02*
D03*
X331812Y205949D02*
D03*
X489331Y52578D02*
D03*
X498729D02*
D03*
X466217D02*
D03*
X475615D02*
D03*
X407035Y50292D02*
D03*
X416433D02*
D03*
X382397D02*
D03*
X391795D02*
D03*
X489331Y37592D02*
D03*
X498729D02*
D03*
X475615D02*
D03*
X466217D02*
D03*
X407035Y36449D02*
D03*
X416433D02*
D03*
X391795D02*
D03*
X382397D02*
D03*
X489331Y22606D02*
D03*
X498729D02*
D03*
X475615D02*
D03*
X466217D02*
D03*
X407035D02*
D03*
X416433D02*
D03*
X391795D02*
D03*
X382397D02*
D03*
X464439Y187200D02*
D03*
X455041D02*
D03*
X464439Y203200D02*
D03*
X455041D02*
D03*
X464439Y219200D02*
D03*
X455041D02*
D03*
X464467Y278890D02*
D03*
X455069D02*
D03*
X464467Y262890D02*
D03*
X455069D02*
D03*
X464467Y246890D02*
D03*
X455069D02*
D03*
X476708Y278890D02*
D03*
X486106D02*
D03*
X476708Y262890D02*
D03*
X486106D02*
D03*
X476708Y246890D02*
D03*
X486106D02*
D03*
X498348Y278890D02*
D03*
X507746D02*
D03*
X498348Y262890D02*
D03*
X507746D02*
D03*
X498348Y246890D02*
D03*
X507746D02*
D03*
X331812Y150830D02*
D03*
Y168736D02*
D03*
Y121162D02*
D03*
Y138640D02*
D03*
X137905Y255620D02*
D03*
X128507D02*
D03*
X247847Y77495D02*
D03*
X257245D02*
D03*
X247845Y88265D02*
D03*
X257243D02*
D03*
X341210Y205949D02*
D03*
Y194011D02*
D03*
X331812D02*
D03*
Y182200D02*
D03*
X341210D02*
D03*
X505333Y214000D02*
D03*
X319420Y235944D02*
D03*
X310022D02*
D03*
X495935Y201390D02*
D03*
X505333D02*
D03*
X16129Y40645D02*
D03*
X25527D02*
D03*
X207391Y280444D02*
D03*
D27*
X17780Y16002D02*
D03*
X33020D02*
D03*
X320333Y77414D02*
D03*
X335573D02*
D03*
X254146Y214499D02*
D03*
X238906D02*
D03*
X324192Y218944D02*
D03*
X308952D02*
D03*
D28*
X64000Y62500D02*
D03*
X51300D02*
D03*
X25900Y237500D02*
D03*
X178300D02*
D03*
Y62500D02*
D03*
X165600D02*
D03*
X152900D02*
D03*
X140200D02*
D03*
X127500D02*
D03*
X114800D02*
D03*
X102100D02*
D03*
X89400D02*
D03*
X76700D02*
D03*
X38600D02*
D03*
X25900D02*
D03*
X13200D02*
D03*
X165600Y237500D02*
D03*
X152900D02*
D03*
X140200D02*
D03*
X127500D02*
D03*
X114800D02*
D03*
X102100D02*
D03*
X89400D02*
D03*
X76700D02*
D03*
X64000D02*
D03*
X51300D02*
D03*
X38600D02*
D03*
X13200D02*
D03*
D29*
X362712Y80645D02*
D03*
X446786Y80577D02*
D03*
X254146Y235939D02*
D03*
X229627Y280442D02*
D03*
X271308Y194297D02*
D03*
X222551Y147142D02*
D03*
Y137744D02*
D03*
X446786Y71179D02*
D03*
X362712Y71247D02*
D03*
X238026Y187714D02*
D03*
Y197112D02*
D03*
X249701Y197061D02*
D03*
Y187663D02*
D03*
X210740Y147142D02*
D03*
Y137744D02*
D03*
X254146Y226541D02*
D03*
X210740Y96266D02*
D03*
Y105664D02*
D03*
X271308Y203695D02*
D03*
X346710Y280444D02*
D03*
Y271046D02*
D03*
X38608Y34925D02*
D03*
Y44323D02*
D03*
X229627Y271044D02*
D03*
D30*
X406806Y87536D02*
D03*
X397306Y67536D02*
D03*
X416306D02*
D03*
X500126D02*
D03*
X481126D02*
D03*
X490626Y87536D02*
D03*
D31*
X275199Y80589D02*
D03*
X302399D02*
D03*
D32*
Y61468D02*
D03*
X490728Y104140D02*
D03*
X406908D02*
D03*
X230886Y62500D02*
D03*
X210740D02*
D03*
X210820Y207010D02*
D03*
Y237490D02*
D03*
X238906Y231240D02*
D03*
X250949Y62500D02*
D03*
D33*
X298647Y132026D02*
D03*
X259137Y157026D02*
D03*
Y152026D02*
D03*
Y147026D02*
D03*
Y142026D02*
D03*
Y137026D02*
D03*
Y132026D02*
D03*
X298647Y137026D02*
D03*
Y142026D02*
D03*
Y147026D02*
D03*
Y152026D02*
D03*
Y157026D02*
D03*
D34*
X291392Y164281D02*
D03*
D35*
X436750Y246890D02*
D03*
Y262890D02*
D03*
Y278890D02*
D03*
X388750D02*
D03*
Y262890D02*
D03*
Y246890D02*
D03*
Y219200D02*
D03*
Y203200D02*
D03*
Y187200D02*
D03*
X436750D02*
D03*
Y203200D02*
D03*
Y219200D02*
D03*
D36*
X286392Y164281D02*
D03*
X281392D02*
D03*
X276392D02*
D03*
X271392D02*
D03*
X266392D02*
D03*
Y124771D02*
D03*
X271392D02*
D03*
X276392D02*
D03*
X281392D02*
D03*
X286392D02*
D03*
X291392D02*
D03*
D37*
X244620Y280670D02*
D03*
X331960D02*
D03*
X297960D02*
D03*
X278620D02*
D03*
D38*
X461670Y94436D02*
D03*
Y71436D02*
D03*
X377850Y94624D02*
D03*
Y71624D02*
D03*
D39*
X212010Y176176D02*
D03*
Y160936D02*
D03*
D40*
X293308Y235944D02*
D03*
X271308D02*
D03*
Y218944D02*
D03*
X293308D02*
D03*
D41*
X635000Y46990D02*
D03*
X660400D02*
D03*
X635000Y22860D02*
D03*
X660400D02*
D03*
D42*
X90400Y137500D02*
D03*
X76400Y123500D02*
D03*
Y137500D02*
D03*
Y151500D02*
D03*
X90400Y123500D02*
D03*
Y151500D02*
D03*
X104400Y123500D02*
D03*
Y137500D02*
D03*
Y151500D02*
D03*
D43*
X190800Y92900D02*
D03*
Y105600D02*
D03*
Y118300D02*
D03*
Y131000D02*
D03*
Y143700D02*
D03*
Y156400D02*
D03*
Y169100D02*
D03*
Y181800D02*
D03*
Y194500D02*
D03*
Y207200D02*
D03*
D53*
X278892Y144526D02*
D03*
D70*
X373468Y128238D02*
G03*
X369912Y124682I0J-3556D01*
G01*
X362800Y124459D02*
G03*
X369912Y124459I3556J0D01*
G01*
X362800Y124682D02*
G03*
X359244Y128238I-3556J0D01*
G01*
X523697Y180086D02*
G03*
X520141Y176530I0J-3556D01*
G01*
X513029Y168845D02*
G03*
X520141Y168845I3556J0D01*
G01*
X513029Y176530D02*
G03*
X505917Y176530I-3556J0D01*
G01*
X498805Y168845D02*
G03*
X505917Y168845I3556J0D01*
G01*
X498805Y176530D02*
G03*
X495249Y180086I-3556J0D01*
G01*
X507317Y124682D02*
G03*
X500205Y131794I-7112J0D01*
G01*
X507317Y112561D02*
G03*
X514429Y112561I3556J0D01*
G01*
X521541Y131794D02*
G03*
X514429Y124682I0J-7112D01*
G01*
X503761D02*
G03*
X500205Y128238I-3556J0D01*
G01*
X503761Y112561D02*
G03*
X517985Y112561I7112J0D01*
G01*
X521541Y128238D02*
G03*
X517985Y124682I0J-3556D01*
G01*
X373468Y128238D02*
X380935D01*
X369912Y124459D02*
Y124682D01*
X362800Y124459D02*
Y124682D01*
X351116Y128238D02*
X359244D01*
X523697Y180086D02*
X532309D01*
X520141Y168845D02*
Y176530D01*
X513029Y168845D02*
Y176530D01*
X505917Y168845D02*
Y176530D01*
X498805Y168845D02*
Y176530D01*
X487121Y180086D02*
X495249D01*
X532309D02*
X547126D01*
X486613D02*
X487121D01*
X547126D02*
X547126Y180086D01*
X473678Y172180D02*
X485140Y183642D01*
X503230D01*
X464136Y157609D02*
X486613Y180086D01*
X503230Y183642D02*
X548599D01*
X547126Y180086D02*
X548589Y178622D01*
X462663Y161166D02*
X473678Y172180D01*
X297477Y201578D02*
X328330D01*
X331812Y205060D01*
Y205949D01*
X157400Y88292D02*
Y172865D01*
X166335Y181800D02*
X176332D01*
X157400Y172865D02*
X166335Y181800D01*
X157400Y88292D02*
X161692Y84000D01*
X173800D01*
X178300Y79500D01*
Y62500D02*
Y79500D01*
X165600Y224798D02*
X168656Y221742D01*
X165600Y224798D02*
Y237500D01*
X168656Y221742D02*
X207618D01*
X280162Y48768D02*
X282956Y51562D01*
X169672Y48768D02*
X280162D01*
X230886Y51535D02*
X233653Y48768D01*
X165600Y52840D02*
X169672Y48768D01*
X165600Y52840D02*
Y62500D01*
X230886Y51535D02*
Y62500D01*
X346456Y57718D02*
Y81859D01*
X340300Y51562D02*
X346456Y57718D01*
X282956Y51562D02*
X340300D01*
X351790Y54679D02*
Y75946D01*
X356489Y80645D01*
X279527Y38476D02*
X286565Y45514D01*
X342625D02*
X351790Y54679D01*
X286565Y45514D02*
X342625D01*
X279527Y31465D02*
Y38476D01*
X257243Y88265D02*
Y89154D01*
X258513Y90424D01*
X262890D02*
X276392Y103926D01*
Y124771D01*
X258513Y90424D02*
X262890D01*
X302349Y157026D02*
X315929Y170606D01*
X321069D02*
X330504Y180041D01*
X315929Y170606D02*
X321069D01*
X330542Y180041D02*
X331732Y181231D01*
X330504Y180041D02*
X330542D01*
X331732Y181231D02*
Y182120D01*
X298647Y157026D02*
X302349D01*
X333271Y128238D02*
X351116D01*
X331826Y126793D02*
X333271Y128238D01*
X333041Y131794D02*
X349643D01*
X331826Y133009D02*
X333041Y131794D01*
X349643D02*
X349643Y131794D01*
X482483D01*
X310192Y137748D02*
X319688Y128252D01*
X331812Y132998D02*
Y133930D01*
X330622Y131808D02*
X331812Y132998D01*
X330411Y128252D02*
X331848Y126815D01*
X319688Y128252D02*
X330411D01*
X321161Y131808D02*
X330622D01*
X331812Y133930D02*
Y138640D01*
X331826Y133009D02*
Y133916D01*
X331812Y133930D02*
X331826Y133916D01*
X446532Y71247D02*
X461293D01*
X461670Y71624D01*
X469360D01*
X473448Y67536D01*
X481126D01*
X389628D02*
X397306D01*
X385540Y71624D02*
X389628Y67536D01*
X377850Y71624D02*
X385540D01*
X377473Y71247D02*
X377850Y71624D01*
X362712Y71247D02*
X377473D01*
X222551Y147142D02*
X222609Y147084D01*
X259079D01*
X259137Y147026D01*
X490728Y95889D02*
Y104140D01*
X406908Y95889D02*
Y104140D01*
X455069Y246890D02*
Y247779D01*
X436750Y246890D02*
X447052D01*
X254146Y235939D02*
Y277331D01*
X178300Y256874D02*
X183300Y261874D01*
X178300Y237500D02*
Y256874D01*
Y62500D02*
X210740D01*
X228346Y162306D02*
Y163322D01*
Y162306D02*
X238626Y152026D01*
X242062Y163322D02*
X248358Y157026D01*
X259137D01*
X238626Y152026D02*
X259137D01*
X309938Y102616D02*
X311665D01*
X291392Y121162D02*
X309938Y102616D01*
X291392Y121162D02*
Y124771D01*
X286392Y116123D02*
X299899Y102616D01*
X286392Y116123D02*
Y124771D01*
X252544Y102616D02*
Y102984D01*
X266392Y116832D01*
X281392Y108812D02*
X287588Y102616D01*
X281392Y108812D02*
Y124771D01*
X263739Y102616D02*
X271392Y110269D01*
Y124771D01*
X262746Y102616D02*
X263739D01*
X266392Y116832D02*
Y124771D01*
X241388Y124771D02*
X248643Y132026D01*
X259137D01*
X244030Y137026D02*
X259137D01*
X241388Y135458D02*
X242462D01*
X244030Y137026D01*
X210740Y105664D02*
X211629D01*
X233966Y142026D02*
X259137D01*
X231140Y139200D02*
X233966Y142026D01*
X231140Y116332D02*
Y139200D01*
X220599Y105791D02*
X231140Y116332D01*
X279527Y9398D02*
Y18662D01*
Y9398D02*
X284099Y4826D01*
X428244D01*
X207645Y9525D02*
Y18662D01*
X202946Y4826D02*
X207645Y9525D01*
Y31465D02*
Y38241D01*
X185420Y41148D02*
X204738D01*
X207645Y38241D01*
X356489Y80645D02*
X362712D01*
X182800Y38528D02*
X185420Y41148D01*
X182800Y19107D02*
Y38528D01*
X176901Y13208D02*
X182800Y19107D01*
X69342Y13208D02*
X176901D01*
X64000Y18550D02*
X69342Y13208D01*
X64000Y18550D02*
Y62500D01*
X51300D02*
X51562Y62238D01*
Y11938D02*
Y62238D01*
Y11938D02*
X58674Y4826D01*
X202946D01*
X428244D02*
X435102Y11684D01*
Y76962D01*
X438717Y80577D01*
X446786D01*
X216789Y266319D02*
Y280444D01*
X212344Y261874D02*
X216789Y266319D01*
X183300Y261874D02*
X212344D01*
X244620Y280670D02*
X250806D01*
X254146Y277331D01*
X210740Y105791D02*
X220599D01*
X202358D02*
X210740D01*
X346710Y280444D02*
X357124D01*
X151130Y294894D02*
X212788D01*
X216789Y290893D01*
Y280444D02*
Y290893D01*
X147534Y282154D02*
Y291298D01*
X147320Y281940D02*
X147534Y282154D01*
Y291298D02*
X151130Y294894D01*
X238906Y231240D02*
X239381D01*
X244080Y226541D01*
X254146D01*
X114800Y237500D02*
Y252444D01*
X117975Y255620D01*
X128507D01*
X210820Y224944D02*
Y237490D01*
X207618Y221742D02*
X210820Y224944D01*
X190990Y207010D02*
X210820D01*
X190800Y207200D02*
X190990Y207010D01*
X286392Y164281D02*
Y182576D01*
X297827Y194011D01*
X331812D01*
X281392Y185493D02*
X297477Y201578D01*
X281392Y164281D02*
Y185493D01*
X249701Y172366D02*
Y187663D01*
Y172366D02*
X257320Y164746D01*
X266225D01*
X266392Y164579D01*
Y164281D02*
Y164579D01*
X271392Y164281D02*
Y194213D01*
X271308Y194297D02*
X271392Y194213D01*
X436722Y187200D02*
X455041D01*
X436722Y203200D02*
X455041D01*
X436722Y219200D02*
X455041D01*
X436750Y262890D02*
X455069D01*
X436750Y278890D02*
X455069D01*
X486106Y246890D02*
X498348D01*
X486106Y262890D02*
X498348D01*
X486106Y278890D02*
X498348D01*
X475615Y52578D02*
X489331D01*
X475615Y37592D02*
X489331D01*
X475615Y22606D02*
X489331D01*
X391795D02*
X407035D01*
X391795Y36449D02*
X407035D01*
X391795Y50292D02*
X407035D01*
X548589Y175568D02*
Y178622D01*
X541050Y169000D02*
X542021D01*
X548589Y175568D01*
X552145Y145205D02*
Y180095D01*
X548599Y183642D02*
X552145Y180095D01*
X482483Y131794D02*
X500205D01*
X507317Y112561D02*
Y124682D01*
X514429Y112561D02*
Y124682D01*
X521541Y131794D02*
X524335D01*
X482483Y128238D02*
X500205D01*
X503761Y112561D02*
Y124682D01*
X517985Y112561D02*
Y124682D01*
X521541Y128238D02*
X524335D01*
X380935D02*
X482483D01*
X524335D02*
X548981D01*
X550454Y131794D02*
X558376Y123872D01*
X554820Y120716D02*
Y122400D01*
X524335Y131794D02*
X550454D01*
X558376Y113574D02*
X560476Y111474D01*
X541050Y118200D02*
X542376Y119526D01*
X553629D02*
X554820Y120716D01*
X548981Y128238D02*
X554820Y122400D01*
X542376Y119526D02*
X553629D01*
X558376Y113574D02*
Y123872D01*
X566450Y105500D02*
Y105500D01*
X560476Y111474D02*
X566450Y105500D01*
X560476Y111474D02*
X560476D01*
X462663Y161165D02*
Y161166D01*
X333002Y161165D02*
X462663D01*
X333002Y157609D02*
X464136D01*
X331812Y162356D02*
Y168736D01*
X318382Y161165D02*
X330622D01*
X308521Y151304D02*
X318382Y161165D01*
X303076Y151304D02*
X308521D01*
X302354Y152026D02*
X303076Y151304D01*
X298647Y152026D02*
X302354D01*
X330622Y161165D02*
X331812Y162356D01*
X319855Y157609D02*
X330622D01*
X331812Y150830D02*
Y156419D01*
X309994Y147748D02*
X319855Y157609D01*
X330622D02*
X331812Y156419D01*
X303076Y147748D02*
X309994D01*
X302354Y147026D02*
X303076Y147748D01*
X298647Y147026D02*
X302354D01*
X331812Y162356D02*
X333002Y161165D01*
X552145Y145205D02*
X566450Y130900D01*
X331812Y156419D02*
X333002Y157609D01*
X311665Y141304D02*
X321161Y131808D01*
X331812Y125871D02*
X331826Y125885D01*
Y126793D01*
X331812Y121162D02*
Y125871D01*
X303076Y137748D02*
X310192D01*
X302354Y137026D02*
X303076Y137748D01*
X298647Y137026D02*
X302354D01*
X303076Y141304D02*
X311665D01*
X302354Y142026D02*
X303076Y141304D01*
X298647Y142026D02*
X302354D01*
D71*
X293308Y235944D02*
Y246380D01*
X64000Y237500D02*
Y262890D01*
X71120Y270010D01*
Y281940D01*
X51300Y237500D02*
Y262890D01*
X45720Y268470D02*
X51300Y262890D01*
X45720Y268470D02*
Y281940D01*
D72*
X293308Y210054D02*
Y218944D01*
D73*
X571368Y214000D02*
X578612Y206756D01*
X569683Y156300D02*
X578612Y165229D01*
Y206756D01*
X566450Y156300D02*
X569683D01*
X505333Y214000D02*
X571368D01*
D74*
X419589Y22606D02*
D03*
Y36449D02*
D03*
Y50292D02*
D03*
X501884Y22606D02*
D03*
Y37592D02*
D03*
Y52578D02*
D03*
D75*
X446786Y66864D02*
D03*
D76*
X362712Y67212D02*
D03*
D77*
X446476Y71247D02*
D03*
X362656D02*
D03*
D78*
X466217Y45528D02*
D03*
X382397D02*
D03*
D79*
X452325Y71247D02*
D03*
X368505D02*
D03*
D80*
X471198Y69186D02*
D03*
D81*
X387378Y69280D02*
D03*
D82*
X212010Y155944D02*
D03*
D83*
X216646Y147142D02*
D03*
D84*
X14649Y30480D02*
D03*
Y40132D02*
D03*
X196767Y18662D02*
D03*
Y31465D02*
D03*
X342690Y205949D02*
D03*
Y194011D02*
D03*
Y182200D02*
D03*
X139385Y255619D02*
D03*
X205911Y280444D02*
D03*
X246365Y88265D02*
D03*
Y77414D02*
D03*
X509226Y278890D02*
D03*
Y262890D02*
D03*
Y246890D02*
D03*
X465919Y219200D02*
D03*
Y203200D02*
D03*
X494455Y201390D02*
D03*
X342690Y121162D02*
D03*
Y138640D02*
D03*
Y150830D02*
D03*
Y168736D02*
D03*
D85*
X250923Y59864D02*
D03*
D86*
X178300Y65984D02*
D03*
X165600D02*
D03*
D87*
X152900Y67554D02*
D03*
X140200D02*
D03*
X127500D02*
D03*
D88*
X254146Y238874D02*
D03*
D89*
X665865Y34925D02*
D03*
D90*
X238026Y198592D02*
D03*
D91*
X25900Y65984D02*
D03*
D92*
X38600Y68096D02*
D03*
D93*
X102100Y57433D02*
D03*
D94*
X185930Y207200D02*
D03*
D95*
X178300Y242605D02*
D03*
X165600D02*
D03*
D96*
X114800Y232091D02*
D03*
D97*
X152900Y242605D02*
D03*
D98*
X102100Y242681D02*
D03*
D99*
X76700Y242575D02*
D03*
D100*
X38600Y242693D02*
D03*
X25900D02*
D03*
D101*
X275199Y75195D02*
D03*
D102*
X271308Y238162D02*
D03*
D103*
X327240Y218944D02*
D03*
D104*
X383938Y187200D02*
D03*
Y203200D02*
D03*
Y219200D02*
D03*
D105*
X385192Y246890D02*
D03*
Y262890D02*
D03*
Y278890D02*
D03*
D106*
X481711Y52578D02*
D03*
Y37592D02*
D03*
Y22606D02*
D03*
X399415Y50292D02*
D03*
Y36449D02*
D03*
Y22606D02*
D03*
D107*
X16236Y16002D02*
D03*
D108*
X502509Y67536D02*
D03*
D109*
X418828D02*
D03*
D110*
X322497Y235944D02*
D03*
D111*
X234377Y214499D02*
D03*
D112*
X243863Y197112D02*
D03*
D113*
X212010Y177656D02*
D03*
X222551Y136264D02*
D03*
X210740D02*
D03*
Y94786D02*
D03*
D114*
X467335Y187200D02*
D03*
D115*
X377850Y99247D02*
D03*
X461670Y99059D02*
D03*
D116*
X492927Y214000D02*
D03*
D117*
X288290Y280670D02*
D03*
D118*
X490626Y93538D02*
D03*
X406806D02*
D03*
D119*
X302399Y71029D02*
D03*
D120*
X38608Y52269D02*
D03*
D121*
X492227Y278890D02*
D03*
Y262890D02*
D03*
Y246890D02*
D03*
X470588D02*
D03*
Y262890D02*
D03*
Y278890D02*
D03*
D122*
X447024Y187200D02*
D03*
Y203200D02*
D03*
Y219200D02*
D03*
X447052Y246890D02*
D03*
Y262890D02*
D03*
Y278890D02*
D03*
D123*
X505333Y207695D02*
D03*
D124*
X309076Y77637D02*
D03*
D125*
X318965Y79659D02*
D03*
D126*
X202358Y105791D02*
D03*
D127*
X344542Y280444D02*
D03*
D128*
X230704D02*
D03*
D129*
X257243Y82840D02*
D03*
D130*
X266227Y218944D02*
D03*
D131*
X254146Y221663D02*
D03*
D132*
X243869Y187727D02*
D03*
D133*
X302808Y235944D02*
D03*
D134*
X303035Y218944D02*
D03*
D135*
X271308Y210177D02*
D03*
D136*
X230886Y26162D02*
D03*
X336296D02*
D03*
X45720Y281940D02*
D03*
D137*
X256286Y26162D02*
D03*
X310896D02*
D03*
X147320Y281940D02*
D03*
X71120D02*
D03*
X96520D02*
D03*
X121920D02*
D03*
X172720D02*
D03*
D138*
X678950Y216250D02*
D03*
Y83750D02*
D03*
Y109150D02*
D03*
Y190850D02*
D03*
D139*
X566450Y105500D02*
D03*
D140*
X541050Y118200D02*
D03*
X566450Y130900D02*
D03*
X541050Y143600D02*
D03*
X566450Y156300D02*
D03*
X541050Y169000D02*
D03*
X566450Y181700D02*
D03*
X541050Y194400D02*
D03*
D141*
X599450Y72550D02*
D03*
Y227450D02*
D03*
D142*
X76400Y130500D02*
D03*
Y144500D02*
D03*
X83400Y123500D02*
D03*
Y137500D02*
D03*
Y151500D02*
D03*
X90400Y130500D02*
D03*
Y144500D02*
D03*
X97400Y123500D02*
D03*
Y137500D02*
D03*
Y151500D02*
D03*
X104400Y130500D02*
D03*
Y144500D02*
D03*
X76700Y251968D02*
D03*
X102100D02*
D03*
X332657Y218890D02*
D03*
X176332Y207200D02*
D03*
X202145Y280524D02*
D03*
X288419Y280670D02*
D03*
X58674Y194500D02*
D03*
X30226Y189334D02*
D03*
X176332Y181800D02*
D03*
X152900D02*
D03*
X141926D02*
D03*
X470588Y262810D02*
D03*
Y278890D02*
D03*
X299022Y184186D02*
D03*
Y176728D02*
D03*
X346456Y81859D02*
D03*
X278892Y64436D02*
D03*
X271519D02*
D03*
X461750Y103682D02*
D03*
X418240Y95889D02*
D03*
X386182Y144964D02*
D03*
X321161Y180313D02*
D03*
X314142Y68834D02*
D03*
X165600Y92837D02*
D03*
X176332Y92900D02*
D03*
X446875Y63485D02*
D03*
X362800Y63879D02*
D03*
X505372Y67456D02*
D03*
X212090Y153222D02*
D03*
X199186Y251714D02*
D03*
X225563D02*
D03*
X360792Y103588D02*
D03*
Y94624D02*
D03*
X234636Y102616D02*
D03*
X119979Y181800D02*
D03*
X130952D02*
D03*
X30226Y200308D02*
D03*
Y178360D02*
D03*
Y167386D02*
D03*
X119300Y103811D02*
D03*
Y92837D02*
D03*
X165600Y103811D02*
D03*
X452515Y112777D02*
D03*
X441541D02*
D03*
X430567D02*
D03*
X419594D02*
D03*
X541627Y50546D02*
D03*
X552600D02*
D03*
X563574D02*
D03*
X574548D02*
D03*
X165600Y27495D02*
D03*
X140200Y27308D02*
D03*
X114800D02*
D03*
X89400D02*
D03*
X362800Y15487D02*
D03*
X362714Y30876D02*
D03*
X428750Y144964D02*
D03*
X414561D02*
D03*
X400371D02*
D03*
X357124Y271046D02*
D03*
X332657Y246890D02*
D03*
X574548Y17018D02*
D03*
X563574D02*
D03*
X552600D02*
D03*
X541627D02*
D03*
X571636Y271653D02*
D03*
X560662D02*
D03*
X549688D02*
D03*
X538714D02*
D03*
X644629D02*
D03*
X655602D02*
D03*
X666576D02*
D03*
X677550D02*
D03*
X10883Y30560D02*
D03*
Y40212D02*
D03*
X302386Y68834D02*
D03*
X373634Y203198D02*
D03*
X346456Y205869D02*
D03*
X373634Y187198D02*
D03*
X250953Y55681D02*
D03*
X469685Y187120D02*
D03*
Y203120D02*
D03*
X373839Y217182D02*
D03*
X469739Y218488D02*
D03*
X470588Y246890D02*
D03*
X254000Y244094D02*
D03*
X271308Y251765D02*
D03*
X165600Y251968D02*
D03*
X178300D02*
D03*
X293308Y246380D02*
D03*
X406908Y95889D02*
D03*
X152900Y76968D02*
D03*
X140200D02*
D03*
X127500D02*
D03*
X422300Y67536D02*
D03*
X421679Y50212D02*
D03*
X193001Y31546D02*
D03*
Y18742D02*
D03*
X278892Y144526D02*
D03*
X287114Y136304D02*
D03*
X270670Y152748D02*
D03*
X229849Y214579D02*
D03*
X673354Y17526D02*
D03*
X673608Y28871D02*
D03*
Y40217D02*
D03*
Y51562D02*
D03*
X293308Y210054D02*
D03*
X143151Y255539D02*
D03*
X152900Y251968D02*
D03*
X238106Y202358D02*
D03*
X210660Y132498D02*
D03*
X228346Y163322D02*
D03*
X239522D02*
D03*
X314142Y86420D02*
D03*
X335956Y68305D02*
D03*
X13200Y76968D02*
D03*
X25900D02*
D03*
X38600D02*
D03*
X102100Y48032D02*
D03*
X114800Y223032D02*
D03*
X38600Y251968D02*
D03*
X25900D02*
D03*
X13200D02*
D03*
X311665Y102616D02*
D03*
X299899D02*
D03*
X287588D02*
D03*
X252544D02*
D03*
X262746D02*
D03*
X241388Y124771D02*
D03*
X238848Y135458D02*
D03*
X373634Y278888D02*
D03*
Y246888D02*
D03*
X40002Y27050D02*
D03*
X32718D02*
D03*
X10883Y16082D02*
D03*
X346456Y193931D02*
D03*
Y182120D02*
D03*
X212090Y181422D02*
D03*
X377930Y103870D02*
D03*
X222471Y132498D02*
D03*
X210660Y91020D02*
D03*
X242599Y88345D02*
D03*
Y77495D02*
D03*
X421679Y36369D02*
D03*
Y22526D02*
D03*
X503975Y52498D02*
D03*
Y37512D02*
D03*
Y22526D02*
D03*
X512992Y278810D02*
D03*
Y262810D02*
D03*
Y246810D02*
D03*
X490689Y201470D02*
D03*
Y214080D02*
D03*
X346456Y121081D02*
D03*
Y138560D02*
D03*
Y150749D02*
D03*
Y168656D02*
D03*
X357124Y280444D02*
D03*
M02*
