G04*
G04 #@! TF.GenerationSoftware,Altium Limited,Altium Designer,25.8.1 (18)*
G04*
G04 Layer_Color=2752767*
%FSLAX44Y44*%
%MOMM*%
G71*
G04*
G04 #@! TF.SameCoordinates,AE27A26B-8DB4-4DA6-B640-D1B86F1D9442*
G04*
G04*
G04 #@! TF.FilePolarity,Positive*
G04*
G01*
G75*
%ADD13C,0.1270*%
%ADD143C,0.1693*%
D13*
X225806Y21082D02*
Y31242D01*
X235966D01*
Y21082D01*
X225806D01*
X251206D02*
Y31242D01*
X261366D01*
Y21082D01*
X251206D01*
X331216D02*
Y31242D01*
X341376D01*
Y21082D01*
X331216D01*
X305816D02*
Y31242D01*
X315976D01*
Y21082D01*
X305816D01*
X678950Y211170D02*
X673870Y221330D01*
X684030D01*
X678950Y211170D01*
Y78670D02*
X673870Y88830D01*
X684030D01*
X678950Y78670D01*
X142240Y276860D02*
Y287020D01*
X152400D01*
Y276860D01*
X142240D01*
X678950Y104070D02*
X673870Y114230D01*
X684030D01*
X678950Y104070D01*
Y185770D02*
X673870Y195930D01*
X684030D01*
X678950Y185770D01*
X599450Y67470D02*
X601990Y70010D01*
X604530D01*
X601990Y72550D01*
X604530Y75090D01*
X601990D01*
X599450Y77630D01*
X596910Y75090D01*
X594370D01*
X596910Y72550D01*
X594370Y70010D01*
X596910D01*
X599450Y67470D01*
Y222370D02*
X601990Y224910D01*
X604530D01*
X601990Y227450D01*
X604530Y229990D01*
X601990D01*
X599450Y232530D01*
X596910Y229990D01*
X594370D01*
X596910Y227450D01*
X594370Y224910D01*
X596910D01*
X599450Y222370D01*
X624870Y202070D02*
X627410Y207150D01*
X624870Y212230D01*
X629950Y209690D01*
X635030Y212230D01*
X632490Y207150D01*
X635030Y202070D01*
X629950Y204610D01*
X624870Y202070D01*
Y87770D02*
X627410Y92850D01*
X624870Y97930D01*
X629950Y95390D01*
X635030Y97930D01*
X632490Y92850D01*
X635030Y87770D01*
X629950Y90310D01*
X624870Y87770D01*
X73860Y127960D02*
Y125420D01*
X78940D01*
Y127960D01*
X81480D01*
Y133040D01*
X78940D01*
Y135580D01*
X73860D01*
Y133040D01*
X71320D01*
Y127960D01*
X73860D01*
Y141960D02*
Y139420D01*
X78940D01*
Y141960D01*
X81480D01*
Y147040D01*
X78940D01*
Y149580D01*
X73860D01*
Y147040D01*
X71320D01*
Y141960D01*
X73860D01*
X80860Y120960D02*
Y118420D01*
X85940D01*
Y120960D01*
X88480D01*
Y126040D01*
X85940D01*
Y128580D01*
X80860D01*
Y126040D01*
X78320D01*
Y120960D01*
X80860D01*
Y134960D02*
Y132420D01*
X85940D01*
Y134960D01*
X88480D01*
Y140040D01*
X85940D01*
Y142580D01*
X80860D01*
Y140040D01*
X78320D01*
Y134960D01*
X80860D01*
Y148960D02*
Y146420D01*
X85940D01*
Y148960D01*
X88480D01*
Y154040D01*
X85940D01*
Y156580D01*
X80860D01*
Y154040D01*
X78320D01*
Y148960D01*
X80860D01*
X87860Y127960D02*
Y125420D01*
X92940D01*
Y127960D01*
X95480D01*
Y133040D01*
X92940D01*
Y135580D01*
X87860D01*
Y133040D01*
X85320D01*
Y127960D01*
X87860D01*
Y141960D02*
Y139420D01*
X92940D01*
Y141960D01*
X95480D01*
Y147040D01*
X92940D01*
Y149580D01*
X87860D01*
Y147040D01*
X85320D01*
Y141960D01*
X87860D01*
X94860Y120960D02*
Y118420D01*
X99940D01*
Y120960D01*
X102480D01*
Y126040D01*
X99940D01*
Y128580D01*
X94860D01*
Y126040D01*
X92320D01*
Y120960D01*
X94860D01*
Y134960D02*
Y132420D01*
X99940D01*
Y134960D01*
X102480D01*
Y140040D01*
X99940D01*
Y142580D01*
X94860D01*
Y140040D01*
X92320D01*
Y134960D01*
X94860D01*
Y148960D02*
Y146420D01*
X99940D01*
Y148960D01*
X102480D01*
Y154040D01*
X99940D01*
Y156580D01*
X94860D01*
Y154040D01*
X92320D01*
Y148960D01*
X94860D01*
X101860Y127960D02*
Y125420D01*
X106940D01*
Y127960D01*
X109480D01*
Y133040D01*
X106940D01*
Y135580D01*
X101860D01*
Y133040D01*
X99320D01*
Y127960D01*
X101860D01*
Y141960D02*
Y139420D01*
X106940D01*
Y141960D01*
X109480D01*
Y147040D01*
X106940D01*
Y149580D01*
X101860D01*
Y147040D01*
X99320D01*
Y141960D01*
X101860D01*
X40640Y276860D02*
Y287020D01*
X50800D01*
Y276860D01*
X40640D01*
X66040D02*
Y287020D01*
X76200D01*
Y276860D01*
X66040D01*
X91440D02*
Y287020D01*
X101600D01*
Y276860D01*
X91440D01*
X116840D02*
Y287020D01*
X127000D01*
Y276860D01*
X116840D01*
X167640D02*
Y287020D01*
X177800D01*
Y276860D01*
X167640D01*
X74160Y249428D02*
Y246888D01*
X79240D01*
Y249428D01*
X81780D01*
Y254508D01*
X79240D01*
Y257048D01*
X74160D01*
Y254508D01*
X71620D01*
Y249428D01*
X74160D01*
X99560D02*
Y246888D01*
X104640D01*
Y249428D01*
X107180D01*
Y254508D01*
X104640D01*
Y257048D01*
X99560D01*
Y254508D01*
X97020D01*
Y249428D01*
X99560D01*
X330117Y216350D02*
Y213810D01*
X335197D01*
Y216350D01*
X337737D01*
Y221430D01*
X335197D01*
Y223969D01*
X330117D01*
Y221430D01*
X327577D01*
Y216350D01*
X330117D01*
X173792Y204660D02*
Y202120D01*
X178872D01*
Y204660D01*
X181412D01*
Y209740D01*
X178872D01*
Y212280D01*
X173792D01*
Y209740D01*
X171252D01*
Y204660D01*
X173792D01*
X199605Y277984D02*
Y275444D01*
X204685D01*
Y277984D01*
X207225D01*
Y283064D01*
X204685D01*
Y285604D01*
X199605D01*
Y283064D01*
X197065D01*
Y277984D01*
X199605D01*
X285879Y278130D02*
Y275590D01*
X290959D01*
Y278130D01*
X293499D01*
Y283210D01*
X290959D01*
Y285750D01*
X285879D01*
Y283210D01*
X283339D01*
Y278130D01*
X285879D01*
X56134Y191960D02*
Y189420D01*
X61214D01*
Y191960D01*
X63754D01*
Y197040D01*
X61214D01*
Y199580D01*
X56134D01*
Y197040D01*
X53594D01*
Y191960D01*
X56134D01*
X27686Y186794D02*
Y184254D01*
X32766D01*
Y186794D01*
X35306D01*
Y191874D01*
X32766D01*
Y194414D01*
X27686D01*
Y191874D01*
X25146D01*
Y186794D01*
X27686D01*
X173792Y179260D02*
Y176720D01*
X178872D01*
Y179260D01*
X181412D01*
Y184340D01*
X178872D01*
Y186880D01*
X173792D01*
Y184340D01*
X171252D01*
Y179260D01*
X173792D01*
X150360D02*
Y176720D01*
X155440D01*
Y179260D01*
X157980D01*
Y184340D01*
X155440D01*
Y186880D01*
X150360D01*
Y184340D01*
X147820D01*
Y179260D01*
X150360D01*
X139386D02*
Y176720D01*
X144466D01*
Y179260D01*
X147006D01*
Y184340D01*
X144466D01*
Y186880D01*
X139386D01*
Y184340D01*
X136846D01*
Y179260D01*
X139386D01*
X468048Y260270D02*
Y257730D01*
X473128D01*
Y260270D01*
X475668D01*
Y265350D01*
X473128D01*
Y267890D01*
X468048D01*
Y265350D01*
X465508D01*
Y260270D01*
X468048D01*
Y276350D02*
Y273810D01*
X473128D01*
Y276350D01*
X475668D01*
Y281430D01*
X473128D01*
Y283970D01*
X468048D01*
Y281430D01*
X465508D01*
Y276350D01*
X468048D01*
X296482Y181646D02*
Y179106D01*
X301562D01*
Y181646D01*
X304102D01*
Y186726D01*
X301562D01*
Y189266D01*
X296482D01*
Y186726D01*
X293942D01*
Y181646D01*
X296482D01*
Y174188D02*
Y171648D01*
X301562D01*
Y174188D01*
X304102D01*
Y179268D01*
X301562D01*
Y181808D01*
X296482D01*
Y179268D01*
X293942D01*
Y174188D01*
X296482D01*
X343916Y79319D02*
Y76779D01*
X348996D01*
Y79319D01*
X351536D01*
Y84399D01*
X348996D01*
Y86939D01*
X343916D01*
Y84399D01*
X341376D01*
Y79319D01*
X343916D01*
X276352Y61896D02*
Y59356D01*
X281432D01*
Y61896D01*
X283972D01*
Y66976D01*
X281432D01*
Y69516D01*
X276352D01*
Y66976D01*
X273812D01*
Y61896D01*
X276352D01*
X268979D02*
Y59356D01*
X274059D01*
Y61896D01*
X276599D01*
Y66976D01*
X274059D01*
Y69516D01*
X268979D01*
Y66976D01*
X266439D01*
Y61896D01*
X268979D01*
X459210Y101142D02*
Y98602D01*
X464290D01*
Y101142D01*
X466830D01*
Y106222D01*
X464290D01*
Y108762D01*
X459210D01*
Y106222D01*
X456670D01*
Y101142D01*
X459210D01*
X415700Y93349D02*
Y90809D01*
X420780D01*
Y93349D01*
X423320D01*
Y98429D01*
X420780D01*
Y100969D01*
X415700D01*
Y98429D01*
X413160D01*
Y93349D01*
X415700D01*
X383642Y142424D02*
Y139884D01*
X388722D01*
Y142424D01*
X391262D01*
Y147504D01*
X388722D01*
Y150044D01*
X383642D01*
Y147504D01*
X381102D01*
Y142424D01*
X383642D01*
X318620Y177773D02*
Y175233D01*
X323700D01*
Y177773D01*
X326241D01*
Y182853D01*
X323700D01*
Y185393D01*
X318620D01*
Y182853D01*
X316080D01*
Y177773D01*
X318620D01*
X311602Y66294D02*
Y63754D01*
X316681D01*
Y66294D01*
X319221D01*
Y71374D01*
X316681D01*
Y73914D01*
X311602D01*
Y71374D01*
X309062D01*
Y66294D01*
X311602D01*
X163060Y90297D02*
Y87757D01*
X168140D01*
Y90297D01*
X170680D01*
Y95377D01*
X168140D01*
Y97917D01*
X163060D01*
Y95377D01*
X160520D01*
Y90297D01*
X163060D01*
X173792Y90360D02*
Y87820D01*
X178872D01*
Y90360D01*
X181412D01*
Y95440D01*
X178872D01*
Y97980D01*
X173792D01*
Y95440D01*
X171252D01*
Y90360D01*
X173792D01*
X444334Y60945D02*
Y58405D01*
X449414D01*
Y60945D01*
X451954D01*
Y66025D01*
X449414D01*
Y68565D01*
X444334D01*
Y66025D01*
X441795D01*
Y60945D01*
X444334D01*
X360261Y61340D02*
Y58800D01*
X365340D01*
Y61340D01*
X367881D01*
Y66420D01*
X365340D01*
Y68959D01*
X360261D01*
Y66420D01*
X357720D01*
Y61340D01*
X360261D01*
X502832Y64916D02*
Y62376D01*
X507912D01*
Y64916D01*
X510452D01*
Y69996D01*
X507912D01*
Y72536D01*
X502832D01*
Y69996D01*
X500292D01*
Y64916D01*
X502832D01*
X209550Y150682D02*
Y148142D01*
X214630D01*
Y150682D01*
X217170D01*
Y155762D01*
X214630D01*
Y158302D01*
X209550D01*
Y155762D01*
X207010D01*
Y150682D01*
X209550D01*
X196646Y249174D02*
Y246634D01*
X201726D01*
Y249174D01*
X204266D01*
Y254254D01*
X201726D01*
Y256794D01*
X196646D01*
Y254254D01*
X194106D01*
Y249174D01*
X196646D01*
X223023D02*
Y246634D01*
X228103D01*
Y249174D01*
X230643D01*
Y254254D01*
X228103D01*
Y256794D01*
X223023D01*
Y254254D01*
X220483D01*
Y249174D01*
X223023D01*
X358251Y101048D02*
Y98508D01*
X363331D01*
Y101048D01*
X365872D01*
Y106128D01*
X363331D01*
Y108668D01*
X358251D01*
Y106128D01*
X355712D01*
Y101048D01*
X358251D01*
Y92084D02*
Y89544D01*
X363331D01*
Y92084D01*
X365872D01*
Y97164D01*
X363331D01*
Y99704D01*
X358251D01*
Y97164D01*
X355712D01*
Y92084D01*
X358251D01*
X232096Y100076D02*
Y97536D01*
X237176D01*
Y100076D01*
X239716D01*
Y105156D01*
X237176D01*
Y107696D01*
X232096D01*
Y105156D01*
X229556D01*
Y100076D01*
X232096D01*
X117438Y179260D02*
Y176720D01*
X122519D01*
Y179260D01*
X125058D01*
Y184340D01*
X122519D01*
Y186880D01*
X117438D01*
Y184340D01*
X114899D01*
Y179260D01*
X117438D01*
X128412D02*
Y176720D01*
X133492D01*
Y179260D01*
X136032D01*
Y184340D01*
X133492D01*
Y186880D01*
X128412D01*
Y184340D01*
X125872D01*
Y179260D01*
X128412D01*
X27686Y197768D02*
Y195228D01*
X32766D01*
Y197768D01*
X35306D01*
Y202847D01*
X32766D01*
Y205387D01*
X27686D01*
Y202847D01*
X25146D01*
Y197768D01*
X27686D01*
Y175820D02*
Y173280D01*
X32766D01*
Y175820D01*
X35306D01*
Y180900D01*
X32766D01*
Y183440D01*
X27686D01*
Y180900D01*
X25146D01*
Y175820D01*
X27686D01*
Y164846D02*
Y162306D01*
X32766D01*
Y164846D01*
X35306D01*
Y169926D01*
X32766D01*
Y172466D01*
X27686D01*
Y169926D01*
X25146D01*
Y164846D01*
X27686D01*
X116760Y101271D02*
Y98731D01*
X121840D01*
Y101271D01*
X124380D01*
Y106351D01*
X121840D01*
Y108891D01*
X116760D01*
Y106351D01*
X114220D01*
Y101271D01*
X116760D01*
Y90297D02*
Y87757D01*
X121840D01*
Y90297D01*
X124380D01*
Y95377D01*
X121840D01*
Y97917D01*
X116760D01*
Y95377D01*
X114220D01*
Y90297D01*
X116760D01*
X163060Y101271D02*
Y98731D01*
X168140D01*
Y101271D01*
X170680D01*
Y106351D01*
X168140D01*
Y108891D01*
X163060D01*
Y106351D01*
X160520D01*
Y101271D01*
X163060D01*
X449975Y110237D02*
Y107697D01*
X455055D01*
Y110237D01*
X457595D01*
Y115317D01*
X455055D01*
Y117857D01*
X449975D01*
Y115317D01*
X447435D01*
Y110237D01*
X449975D01*
X439001D02*
Y107697D01*
X444081D01*
Y110237D01*
X446621D01*
Y115317D01*
X444081D01*
Y117857D01*
X439001D01*
Y115317D01*
X436461D01*
Y110237D01*
X439001D01*
X428027D02*
Y107697D01*
X433107D01*
Y110237D01*
X435647D01*
Y115317D01*
X433107D01*
Y117857D01*
X428027D01*
Y115317D01*
X425487D01*
Y110237D01*
X428027D01*
X417053D02*
Y107697D01*
X422133D01*
Y110237D01*
X424674D01*
Y115317D01*
X422133D01*
Y117857D01*
X417053D01*
Y115317D01*
X414514D01*
Y110237D01*
X417053D01*
X539086Y48006D02*
Y45466D01*
X544166D01*
Y48006D01*
X546707D01*
Y53086D01*
X544166D01*
Y55626D01*
X539086D01*
Y53086D01*
X536547D01*
Y48006D01*
X539086D01*
X550060D02*
Y45466D01*
X555140D01*
Y48006D01*
X557680D01*
Y53086D01*
X555140D01*
Y55626D01*
X550060D01*
Y53086D01*
X547520D01*
Y48006D01*
X550060D01*
X561034D02*
Y45466D01*
X566114D01*
Y48006D01*
X568654D01*
Y53086D01*
X566114D01*
Y55626D01*
X561034D01*
Y53086D01*
X558494D01*
Y48006D01*
X561034D01*
X572008D02*
Y45466D01*
X577088D01*
Y48006D01*
X579628D01*
Y53086D01*
X577088D01*
Y55626D01*
X572008D01*
Y53086D01*
X569468D01*
Y48006D01*
X572008D01*
X163060Y24955D02*
Y22415D01*
X168140D01*
Y24955D01*
X170680D01*
Y30035D01*
X168140D01*
Y32575D01*
X163060D01*
Y30035D01*
X160520D01*
Y24955D01*
X163060D01*
X137660Y24767D02*
Y22227D01*
X142740D01*
Y24767D01*
X145280D01*
Y29848D01*
X142740D01*
Y32387D01*
X137660D01*
Y29848D01*
X135120D01*
Y24767D01*
X137660D01*
X112260D02*
Y22227D01*
X117340D01*
Y24767D01*
X119880D01*
Y29848D01*
X117340D01*
Y32387D01*
X112260D01*
Y29848D01*
X109720D01*
Y24767D01*
X112260D01*
X86860D02*
Y22227D01*
X91940D01*
Y24767D01*
X94480D01*
Y29848D01*
X91940D01*
Y32387D01*
X86860D01*
Y29848D01*
X84320D01*
Y24767D01*
X86860D01*
X360261Y12947D02*
Y10407D01*
X365340D01*
Y12947D01*
X367881D01*
Y18027D01*
X365340D01*
Y20567D01*
X360261D01*
Y18027D01*
X357720D01*
Y12947D01*
X360261D01*
X360174Y28336D02*
Y25796D01*
X365254D01*
Y28336D01*
X367794D01*
Y33416D01*
X365254D01*
Y35956D01*
X360174D01*
Y33416D01*
X357634D01*
Y28336D01*
X360174D01*
X426210Y142424D02*
Y139884D01*
X431290D01*
Y142424D01*
X433830D01*
Y147504D01*
X431290D01*
Y150044D01*
X426210D01*
Y147504D01*
X423670D01*
Y142424D01*
X426210D01*
X412021D02*
Y139884D01*
X417101D01*
Y142424D01*
X419641D01*
Y147504D01*
X417101D01*
Y150044D01*
X412021D01*
Y147504D01*
X409481D01*
Y142424D01*
X412021D01*
X397831D02*
Y139884D01*
X402911D01*
Y142424D01*
X405451D01*
Y147504D01*
X402911D01*
Y150044D01*
X397831D01*
Y147504D01*
X395291D01*
Y142424D01*
X397831D01*
X354584Y268506D02*
Y265966D01*
X359664D01*
Y268506D01*
X362204D01*
Y273586D01*
X359664D01*
Y276126D01*
X354584D01*
Y273586D01*
X352044D01*
Y268506D01*
X354584D01*
X330117Y244350D02*
Y241810D01*
X335197D01*
Y244350D01*
X337737D01*
Y249430D01*
X335197D01*
Y251970D01*
X330117D01*
Y249430D01*
X327577D01*
Y244350D01*
X330117D01*
X572008Y14478D02*
Y11938D01*
X577088D01*
Y14478D01*
X579628D01*
Y19558D01*
X577088D01*
Y22098D01*
X572008D01*
Y19558D01*
X569468D01*
Y14478D01*
X572008D01*
X561034D02*
Y11938D01*
X566114D01*
Y14478D01*
X568654D01*
Y19558D01*
X566114D01*
Y22098D01*
X561034D01*
Y19558D01*
X558494D01*
Y14478D01*
X561034D01*
X550060D02*
Y11938D01*
X555140D01*
Y14478D01*
X557680D01*
Y19558D01*
X555140D01*
Y22098D01*
X550060D01*
Y19558D01*
X547520D01*
Y14478D01*
X550060D01*
X539086D02*
Y11938D01*
X544166D01*
Y14478D01*
X546707D01*
Y19558D01*
X544166D01*
Y22098D01*
X539086D01*
Y19558D01*
X536547D01*
Y14478D01*
X539086D01*
X569095Y269113D02*
Y266573D01*
X574175D01*
Y269113D01*
X576716D01*
Y274193D01*
X574175D01*
Y276733D01*
X569095D01*
Y274193D01*
X566555D01*
Y269113D01*
X569095D01*
X558122D02*
Y266573D01*
X563202D01*
Y269113D01*
X565742D01*
Y274193D01*
X563202D01*
Y276733D01*
X558122D01*
Y274193D01*
X555582D01*
Y269113D01*
X558122D01*
X547148D02*
Y266573D01*
X552228D01*
Y269113D01*
X554768D01*
Y274193D01*
X552228D01*
Y276733D01*
X547148D01*
Y274193D01*
X544608D01*
Y269113D01*
X547148D01*
X536174D02*
Y266573D01*
X541254D01*
Y269113D01*
X543794D01*
Y274193D01*
X541254D01*
Y276733D01*
X536174D01*
Y274193D01*
X533634D01*
Y269113D01*
X536174D01*
X642089D02*
Y266573D01*
X647169D01*
Y269113D01*
X649709D01*
Y274193D01*
X647169D01*
Y276733D01*
X642089D01*
Y274193D01*
X639549D01*
Y269113D01*
X642089D01*
X653062D02*
Y266573D01*
X658142D01*
Y269113D01*
X660682D01*
Y274193D01*
X658142D01*
Y276733D01*
X653062D01*
Y274193D01*
X650522D01*
Y269113D01*
X653062D01*
X664036D02*
Y266573D01*
X669116D01*
Y269113D01*
X671656D01*
Y274193D01*
X669116D01*
Y276733D01*
X664036D01*
Y274193D01*
X661496D01*
Y269113D01*
X664036D01*
X675010D02*
Y266573D01*
X680090D01*
Y269113D01*
X682630D01*
Y274193D01*
X680090D01*
Y276733D01*
X675010D01*
Y274193D01*
X672470D01*
Y269113D01*
X675010D01*
X8343Y28020D02*
Y25480D01*
X13423D01*
Y28020D01*
X15963D01*
Y33100D01*
X13423D01*
Y35640D01*
X8343D01*
Y33100D01*
X5803D01*
Y28020D01*
X8343D01*
Y37672D02*
Y35132D01*
X13423D01*
Y37672D01*
X15963D01*
Y42752D01*
X13423D01*
Y45292D01*
X8343D01*
Y42752D01*
X5803D01*
Y37672D01*
X8343D01*
X299846Y66294D02*
Y63754D01*
X304926D01*
Y66294D01*
X307467D01*
Y71374D01*
X304926D01*
Y73914D01*
X299846D01*
Y71374D01*
X297306D01*
Y66294D01*
X299846D01*
X371094Y200658D02*
Y198118D01*
X376174D01*
Y200658D01*
X378714D01*
Y205738D01*
X376174D01*
Y208278D01*
X371094D01*
Y205738D01*
X368554D01*
Y200658D01*
X371094D01*
X343916Y203329D02*
Y200789D01*
X348996D01*
Y203329D01*
X351536D01*
Y208409D01*
X348996D01*
Y210949D01*
X343916D01*
Y208409D01*
X341376D01*
Y203329D01*
X343916D01*
X371094Y184658D02*
Y182118D01*
X376174D01*
Y184658D01*
X378714D01*
Y189738D01*
X376174D01*
Y192278D01*
X371094D01*
Y189738D01*
X368554D01*
Y184658D01*
X371094D01*
X248413Y53141D02*
Y50601D01*
X253493D01*
Y53141D01*
X256033D01*
Y58221D01*
X253493D01*
Y60761D01*
X248413D01*
Y58221D01*
X245873D01*
Y53141D01*
X248413D01*
X467145Y184580D02*
Y182040D01*
X472225D01*
Y184580D01*
X474765D01*
Y189660D01*
X472225D01*
Y192200D01*
X467145D01*
Y189660D01*
X464605D01*
Y184580D01*
X467145D01*
Y200580D02*
Y198040D01*
X472225D01*
Y200580D01*
X474765D01*
Y205660D01*
X472225D01*
Y208200D01*
X467145D01*
Y205660D01*
X464605D01*
Y200580D01*
X467145D01*
X371299Y214642D02*
Y212102D01*
X376379D01*
Y214642D01*
X378919D01*
Y219722D01*
X376379D01*
Y222262D01*
X371299D01*
Y219722D01*
X368759D01*
Y214642D01*
X371299D01*
X467200Y215948D02*
Y213408D01*
X472280D01*
Y215948D01*
X474819D01*
Y221028D01*
X472280D01*
Y223568D01*
X467200D01*
Y221028D01*
X464660D01*
Y215948D01*
X467200D01*
X468048Y244350D02*
Y241810D01*
X473128D01*
Y244350D01*
X475668D01*
Y249430D01*
X473128D01*
Y251970D01*
X468048D01*
Y249430D01*
X465508D01*
Y244350D01*
X468048D01*
X251460Y241554D02*
Y239014D01*
X256540D01*
Y241554D01*
X259080D01*
Y246634D01*
X256540D01*
Y249174D01*
X251460D01*
Y246634D01*
X248920D01*
Y241554D01*
X251460D01*
X268768Y249225D02*
Y246685D01*
X273848D01*
Y249225D01*
X276388D01*
Y254305D01*
X273848D01*
Y256845D01*
X268768D01*
Y254305D01*
X266228D01*
Y249225D01*
X268768D01*
X163060Y249428D02*
Y246888D01*
X168140D01*
Y249428D01*
X170680D01*
Y254508D01*
X168140D01*
Y257048D01*
X163060D01*
Y254508D01*
X160520D01*
Y249428D01*
X163060D01*
X175760D02*
Y246888D01*
X180840D01*
Y249428D01*
X183380D01*
Y254508D01*
X180840D01*
Y257048D01*
X175760D01*
Y254508D01*
X173220D01*
Y249428D01*
X175760D01*
X290768Y243840D02*
Y241300D01*
X295848D01*
Y243840D01*
X298388D01*
Y248920D01*
X295848D01*
Y251460D01*
X290768D01*
Y248920D01*
X288228D01*
Y243840D01*
X290768D01*
X404368Y93349D02*
Y90809D01*
X409448D01*
Y93349D01*
X411988D01*
Y98429D01*
X409448D01*
Y100969D01*
X404368D01*
Y98429D01*
X401828D01*
Y93349D01*
X404368D01*
X150360Y74428D02*
Y71888D01*
X155440D01*
Y74428D01*
X157980D01*
Y79508D01*
X155440D01*
Y82048D01*
X150360D01*
Y79508D01*
X147820D01*
Y74428D01*
X150360D01*
X137660D02*
Y71888D01*
X142740D01*
Y74428D01*
X145280D01*
Y79508D01*
X142740D01*
Y82048D01*
X137660D01*
Y79508D01*
X135120D01*
Y74428D01*
X137660D01*
X124960D02*
Y71888D01*
X130040D01*
Y74428D01*
X132580D01*
Y79508D01*
X130040D01*
Y82048D01*
X124960D01*
Y79508D01*
X122420D01*
Y74428D01*
X124960D01*
X419760Y64996D02*
Y62456D01*
X424840D01*
Y64996D01*
X427380D01*
Y70076D01*
X424840D01*
Y72616D01*
X419760D01*
Y70076D01*
X417220D01*
Y64996D01*
X419760D01*
X419139Y47672D02*
Y45132D01*
X424219D01*
Y47672D01*
X426759D01*
Y52752D01*
X424219D01*
Y55292D01*
X419139D01*
Y52752D01*
X416599D01*
Y47672D01*
X419139D01*
X190461Y29006D02*
Y26466D01*
X195541D01*
Y29006D01*
X198081D01*
Y34086D01*
X195541D01*
Y36626D01*
X190461D01*
Y34086D01*
X187921D01*
Y29006D01*
X190461D01*
Y16202D02*
Y13662D01*
X195541D01*
Y16202D01*
X198081D01*
Y21282D01*
X195541D01*
Y23822D01*
X190461D01*
Y21282D01*
X187921D01*
Y16202D01*
X190461D01*
X276352Y141986D02*
Y139446D01*
X281432D01*
Y141986D01*
X283972D01*
Y147066D01*
X281432D01*
Y149606D01*
X276352D01*
Y147066D01*
X273812D01*
Y141986D01*
X276352D01*
X284574Y133764D02*
Y131224D01*
X289654D01*
Y133764D01*
X292194D01*
Y138844D01*
X289654D01*
Y141384D01*
X284574D01*
Y138844D01*
X282034D01*
Y133764D01*
X284574D01*
X268130Y150208D02*
Y147668D01*
X273210D01*
Y150208D01*
X275750D01*
Y155288D01*
X273210D01*
Y157828D01*
X268130D01*
Y155288D01*
X265590D01*
Y150208D01*
X268130D01*
X227309Y212039D02*
Y209499D01*
X232390D01*
Y212039D01*
X234930D01*
Y217119D01*
X232390D01*
Y219659D01*
X227309D01*
Y217119D01*
X224769D01*
Y212039D01*
X227309D01*
X670814Y14986D02*
Y12446D01*
X675894D01*
Y14986D01*
X678434D01*
Y20066D01*
X675894D01*
Y22606D01*
X670814D01*
Y20066D01*
X668274D01*
Y14986D01*
X670814D01*
X671068Y26331D02*
Y23791D01*
X676148D01*
Y26331D01*
X678688D01*
Y31411D01*
X676148D01*
Y33951D01*
X671068D01*
Y31411D01*
X668528D01*
Y26331D01*
X671068D01*
Y37677D02*
Y35137D01*
X676148D01*
Y37677D01*
X678688D01*
Y42757D01*
X676148D01*
Y45297D01*
X671068D01*
Y42757D01*
X668528D01*
Y37677D01*
X671068D01*
Y49022D02*
Y46482D01*
X676148D01*
Y49022D01*
X678688D01*
Y54102D01*
X676148D01*
Y56642D01*
X671068D01*
Y54102D01*
X668528D01*
Y49022D01*
X671068D01*
X290768Y207514D02*
Y204974D01*
X295848D01*
Y207514D01*
X298388D01*
Y212594D01*
X295848D01*
Y215134D01*
X290768D01*
Y212594D01*
X288228D01*
Y207514D01*
X290768D01*
X140611Y252999D02*
Y250459D01*
X145691D01*
Y252999D01*
X148231D01*
Y258079D01*
X145691D01*
Y260619D01*
X140611D01*
Y258079D01*
X138071D01*
Y252999D01*
X140611D01*
X150360Y249428D02*
Y246888D01*
X155440D01*
Y249428D01*
X157980D01*
Y254508D01*
X155440D01*
Y257048D01*
X150360D01*
Y254508D01*
X147820D01*
Y249428D01*
X150360D01*
X235566Y199818D02*
Y197278D01*
X240646D01*
Y199818D01*
X243186D01*
Y204898D01*
X240646D01*
Y207438D01*
X235566D01*
Y204898D01*
X233026D01*
Y199818D01*
X235566D01*
X208120Y129958D02*
Y127418D01*
X213200D01*
Y129958D01*
X215740D01*
Y135038D01*
X213200D01*
Y137578D01*
X208120D01*
Y135038D01*
X205580D01*
Y129958D01*
X208120D01*
X225806Y160782D02*
Y158242D01*
X230886D01*
Y160782D01*
X233426D01*
Y165862D01*
X230886D01*
Y168402D01*
X225806D01*
Y165862D01*
X223266D01*
Y160782D01*
X225806D01*
X236982D02*
Y158242D01*
X242062D01*
Y160782D01*
X244602D01*
Y165862D01*
X242062D01*
Y168402D01*
X236982D01*
Y165862D01*
X234442D01*
Y160782D01*
X236982D01*
X311602Y83880D02*
Y81340D01*
X316681D01*
Y83880D01*
X319221D01*
Y88960D01*
X316681D01*
Y91500D01*
X311602D01*
Y88960D01*
X309062D01*
Y83880D01*
X311602D01*
X333416Y65764D02*
Y63225D01*
X338496D01*
Y65764D01*
X341036D01*
Y70844D01*
X338496D01*
Y73384D01*
X333416D01*
Y70844D01*
X330876D01*
Y65764D01*
X333416D01*
X10660Y74428D02*
Y71888D01*
X15740D01*
Y74428D01*
X18280D01*
Y79508D01*
X15740D01*
Y82048D01*
X10660D01*
Y79508D01*
X8120D01*
Y74428D01*
X10660D01*
X23360D02*
Y71888D01*
X28440D01*
Y74428D01*
X30980D01*
Y79508D01*
X28440D01*
Y82048D01*
X23360D01*
Y79508D01*
X20820D01*
Y74428D01*
X23360D01*
X36060D02*
Y71888D01*
X41140D01*
Y74428D01*
X43680D01*
Y79508D01*
X41140D01*
Y82048D01*
X36060D01*
Y79508D01*
X33520D01*
Y74428D01*
X36060D01*
X99560Y45492D02*
Y42952D01*
X104640D01*
Y45492D01*
X107180D01*
Y50572D01*
X104640D01*
Y53112D01*
X99560D01*
Y50572D01*
X97020D01*
Y45492D01*
X99560D01*
X112260Y220492D02*
Y217952D01*
X117340D01*
Y220492D01*
X119880D01*
Y225572D01*
X117340D01*
Y228112D01*
X112260D01*
Y225572D01*
X109720D01*
Y220492D01*
X112260D01*
X36060Y249428D02*
Y246888D01*
X41140D01*
Y249428D01*
X43680D01*
Y254508D01*
X41140D01*
Y257048D01*
X36060D01*
Y254508D01*
X33520D01*
Y249428D01*
X36060D01*
X23360D02*
Y246888D01*
X28440D01*
Y249428D01*
X30980D01*
Y254508D01*
X28440D01*
Y257048D01*
X23360D01*
Y254508D01*
X20820D01*
Y249428D01*
X23360D01*
X10660D02*
Y246888D01*
X15740D01*
Y249428D01*
X18280D01*
Y254508D01*
X15740D01*
Y257048D01*
X10660D01*
Y254508D01*
X8120D01*
Y249428D01*
X10660D01*
X309125Y100076D02*
Y97536D01*
X314205D01*
Y100076D01*
X316744D01*
Y105156D01*
X314205D01*
Y107696D01*
X309125D01*
Y105156D01*
X306584D01*
Y100076D01*
X309125D01*
X297359D02*
Y97536D01*
X302439D01*
Y100076D01*
X304979D01*
Y105156D01*
X302439D01*
Y107696D01*
X297359D01*
Y105156D01*
X294819D01*
Y100076D01*
X297359D01*
X285048D02*
Y97536D01*
X290128D01*
Y100076D01*
X292668D01*
Y105156D01*
X290128D01*
Y107696D01*
X285048D01*
Y105156D01*
X282508D01*
Y100076D01*
X285048D01*
X250004D02*
Y97536D01*
X255084D01*
Y100076D01*
X257624D01*
Y105156D01*
X255084D01*
Y107696D01*
X250004D01*
Y105156D01*
X247464D01*
Y100076D01*
X250004D01*
X260206D02*
Y97536D01*
X265286D01*
Y100076D01*
X267826D01*
Y105156D01*
X265286D01*
Y107696D01*
X260206D01*
Y105156D01*
X257666D01*
Y100076D01*
X260206D01*
X238848Y122231D02*
Y119691D01*
X243928D01*
Y122231D01*
X246468D01*
Y127311D01*
X243928D01*
Y129851D01*
X238848D01*
Y127311D01*
X236308D01*
Y122231D01*
X238848D01*
X236308Y132918D02*
Y130378D01*
X241388D01*
Y132918D01*
X243928D01*
Y137998D01*
X241388D01*
Y140538D01*
X236308D01*
Y137998D01*
X233768D01*
Y132918D01*
X236308D01*
X371094Y276348D02*
Y273808D01*
X376174D01*
Y276348D01*
X378714D01*
Y281428D01*
X376174D01*
Y283968D01*
X371094D01*
Y281428D01*
X368554D01*
Y276348D01*
X371094D01*
Y244348D02*
Y241808D01*
X376174D01*
Y244348D01*
X378714D01*
Y249428D01*
X376174D01*
Y251968D01*
X371094D01*
Y249428D01*
X368554D01*
Y244348D01*
X371094D01*
X37462Y24510D02*
Y21970D01*
X42542D01*
Y24510D01*
X45082D01*
Y29590D01*
X42542D01*
Y32130D01*
X37462D01*
Y29590D01*
X34922D01*
Y24510D01*
X37462D01*
X30178D02*
Y21970D01*
X35258D01*
Y24510D01*
X37798D01*
Y29590D01*
X35258D01*
Y32130D01*
X30178D01*
Y29590D01*
X27638D01*
Y24510D01*
X30178D01*
X8343Y13542D02*
Y11002D01*
X13423D01*
Y13542D01*
X15963D01*
Y18622D01*
X13423D01*
Y21162D01*
X8343D01*
Y18622D01*
X5803D01*
Y13542D01*
X8343D01*
X343916Y191391D02*
Y188851D01*
X348996D01*
Y191391D01*
X351536D01*
Y196471D01*
X348996D01*
Y199011D01*
X343916D01*
Y196471D01*
X341376D01*
Y191391D01*
X343916D01*
Y179580D02*
Y177040D01*
X348996D01*
Y179580D01*
X351536D01*
Y184660D01*
X348996D01*
Y187200D01*
X343916D01*
Y184660D01*
X341376D01*
Y179580D01*
X343916D01*
X209550Y178882D02*
Y176342D01*
X214630D01*
Y178882D01*
X217170D01*
Y183962D01*
X214630D01*
Y186502D01*
X209550D01*
Y183962D01*
X207010D01*
Y178882D01*
X209550D01*
X375390Y101330D02*
Y98790D01*
X380470D01*
Y101330D01*
X383010D01*
Y106410D01*
X380470D01*
Y108950D01*
X375390D01*
Y106410D01*
X372850D01*
Y101330D01*
X375390D01*
X219931Y129958D02*
Y127418D01*
X225011D01*
Y129958D01*
X227551D01*
Y135038D01*
X225011D01*
Y137578D01*
X219931D01*
Y135038D01*
X217391D01*
Y129958D01*
X219931D01*
X208120Y88480D02*
Y85940D01*
X213200D01*
Y88480D01*
X215740D01*
Y93560D01*
X213200D01*
Y96100D01*
X208120D01*
Y93560D01*
X205580D01*
Y88480D01*
X208120D01*
X240059Y85805D02*
Y83265D01*
X245139D01*
Y85805D01*
X247679D01*
Y90885D01*
X245139D01*
Y93425D01*
X240059D01*
Y90885D01*
X237519D01*
Y85805D01*
X240059D01*
Y74955D02*
Y72415D01*
X245139D01*
Y74955D01*
X247679D01*
Y80035D01*
X245139D01*
Y82575D01*
X240059D01*
Y80035D01*
X237519D01*
Y74955D01*
X240059D01*
X419139Y33829D02*
Y31289D01*
X424219D01*
Y33829D01*
X426759D01*
Y38909D01*
X424219D01*
Y41449D01*
X419139D01*
Y38909D01*
X416599D01*
Y33829D01*
X419139D01*
Y19986D02*
Y17446D01*
X424219D01*
Y19986D01*
X426759D01*
Y25066D01*
X424219D01*
Y27606D01*
X419139D01*
Y25066D01*
X416599D01*
Y19986D01*
X419139D01*
X501435Y49958D02*
Y47418D01*
X506515D01*
Y49958D01*
X509055D01*
Y55038D01*
X506515D01*
Y57578D01*
X501435D01*
Y55038D01*
X498895D01*
Y49958D01*
X501435D01*
Y34972D02*
Y32432D01*
X506515D01*
Y34972D01*
X509055D01*
Y40052D01*
X506515D01*
Y42592D01*
X501435D01*
Y40052D01*
X498895D01*
Y34972D01*
X501435D01*
Y19986D02*
Y17446D01*
X506515D01*
Y19986D01*
X509055D01*
Y25066D01*
X506515D01*
Y27606D01*
X501435D01*
Y25066D01*
X498895D01*
Y19986D01*
X501435D01*
X510452Y276270D02*
Y273730D01*
X515532D01*
Y276270D01*
X518072D01*
Y281350D01*
X515532D01*
Y283890D01*
X510452D01*
Y281350D01*
X507912D01*
Y276270D01*
X510452D01*
Y260270D02*
Y257730D01*
X515532D01*
Y260270D01*
X518072D01*
Y265350D01*
X515532D01*
Y267890D01*
X510452D01*
Y265350D01*
X507912D01*
Y260270D01*
X510452D01*
Y244270D02*
Y241730D01*
X515532D01*
Y244270D01*
X518072D01*
Y249350D01*
X515532D01*
Y251890D01*
X510452D01*
Y249350D01*
X507912D01*
Y244270D01*
X510452D01*
X488149Y198930D02*
Y196390D01*
X493229D01*
Y198930D01*
X495769D01*
Y204010D01*
X493229D01*
Y206550D01*
X488149D01*
Y204010D01*
X485609D01*
Y198930D01*
X488149D01*
Y211540D02*
Y209000D01*
X493229D01*
Y211540D01*
X495769D01*
Y216620D01*
X493229D01*
Y219160D01*
X488149D01*
Y216620D01*
X485609D01*
Y211540D01*
X488149D01*
X343916Y118541D02*
Y116002D01*
X348996D01*
Y118541D01*
X351536D01*
Y123622D01*
X348996D01*
Y126161D01*
X343916D01*
Y123622D01*
X341376D01*
Y118541D01*
X343916D01*
Y136020D02*
Y133480D01*
X348996D01*
Y136020D01*
X351536D01*
Y141100D01*
X348996D01*
Y143640D01*
X343916D01*
Y141100D01*
X341376D01*
Y136020D01*
X343916D01*
Y148209D02*
Y145669D01*
X348996D01*
Y148209D01*
X351536D01*
Y153289D01*
X348996D01*
Y155829D01*
X343916D01*
Y153289D01*
X341376D01*
Y148209D01*
X343916D01*
Y166116D02*
Y163576D01*
X348996D01*
Y166116D01*
X351536D01*
Y171196D01*
X348996D01*
Y173736D01*
X343916D01*
Y171196D01*
X341376D01*
Y166116D01*
X343916D01*
X354584Y277904D02*
Y275364D01*
X359664D01*
Y277904D01*
X362204D01*
Y282984D01*
X359664D01*
Y285524D01*
X354584D01*
Y282984D01*
X352044D01*
Y277904D01*
X354584D01*
D143*
X571530Y105500D02*
G03*
X571530Y105500I-5080J0D01*
G01*
X546130Y118200D02*
G03*
X546130Y118200I-5080J0D01*
G01*
X571530Y130900D02*
G03*
X571530Y130900I-5080J0D01*
G01*
X546130Y143600D02*
G03*
X546130Y143600I-5080J0D01*
G01*
X571530Y156300D02*
G03*
X571530Y156300I-5080J0D01*
G01*
X546130Y169000D02*
G03*
X546130Y169000I-5080J0D01*
G01*
X571530Y181700D02*
G03*
X571530Y181700I-5080J0D01*
G01*
X546130Y194400D02*
G03*
X546130Y194400I-5080J0D01*
G01*
M02*
