M48
;Layer_Color=9474304
;FILE_FORMAT=4:4
METRIC,LZ
;TYPE=PLATED
T01F00S00C0.3000
T02F00S00C0.8900
T03F00S00C0.9000
T04F00S00C1.0200
T05F00S00C1.6300
;TYPE=NON_PLATED
T06F00S00C3.2500
%
T01
X00264883Y00270082
Y0028456
Y00294212
X00286718Y0028105
X00294002
X003434Y00281308
X003688
X003942
Y00330968
X003815
X003733Y00346837
Y00357811
X003584Y003845
X003444
X003514Y003775
X003374
X003304Y003845
X003374Y003915
X003514
X003561Y00302032
X002926Y00330968
X002799
X002672
X004069
X004196Y00346837
X00430332Y003469
X004196Y00357811
X0046466Y0034502
X00496599Y00342345
Y00331495
X00504953Y00309681
X00525519Y00318436
X00532892
X00556386Y00322834
X00568142
Y0034042
X00565664Y00356616
X00553899
X00541588
X00516746
X00506544
X00488636
X00495388Y00378771
X00492848Y00389458
X00476471Y00386498
X0046466
X00541114Y00390304
X00600456Y0039256
Y00375081
X00614791Y00357588
Y00348624
X0063193Y0035787
X00660908Y00349889
X0067224
X00673594Y00366777
X00684567
X00695541
X00706515
X0071575Y00357682
X00700874Y00317485
X006763Y00321536
X00675679Y00304212
Y00290369
Y00276526
X006168Y00269487
X00616714Y00284876
X006168Y0031788
X00589956Y00322304
X00600456Y00335859
X00759372Y00321456
X00757975Y00306498
Y00291512
Y00276526
X00447001Y00272742
Y00285546
X004196Y00281495
X00795627Y00271018
X008066
X00817574
X00828548
Y00304546
X00817574
X008066
X00795627
X00927608Y00305562
Y00294217
Y00282871
X00927354Y00271526
X0093155Y00525653
X00920576
X00909602
X00898629
X00825636
X00814662
X00803688
X00792714
X00766992Y0053281
Y0051681
Y0050081
X00724588Y0050089
Y0051681
Y0053289
X00723739Y00472488
X00723685Y0045712
Y0044112
X00744689Y0045547
Y0046808
X00627839Y00471182
X00627634Y00457198
Y00441198
X00600456Y0043612
Y00447931
Y00459869
X00586657Y0047289
Y0050089
X00547308Y0050038
X00525308Y00505765
X00508Y00498094
X00479563Y00505714
X00453186
X004323Y00505968
X004196
X004069
X00397151Y00509539
X00430332Y004612
Y004358
X004069
X0046609Y00435422
Y00407222
X00482346Y00417322
X00493522
X00492106Y00456358
X00483849Y00468579
X00547308Y00464054
X00553022Y00438186
Y00430728
X0057516Y00434313
X00600456Y00422656
Y00404749
X00640182Y00398964
X00654371
X00668561
X0068275
X00532892Y00398526
X0052467Y00406748
X00542419Y0053467
X00611124Y00534444
Y00525046
X00627634Y00532888
Y00500888
X00456145Y00534524
X003561Y00505968
X003307
X002926
X002799
X002672
X00284226Y00454308
Y00443334
Y0043236
Y00421386
X00312674Y004485
X003374Y004055
X003304Y003985
X003444
X003514Y004055
X003584Y003985
X00373979Y004358
X00384952
X00395926
X003688Y00477032
T02
X0079505Y003722
X0082045Y003595
Y003849
Y004103
Y004357
X0079505Y00423
Y003976
Y004484
T03
X00484886Y00280162
X00510286
X00564896
X00590296
X0042672Y0053594
X0040132
X0037592
X0035052
X0032512
X0029972
T04
X0093295Y0033775
Y0036315
Y0044485
Y0047025
T05
X0085345Y0032655
Y0048145
T06
X0088395Y0034685
Y0046115
M30
