G04*
G04 #@! TF.GenerationSoftware,Altium Limited,Altium Designer,25.8.1 (18)*
G04*
G04 Layer_Color=65535*
%FSLAX44Y44*%
%MOMM*%
G71*
G04*
G04 #@! TF.SameCoordinates,AE27A26B-8DB4-4DA6-B640-D1B86F1D9442*
G04*
G04*
G04 #@! TF.FilePolarity,Positive*
G04*
G01*
G75*
%ADD10C,0.2500*%
%ADD11C,0.3000*%
%ADD12C,0.2540*%
%ADD13C,0.1270*%
%ADD14C,0.2000*%
%ADD15C,0.0032*%
%ADD16C,0.1778*%
%ADD17R,0.3048X1.0922*%
%ADD18R,1.0160X0.4318*%
%ADD19R,1.0780X0.4180*%
%ADD20R,0.4400X1.9800*%
%ADD21R,4.1656X0.7112*%
%ADD22R,0.5334X2.4638*%
%ADD23R,0.5334X2.5400*%
%ADD24R,2.5400X0.5334*%
D10*
X292642Y177087D02*
G03*
X292642Y177087I-1250J0D01*
G01*
D11*
X566542Y93612D02*
G03*
X566542Y93612I-1500J0D01*
G01*
D12*
X321371Y280670D02*
G03*
X321371Y280670I-6411J0D01*
G01*
X268031D02*
G03*
X268031Y280670I-6411J0D01*
G01*
X447294Y279400D02*
X448564Y278130D01*
X447294Y279400D02*
X448564Y280670D01*
Y278130D02*
Y280670D01*
X376936Y187960D02*
X378206Y186690D01*
X376936Y185420D02*
X378206Y186690D01*
X376936Y185420D02*
Y187960D01*
D13*
X3915Y11294D02*
Y26418D01*
X12954D01*
X23622D02*
X28702D01*
X23622Y34546D02*
X28702D01*
Y26418D02*
Y34546D01*
X12954Y26418D02*
X18034D01*
X12954Y34546D02*
X18034D01*
X12954Y26418D02*
Y34546D01*
Y10668D02*
Y21336D01*
Y10668D02*
X20828D01*
X12954Y21336D02*
X20828D01*
X37846Y10668D02*
Y21336D01*
X29972Y10668D02*
X37846D01*
X29972Y21336D02*
X37846D01*
X276352Y14598D02*
X292100D01*
X276352D02*
Y22726D01*
X292100Y14598D02*
Y22726D01*
X276352D02*
X292100D01*
X195072Y35529D02*
X210820D01*
Y27401D02*
Y35529D01*
X195072Y27401D02*
Y35529D01*
Y27401D02*
X210820D01*
X195072Y22726D02*
X210820D01*
Y14598D02*
Y22726D01*
X195072Y14598D02*
Y22726D01*
Y14598D02*
X210820D01*
X276352Y27401D02*
X292100D01*
X276352D02*
Y35529D01*
X292100Y27401D02*
Y35529D01*
X276352D02*
X292100D01*
X422300Y71694D02*
Y85664D01*
X412394D02*
X422300D01*
X390042Y64582D02*
X391312Y65852D01*
X390042Y67122D02*
X391312Y65852D01*
X390042Y64582D02*
Y67122D01*
X403504Y69662D02*
X410108D01*
X391312Y71694D02*
Y85664D01*
X401218D01*
X315507Y72080D02*
Y82748D01*
Y72080D02*
X323381D01*
X315507Y82748D02*
X323381D01*
X340399Y72080D02*
Y82748D01*
X332525Y72080D02*
X340399D01*
X332525Y82748D02*
X340399D01*
X312763Y176249D02*
X317843D01*
X312763Y184377D02*
X317843D01*
Y176249D02*
Y184377D01*
X302095Y176249D02*
X307175D01*
X302095Y184377D02*
X307175D01*
X302095Y176249D02*
Y184377D01*
X285399Y89081D02*
X292199D01*
X285399Y72097D02*
X292199D01*
X258972Y209165D02*
Y219833D01*
X251098D02*
X258972D01*
X251098Y209165D02*
X258972D01*
X234079D02*
Y219833D01*
X241954D01*
X234079Y209165D02*
X241954D01*
X387858Y285750D02*
Y288544D01*
X437642Y285750D02*
Y288544D01*
X387858D02*
X437642D01*
X387858Y237236D02*
Y240030D01*
X437642Y237236D02*
Y240030D01*
X387858Y237236D02*
X437642D01*
X475132Y85664D02*
X485038D01*
X475132Y71694D02*
Y85664D01*
X487324Y69662D02*
X493928D01*
X473862Y64582D02*
Y67122D01*
X475132Y65852D01*
X473862Y64582D02*
X475132Y65852D01*
X496214Y85664D02*
X506120D01*
Y71694D02*
Y85664D01*
X218487Y150317D02*
X226615D01*
Y145237D02*
Y150317D01*
X218487Y145237D02*
Y150317D01*
Y134569D02*
X226615D01*
Y139649D01*
X218487Y134569D02*
Y139649D01*
X486156Y48514D02*
X501904D01*
X486156D02*
Y56642D01*
X501904Y48514D02*
Y56642D01*
X486156D02*
X501904D01*
X463042Y48514D02*
X478790D01*
X463042D02*
Y56642D01*
X478790Y48514D02*
Y56642D01*
X463042D02*
X478790D01*
X403860Y46228D02*
X419608D01*
X403860D02*
Y54356D01*
X419608Y46228D02*
Y54356D01*
X403860D02*
X419608D01*
X379222Y46228D02*
X394970D01*
X379222D02*
Y54356D01*
X394970Y46228D02*
Y54356D01*
X379222D02*
X394970D01*
X486156Y33528D02*
X501904D01*
X486156D02*
Y41656D01*
X501904Y33528D02*
Y41656D01*
X486156D02*
X501904D01*
X463042D02*
X478790D01*
Y33528D02*
Y41656D01*
X463042Y33528D02*
Y41656D01*
Y33528D02*
X478790D01*
X403860Y32385D02*
X419608D01*
X403860D02*
Y40513D01*
X419608Y32385D02*
Y40513D01*
X403860D02*
X419608D01*
X379222D02*
X394970D01*
Y32385D02*
Y40513D01*
X379222Y32385D02*
Y40513D01*
Y32385D02*
X394970D01*
X486156Y18542D02*
X501904D01*
X486156D02*
Y26670D01*
X501904Y18542D02*
Y26670D01*
X486156D02*
X501904D01*
X463042D02*
X478790D01*
Y18542D02*
Y26670D01*
X463042Y18542D02*
Y26670D01*
Y18542D02*
X478790D01*
X403860D02*
X419608D01*
X403860D02*
Y26670D01*
X419608Y18542D02*
Y26670D01*
X403860D02*
X419608D01*
X379222D02*
X394970D01*
Y18542D02*
Y26670D01*
X379222Y18542D02*
Y26670D01*
Y18542D02*
X394970D01*
X450850Y68004D02*
Y83752D01*
X442722Y68004D02*
X450850D01*
X442722Y83752D02*
X450850D01*
X442722Y68004D02*
Y83752D01*
X366776Y68072D02*
Y83820D01*
X358648Y68072D02*
X366776D01*
X358648Y83820D02*
X366776D01*
X358648Y68072D02*
Y83820D01*
X454304Y73792D02*
Y92334D01*
X456082D01*
X469036Y73792D02*
Y92334D01*
X467258D02*
X469036D01*
X370484Y73980D02*
Y92522D01*
X372262D01*
X385216Y73980D02*
Y92522D01*
X383438D02*
X385216D01*
X437642Y177546D02*
Y180340D01*
X387858Y177546D02*
Y180340D01*
Y177546D02*
X437642D01*
Y226060D02*
Y228854D01*
X387858Y226060D02*
Y228854D01*
X437642D01*
X483933Y100785D02*
Y107505D01*
X487405Y110976D01*
X494026D01*
X497514Y107489D01*
Y100766D02*
Y107489D01*
X494069Y97321D02*
X497514Y100766D01*
X487396Y97321D02*
X494069D01*
X483933Y100785D02*
X487396Y97321D01*
X451866Y191264D02*
X467614D01*
Y183136D02*
Y191264D01*
X451866Y183136D02*
Y191264D01*
Y183136D02*
X467614D01*
X400113Y100785D02*
Y107505D01*
X403585Y110976D01*
X410206D01*
X413694Y107489D01*
Y100766D02*
Y107489D01*
X410249Y97321D02*
X413694Y100766D01*
X403576Y97321D02*
X410249D01*
X400113Y100785D02*
X403576Y97321D01*
X451866Y207264D02*
X467614D01*
Y199136D02*
Y207264D01*
X451866Y199136D02*
Y207264D01*
Y199136D02*
X467614D01*
X451866Y223264D02*
X467614D01*
Y215136D02*
Y223264D01*
X451866Y215136D02*
Y223264D01*
Y215136D02*
X467614D01*
X224091Y59145D02*
Y65865D01*
X227563Y69337D01*
X234184D01*
X237672Y65849D01*
Y59126D02*
Y65849D01*
X234227Y55681D02*
X237672Y59126D01*
X227554Y55681D02*
X234227D01*
X224091Y59145D02*
X227554Y55681D01*
X451894Y282954D02*
X467642D01*
Y274826D02*
Y282954D01*
X451894Y274826D02*
Y282954D01*
Y274826D02*
X467642D01*
X203945Y59145D02*
Y65865D01*
X207416Y69337D01*
X214038D01*
X217526Y65849D01*
Y59126D02*
Y65849D01*
X214081Y55681D02*
X217526Y59126D01*
X207408Y55681D02*
X214081D01*
X203945Y59145D02*
X207408Y55681D01*
X451894Y266954D02*
X467642D01*
Y258826D02*
Y266954D01*
X451894Y258826D02*
Y266954D01*
Y258826D02*
X467642D01*
X204025Y203655D02*
Y210375D01*
X207496Y213846D01*
X214118D01*
X217606Y210359D01*
Y203636D02*
Y210359D01*
X214161Y200191D02*
X217606Y203636D01*
X207488Y200191D02*
X214161D01*
X204025Y203655D02*
X207488Y200191D01*
X451894Y250954D02*
X467642D01*
Y242826D02*
Y250954D01*
X451894Y242826D02*
Y250954D01*
Y242826D02*
X467642D01*
X204025Y234135D02*
Y240855D01*
X207496Y244326D01*
X214118D01*
X217606Y240839D01*
Y234116D02*
Y240839D01*
X214161Y230671D02*
X217606Y234116D01*
X207488Y230671D02*
X214161D01*
X204025Y234135D02*
X207488Y230671D01*
X473534Y274826D02*
X489282D01*
X473534D02*
Y282954D01*
X489282Y274826D02*
Y282954D01*
X473534D02*
X489282D01*
X473534Y258826D02*
X489282D01*
X473534D02*
Y266954D01*
X489282Y258826D02*
Y266954D01*
X473534D02*
X489282D01*
X473534Y242826D02*
X489282D01*
X473534D02*
Y250954D01*
X489282Y242826D02*
Y250954D01*
X473534D02*
X489282D01*
X495173Y274826D02*
X510921D01*
X495173D02*
Y282954D01*
X510921Y274826D02*
Y282954D01*
X495173D02*
X510921D01*
X495173Y258826D02*
X510921D01*
X495173D02*
Y266954D01*
X510921Y258826D02*
Y266954D01*
X495173D02*
X510921D01*
X495173Y242826D02*
X510921D01*
X495173D02*
Y250954D01*
X510921Y242826D02*
Y250954D01*
X495173D02*
X510921D01*
X295604Y58113D02*
Y64833D01*
X299076Y68305D01*
X305697D01*
X309185Y64817D01*
Y58094D02*
Y64817D01*
X305741Y54649D02*
X309185Y58094D01*
X299067Y54649D02*
X305741D01*
X295604Y58113D02*
X299067Y54649D01*
X206676Y173128D02*
Y181002D01*
X217344Y173128D02*
Y181002D01*
X206676D02*
X217344D01*
X206676Y156110D02*
Y163984D01*
X217344Y156110D02*
Y163984D01*
X206676Y156110D02*
X217344D01*
X233962Y184539D02*
X242090D01*
X233962D02*
Y189619D01*
X242090Y184539D02*
Y189619D01*
X233962Y200287D02*
X242090D01*
X233962Y195207D02*
Y200287D01*
X242090Y195207D02*
Y200287D01*
X245637Y200236D02*
X253764D01*
Y195156D02*
Y200236D01*
X245637Y195156D02*
Y200236D01*
Y184488D02*
X253764D01*
Y189568D01*
X245637Y184488D02*
Y189568D01*
X206676Y150317D02*
X214804D01*
Y145237D02*
Y150317D01*
X206676Y145237D02*
Y150317D01*
Y134569D02*
X214804D01*
Y139649D01*
X206676Y134569D02*
Y139649D01*
X328637Y154894D02*
X344385D01*
Y146766D02*
Y154894D01*
X328637Y146766D02*
Y154894D01*
Y146766D02*
X344385D01*
X328637Y172800D02*
X344385D01*
Y164672D02*
Y172800D01*
X328637Y164672D02*
Y172800D01*
Y164672D02*
X344385D01*
X328637Y125226D02*
X344385D01*
Y117098D02*
Y125226D01*
X328637Y117098D02*
Y125226D01*
Y117098D02*
X344385D01*
X328637Y142704D02*
X344385D01*
Y134576D02*
Y142704D01*
X328637Y134576D02*
Y142704D01*
Y134576D02*
X344385D01*
X125332Y259683D02*
X141080D01*
Y251556D02*
Y259683D01*
X125332Y251556D02*
Y259683D01*
Y251556D02*
X141080D01*
X244672Y73431D02*
X260420D01*
X244672D02*
Y81559D01*
X260420Y73431D02*
Y81559D01*
X244672D02*
X260420D01*
X250082Y223366D02*
Y239114D01*
X258209D01*
X250082Y223366D02*
X258209D01*
Y239114D01*
X214804Y93091D02*
Y108839D01*
X206676Y93091D02*
X214804D01*
X206676Y108839D02*
X214804D01*
X206676Y93091D02*
Y108839D01*
X244670Y84201D02*
Y92329D01*
X249750D01*
X244670Y84201D02*
X249750D01*
X260418D02*
Y92329D01*
X255338D02*
X260418D01*
X255338Y84201D02*
X260418D01*
X328637Y210013D02*
X344385D01*
Y201885D02*
Y210013D01*
X328637Y201885D02*
Y210013D01*
Y201885D02*
X344385D01*
X328637Y198075D02*
X344385D01*
Y189947D02*
Y198075D01*
X328637Y189947D02*
Y198075D01*
Y189947D02*
X344385D01*
X275372Y191122D02*
Y206870D01*
X267244Y191122D02*
X275372D01*
X267244Y206870D02*
X275372D01*
X267244Y191122D02*
Y206870D01*
X328637Y178136D02*
X344385D01*
X328637D02*
Y186264D01*
X344385Y178136D02*
Y186264D01*
X328637D02*
X344385D01*
X525150Y70000D02*
Y230000D01*
X739150Y70000D02*
Y230000D01*
X614950D02*
X739150D01*
X525150D02*
X583950D01*
X614950Y70000D02*
X739150D01*
X525150D02*
X583950D01*
X492760Y209936D02*
X508508D01*
X492760D02*
Y218064D01*
X508508Y209936D02*
Y218064D01*
X492760D02*
X508508D01*
X302120Y236334D02*
X303390Y237604D01*
X302120Y236334D02*
X303390Y235064D01*
Y237604D01*
X280530Y214490D02*
X284340D01*
X280530Y240398D02*
X284340D01*
X298818Y226682D02*
Y228460D01*
X265798Y226682D02*
Y228460D01*
X232111Y227885D02*
Y234605D01*
X235582Y238076D01*
X242204D01*
X245692Y234589D01*
Y227866D02*
Y234589D01*
X242247Y224421D02*
X245692Y227866D01*
X235574Y224421D02*
X242247D01*
X232111Y227885D02*
X235574Y224421D01*
X244153Y59145D02*
Y65865D01*
X247625Y69337D01*
X254247D01*
X257735Y65849D01*
Y59126D02*
Y65849D01*
X254290Y55681D02*
X257735Y59126D01*
X247617Y55681D02*
X254290D01*
X244153Y59145D02*
X247617Y55681D01*
X306847Y240008D02*
X322595D01*
Y231880D02*
Y240008D01*
X306847Y231880D02*
Y240008D01*
Y231880D02*
X322595D01*
X321144Y224278D02*
X329018D01*
X321144Y213610D02*
X329018D01*
Y224278D01*
X304126D02*
X312000D01*
X304126Y213610D02*
X312000D01*
X304126D02*
Y224278D01*
X492760Y197326D02*
Y205454D01*
X497840D01*
X492760Y197326D02*
X497840D01*
X508508D02*
Y205454D01*
X503428D02*
X508508D01*
X503428Y197326D02*
X508508D01*
X653796Y37084D02*
X669036D01*
X653796Y56896D02*
X669036D01*
Y37084D02*
Y56896D01*
X626364Y37084D02*
X641604D01*
X626364Y56896D02*
X641604D01*
X626364Y37084D02*
Y56896D01*
Y12954D02*
Y32766D01*
Y12954D02*
X669036D01*
Y32766D01*
X626364D02*
X669036D01*
X299212Y293624D02*
X330708D01*
Y290830D02*
Y293624D01*
X299212Y290830D02*
Y293624D01*
Y267716D02*
X330708D01*
Y270510D01*
X299212Y267716D02*
Y270510D01*
X12954Y36581D02*
Y44709D01*
X18034D01*
X12954Y36581D02*
X18034D01*
X28702D02*
Y44709D01*
X23622D02*
X28702D01*
X23622Y36581D02*
X28702D01*
X342646Y283619D02*
X350774D01*
Y278539D02*
Y283619D01*
X342646Y278539D02*
Y283619D01*
Y267871D02*
X350774D01*
Y272951D01*
X342646Y267871D02*
Y272951D01*
X-440Y240858D02*
X-440Y59044D01*
X186094Y59108D02*
X194222D01*
Y84000D01*
Y215826D02*
Y240718D01*
X186094D02*
X194222D01*
X-62340Y240910D02*
X-62340Y59044D01*
X-62340Y240910D02*
X-440D01*
X-62340Y59044D02*
X-440D01*
X42672Y31750D02*
Y47498D01*
X34544Y31750D02*
X42672D01*
X34544Y47498D02*
X42672D01*
X34544Y31750D02*
Y47498D01*
X245872Y267716D02*
X277368D01*
X245872D02*
Y270510D01*
X277368Y267716D02*
Y270510D01*
X245872Y293624D02*
X277368D01*
X245872Y290830D02*
Y293624D01*
X277368Y290830D02*
Y293624D01*
X225563Y283617D02*
X233691D01*
Y278537D02*
Y283617D01*
X225563Y278537D02*
Y283617D01*
Y267869D02*
X233691D01*
Y272949D01*
X225563Y267869D02*
Y272949D01*
X204216Y276380D02*
X219964D01*
X204216D02*
Y284508D01*
X219964Y276380D02*
Y284508D01*
X204216D02*
X219964D01*
X207356Y54170D02*
X203971D01*
Y49092D01*
X207356D01*
X203971Y51631D02*
X205663D01*
X209049Y54170D02*
X212434D01*
X210742D01*
Y49092D01*
X214127Y54170D02*
Y49092D01*
Y51631D01*
X217513D01*
Y54170D01*
Y49092D01*
X509540Y24300D02*
X510387Y25147D01*
X512080D01*
X512926Y24300D01*
Y20915D01*
X512080Y20069D01*
X510387D01*
X509540Y20915D01*
Y24300D01*
X514619Y20069D02*
Y25147D01*
X517158D01*
X518004Y24300D01*
Y22608D01*
X517158Y21761D01*
X514619D01*
X516311D02*
X518004Y20069D01*
X509540Y38140D02*
X510387Y38987D01*
X512080D01*
X512926Y38140D01*
Y34755D01*
X512080Y33908D01*
X510387D01*
X509540Y34755D01*
Y38140D01*
X514619Y33908D02*
Y38987D01*
X517158D01*
X518004Y38140D01*
Y36447D01*
X517158Y35601D01*
X514619D01*
X516311D02*
X518004Y33908D01*
X509540Y51985D02*
X510387Y52831D01*
X512080D01*
X512926Y51985D01*
Y48599D01*
X512080Y47753D01*
X510387D01*
X509540Y48599D01*
Y51985D01*
X514619Y47753D02*
Y52831D01*
X517158D01*
X518004Y51985D01*
Y50292D01*
X517158Y49446D01*
X514619D01*
X516311D02*
X518004Y47753D01*
X427244Y51985D02*
X428091Y52831D01*
X429784D01*
X430630Y51985D01*
Y48599D01*
X429784Y47753D01*
X428091D01*
X427244Y48599D01*
Y51985D01*
X432323Y47753D02*
Y52831D01*
X434862D01*
X435708Y51985D01*
Y50292D01*
X434862Y49446D01*
X432323D01*
X434016D02*
X435708Y47753D01*
X427244Y38140D02*
X428091Y38987D01*
X429784D01*
X430630Y38140D01*
Y34755D01*
X429784Y33908D01*
X428091D01*
X427244Y34755D01*
Y38140D01*
X432323Y33908D02*
Y38987D01*
X434862D01*
X435708Y38140D01*
Y36447D01*
X434862Y35601D01*
X432323D01*
X434016D02*
X435708Y33908D01*
X427244Y24300D02*
X428091Y25147D01*
X429784D01*
X430630Y24300D01*
Y20915D01*
X429784Y20069D01*
X428091D01*
X427244Y20915D01*
Y24300D01*
X432323Y20069D02*
Y25147D01*
X434862D01*
X435708Y24300D01*
Y22608D01*
X434862Y21761D01*
X432323D01*
X434016D02*
X435708Y20069D01*
X445526D02*
Y25147D01*
X442986Y22608D01*
X446372D01*
X448065Y25147D02*
X451450D01*
Y24300D01*
X448065Y20915D01*
Y20069D01*
X453143Y24300D02*
X453990Y25147D01*
X455682D01*
X456529Y24300D01*
Y20915D01*
X455682Y20069D01*
X453990D01*
X453143Y20915D01*
Y24300D01*
X458222Y25147D02*
Y20069D01*
Y21761D01*
X461607Y25147D01*
X459068Y22608D01*
X461607Y20069D01*
X446175Y34383D02*
X442789D01*
X446175Y37768D01*
Y38615D01*
X445328Y39461D01*
X443636D01*
X442789Y38615D01*
X451253Y34383D02*
X447868D01*
X451253Y37768D01*
Y38615D01*
X450407Y39461D01*
X448714D01*
X447868Y38615D01*
X452946D02*
X453792Y39461D01*
X455485D01*
X456332Y38615D01*
Y35229D01*
X455485Y34383D01*
X453792D01*
X452946Y35229D01*
Y38615D01*
X458024Y39461D02*
Y34383D01*
Y36076D01*
X461410Y39461D01*
X458871Y36922D01*
X461410Y34383D01*
X446217Y47753D02*
X447910D01*
X447064D01*
Y52831D01*
X446217Y51985D01*
X450449D02*
X451296Y52831D01*
X452988D01*
X453835Y51985D01*
Y48599D01*
X452988Y47753D01*
X451296D01*
X450449Y48599D01*
Y51985D01*
X455528Y52831D02*
Y47753D01*
Y49446D01*
X458913Y52831D01*
X456374Y50292D01*
X458913Y47753D01*
X362397D02*
X364090D01*
X363244D01*
Y52831D01*
X362397Y51985D01*
X366629D02*
X367476Y52831D01*
X369168D01*
X370015Y51985D01*
Y48599D01*
X369168Y47753D01*
X367476D01*
X366629Y48599D01*
Y51985D01*
X371708Y52831D02*
Y47753D01*
Y49446D01*
X375093Y52831D01*
X372554Y50292D01*
X375093Y47753D01*
X362355Y34383D02*
X358969D01*
X362355Y37768D01*
Y38615D01*
X361508Y39461D01*
X359816D01*
X358969Y38615D01*
X367433Y34383D02*
X364048D01*
X367433Y37768D01*
Y38615D01*
X366587Y39461D01*
X364894D01*
X364048Y38615D01*
X369126D02*
X369972Y39461D01*
X371665D01*
X372512Y38615D01*
Y35229D01*
X371665Y34383D01*
X369972D01*
X369126Y35229D01*
Y38615D01*
X374204Y39461D02*
Y34383D01*
Y36076D01*
X377590Y39461D01*
X375051Y36922D01*
X377590Y34383D01*
X361706Y20069D02*
Y25147D01*
X359166Y22608D01*
X362552D01*
X364245Y25147D02*
X367630D01*
Y24300D01*
X364245Y20915D01*
Y20069D01*
X369323Y24300D02*
X370170Y25147D01*
X371862D01*
X372709Y24300D01*
Y20915D01*
X371862Y20069D01*
X370170D01*
X369323Y20915D01*
Y24300D01*
X374402Y25147D02*
Y20069D01*
Y21761D01*
X377787Y25147D01*
X375248Y22608D01*
X377787Y20069D01*
X197157Y7808D02*
X198849D01*
X198003D01*
Y12886D01*
X197157Y12040D01*
X201389D02*
X202235Y12886D01*
X203928D01*
X204774Y12040D01*
Y8654D01*
X203928Y7808D01*
X202235D01*
X201389Y8654D01*
Y12040D01*
X206467Y12886D02*
Y7808D01*
Y9501D01*
X209853Y12886D01*
X207313Y10347D01*
X209853Y7808D01*
X196950Y37429D02*
X198642D01*
X197796D01*
Y42508D01*
X196950Y41661D01*
X201182D02*
X202028Y42508D01*
X203721D01*
X204567Y41661D01*
Y38276D01*
X203721Y37429D01*
X202028D01*
X201182Y38276D01*
Y41661D01*
X206260Y42508D02*
Y37429D01*
Y39122D01*
X209645Y42508D01*
X207106Y39969D01*
X209645Y37429D01*
X281112Y7912D02*
X277726D01*
X281112Y11297D01*
Y12143D01*
X280265Y12990D01*
X278572D01*
X277726Y12143D01*
X286190Y7912D02*
X282804D01*
X286190Y11297D01*
Y12143D01*
X285343Y12990D01*
X283651D01*
X282804Y12143D01*
X287883Y7912D02*
Y12990D01*
X290422D01*
X291268Y12143D01*
Y10451D01*
X290422Y9604D01*
X287883D01*
X289575D02*
X291268Y7912D01*
X280594Y37533D02*
X277208D01*
X280594Y40918D01*
Y41765D01*
X279747Y42611D01*
X278055D01*
X277208Y41765D01*
X285672Y37533D02*
X282286D01*
X285672Y40918D01*
Y41765D01*
X284826Y42611D01*
X283133D01*
X282286Y41765D01*
X287365Y37533D02*
Y42611D01*
X289904D01*
X290750Y41765D01*
Y40072D01*
X289904Y39226D01*
X287365D01*
X289058D02*
X290750Y37533D01*
X327832Y9703D02*
X326986Y10550D01*
X325293D01*
X324446Y9703D01*
Y8857D01*
X325293Y8011D01*
X326986D01*
X327832Y7164D01*
Y6318D01*
X326986Y5471D01*
X325293D01*
X324446Y6318D01*
X329525Y10550D02*
X332910D01*
X331218D01*
Y5471D01*
X334603Y10550D02*
Y5471D01*
X337142D01*
X337989Y6318D01*
Y9703D01*
X337142Y10550D01*
X334603D01*
X339682D02*
Y5471D01*
X342221D01*
X343067Y6318D01*
Y7164D01*
X342221Y8011D01*
X339682D01*
X342221D01*
X343067Y8857D01*
Y9703D01*
X342221Y10550D01*
X339682D01*
X344760D02*
Y9703D01*
X346453Y8011D01*
X348145Y9703D01*
Y10550D01*
X346453Y8011D02*
Y5471D01*
X305529Y9703D02*
X304683Y10550D01*
X302990D01*
X302144Y9703D01*
Y6318D01*
X302990Y5471D01*
X304683D01*
X305529Y6318D01*
X307222Y10550D02*
Y5471D01*
Y8011D01*
X310608D01*
Y10550D01*
Y5471D01*
X312301D02*
Y10550D01*
X314840D01*
X315686Y9703D01*
Y8011D01*
X314840Y7164D01*
X312301D01*
X313993D02*
X315686Y5471D01*
X320765Y9703D02*
X319918Y10550D01*
X318225D01*
X317379Y9703D01*
Y6318D01*
X318225Y5471D01*
X319918D01*
X320765Y6318D01*
Y8011D01*
X319072D01*
X236228Y45718D02*
X232843D01*
Y40640D01*
X236228D01*
X232843Y43179D02*
X234535D01*
X241306Y44872D02*
X240460Y45718D01*
X238767D01*
X237921Y44872D01*
Y44025D01*
X238767Y43179D01*
X240460D01*
X241306Y42333D01*
Y41486D01*
X240460Y40640D01*
X238767D01*
X237921Y41486D01*
X242999Y40640D02*
Y45718D01*
X245538D01*
X246385Y44872D01*
Y43179D01*
X245538Y42333D01*
X242999D01*
X248078Y44872D02*
X248924Y45718D01*
X250617D01*
X251463Y44872D01*
Y44025D01*
X250617Y43179D01*
X249770D01*
X250617D01*
X251463Y42333D01*
Y41486D01*
X250617Y40640D01*
X248924D01*
X248078Y41486D01*
X256541Y40640D02*
X253156D01*
X256541Y44025D01*
Y44872D01*
X255695Y45718D01*
X254002D01*
X253156Y44872D01*
X310217Y45546D02*
X313603D01*
X311910D01*
Y40468D01*
X315296D02*
Y45546D01*
X317835D01*
X318681Y44700D01*
Y43007D01*
X317835Y42161D01*
X315296D01*
X322913Y40468D02*
Y45546D01*
X320374Y43007D01*
X323760D01*
X325452Y44700D02*
X326299Y45546D01*
X327991D01*
X328838Y44700D01*
Y41314D01*
X327991Y40468D01*
X326299D01*
X325452Y41314D01*
Y44700D01*
X333916Y45546D02*
X330531D01*
Y43007D01*
X332224Y43854D01*
X333070D01*
X333916Y43007D01*
Y41314D01*
X333070Y40468D01*
X331377D01*
X330531Y41314D01*
X338995Y45546D02*
X337302Y44700D01*
X335609Y43007D01*
Y41314D01*
X336455Y40468D01*
X338148D01*
X338995Y41314D01*
Y42161D01*
X338148Y43007D01*
X335609D01*
X489782Y119316D02*
X486396D01*
Y116777D01*
X488089D01*
X486396D01*
Y114238D01*
X491475Y119316D02*
Y114238D01*
X494860D01*
X405861Y118403D02*
X405014Y119250D01*
X403322D01*
X402475Y118403D01*
Y115018D01*
X403322Y114171D01*
X405014D01*
X405861Y115018D01*
X407553Y119250D02*
Y114171D01*
Y116711D01*
X410939D01*
Y119250D01*
Y114171D01*
X293295Y47928D02*
Y51314D01*
X294988Y53006D01*
X296681Y51314D01*
Y47928D01*
Y50467D01*
X293295D01*
X298374Y53006D02*
Y49621D01*
X300067Y47928D01*
X301759Y49621D01*
Y53006D01*
X303452D02*
Y47928D01*
X305991D01*
X306838Y48774D01*
Y52160D01*
X305991Y53006D01*
X303452D01*
X308530D02*
Y47928D01*
X311070D01*
X311916Y48774D01*
Y52160D01*
X311070Y53006D01*
X308530D01*
X247988Y9543D02*
X247142Y10389D01*
X245449D01*
X244603Y9543D01*
Y8697D01*
X245449Y7850D01*
X247142D01*
X247988Y7004D01*
Y6158D01*
X247142Y5311D01*
X245449D01*
X244603Y6158D01*
X249681Y10389D02*
X253066D01*
X251374D01*
Y5311D01*
X254759Y10389D02*
Y5311D01*
X257298D01*
X258145Y6158D01*
Y9543D01*
X257298Y10389D01*
X254759D01*
X259838D02*
Y5311D01*
X262377D01*
X263223Y6158D01*
Y7004D01*
X262377Y7850D01*
X259838D01*
X262377D01*
X263223Y8697D01*
Y9543D01*
X262377Y10389D01*
X259838D01*
X264916D02*
Y9543D01*
X266609Y7850D01*
X268302Y9543D01*
Y10389D01*
X266609Y7850D02*
Y5311D01*
X224961Y9714D02*
X224115Y10561D01*
X222422D01*
X221576Y9714D01*
Y6329D01*
X222422Y5482D01*
X224115D01*
X224961Y6329D01*
X226654Y10561D02*
Y5482D01*
Y8021D01*
X230040D01*
Y10561D01*
Y5482D01*
X231732D02*
Y10561D01*
X234272D01*
X235118Y9714D01*
Y8021D01*
X234272Y7175D01*
X231732D01*
X233425D02*
X235118Y5482D01*
X240196Y9714D02*
X239350Y10561D01*
X237657D01*
X236811Y9714D01*
Y6329D01*
X237657Y5482D01*
X239350D01*
X240196Y6329D01*
Y8021D01*
X238503D01*
X248518Y52596D02*
X247672Y53443D01*
X245979D01*
X245133Y52596D01*
Y49211D01*
X245979Y48364D01*
X247672D01*
X248518Y49211D01*
Y50904D01*
X246825D01*
X250211Y48364D02*
Y53443D01*
X253596Y48364D01*
Y53443D01*
X255289D02*
Y48364D01*
X257829D01*
X258675Y49211D01*
Y52596D01*
X257829Y53443D01*
X255289D01*
X226654D02*
Y48364D01*
X230040D01*
X231732Y53443D02*
Y48364D01*
X234272D01*
X235118Y49211D01*
Y50057D01*
X234272Y50904D01*
X231732D01*
X234272D01*
X235118Y51750D01*
Y52596D01*
X234272Y53443D01*
X231732D01*
X202141Y221717D02*
Y216639D01*
X203834Y218332D01*
X205527Y216639D01*
Y221717D01*
X207219D02*
X208912D01*
X208066D01*
Y216639D01*
X207219D01*
X208912D01*
X214837Y221717D02*
X211451D01*
Y219178D01*
X213144D01*
X211451D01*
Y216639D01*
X216530Y221717D02*
X218223D01*
X217376D01*
Y216639D01*
X216530D01*
X218223D01*
X237688Y243250D02*
X236842Y242404D01*
Y240711D01*
X237688Y239865D01*
X241074D01*
X241920Y240711D01*
Y242404D01*
X241074Y243250D01*
X236842Y244943D02*
X241920D01*
Y248328D01*
X236842Y250021D02*
X241920D01*
X240227D01*
X236842Y253407D01*
X239381Y250868D01*
X241920Y253407D01*
X236842Y258485D02*
Y255100D01*
X239381D01*
X238534Y256792D01*
Y257639D01*
X239381Y258485D01*
X241074D01*
X241920Y257639D01*
Y255946D01*
X241074Y255100D01*
X237688Y260178D02*
X236842Y261024D01*
Y262717D01*
X237688Y263563D01*
X241074D01*
X241920Y262717D01*
Y261024D01*
X241074Y260178D01*
X237688D01*
X205094Y251475D02*
X206787D01*
X205941D01*
Y246397D01*
X205094D01*
X206787D01*
X211866Y251475D02*
X210173D01*
X209326Y250629D01*
Y247243D01*
X210173Y246397D01*
X211866D01*
X212712Y247243D01*
Y250629D01*
X211866Y251475D01*
X216944Y246397D02*
Y251475D01*
X214405Y248936D01*
X217790D01*
X303111Y259335D02*
Y264413D01*
X305650D01*
X306496Y263567D01*
Y261874D01*
X305650Y261028D01*
X303111D01*
X304803D02*
X306496Y259335D01*
X311574Y264413D02*
X308189D01*
Y259335D01*
X311574D01*
X308189Y261874D02*
X309882D01*
X316653Y263567D02*
X315806Y264413D01*
X314114D01*
X313267Y263567D01*
Y262720D01*
X314114Y261874D01*
X315806D01*
X316653Y261028D01*
Y260181D01*
X315806Y259335D01*
X314114D01*
X313267Y260181D01*
X321731Y264413D02*
X318346D01*
Y259335D01*
X321731D01*
X318346Y261874D02*
X320038D01*
X323424Y264413D02*
X326809D01*
X325117D01*
Y259335D01*
X252310Y264413D02*
Y259335D01*
X254849D01*
X255695Y260181D01*
Y261028D01*
X254849Y261874D01*
X252310D01*
X254849D01*
X255695Y262720D01*
Y263567D01*
X254849Y264413D01*
X252310D01*
X259927D02*
X258235D01*
X257388Y263567D01*
Y260181D01*
X258235Y259335D01*
X259927D01*
X260774Y260181D01*
Y263567D01*
X259927Y264413D01*
X265006D02*
X263313D01*
X262466Y263567D01*
Y260181D01*
X263313Y259335D01*
X265006D01*
X265852Y260181D01*
Y263567D01*
X265006Y264413D01*
X267545D02*
X270930D01*
X269237D01*
Y259335D01*
X171171Y256691D02*
X170324Y255845D01*
Y254152D01*
X171171Y253306D01*
X174556D01*
X175403Y254152D01*
Y255845D01*
X174556Y256691D01*
X172864D01*
Y254999D01*
X175403Y258384D02*
X170324D01*
X175403Y261770D01*
X170324D01*
Y263463D02*
X175403D01*
Y266002D01*
X174556Y266848D01*
X171171D01*
X170324Y266002D01*
Y263463D01*
X145086Y253262D02*
Y254954D01*
Y254108D01*
X150164D01*
Y253262D01*
Y254954D01*
X145086Y260033D02*
Y258340D01*
X145932Y257494D01*
X149318D01*
X150164Y258340D01*
Y260033D01*
X149318Y260879D01*
X145932D01*
X145086Y260033D01*
X145932Y262572D02*
X145086Y263418D01*
Y265111D01*
X145932Y265958D01*
X149318D01*
X150164Y265111D01*
Y263418D01*
X149318Y262572D01*
X145932D01*
X119381Y261028D02*
Y257642D01*
X124459D01*
Y261028D01*
X121920Y257642D02*
Y259335D01*
X124459Y262720D02*
X119381D01*
X124459Y266106D01*
X119381D01*
X94827Y252819D02*
X93981Y253665D01*
Y255358D01*
X94827Y256204D01*
X95674D01*
X96520Y255358D01*
Y254512D01*
Y255358D01*
X97366Y256204D01*
X98213D01*
X99059Y255358D01*
Y253665D01*
X98213Y252819D01*
X93981Y257897D02*
X97366D01*
X99059Y259590D01*
X97366Y261283D01*
X93981D01*
X94827Y262975D02*
X93981Y263822D01*
Y265515D01*
X94827Y266361D01*
X95674D01*
X96520Y265515D01*
Y264668D01*
Y265515D01*
X97366Y266361D01*
X98213D01*
X99059Y265515D01*
Y263822D01*
X98213Y262975D01*
X73457Y258658D02*
X68379D01*
Y261197D01*
X69225Y262044D01*
X70918D01*
X71764Y261197D01*
Y258658D01*
Y260351D02*
X73457Y262044D01*
X68379Y263736D02*
X73457Y267122D01*
X68379D02*
X73457Y263736D01*
X43181Y258658D02*
Y262044D01*
Y260351D01*
X48260D01*
X43181Y263736D02*
X48260Y267122D01*
X43181D02*
X48260Y263736D01*
X418973Y88931D02*
Y92317D01*
X418126Y93163D01*
X416433D01*
X415587Y92317D01*
Y88931D01*
X416433Y88085D01*
X418126D01*
X417280Y89778D02*
X418973Y88085D01*
X418126D02*
X418973Y88931D01*
X420665Y88085D02*
X422358D01*
X421512D01*
Y93163D01*
X420665Y92317D01*
X278923Y254390D02*
X282308Y249311D01*
Y254390D02*
X278923Y249311D01*
X284001D02*
X285694D01*
X284847D01*
Y254390D01*
X284001Y253543D01*
X304221Y171277D02*
Y167045D01*
X305067Y166199D01*
X306760D01*
X307606Y167045D01*
Y171277D01*
X311838Y166199D02*
Y171277D01*
X309299Y168738D01*
X312685D01*
X520267Y244271D02*
Y249349D01*
X522806D01*
X523652Y248503D01*
Y246810D01*
X522806Y245963D01*
X520267D01*
X521959D02*
X523652Y244271D01*
X525345Y248503D02*
X526191Y249349D01*
X527884D01*
X528731Y248503D01*
Y247656D01*
X527884Y246810D01*
X527038D01*
X527884D01*
X528731Y245963D01*
Y245117D01*
X527884Y244271D01*
X526191D01*
X525345Y245117D01*
X530423Y248503D02*
X531270Y249349D01*
X532963D01*
X533809Y248503D01*
Y247656D01*
X532963Y246810D01*
X532116D01*
X532963D01*
X533809Y245963D01*
Y245117D01*
X532963Y244271D01*
X531270D01*
X530423Y245117D01*
X520267Y259320D02*
Y264399D01*
X522806D01*
X523652Y263552D01*
Y261859D01*
X522806Y261013D01*
X520267D01*
X521959D02*
X523652Y259320D01*
X525345Y263552D02*
X526191Y264399D01*
X527884D01*
X528731Y263552D01*
Y262706D01*
X527884Y261859D01*
X527038D01*
X527884D01*
X528731Y261013D01*
Y260167D01*
X527884Y259320D01*
X526191D01*
X525345Y260167D01*
X533809Y259320D02*
X530423D01*
X533809Y262706D01*
Y263552D01*
X532963Y264399D01*
X531270D01*
X530423Y263552D01*
X521113Y276271D02*
Y281349D01*
X523652D01*
X524499Y280503D01*
Y278810D01*
X523652Y277963D01*
X521113D01*
X522806D02*
X524499Y276271D01*
X526191Y280503D02*
X527038Y281349D01*
X528731D01*
X529577Y280503D01*
Y279656D01*
X528731Y278810D01*
X527884D01*
X528731D01*
X529577Y277963D01*
Y277117D01*
X528731Y276271D01*
X527038D01*
X526191Y277117D01*
X531270Y276271D02*
X532963D01*
X532116D01*
Y281349D01*
X531270Y280503D01*
X452341Y224860D02*
Y229938D01*
X454880D01*
X455727Y229092D01*
Y227399D01*
X454880Y226553D01*
X452341D01*
X454034D02*
X455727Y224860D01*
X457419Y229092D02*
X458266Y229938D01*
X459959D01*
X460805Y229092D01*
Y228245D01*
X459959Y227399D01*
X459112D01*
X459959D01*
X460805Y226553D01*
Y225706D01*
X459959Y224860D01*
X458266D01*
X457419Y225706D01*
X462498Y229092D02*
X463344Y229938D01*
X465037D01*
X465883Y229092D01*
Y225706D01*
X465037Y224860D01*
X463344D01*
X462498Y225706D01*
Y229092D01*
X452341Y208609D02*
Y213688D01*
X454880D01*
X455727Y212841D01*
Y211148D01*
X454880Y210302D01*
X452341D01*
X454034D02*
X455727Y208609D01*
X460805D02*
X457419D01*
X460805Y211995D01*
Y212841D01*
X459959Y213688D01*
X458266D01*
X457419Y212841D01*
X462498Y209456D02*
X463344Y208609D01*
X465037D01*
X465883Y209456D01*
Y212841D01*
X465037Y213688D01*
X463344D01*
X462498Y212841D01*
Y211995D01*
X463344Y211148D01*
X465883D01*
X452341Y192642D02*
Y197721D01*
X454880D01*
X455727Y196874D01*
Y195182D01*
X454880Y194335D01*
X452341D01*
X454034D02*
X455727Y192642D01*
X460805D02*
X457419D01*
X460805Y196028D01*
Y196874D01*
X459959Y197721D01*
X458266D01*
X457419Y196874D01*
X462498D02*
X463344Y197721D01*
X465037D01*
X465883Y196874D01*
Y196028D01*
X465037Y195182D01*
X465883Y194335D01*
Y193489D01*
X465037Y192642D01*
X463344D01*
X462498Y193489D01*
Y194335D01*
X463344Y195182D01*
X462498Y196028D01*
Y196874D01*
X463344Y195182D02*
X465037D01*
X440826Y68241D02*
X435747D01*
Y70780D01*
X436594Y71626D01*
X438287D01*
X439133Y70780D01*
Y68241D01*
Y69934D02*
X440826Y71626D01*
Y76705D02*
Y73319D01*
X437440Y76705D01*
X436594D01*
X435747Y75858D01*
Y74166D01*
X436594Y73319D01*
X435747Y78397D02*
Y81783D01*
X436594D01*
X439979Y78397D01*
X440826D01*
X355875Y69236D02*
X350796D01*
Y71775D01*
X351643Y72621D01*
X353335D01*
X354182Y71775D01*
Y69236D01*
Y70929D02*
X355875Y72621D01*
Y77700D02*
Y74314D01*
X352489Y77700D01*
X351643D01*
X350796Y76853D01*
Y75161D01*
X351643Y74314D01*
X350796Y82778D02*
X351643Y81085D01*
X353335Y79392D01*
X355028D01*
X355875Y80239D01*
Y81932D01*
X355028Y82778D01*
X354182D01*
X353335Y81932D01*
Y79392D01*
X564864Y276351D02*
Y281429D01*
X567403D01*
X568250Y280583D01*
Y278890D01*
X567403Y278044D01*
X564864D01*
X566557D02*
X568250Y276351D01*
X573328D02*
X569943D01*
X573328Y279736D01*
Y280583D01*
X572482Y281429D01*
X570789D01*
X569943Y280583D01*
X575021D02*
X575867Y281429D01*
X577560D01*
X578407Y280583D01*
Y279736D01*
X577560Y278890D01*
X576714D01*
X577560D01*
X578407Y278044D01*
Y277197D01*
X577560Y276351D01*
X575867D01*
X575021Y277197D01*
X564864Y258372D02*
Y263450D01*
X567403D01*
X568250Y262604D01*
Y260911D01*
X567403Y260065D01*
X564864D01*
X566557D02*
X568250Y258372D01*
X573328D02*
X569943D01*
X573328Y261758D01*
Y262604D01*
X572482Y263450D01*
X570789D01*
X569943Y262604D01*
X578407Y258372D02*
X575021D01*
X578407Y261758D01*
Y262604D01*
X577560Y263450D01*
X575867D01*
X575021Y262604D01*
X564441Y244349D02*
Y249428D01*
X566980D01*
X567826Y248581D01*
Y246888D01*
X566980Y246042D01*
X564441D01*
X566133D02*
X567826Y244349D01*
X572905D02*
X569519D01*
X572905Y247735D01*
Y248581D01*
X572058Y249428D01*
X570365D01*
X569519Y248581D01*
X574597Y244349D02*
X576290D01*
X575444D01*
Y249428D01*
X574597Y248581D01*
X542917Y276351D02*
Y281429D01*
X545456D01*
X546302Y280583D01*
Y278890D01*
X545456Y278044D01*
X542917D01*
X544609D02*
X546302Y276351D01*
X551381D02*
X547995D01*
X551381Y279736D01*
Y280583D01*
X550534Y281429D01*
X548841D01*
X547995Y280583D01*
X553073D02*
X553920Y281429D01*
X555612D01*
X556459Y280583D01*
Y277197D01*
X555612Y276351D01*
X553920D01*
X553073Y277197D01*
Y280583D01*
X543583Y259001D02*
Y264079D01*
X546122D01*
X546968Y263233D01*
Y261540D01*
X546122Y260693D01*
X543583D01*
X545275D02*
X546968Y259001D01*
X548661D02*
X550354D01*
X549507D01*
Y264079D01*
X548661Y263233D01*
X552893Y259847D02*
X553739Y259001D01*
X555432D01*
X556278Y259847D01*
Y263233D01*
X555432Y264079D01*
X553739D01*
X552893Y263233D01*
Y262386D01*
X553739Y261540D01*
X556278D01*
X307796Y241752D02*
Y246831D01*
X310335D01*
X311181Y245984D01*
Y244292D01*
X310335Y243445D01*
X307796D01*
X309489D02*
X311181Y241752D01*
X312874D02*
X314567D01*
X313720D01*
Y246831D01*
X312874Y245984D01*
X317106D02*
X317952Y246831D01*
X319645D01*
X320492Y245984D01*
Y245138D01*
X319645Y244292D01*
X320492Y243445D01*
Y242599D01*
X319645Y241752D01*
X317952D01*
X317106Y242599D01*
Y243445D01*
X317952Y244292D01*
X317106Y245138D01*
Y245984D01*
X317952Y244292D02*
X319645D01*
X543583Y244349D02*
Y249428D01*
X546122D01*
X546968Y248581D01*
Y246888D01*
X546122Y246042D01*
X543583D01*
X545275D02*
X546968Y244349D01*
X548661D02*
X550354D01*
X549507D01*
Y249428D01*
X548661Y248581D01*
X552893Y249428D02*
X556278D01*
Y248581D01*
X552893Y245196D01*
Y244349D01*
X610364Y20321D02*
Y25399D01*
X612903D01*
X613750Y24553D01*
Y22860D01*
X612903Y22014D01*
X610364D01*
X612057D02*
X613750Y20321D01*
X615442D02*
X617135D01*
X616289D01*
Y25399D01*
X615442Y24553D01*
X623060Y25399D02*
X621367Y24553D01*
X619674Y22860D01*
Y21167D01*
X620521Y20321D01*
X622214D01*
X623060Y21167D01*
Y22014D01*
X622214Y22860D01*
X619674D01*
X351353Y179881D02*
Y184959D01*
X353892D01*
X354739Y184113D01*
Y182420D01*
X353892Y181574D01*
X351353D01*
X353046D02*
X354739Y179881D01*
X356431D02*
X358124D01*
X357278D01*
Y184959D01*
X356431Y184113D01*
X364049Y184959D02*
X360663D01*
Y182420D01*
X362356Y183266D01*
X363203D01*
X364049Y182420D01*
Y180727D01*
X363203Y179881D01*
X361510D01*
X360663Y180727D01*
X351353Y191392D02*
Y196470D01*
X353892D01*
X354739Y195624D01*
Y193931D01*
X353892Y193084D01*
X351353D01*
X353046D02*
X354739Y191392D01*
X356431D02*
X358124D01*
X357278D01*
Y196470D01*
X356431Y195624D01*
X363203Y191392D02*
Y196470D01*
X360663Y193931D01*
X364049D01*
X283605Y192470D02*
X278527D01*
Y195009D01*
X279373Y195856D01*
X281066D01*
X281913Y195009D01*
Y192470D01*
Y194163D02*
X283605Y195856D01*
Y197548D02*
Y199241D01*
Y198395D01*
X278527D01*
X279373Y197548D01*
Y201780D02*
X278527Y202627D01*
Y204320D01*
X279373Y205166D01*
X280220D01*
X281066Y204320D01*
Y203473D01*
Y204320D01*
X281913Y205166D01*
X282759D01*
X283605Y204320D01*
Y202627D01*
X282759Y201780D01*
X351353Y203330D02*
Y208408D01*
X353892D01*
X354739Y207562D01*
Y205869D01*
X353892Y205022D01*
X351353D01*
X353046D02*
X354739Y203330D01*
X356431D02*
X358124D01*
X357278D01*
Y208408D01*
X356431Y207562D01*
X364049Y203330D02*
X360663D01*
X364049Y206715D01*
Y207562D01*
X363203Y208408D01*
X361510D01*
X360663Y207562D01*
X223217Y93437D02*
X218139D01*
Y95976D01*
X218985Y96823D01*
X220678D01*
X221525Y95976D01*
Y93437D01*
Y95130D02*
X223217Y96823D01*
Y98516D02*
Y100208D01*
Y99362D01*
X218139D01*
X218985Y98516D01*
X223217Y102748D02*
Y104440D01*
Y103594D01*
X218139D01*
X218985Y102748D01*
X256015Y242348D02*
X250937D01*
Y244887D01*
X251783Y245733D01*
X253476D01*
X254322Y244887D01*
Y242348D01*
Y244040D02*
X256015Y245733D01*
Y247426D02*
Y249119D01*
Y248272D01*
X250937D01*
X251783Y247426D01*
Y251658D02*
X250937Y252504D01*
Y254197D01*
X251783Y255043D01*
X255168D01*
X256015Y254197D01*
Y252504D01*
X255168Y251658D01*
X251783D01*
X233733Y75520D02*
Y80598D01*
X236273D01*
X237119Y79752D01*
Y78059D01*
X236273Y77213D01*
X233733D01*
X235426D02*
X237119Y75520D01*
X238812Y76366D02*
X239658Y75520D01*
X241351D01*
X242197Y76366D01*
Y79752D01*
X241351Y80598D01*
X239658D01*
X238812Y79752D01*
Y78905D01*
X239658Y78059D01*
X242197D01*
X105790Y253220D02*
Y258298D01*
X108329D01*
X109176Y257452D01*
Y255759D01*
X108329Y254913D01*
X105790D01*
X107483D02*
X109176Y253220D01*
X110868Y257452D02*
X111715Y258298D01*
X113408D01*
X114254Y257452D01*
Y256605D01*
X113408Y255759D01*
X114254Y254913D01*
Y254066D01*
X113408Y253220D01*
X111715D01*
X110868Y254066D01*
Y254913D01*
X111715Y255759D01*
X110868Y256605D01*
Y257452D01*
X111715Y255759D02*
X113408D01*
X351863Y148210D02*
Y153288D01*
X354402D01*
X355248Y152442D01*
Y150749D01*
X354402Y149903D01*
X351863D01*
X353556D02*
X355248Y148210D01*
X356941Y153288D02*
X360327D01*
Y152442D01*
X356941Y149057D01*
Y148210D01*
X351863Y166117D02*
Y171195D01*
X354402D01*
X355248Y170349D01*
Y168656D01*
X354402Y167810D01*
X351863D01*
X353556D02*
X355248Y166117D01*
X360327Y171195D02*
X358634Y170349D01*
X356941Y168656D01*
Y166963D01*
X357788Y166117D01*
X359481D01*
X360327Y166963D01*
Y167810D01*
X359481Y168656D01*
X356941D01*
X351863Y118542D02*
Y123621D01*
X354402D01*
X355248Y122774D01*
Y121081D01*
X354402Y120235D01*
X351863D01*
X353556D02*
X355248Y118542D01*
X360327Y123621D02*
X356941D01*
Y121081D01*
X358634Y121928D01*
X359481D01*
X360327Y121081D01*
Y119389D01*
X359481Y118542D01*
X357788D01*
X356941Y119389D01*
X351863Y136103D02*
Y141181D01*
X354402D01*
X355248Y140334D01*
Y138642D01*
X354402Y137795D01*
X351863D01*
X353556D02*
X355248Y136103D01*
X359481D02*
Y141181D01*
X356941Y138642D01*
X360327D01*
X496266Y220553D02*
Y225632D01*
X498805D01*
X499651Y224785D01*
Y223092D01*
X498805Y222246D01*
X496266D01*
X497958D02*
X499651Y220553D01*
X501344Y224785D02*
X502190Y225632D01*
X503883D01*
X504729Y224785D01*
Y223939D01*
X503883Y223092D01*
X503037D01*
X503883D01*
X504729Y222246D01*
Y221400D01*
X503883Y220553D01*
X502190D01*
X501344Y221400D01*
X208931Y286852D02*
Y291930D01*
X211471D01*
X212317Y291084D01*
Y289391D01*
X211471Y288545D01*
X208931D01*
X210624D02*
X212317Y286852D01*
X217395D02*
X214010D01*
X217395Y290238D01*
Y291084D01*
X216549Y291930D01*
X214856D01*
X214010Y291084D01*
X51059Y31836D02*
X45981D01*
Y34375D01*
X46828Y35222D01*
X48520D01*
X49367Y34375D01*
Y31836D01*
Y33529D02*
X51059Y35222D01*
Y36915D02*
Y38607D01*
Y37761D01*
X45981D01*
X46828Y36915D01*
X503213Y89545D02*
Y92930D01*
X502367Y93777D01*
X500674D01*
X499828Y92930D01*
Y89545D01*
X500674Y88698D01*
X502367D01*
X501520Y90391D02*
X503213Y88698D01*
X502367D02*
X503213Y89545D01*
X508292Y88698D02*
X504906D01*
X508292Y92084D01*
Y92930D01*
X507445Y93777D01*
X505752D01*
X504906Y92930D01*
X388279Y295799D02*
Y290721D01*
X391665D01*
X396743Y295799D02*
X393358D01*
Y290721D01*
X396743D01*
X393358Y293260D02*
X395051D01*
X398436Y295799D02*
Y290721D01*
X400975D01*
X401822Y291567D01*
Y294953D01*
X400975Y295799D01*
X398436D01*
X406900Y290721D02*
X403515D01*
X406900Y294106D01*
Y294953D01*
X406054Y295799D01*
X404361D01*
X403515Y294953D01*
X408593Y290721D02*
X411978Y294106D01*
X417057Y294953D02*
X416210Y295799D01*
X414518D01*
X413671Y294953D01*
Y294106D01*
X414518Y293260D01*
X416210D01*
X417057Y292413D01*
Y291567D01*
X416210Y290721D01*
X414518D01*
X413671Y291567D01*
X418750Y295799D02*
X422135D01*
X420442D01*
Y290721D01*
X423828D02*
Y294106D01*
X425521Y295799D01*
X427214Y294106D01*
Y290721D01*
Y293260D01*
X423828D01*
X428906Y295799D02*
X432292D01*
X430599D01*
Y290721D01*
X433985Y295799D02*
Y291567D01*
X434831Y290721D01*
X436524D01*
X437370Y291567D01*
Y295799D01*
X442449Y294953D02*
X441602Y295799D01*
X439909D01*
X439063Y294953D01*
Y294106D01*
X439909Y293260D01*
X441602D01*
X442449Y292413D01*
Y291567D01*
X441602Y290721D01*
X439909D01*
X439063Y291567D01*
X388674Y175409D02*
Y170330D01*
X392060D01*
X397138Y175409D02*
X393753D01*
Y170330D01*
X397138D01*
X393753Y172869D02*
X395446D01*
X398831Y175409D02*
Y170330D01*
X401370D01*
X402217Y171177D01*
Y174562D01*
X401370Y175409D01*
X398831D01*
X403909Y170330D02*
X405602D01*
X404756D01*
Y175409D01*
X403909Y174562D01*
X408141Y170330D02*
X411527Y173716D01*
X413220Y170330D02*
Y175409D01*
X415759D01*
X416605Y174562D01*
Y172869D01*
X415759Y172023D01*
X413220D01*
X420837Y175409D02*
X419145D01*
X418298Y174562D01*
Y171177D01*
X419145Y170330D01*
X420837D01*
X421684Y171177D01*
Y174562D01*
X420837Y175409D01*
X423376D02*
Y170330D01*
X425069Y172023D01*
X426762Y170330D01*
Y175409D01*
X431840D02*
X428455D01*
Y170330D01*
X431840D01*
X428455Y172869D02*
X430148D01*
X433533Y170330D02*
Y175409D01*
X436072D01*
X436919Y174562D01*
Y172869D01*
X436072Y172023D01*
X433533D01*
X435226D02*
X436919Y170330D01*
X687748Y238251D02*
X686055D01*
X686901D01*
Y234019D01*
X686055Y233173D01*
X685209D01*
X684362Y234019D01*
X692826Y233173D02*
X689440D01*
X692826Y236558D01*
Y237405D01*
X691980Y238251D01*
X690287D01*
X689440Y237405D01*
X273045Y98289D02*
X269659D01*
Y95750D01*
X271352D01*
X269659D01*
Y93211D01*
X274737Y98289D02*
Y93211D01*
X277277D01*
X278123Y94057D01*
Y94904D01*
X277277Y95750D01*
X274737D01*
X277277D01*
X278123Y96596D01*
Y97443D01*
X277277Y98289D01*
X274737D01*
X279816Y93211D02*
X281509D01*
X280662D01*
Y98289D01*
X279816Y97443D01*
X442643Y94675D02*
Y89597D01*
X445182D01*
X446028Y90443D01*
Y93829D01*
X445182Y94675D01*
X442643D01*
X450260Y89597D02*
Y94675D01*
X447721Y92136D01*
X451106D01*
X359519Y94525D02*
Y89447D01*
X362058D01*
X362905Y90293D01*
Y93679D01*
X362058Y94525D01*
X359519D01*
X364597Y93679D02*
X365444Y94525D01*
X367136D01*
X367983Y93679D01*
Y92832D01*
X367136Y91986D01*
X366290D01*
X367136D01*
X367983Y91140D01*
Y90293D01*
X367136Y89447D01*
X365444D01*
X364597Y90293D01*
X226732Y211667D02*
X225886Y210821D01*
Y209128D01*
X226732Y208282D01*
X230118D01*
X230964Y209128D01*
Y210821D01*
X230118Y211667D01*
X230964Y213360D02*
Y215053D01*
Y214207D01*
X225886D01*
X226732Y213360D01*
X230118Y217592D02*
X230964Y218438D01*
Y220131D01*
X230118Y220978D01*
X226732D01*
X225886Y220131D01*
Y218438D01*
X226732Y217592D01*
X227579D01*
X228425Y218438D01*
Y220978D01*
X342524Y220430D02*
X341678Y221276D01*
X339985D01*
X339138Y220430D01*
Y217044D01*
X339985Y216198D01*
X341678D01*
X342524Y217044D01*
X344217Y216198D02*
X345909D01*
X345063D01*
Y221276D01*
X344217Y220430D01*
X348449D02*
X349295Y221276D01*
X350988D01*
X351834Y220430D01*
Y219583D01*
X350988Y218737D01*
X351834Y217890D01*
Y217044D01*
X350988Y216198D01*
X349295D01*
X348449Y217044D01*
Y217890D01*
X349295Y218737D01*
X348449Y219583D01*
Y220430D01*
X349295Y218737D02*
X350988D01*
X232728Y90202D02*
X231882Y91048D01*
X230189D01*
X229343Y90202D01*
Y86816D01*
X230189Y85970D01*
X231882D01*
X232728Y86816D01*
X234421Y85970D02*
X236114D01*
X235268D01*
Y91048D01*
X234421Y90202D01*
X238653Y91048D02*
X242039D01*
Y90202D01*
X238653Y86816D01*
Y85970D01*
X220594Y117434D02*
X219747Y116587D01*
Y114895D01*
X220594Y114048D01*
X223979D01*
X224826Y114895D01*
Y116587D01*
X223979Y117434D01*
X224826Y119126D02*
Y120819D01*
Y119973D01*
X219747D01*
X220594Y119126D01*
X219747Y126744D02*
X220594Y125051D01*
X222286Y123358D01*
X223979D01*
X224826Y124205D01*
Y125898D01*
X223979Y126744D01*
X223133D01*
X222286Y125898D01*
Y123358D01*
X209049Y117434D02*
X208202Y116587D01*
Y114895D01*
X209049Y114048D01*
X212434D01*
X213281Y114895D01*
Y116587D01*
X212434Y117434D01*
X213281Y119126D02*
Y120819D01*
Y119973D01*
X208202D01*
X209049Y119126D01*
X208202Y126744D02*
Y123358D01*
X210742D01*
X209895Y125051D01*
Y125898D01*
X210742Y126744D01*
X212434D01*
X213281Y125898D01*
Y124205D01*
X212434Y123358D01*
X227608Y188058D02*
X226762Y187212D01*
Y185519D01*
X227608Y184673D01*
X230994D01*
X231840Y185519D01*
Y187212D01*
X230994Y188058D01*
X231840Y189751D02*
Y191444D01*
Y190597D01*
X226762D01*
X227608Y189751D01*
X231840Y196522D02*
X226762D01*
X229301Y193983D01*
Y197369D01*
X256701Y188256D02*
X255855Y187410D01*
Y185717D01*
X256701Y184870D01*
X260087D01*
X260933Y185717D01*
Y187410D01*
X260087Y188256D01*
X260933Y189949D02*
Y191642D01*
Y190795D01*
X255855D01*
X256701Y189949D01*
Y194181D02*
X255855Y195027D01*
Y196720D01*
X256701Y197566D01*
X257548D01*
X258394Y196720D01*
Y195874D01*
Y196720D01*
X259240Y197566D01*
X260087D01*
X260933Y196720D01*
Y195027D01*
X260087Y194181D01*
X306286Y192852D02*
X305439Y193699D01*
X303747D01*
X302900Y192852D01*
Y189467D01*
X303747Y188621D01*
X305439D01*
X306286Y189467D01*
X307978Y188621D02*
X309671D01*
X308825D01*
Y193699D01*
X307978Y192852D01*
X315596Y188621D02*
X312211D01*
X315596Y192006D01*
Y192852D01*
X314750Y193699D01*
X313057D01*
X312211Y192852D01*
X325087Y90191D02*
X324241Y91037D01*
X322548D01*
X321701Y90191D01*
Y86805D01*
X322548Y85959D01*
X324241D01*
X325087Y86805D01*
X326780Y85959D02*
X328473D01*
X327626D01*
Y91037D01*
X326780Y90191D01*
X331012Y85959D02*
X332705D01*
X331858D01*
Y91037D01*
X331012Y90191D01*
X220916Y171124D02*
X220070Y170278D01*
Y168585D01*
X220916Y167739D01*
X224302D01*
X225148Y168585D01*
Y170278D01*
X224302Y171124D01*
X225148Y172817D02*
Y174510D01*
Y173664D01*
X220070D01*
X220916Y172817D01*
Y177049D02*
X220070Y177896D01*
Y179588D01*
X220916Y180435D01*
X224302D01*
X225148Y179588D01*
Y177896D01*
X224302Y177049D01*
X220916D01*
X615866Y48683D02*
X615019Y49529D01*
X613326D01*
X612480Y48683D01*
Y45297D01*
X613326Y44451D01*
X615019D01*
X615866Y45297D01*
X617558Y49529D02*
X620944D01*
Y48683D01*
X617558Y45297D01*
Y44451D01*
X499790Y194657D02*
X498944Y195504D01*
X497251D01*
X496404Y194657D01*
Y191272D01*
X497251Y190426D01*
X498944D01*
X499790Y191272D01*
X504868Y195504D02*
X503176Y194657D01*
X501483Y192965D01*
Y191272D01*
X502329Y190426D01*
X504022D01*
X504868Y191272D01*
Y192118D01*
X504022Y192965D01*
X501483D01*
X227935Y289984D02*
X227088Y289137D01*
Y287444D01*
X227935Y286598D01*
X231320D01*
X232167Y287444D01*
Y289137D01*
X231320Y289984D01*
X227088Y295062D02*
Y291676D01*
X229627D01*
X228781Y293369D01*
Y294216D01*
X229627Y295062D01*
X231320D01*
X232167Y294216D01*
Y292523D01*
X231320Y291676D01*
X345017Y289874D02*
X344171Y289028D01*
Y287335D01*
X345017Y286489D01*
X348403D01*
X349249Y287335D01*
Y289028D01*
X348403Y289874D01*
X349249Y294106D02*
X344171D01*
X346710Y291567D01*
Y294953D01*
X7192Y7462D02*
X6345Y8308D01*
X4652D01*
X3806Y7462D01*
Y4076D01*
X4652Y3230D01*
X6345D01*
X7192Y4076D01*
X8884Y7462D02*
X9731Y8308D01*
X11423D01*
X12270Y7462D01*
Y6616D01*
X11423Y5769D01*
X10577D01*
X11423D01*
X12270Y4923D01*
Y4076D01*
X11423Y3230D01*
X9731D01*
X8884Y4076D01*
X23613Y51378D02*
X22767Y52225D01*
X21074D01*
X20228Y51378D01*
Y47993D01*
X21074Y47146D01*
X22767D01*
X23613Y47993D01*
X28692Y47146D02*
X25306D01*
X28692Y50532D01*
Y51378D01*
X27845Y52225D01*
X26152D01*
X25306Y51378D01*
X44020Y17479D02*
X43174Y18326D01*
X41481D01*
X40635Y17479D01*
Y14094D01*
X41481Y13247D01*
X43174D01*
X44020Y14094D01*
X45713Y13247D02*
X47406D01*
X46560D01*
Y18326D01*
X45713Y17479D01*
D14*
X268986Y13462D02*
Y38862D01*
X218186Y13462D02*
X268986D01*
X218186D02*
Y38862D01*
X268986D01*
X298196Y13462D02*
Y38862D01*
X348996D01*
Y13462D02*
Y38862D01*
X298196Y13462D02*
X348996D01*
X258892Y124526D02*
Y127026D01*
Y124526D02*
X261392D01*
X298892D02*
Y127026D01*
X296392Y124526D02*
X298892D01*
X258892Y162026D02*
Y164526D01*
X261392D01*
X298892Y162026D02*
Y164526D01*
X296392D02*
X298892D01*
X13354Y53226D02*
X14624Y51956D01*
X12084D02*
X13354Y53226D01*
X12084Y51956D02*
X14624D01*
X185420Y269240D02*
Y294640D01*
X33020Y269240D02*
Y294640D01*
X185420D01*
X33020Y269240D02*
X185420D01*
D15*
X276098Y14344D02*
X292354D01*
X194818Y35783D02*
X211074D01*
X194818Y22980D02*
X211074D01*
X276098Y27147D02*
X292354D01*
X485902Y56896D02*
X502158D01*
X462788D02*
X479044D01*
X403606Y54610D02*
X419862D01*
X378968D02*
X395224D01*
X485902Y41910D02*
X502158D01*
X462788Y33274D02*
X479044D01*
X403606Y40767D02*
X419862D01*
X378968Y32131D02*
X395224D01*
X485902Y26924D02*
X502158D01*
X462788Y18288D02*
X479044D01*
X403606Y26924D02*
X419862D01*
X378968Y18288D02*
X395224D01*
X442468Y67750D02*
Y84006D01*
X358394Y67818D02*
Y84074D01*
X451612Y182882D02*
X467868D01*
X451612Y198882D02*
X467868D01*
X451612Y214882D02*
X467868D01*
X451640Y274572D02*
X467896D01*
X451640Y258572D02*
X467896D01*
X451640Y242572D02*
X467896D01*
X473279Y283208D02*
X489535D01*
X473279Y267208D02*
X489535D01*
X473279Y251208D02*
X489535D01*
X494919Y283208D02*
X511175D01*
X494919Y267208D02*
X511175D01*
X494919Y251208D02*
X511175D01*
X328383Y146512D02*
X344639D01*
X328383Y164418D02*
X344639D01*
X328383Y116844D02*
X344639D01*
X328383Y134322D02*
X344639D01*
X125078Y251301D02*
X141334D01*
X244418Y81813D02*
X260674D01*
X258463Y223112D02*
Y239368D01*
X206422Y92837D02*
Y109093D01*
X328383Y201631D02*
X344639D01*
X328383Y189693D02*
X344639D01*
X266990Y190868D02*
Y207124D01*
X328383Y186518D02*
X344639D01*
X492506Y218318D02*
X508762D01*
X306593Y231626D02*
X322849D01*
X34290Y31496D02*
Y47752D01*
X203962Y284762D02*
X220218D01*
D16*
X9391Y263400D02*
X15739D01*
X17009Y264669D01*
Y267208D01*
X15739Y268478D01*
X9391D01*
X17009Y271017D02*
Y273556D01*
Y272287D01*
X9391D01*
X10661Y271017D01*
D17*
X455320Y68330D02*
D03*
X468020D02*
D03*
X371500Y68519D02*
D03*
X384200D02*
D03*
D18*
X461670Y65028D02*
D03*
X377850Y65217D02*
D03*
D19*
X13334Y72504D02*
D03*
D20*
X6186Y64694D02*
D03*
D21*
X-34652Y74560D02*
D03*
Y92086D02*
D03*
D22*
X-52813Y83323D02*
D03*
D23*
Y107580D02*
D03*
X-32747Y127646D02*
D03*
X-52813Y147712D02*
D03*
X-32747Y167778D02*
D03*
X-52813Y187844D02*
D03*
X-32747Y207910D02*
D03*
D24*
X-42780Y117613D02*
D03*
Y137679D02*
D03*
Y157745D02*
D03*
Y177811D02*
D03*
Y197877D02*
D03*
Y217943D02*
D03*
M02*
