G04*
G04 #@! TF.GenerationSoftware,Altium Limited,Altium Designer,25.8.1 (18)*
G04*
G04 Layer_Physical_Order=2*
G04 Layer_Color=36540*
%FSLAX44Y44*%
%MOMM*%
G71*
G04*
G04 #@! TF.SameCoordinates,AE27A26B-8DB4-4DA6-B640-D1B86F1D9442*
G04*
G04*
G04 #@! TF.FilePolarity,Positive*
G04*
G01*
G75*
%ADD136R,1.5000X1.5000*%
%ADD137C,1.5000*%
%ADD138C,1.5300*%
%ADD139R,1.3980X1.3980*%
%ADD140C,1.3980*%
%ADD141C,2.4450*%
%ADD142C,0.6000*%
G36*
X697230Y231394D02*
X616755D01*
X606849Y241300D01*
X601865D01*
X601294Y241453D01*
X597607D01*
X597035Y241300D01*
X592051D01*
X581891Y231140D01*
X552565D01*
Y191168D01*
X548040Y186643D01*
X523240D01*
Y68580D01*
X582930D01*
X593090Y58420D01*
X605790D01*
X615950Y68580D01*
X697230D01*
Y2540D01*
X2540D01*
Y297180D01*
X697230D01*
Y231394D01*
D02*
G37*
%LPC*%
G36*
X203095Y285302D02*
X201195D01*
X199438Y284575D01*
X198094Y283231D01*
X197367Y281475D01*
Y279574D01*
X198094Y277818D01*
X199438Y276474D01*
X201195Y275746D01*
X203095D01*
X204851Y276474D01*
X206196Y277818D01*
X206923Y279574D01*
Y281475D01*
X206196Y283231D01*
X204851Y284575D01*
X203095Y285302D01*
D02*
G37*
G36*
X358074Y285222D02*
X356174D01*
X354417Y284495D01*
X353073Y283151D01*
X352346Y281394D01*
Y279494D01*
X353073Y277738D01*
X354417Y276393D01*
X356174Y275666D01*
X358074D01*
X359831Y276393D01*
X361175Y277738D01*
X361902Y279494D01*
Y281394D01*
X361175Y283151D01*
X359831Y284495D01*
X358074Y285222D01*
D02*
G37*
G36*
X471538Y283668D02*
X469637D01*
X467881Y282941D01*
X466537Y281597D01*
X465810Y279840D01*
Y277940D01*
X466537Y276183D01*
X467881Y274839D01*
X469637Y274112D01*
X471538D01*
X473294Y274839D01*
X474638Y276183D01*
X475366Y277940D01*
Y279840D01*
X474638Y281597D01*
X473294Y282941D01*
X471538Y283668D01*
D02*
G37*
G36*
X148541Y291218D02*
X146098D01*
X143739Y290586D01*
X141623Y289364D01*
X139896Y287637D01*
X138674Y285521D01*
X138042Y283162D01*
Y280718D01*
X138674Y278359D01*
X139896Y276243D01*
X141623Y274516D01*
X143739Y273294D01*
X146098Y272662D01*
X148541D01*
X150901Y273294D01*
X153017Y274516D01*
X154744Y276243D01*
X155966Y278359D01*
X156598Y280718D01*
Y283162D01*
X155966Y285521D01*
X154744Y287637D01*
X153017Y289364D01*
X150901Y290586D01*
X148541Y291218D01*
D02*
G37*
G36*
X123141D02*
X120698D01*
X118339Y290586D01*
X116223Y289364D01*
X114496Y287637D01*
X113274Y285521D01*
X112642Y283162D01*
Y280718D01*
X113274Y278359D01*
X114496Y276243D01*
X116223Y274516D01*
X118339Y273294D01*
X120698Y272662D01*
X123141D01*
X125501Y273294D01*
X127617Y274516D01*
X129344Y276243D01*
X130566Y278359D01*
X131198Y280718D01*
Y283162D01*
X130566Y285521D01*
X129344Y287637D01*
X127617Y289364D01*
X125501Y290586D01*
X123141Y291218D01*
D02*
G37*
G36*
X97741D02*
X95299D01*
X92939Y290586D01*
X90823Y289364D01*
X89096Y287637D01*
X87874Y285521D01*
X87242Y283162D01*
Y280718D01*
X87874Y278359D01*
X89096Y276243D01*
X90823Y274516D01*
X92939Y273294D01*
X95299Y272662D01*
X97741D01*
X100101Y273294D01*
X102217Y274516D01*
X103944Y276243D01*
X105166Y278359D01*
X105798Y280718D01*
Y283162D01*
X105166Y285521D01*
X103944Y287637D01*
X102217Y289364D01*
X100101Y290586D01*
X97741Y291218D01*
D02*
G37*
G36*
X72341D02*
X69899D01*
X67539Y290586D01*
X65423Y289364D01*
X63696Y287637D01*
X62474Y285521D01*
X61842Y283162D01*
Y280718D01*
X62474Y278359D01*
X63696Y276243D01*
X65423Y274516D01*
X67539Y273294D01*
X69899Y272662D01*
X72341D01*
X74701Y273294D01*
X76817Y274516D01*
X78544Y276243D01*
X79766Y278359D01*
X80398Y280718D01*
Y283162D01*
X79766Y285521D01*
X78544Y287637D01*
X76817Y289364D01*
X74701Y290586D01*
X72341Y291218D01*
D02*
G37*
G36*
X54998D02*
X36442D01*
Y272662D01*
X54998D01*
Y291218D01*
D02*
G37*
G36*
X471538Y267588D02*
X469637D01*
X467881Y266860D01*
X466537Y265516D01*
X465810Y263760D01*
Y261859D01*
X466537Y260103D01*
X467881Y258759D01*
X469637Y258032D01*
X471538D01*
X473294Y258759D01*
X474638Y260103D01*
X475366Y261859D01*
Y263760D01*
X474638Y265516D01*
X473294Y266860D01*
X471538Y267588D01*
D02*
G37*
G36*
X179250Y256746D02*
X177350D01*
X175593Y256019D01*
X174249Y254674D01*
X173522Y252918D01*
Y251018D01*
X174249Y249261D01*
X175593Y247917D01*
X177350Y247190D01*
X179250D01*
X181007Y247917D01*
X182351Y249261D01*
X183078Y251018D01*
Y252918D01*
X182351Y254674D01*
X181007Y256019D01*
X179250Y256746D01*
D02*
G37*
G36*
X166550D02*
X164650D01*
X162894Y256019D01*
X161549Y254674D01*
X160822Y252918D01*
Y251018D01*
X161549Y249261D01*
X162894Y247917D01*
X164650Y247190D01*
X166550D01*
X168307Y247917D01*
X169651Y249261D01*
X170378Y251018D01*
Y252918D01*
X169651Y254674D01*
X168307Y256019D01*
X166550Y256746D01*
D02*
G37*
G36*
X144102Y260317D02*
X142201D01*
X140445Y259590D01*
X139101Y258246D01*
X138373Y256490D01*
Y254589D01*
X139101Y252833D01*
X140445Y251489D01*
X142201Y250761D01*
X144102D01*
X145858Y251489D01*
X146852Y252483D01*
X148122Y251988D01*
Y251018D01*
X148849Y249261D01*
X150194Y247917D01*
X151950Y247190D01*
X153850D01*
X155606Y247917D01*
X156951Y249261D01*
X157678Y251018D01*
Y252918D01*
X156951Y254674D01*
X155606Y256019D01*
X153850Y256746D01*
X151950D01*
X150194Y256019D01*
X149199Y255025D01*
X147929Y255520D01*
Y256490D01*
X147202Y258246D01*
X145858Y259590D01*
X144102Y260317D01*
D02*
G37*
G36*
X103050Y256746D02*
X101150D01*
X99394Y256019D01*
X98049Y254674D01*
X97322Y252918D01*
Y251018D01*
X98049Y249261D01*
X99394Y247917D01*
X101150Y247190D01*
X103050D01*
X104806Y247917D01*
X106151Y249261D01*
X106878Y251018D01*
Y252918D01*
X106151Y254674D01*
X104806Y256019D01*
X103050Y256746D01*
D02*
G37*
G36*
X77650D02*
X75750D01*
X73994Y256019D01*
X72649Y254674D01*
X71922Y252918D01*
Y251018D01*
X72649Y249261D01*
X73994Y247917D01*
X75750Y247190D01*
X77650D01*
X79406Y247917D01*
X80751Y249261D01*
X81478Y251018D01*
Y252918D01*
X80751Y254674D01*
X79406Y256019D01*
X77650Y256746D01*
D02*
G37*
G36*
X39550D02*
X37650D01*
X35893Y256019D01*
X34549Y254674D01*
X33822Y252918D01*
Y251018D01*
X34549Y249261D01*
X35893Y247917D01*
X37650Y247190D01*
X39550D01*
X41307Y247917D01*
X42651Y249261D01*
X43378Y251018D01*
Y252918D01*
X42651Y254674D01*
X41307Y256019D01*
X39550Y256746D01*
D02*
G37*
G36*
X26850D02*
X24950D01*
X23194Y256019D01*
X21849Y254674D01*
X21122Y252918D01*
Y251018D01*
X21849Y249261D01*
X23194Y247917D01*
X24950Y247190D01*
X26850D01*
X28607Y247917D01*
X29951Y249261D01*
X30678Y251018D01*
Y252918D01*
X29951Y254674D01*
X28607Y256019D01*
X26850Y256746D01*
D02*
G37*
G36*
X471538Y251668D02*
X469637D01*
X467881Y250941D01*
X466537Y249597D01*
X465810Y247840D01*
Y245940D01*
X466537Y244184D01*
X467881Y242839D01*
X469637Y242112D01*
X471538D01*
X473294Y242839D01*
X474638Y244184D01*
X475366Y245940D01*
Y247840D01*
X474638Y249597D01*
X473294Y250941D01*
X471538Y251668D01*
D02*
G37*
G36*
X294259Y251158D02*
X292358D01*
X290602Y250431D01*
X289258Y249086D01*
X288530Y247330D01*
Y245430D01*
X289258Y243673D01*
X290602Y242329D01*
X292358Y241602D01*
X294259D01*
X296015Y242329D01*
X297359Y243673D01*
X298086Y245430D01*
Y247330D01*
X297359Y249086D01*
X296015Y250431D01*
X294259Y251158D01*
D02*
G37*
G36*
X254950Y248872D02*
X253050D01*
X251294Y248145D01*
X249949Y246800D01*
X249222Y245044D01*
Y243144D01*
X249949Y241388D01*
X251294Y240043D01*
X253050Y239316D01*
X254950D01*
X256707Y240043D01*
X258051Y241388D01*
X258778Y243144D01*
Y245044D01*
X258051Y246800D01*
X256707Y248145D01*
X254950Y248872D01*
D02*
G37*
G36*
X115750Y227810D02*
X113850D01*
X112093Y227083D01*
X110749Y225739D01*
X110022Y223982D01*
Y222082D01*
X110749Y220326D01*
X112093Y218981D01*
X113850Y218254D01*
X115750D01*
X117507Y218981D01*
X118851Y220326D01*
X119578Y222082D01*
Y223982D01*
X118851Y225739D01*
X117507Y227083D01*
X115750Y227810D01*
D02*
G37*
G36*
X374790Y221960D02*
X372889D01*
X371133Y221232D01*
X369789Y219888D01*
X369061Y218132D01*
Y216231D01*
X369789Y214475D01*
X371133Y213131D01*
X372889Y212404D01*
X374790D01*
X376546Y213131D01*
X377890Y214475D01*
X378617Y216231D01*
Y218132D01*
X377890Y219888D01*
X376546Y221232D01*
X374790Y221960D01*
D02*
G37*
G36*
X491639Y218858D02*
X489739D01*
X487982Y218131D01*
X486638Y216787D01*
X485911Y215031D01*
Y213130D01*
X486638Y211374D01*
X487982Y210030D01*
X489739Y209302D01*
X491639D01*
X493396Y210030D01*
X494740Y211374D01*
X495467Y213130D01*
Y215031D01*
X494740Y216787D01*
X493396Y218131D01*
X491639Y218858D01*
D02*
G37*
G36*
X294259Y214832D02*
X292358D01*
X290602Y214105D01*
X289258Y212761D01*
X288530Y211004D01*
Y209104D01*
X289258Y207348D01*
X290602Y206003D01*
X292358Y205276D01*
X294259D01*
X296015Y206003D01*
X297359Y207348D01*
X298086Y209104D01*
Y211004D01*
X297359Y212761D01*
X296015Y214105D01*
X294259Y214832D01*
D02*
G37*
G36*
X177282Y211978D02*
X175382D01*
X173626Y211251D01*
X172281Y209907D01*
X171554Y208150D01*
Y206250D01*
X172281Y204494D01*
X173626Y203149D01*
X175382Y202422D01*
X177282D01*
X179039Y203149D01*
X180383Y204494D01*
X181110Y206250D01*
Y208150D01*
X180383Y209907D01*
X179039Y211251D01*
X177282Y211978D01*
D02*
G37*
G36*
X347406Y210647D02*
X345506D01*
X343750Y209919D01*
X342405Y208575D01*
X341678Y206819D01*
Y204918D01*
X342405Y203162D01*
X343750Y201818D01*
X345506Y201091D01*
X347406D01*
X349162Y201818D01*
X350507Y203162D01*
X351234Y204918D01*
Y206819D01*
X350507Y208575D01*
X349162Y209919D01*
X347406Y210647D01*
D02*
G37*
G36*
X374584Y207976D02*
X372684D01*
X370928Y207249D01*
X369583Y205905D01*
X368856Y204148D01*
Y202248D01*
X369583Y200492D01*
X370928Y199147D01*
X372684Y198420D01*
X374584D01*
X376340Y199147D01*
X377685Y200492D01*
X378412Y202248D01*
Y204148D01*
X377685Y205905D01*
X376340Y207249D01*
X374584Y207976D01*
D02*
G37*
G36*
X59624Y199278D02*
X57724D01*
X55967Y198551D01*
X54623Y197206D01*
X53896Y195450D01*
Y193550D01*
X54623Y191793D01*
X55967Y190449D01*
X57724Y189722D01*
X59624D01*
X61381Y190449D01*
X62725Y191793D01*
X63452Y193550D01*
Y195450D01*
X62725Y197206D01*
X61381Y198551D01*
X59624Y199278D01*
D02*
G37*
G36*
X347406Y198709D02*
X345506D01*
X343750Y197981D01*
X342405Y196637D01*
X341678Y194881D01*
Y192980D01*
X342405Y191224D01*
X343750Y189880D01*
X345506Y189153D01*
X347406D01*
X349162Y189880D01*
X350507Y191224D01*
X351234Y192980D01*
Y194881D01*
X350507Y196637D01*
X349162Y197981D01*
X347406Y198709D01*
D02*
G37*
G36*
X374584Y191976D02*
X372684D01*
X370928Y191249D01*
X369583Y189904D01*
X368856Y188148D01*
Y186248D01*
X369583Y184492D01*
X370928Y183147D01*
X372684Y182420D01*
X374584D01*
X376340Y183147D01*
X377685Y184492D01*
X378412Y186248D01*
Y188148D01*
X377685Y189904D01*
X376340Y191249D01*
X374584Y191976D01*
D02*
G37*
G36*
X470635Y191898D02*
X468735D01*
X466978Y191170D01*
X465634Y189826D01*
X464907Y188070D01*
Y186169D01*
X465634Y184413D01*
X466978Y183069D01*
X468735Y182342D01*
X470635D01*
X472392Y183069D01*
X473736Y184413D01*
X474463Y186169D01*
Y188070D01*
X473736Y189826D01*
X472392Y191170D01*
X470635Y191898D01*
D02*
G37*
G36*
X177282Y186578D02*
X175382D01*
X173626Y185851D01*
X172281Y184506D01*
X171554Y182750D01*
Y180850D01*
X172281Y179093D01*
X173626Y177749D01*
X175382Y177022D01*
X177282D01*
X179039Y177749D01*
X180383Y179093D01*
X181110Y180850D01*
Y182750D01*
X180383Y184506D01*
X179039Y185851D01*
X177282Y186578D01*
D02*
G37*
G36*
X299972Y188964D02*
X298071D01*
X296315Y188236D01*
X294971Y186892D01*
X294244Y185136D01*
Y183235D01*
X294971Y181479D01*
X295993Y180457D01*
X294971Y179435D01*
X294244Y177679D01*
Y175778D01*
X294971Y174022D01*
X296315Y172678D01*
X298071Y171950D01*
X299972D01*
X301728Y172678D01*
X303072Y174022D01*
X303800Y175778D01*
Y177679D01*
X303072Y179435D01*
X302050Y180457D01*
X303072Y181479D01*
X303800Y183235D01*
Y185136D01*
X303072Y186892D01*
X301728Y188236D01*
X299972Y188964D01*
D02*
G37*
G36*
X347406Y173434D02*
X345506D01*
X343750Y172707D01*
X342405Y171362D01*
X341678Y169606D01*
Y167706D01*
X342405Y165949D01*
X343750Y164605D01*
X345506Y163878D01*
X347406D01*
X349162Y164605D01*
X350507Y165949D01*
X351234Y167706D01*
Y169606D01*
X350507Y171362D01*
X349162Y172707D01*
X347406Y173434D01*
D02*
G37*
G36*
X240472Y168100D02*
X238572D01*
X236815Y167373D01*
X235471Y166028D01*
X234744Y164272D01*
Y162372D01*
X235471Y160616D01*
X236815Y159271D01*
X238572Y158544D01*
X240472D01*
X242229Y159271D01*
X243573Y160616D01*
X244300Y162372D01*
Y164272D01*
X243573Y166028D01*
X242229Y167373D01*
X240472Y168100D01*
D02*
G37*
G36*
X229296D02*
X227396D01*
X225639Y167373D01*
X224295Y166028D01*
X223568Y164272D01*
Y162372D01*
X224295Y160616D01*
X225639Y159271D01*
X227396Y158544D01*
X229296D01*
X231052Y159271D01*
X232397Y160616D01*
X233124Y162372D01*
Y164272D01*
X232397Y166028D01*
X231052Y167373D01*
X229296Y168100D01*
D02*
G37*
G36*
X213041Y158000D02*
X211140D01*
X209384Y157273D01*
X208040Y155929D01*
X207312Y154173D01*
Y152272D01*
X208040Y150516D01*
X209384Y149172D01*
X211140Y148444D01*
X213041D01*
X214797Y149172D01*
X216141Y150516D01*
X216868Y152272D01*
Y154173D01*
X216141Y155929D01*
X214797Y157273D01*
X213041Y158000D01*
D02*
G37*
G36*
X347406Y155527D02*
X345506D01*
X343750Y154800D01*
X342405Y153456D01*
X341678Y151700D01*
Y149799D01*
X342405Y148043D01*
X343750Y146699D01*
X345506Y145971D01*
X347406D01*
X349162Y146699D01*
X350507Y148043D01*
X351234Y149799D01*
Y151700D01*
X350507Y153456D01*
X349162Y154800D01*
X347406Y155527D01*
D02*
G37*
G36*
Y143338D02*
X345506D01*
X343750Y142610D01*
X342405Y141266D01*
X341678Y139510D01*
Y137609D01*
X342405Y135853D01*
X343750Y134509D01*
X345506Y133782D01*
X347406D01*
X349162Y134509D01*
X350507Y135853D01*
X351234Y137609D01*
Y139510D01*
X350507Y141266D01*
X349162Y142610D01*
X347406Y143338D01*
D02*
G37*
G36*
X239798Y140236D02*
X237898D01*
X236141Y139509D01*
X234797Y138165D01*
X234070Y136409D01*
Y134508D01*
X234797Y132752D01*
X236141Y131408D01*
X237898Y130680D01*
X239798D01*
X241555Y131408D01*
X242899Y132752D01*
X243626Y134508D01*
Y136409D01*
X242899Y138165D01*
X241555Y139509D01*
X239798Y140236D01*
D02*
G37*
G36*
X242338Y129549D02*
X240438D01*
X238682Y128821D01*
X237337Y127477D01*
X236610Y125721D01*
Y123820D01*
X237337Y122064D01*
X238682Y120720D01*
X240438Y119993D01*
X242338D01*
X244095Y120720D01*
X245439Y122064D01*
X246166Y123820D01*
Y125721D01*
X245439Y127477D01*
X244095Y128821D01*
X242338Y129549D01*
D02*
G37*
G36*
X347406Y125859D02*
X345506D01*
X343750Y125132D01*
X342405Y123788D01*
X341678Y122032D01*
Y120131D01*
X342405Y118375D01*
X343750Y117031D01*
X345506Y116304D01*
X347406D01*
X349162Y117031D01*
X350507Y118375D01*
X351234Y120131D01*
Y122032D01*
X350507Y123788D01*
X349162Y125132D01*
X347406Y125859D01*
D02*
G37*
G36*
X263696Y107394D02*
X261795D01*
X260039Y106667D01*
X258695Y105323D01*
X258332Y104446D01*
X256957D01*
X256594Y105323D01*
X255250Y106667D01*
X253494Y107394D01*
X251593D01*
X249837Y106667D01*
X248493Y105323D01*
X247766Y103566D01*
Y101666D01*
X248493Y99909D01*
X249837Y98565D01*
X251593Y97838D01*
X253494D01*
X255250Y98565D01*
X256594Y99909D01*
X256957Y100786D01*
X258332D01*
X258695Y99909D01*
X260039Y98565D01*
X261795Y97838D01*
X263696D01*
X265452Y98565D01*
X266796Y99909D01*
X267524Y101666D01*
Y103566D01*
X266796Y105323D01*
X265452Y106667D01*
X263696Y107394D01*
D02*
G37*
G36*
X312615D02*
X310714D01*
X308958Y106667D01*
X307614Y105323D01*
X306887Y103566D01*
Y101666D01*
X307614Y99909D01*
X308958Y98565D01*
X310714Y97838D01*
X312615D01*
X314371Y98565D01*
X315715Y99909D01*
X316443Y101666D01*
Y103566D01*
X315715Y105323D01*
X314371Y106667D01*
X312615Y107394D01*
D02*
G37*
G36*
X300849D02*
X298949D01*
X297193Y106667D01*
X295849Y105323D01*
X295121Y103566D01*
Y101666D01*
X295849Y99909D01*
X297193Y98565D01*
X298949Y97838D01*
X300849D01*
X302606Y98565D01*
X303950Y99909D01*
X304677Y101666D01*
Y103566D01*
X303950Y105323D01*
X302606Y106667D01*
X300849Y107394D01*
D02*
G37*
G36*
X288539D02*
X286638D01*
X284882Y106667D01*
X283538Y105323D01*
X282810Y103566D01*
Y101666D01*
X283538Y99909D01*
X284882Y98565D01*
X286638Y97838D01*
X288539D01*
X290295Y98565D01*
X291639Y99909D01*
X292366Y101666D01*
Y103566D01*
X291639Y105323D01*
X290295Y106667D01*
X288539Y107394D01*
D02*
G37*
G36*
X419191Y100667D02*
X417290D01*
X415534Y99940D01*
X414190Y98596D01*
X413462Y96839D01*
Y94939D01*
X414190Y93182D01*
X415534Y91838D01*
X417290Y91111D01*
X419191D01*
X420947Y91838D01*
X422291Y93182D01*
X423018Y94939D01*
Y96839D01*
X422291Y98596D01*
X420947Y99940D01*
X419191Y100667D01*
D02*
G37*
G36*
X407858D02*
X405958D01*
X404202Y99940D01*
X402857Y98596D01*
X402130Y96839D01*
Y94939D01*
X402857Y93182D01*
X404202Y91838D01*
X405958Y91111D01*
X407858D01*
X409614Y91838D01*
X410959Y93182D01*
X411686Y94939D01*
Y96839D01*
X410959Y98596D01*
X409614Y99940D01*
X407858Y100667D01*
D02*
G37*
G36*
X211610Y95798D02*
X209709D01*
X207953Y95071D01*
X206609Y93727D01*
X205882Y91970D01*
Y90070D01*
X206609Y88314D01*
X207953Y86969D01*
X209709Y86242D01*
X211610D01*
X213366Y86969D01*
X214710Y88314D01*
X215438Y90070D01*
Y91970D01*
X214710Y93727D01*
X213366Y95071D01*
X211610Y95798D01*
D02*
G37*
G36*
X315092Y91198D02*
X313191D01*
X311435Y90471D01*
X310091Y89127D01*
X309363Y87370D01*
Y85470D01*
X310091Y83714D01*
X311435Y82369D01*
X313191Y81642D01*
X315092D01*
X316848Y82369D01*
X318192Y83714D01*
X318920Y85470D01*
Y87370D01*
X318192Y89127D01*
X316848Y90471D01*
X315092Y91198D01*
D02*
G37*
G36*
X347406Y86637D02*
X345506D01*
X343750Y85910D01*
X342405Y84566D01*
X341678Y82810D01*
Y80909D01*
X342405Y79153D01*
X343750Y77809D01*
X345506Y77081D01*
X347406D01*
X349162Y77809D01*
X350507Y79153D01*
X351234Y80909D01*
Y82810D01*
X350507Y84566D01*
X349162Y85910D01*
X347406Y86637D01*
D02*
G37*
G36*
X243549Y82273D02*
X241648D01*
X239892Y81545D01*
X238548Y80201D01*
X237821Y78445D01*
Y76544D01*
X238548Y74788D01*
X239892Y73444D01*
X241648Y72717D01*
X243549D01*
X245305Y73444D01*
X246649Y74788D01*
X247377Y76544D01*
Y78445D01*
X246649Y80201D01*
X245305Y81545D01*
X243549Y82273D01*
D02*
G37*
G36*
X153850Y81746D02*
X151950D01*
X150194Y81019D01*
X148849Y79675D01*
X148122Y77918D01*
Y76018D01*
X148849Y74261D01*
X150194Y72917D01*
X151950Y72190D01*
X153850D01*
X155606Y72917D01*
X156951Y74261D01*
X157678Y76018D01*
Y77918D01*
X156951Y79675D01*
X155606Y81019D01*
X153850Y81746D01*
D02*
G37*
G36*
X141150D02*
X139250D01*
X137493Y81019D01*
X136149Y79675D01*
X135422Y77918D01*
Y76018D01*
X136149Y74261D01*
X137493Y72917D01*
X139250Y72190D01*
X141150D01*
X142907Y72917D01*
X144251Y74261D01*
X144978Y76018D01*
Y77918D01*
X144251Y79675D01*
X142907Y81019D01*
X141150Y81746D01*
D02*
G37*
G36*
X128450D02*
X126550D01*
X124794Y81019D01*
X123449Y79675D01*
X122722Y77918D01*
Y76018D01*
X123449Y74261D01*
X124794Y72917D01*
X126550Y72190D01*
X128450D01*
X130206Y72917D01*
X131551Y74261D01*
X132278Y76018D01*
Y77918D01*
X131551Y79675D01*
X130206Y81019D01*
X128450Y81746D01*
D02*
G37*
G36*
X39550D02*
X37650D01*
X35893Y81019D01*
X34549Y79675D01*
X33822Y77918D01*
Y76018D01*
X34549Y74261D01*
X35893Y72917D01*
X37650Y72190D01*
X39550D01*
X41307Y72917D01*
X42651Y74261D01*
X43378Y76018D01*
Y77918D01*
X42651Y79675D01*
X41307Y81019D01*
X39550Y81746D01*
D02*
G37*
G36*
X26850D02*
X24950D01*
X23194Y81019D01*
X21849Y79675D01*
X21122Y77918D01*
Y76018D01*
X21849Y74261D01*
X23194Y72917D01*
X24950Y72190D01*
X26850D01*
X28607Y72917D01*
X29951Y74261D01*
X30678Y76018D01*
Y77918D01*
X29951Y79675D01*
X28607Y81019D01*
X26850Y81746D01*
D02*
G37*
G36*
X279842Y69214D02*
X277942D01*
X276185Y68486D01*
X275205Y67506D01*
X274225Y68486D01*
X272469Y69214D01*
X270568D01*
X268812Y68486D01*
X267468Y67142D01*
X266741Y65386D01*
Y63485D01*
X267468Y61729D01*
X268812Y60385D01*
X270568Y59658D01*
X272469D01*
X274225Y60385D01*
X275205Y61365D01*
X276185Y60385D01*
X277942Y59658D01*
X279842D01*
X281598Y60385D01*
X282943Y61729D01*
X283670Y63485D01*
Y65386D01*
X282943Y67142D01*
X281598Y68486D01*
X279842Y69214D01*
D02*
G37*
G36*
X315092Y73612D02*
X313191D01*
X311435Y72885D01*
X310091Y71540D01*
X309363Y69784D01*
Y67884D01*
X310091Y66128D01*
X311435Y64783D01*
X313191Y64056D01*
X315092D01*
X316848Y64783D01*
X318192Y66128D01*
X318920Y67884D01*
Y69784D01*
X318192Y71540D01*
X316848Y72885D01*
X315092Y73612D01*
D02*
G37*
G36*
X303337D02*
X301436D01*
X299680Y72885D01*
X298336Y71540D01*
X297609Y69784D01*
Y67884D01*
X298336Y66128D01*
X299680Y64783D01*
X301436Y64056D01*
X303337D01*
X305093Y64783D01*
X306437Y66128D01*
X307164Y67884D01*
Y69784D01*
X306437Y71540D01*
X305093Y72885D01*
X303337Y73612D01*
D02*
G37*
G36*
X423250Y72314D02*
X421350D01*
X419594Y71587D01*
X418249Y70243D01*
X417522Y68486D01*
Y66586D01*
X418249Y64830D01*
X419594Y63485D01*
X421350Y62758D01*
X423250D01*
X425006Y63485D01*
X426351Y64830D01*
X427078Y66586D01*
Y68486D01*
X426351Y70243D01*
X425006Y71587D01*
X423250Y72314D01*
D02*
G37*
G36*
X506322Y72234D02*
X504422D01*
X502665Y71506D01*
X501321Y70162D01*
X500594Y68406D01*
Y66505D01*
X501321Y64749D01*
X502665Y63405D01*
X504422Y62678D01*
X506322D01*
X508078Y63405D01*
X509423Y64749D01*
X510150Y66505D01*
Y68406D01*
X509423Y70162D01*
X508078Y71506D01*
X506322Y72234D01*
D02*
G37*
G36*
X363751Y68657D02*
X361850D01*
X360094Y67930D01*
X358750Y66586D01*
X358023Y64830D01*
Y62929D01*
X358750Y61173D01*
X360094Y59829D01*
X361850Y59102D01*
X363751D01*
X365507Y59829D01*
X366851Y61173D01*
X367579Y62929D01*
Y64830D01*
X366851Y66586D01*
X365507Y67930D01*
X363751Y68657D01*
D02*
G37*
G36*
X447825Y68263D02*
X445924D01*
X444168Y67536D01*
X442824Y66192D01*
X442097Y64436D01*
Y62535D01*
X442824Y60779D01*
X444168Y59435D01*
X445924Y58707D01*
X447825D01*
X449581Y59435D01*
X450925Y60779D01*
X451652Y62535D01*
Y64436D01*
X450925Y66192D01*
X449581Y67536D01*
X447825Y68263D01*
D02*
G37*
G36*
X504925Y57276D02*
X503025D01*
X501269Y56548D01*
X499924Y55204D01*
X499197Y53448D01*
Y51547D01*
X499924Y49791D01*
X501269Y48447D01*
X503025Y47720D01*
X504925D01*
X506682Y48447D01*
X508026Y49791D01*
X508753Y51547D01*
Y53448D01*
X508026Y55204D01*
X506682Y56548D01*
X504925Y57276D01*
D02*
G37*
G36*
X422629Y54990D02*
X420729D01*
X418973Y54262D01*
X417628Y52918D01*
X416901Y51162D01*
Y49261D01*
X417628Y47505D01*
X418973Y46161D01*
X420729Y45434D01*
X422629D01*
X424385Y46161D01*
X425730Y47505D01*
X426457Y49261D01*
Y51162D01*
X425730Y52918D01*
X424385Y54262D01*
X422629Y54990D01*
D02*
G37*
G36*
X103050Y52810D02*
X101150D01*
X99394Y52083D01*
X98049Y50739D01*
X97322Y48982D01*
Y47082D01*
X98049Y45325D01*
X99394Y43981D01*
X101150Y43254D01*
X103050D01*
X104806Y43981D01*
X106151Y45325D01*
X106878Y47082D01*
Y48982D01*
X106151Y50739D01*
X104806Y52083D01*
X103050Y52810D01*
D02*
G37*
G36*
X504925Y42290D02*
X503025D01*
X501269Y41562D01*
X499924Y40218D01*
X499197Y38462D01*
Y36561D01*
X499924Y34805D01*
X501269Y33461D01*
X503025Y32734D01*
X504925D01*
X506682Y33461D01*
X508026Y34805D01*
X508753Y36561D01*
Y38462D01*
X508026Y40218D01*
X506682Y41562D01*
X504925Y42290D01*
D02*
G37*
G36*
X422629Y41147D02*
X420729D01*
X418973Y40419D01*
X417628Y39075D01*
X416901Y37319D01*
Y35418D01*
X417628Y33662D01*
X418973Y32318D01*
X420729Y31591D01*
X422629D01*
X424385Y32318D01*
X425730Y33662D01*
X426457Y35418D01*
Y37319D01*
X425730Y39075D01*
X424385Y40419D01*
X422629Y41147D01*
D02*
G37*
G36*
X40952Y31828D02*
X39051D01*
X37295Y31100D01*
X36360Y30165D01*
X35425Y31100D01*
X33669Y31828D01*
X31768D01*
X30012Y31100D01*
X28668Y29757D01*
X27940Y28000D01*
Y26100D01*
X28668Y24343D01*
X30012Y22999D01*
X31768Y22272D01*
X33669D01*
X35425Y22999D01*
X36360Y23935D01*
X37295Y22999D01*
X39051Y22272D01*
X40952D01*
X42708Y22999D01*
X44052Y24343D01*
X44780Y26100D01*
Y28000D01*
X44052Y29757D01*
X42708Y31100D01*
X40952Y31828D01*
D02*
G37*
G36*
X193951Y36323D02*
X192051D01*
X190294Y35596D01*
X188950Y34252D01*
X188223Y32496D01*
Y30595D01*
X188950Y28839D01*
X190294Y27495D01*
X192051Y26768D01*
X193951D01*
X195707Y27495D01*
X197052Y28839D01*
X197779Y30595D01*
Y32496D01*
X197052Y34252D01*
X195707Y35596D01*
X193951Y36323D01*
D02*
G37*
G36*
X504925Y27304D02*
X503025D01*
X501269Y26576D01*
X499924Y25232D01*
X499197Y23476D01*
Y21575D01*
X499924Y19819D01*
X501269Y18475D01*
X503025Y17748D01*
X504925D01*
X506682Y18475D01*
X508026Y19819D01*
X508753Y21575D01*
Y23476D01*
X508026Y25232D01*
X506682Y26576D01*
X504925Y27304D01*
D02*
G37*
G36*
X422629D02*
X420729D01*
X418973Y26576D01*
X417628Y25232D01*
X416901Y23476D01*
Y21575D01*
X417628Y19819D01*
X418973Y18475D01*
X420729Y17748D01*
X422629D01*
X424385Y18475D01*
X425730Y19819D01*
X426457Y21575D01*
Y23476D01*
X425730Y25232D01*
X424385Y26576D01*
X422629Y27304D01*
D02*
G37*
G36*
X345574Y35440D02*
X327018D01*
Y16884D01*
X345574D01*
Y35440D01*
D02*
G37*
G36*
X312118D02*
X309674D01*
X307315Y34808D01*
X305199Y33586D01*
X303472Y31859D01*
X302250Y29743D01*
X301618Y27383D01*
Y24941D01*
X302250Y22581D01*
X303472Y20465D01*
X305199Y18738D01*
X307315Y17516D01*
X309674Y16884D01*
X312118D01*
X314477Y17516D01*
X316593Y18738D01*
X318320Y20465D01*
X319542Y22581D01*
X320174Y24941D01*
Y27383D01*
X319542Y29743D01*
X318320Y31859D01*
X316593Y33586D01*
X314477Y34808D01*
X312118Y35440D01*
D02*
G37*
G36*
X257507D02*
X255065D01*
X252705Y34808D01*
X250589Y33586D01*
X248862Y31859D01*
X247640Y29743D01*
X247008Y27383D01*
Y24941D01*
X247640Y22581D01*
X248862Y20465D01*
X250589Y18738D01*
X252705Y17516D01*
X255065Y16884D01*
X257507D01*
X259867Y17516D01*
X261983Y18738D01*
X263710Y20465D01*
X264932Y22581D01*
X265564Y24941D01*
Y27383D01*
X264932Y29743D01*
X263710Y31859D01*
X261983Y33586D01*
X259867Y34808D01*
X257507Y35440D01*
D02*
G37*
G36*
X240164D02*
X221608D01*
Y16884D01*
X240164D01*
Y35440D01*
D02*
G37*
G36*
X193951Y23520D02*
X192051D01*
X190294Y22793D01*
X188950Y21449D01*
X188223Y19693D01*
Y17792D01*
X188950Y16036D01*
X190294Y14692D01*
X192051Y13964D01*
X193951D01*
X195707Y14692D01*
X197052Y16036D01*
X197779Y17792D01*
Y19693D01*
X197052Y21449D01*
X195707Y22793D01*
X193951Y23520D01*
D02*
G37*
%LPD*%
D136*
X230886Y26162D02*
D03*
X336296D02*
D03*
X45720Y281940D02*
D03*
D137*
X256286Y26162D02*
D03*
X310896D02*
D03*
X147320Y281940D02*
D03*
X71120D02*
D03*
X96520D02*
D03*
X121920D02*
D03*
X172720D02*
D03*
D138*
X678950Y216250D02*
D03*
Y83750D02*
D03*
Y109150D02*
D03*
Y190850D02*
D03*
D139*
X566450Y105500D02*
D03*
D140*
X541050Y118200D02*
D03*
X566450Y130900D02*
D03*
X541050Y143600D02*
D03*
X566450Y156300D02*
D03*
X541050Y169000D02*
D03*
X566450Y181700D02*
D03*
X541050Y194400D02*
D03*
D141*
X599450Y72550D02*
D03*
Y227450D02*
D03*
D142*
X76400Y130500D02*
D03*
Y144500D02*
D03*
X83400Y123500D02*
D03*
Y137500D02*
D03*
Y151500D02*
D03*
X90400Y130500D02*
D03*
Y144500D02*
D03*
X97400Y123500D02*
D03*
Y137500D02*
D03*
Y151500D02*
D03*
X104400Y130500D02*
D03*
Y144500D02*
D03*
X76700Y251968D02*
D03*
X102100D02*
D03*
X332657Y218890D02*
D03*
X176332Y207200D02*
D03*
X202145Y280524D02*
D03*
X288419Y280670D02*
D03*
X58674Y194500D02*
D03*
X30226Y189334D02*
D03*
X176332Y181800D02*
D03*
X152900D02*
D03*
X141926D02*
D03*
X470588Y262810D02*
D03*
Y278890D02*
D03*
X299022Y184186D02*
D03*
Y176728D02*
D03*
X346456Y81859D02*
D03*
X278892Y64436D02*
D03*
X271519D02*
D03*
X461750Y103682D02*
D03*
X418240Y95889D02*
D03*
X386182Y144964D02*
D03*
X321161Y180313D02*
D03*
X314142Y68834D02*
D03*
X165600Y92837D02*
D03*
X176332Y92900D02*
D03*
X446875Y63485D02*
D03*
X362800Y63879D02*
D03*
X505372Y67456D02*
D03*
X212090Y153222D02*
D03*
X199186Y251714D02*
D03*
X225563D02*
D03*
X360792Y103588D02*
D03*
Y94624D02*
D03*
X234636Y102616D02*
D03*
X119979Y181800D02*
D03*
X130952D02*
D03*
X30226Y200308D02*
D03*
Y178360D02*
D03*
Y167386D02*
D03*
X119300Y103811D02*
D03*
Y92837D02*
D03*
X165600Y103811D02*
D03*
X452515Y112777D02*
D03*
X441541D02*
D03*
X430567D02*
D03*
X419594D02*
D03*
X541627Y50546D02*
D03*
X552600D02*
D03*
X563574D02*
D03*
X574548D02*
D03*
X165600Y27495D02*
D03*
X140200Y27308D02*
D03*
X114800D02*
D03*
X89400D02*
D03*
X362800Y15487D02*
D03*
X362714Y30876D02*
D03*
X428750Y144964D02*
D03*
X414561D02*
D03*
X400371D02*
D03*
X357124Y271046D02*
D03*
X332657Y246890D02*
D03*
X574548Y17018D02*
D03*
X563574D02*
D03*
X552600D02*
D03*
X541627D02*
D03*
X571636Y271653D02*
D03*
X560662D02*
D03*
X549688D02*
D03*
X538714D02*
D03*
X644629D02*
D03*
X655602D02*
D03*
X666576D02*
D03*
X677550D02*
D03*
X10883Y30560D02*
D03*
Y40212D02*
D03*
X302386Y68834D02*
D03*
X373634Y203198D02*
D03*
X346456Y205869D02*
D03*
X373634Y187198D02*
D03*
X250953Y55681D02*
D03*
X469685Y187120D02*
D03*
Y203120D02*
D03*
X373839Y217182D02*
D03*
X469739Y218488D02*
D03*
X470588Y246890D02*
D03*
X254000Y244094D02*
D03*
X271308Y251765D02*
D03*
X165600Y251968D02*
D03*
X178300D02*
D03*
X293308Y246380D02*
D03*
X406908Y95889D02*
D03*
X152900Y76968D02*
D03*
X140200D02*
D03*
X127500D02*
D03*
X422300Y67536D02*
D03*
X421679Y50212D02*
D03*
X193001Y31546D02*
D03*
Y18742D02*
D03*
X278892Y144526D02*
D03*
X287114Y136304D02*
D03*
X270670Y152748D02*
D03*
X229849Y214579D02*
D03*
X673354Y17526D02*
D03*
X673608Y28871D02*
D03*
Y40217D02*
D03*
Y51562D02*
D03*
X293308Y210054D02*
D03*
X143151Y255539D02*
D03*
X152900Y251968D02*
D03*
X238106Y202358D02*
D03*
X210660Y132498D02*
D03*
X228346Y163322D02*
D03*
X239522D02*
D03*
X314142Y86420D02*
D03*
X335956Y68305D02*
D03*
X13200Y76968D02*
D03*
X25900D02*
D03*
X38600D02*
D03*
X102100Y48032D02*
D03*
X114800Y223032D02*
D03*
X38600Y251968D02*
D03*
X25900D02*
D03*
X13200D02*
D03*
X311665Y102616D02*
D03*
X299899D02*
D03*
X287588D02*
D03*
X252544D02*
D03*
X262746D02*
D03*
X241388Y124771D02*
D03*
X238848Y135458D02*
D03*
X373634Y278888D02*
D03*
Y246888D02*
D03*
X40002Y27050D02*
D03*
X32718D02*
D03*
X10883Y16082D02*
D03*
X346456Y193931D02*
D03*
Y182120D02*
D03*
X212090Y181422D02*
D03*
X377930Y103870D02*
D03*
X222471Y132498D02*
D03*
X210660Y91020D02*
D03*
X242599Y88345D02*
D03*
Y77495D02*
D03*
X421679Y36369D02*
D03*
Y22526D02*
D03*
X503975Y52498D02*
D03*
Y37512D02*
D03*
Y22526D02*
D03*
X512992Y278810D02*
D03*
Y262810D02*
D03*
Y246810D02*
D03*
X490689Y201470D02*
D03*
Y214080D02*
D03*
X346456Y121081D02*
D03*
Y138560D02*
D03*
Y150749D02*
D03*
Y168656D02*
D03*
X357124Y280444D02*
D03*
M02*
