G04*
G04 #@! TF.GenerationSoftware,Altium Limited,Altium Designer,25.8.1 (18)*
G04*
G04 Layer_Color=8388736*
%FSLAX44Y44*%
%MOMM*%
G71*
G04*
G04 #@! TF.SameCoordinates,7ACC302D-5C77-4419-A563-AEFD38389BD4*
G04*
G04*
G04 #@! TF.FilePolarity,Positive*
G04*
G01*
G75*
%ADD11C,0.2540*%
%ADD231C,0.2540*%
D11*
X459004Y399993D02*
G03*
X458997Y400000I-7J0D01*
G01*
X459004Y393954D02*
G03*
X471704Y381254I12700J0D01*
G01*
X536038D02*
G03*
X548738Y393954I0J12700D01*
G01*
X12700Y400000D02*
G03*
X0Y387300I0J-12700D01*
G01*
Y12700D02*
G03*
X12700Y0I12700J0D01*
G01*
X987300D02*
G03*
X1000000Y12700I0J12700D01*
G01*
Y387300D02*
G03*
X987300Y400000I-12700J0D01*
G01*
X405830Y61526D02*
X587164D01*
X1000000Y270256D02*
Y387300D01*
Y12700D02*
Y270174D01*
X12700Y400000D02*
X458997D01*
X459004Y393954D02*
Y399993D01*
X471704Y381254D02*
X536038D01*
X548738Y393954D02*
Y400000D01*
X548738Y400000D02*
X969611D01*
X587164Y56D02*
X987300D01*
X587164D02*
Y61526D01*
X405830Y0D02*
Y61526D01*
X12700Y0D02*
X405830D01*
X1000000Y12700D02*
X1000000D01*
X0D02*
Y387300D01*
X969611Y400000D02*
X987300D01*
D231*
X548738Y400000D02*
D03*
X969611Y400000D02*
D03*
X969611Y400000D02*
D03*
M02*
