G04*
G04 #@! TF.GenerationSoftware,Altium Limited,Altium Designer,25.8.1 (18)*
G04*
G04 Layer_Physical_Order=4*
G04 Layer_Color=16711680*
%FSLAX44Y44*%
%MOMM*%
G71*
G04*
G04 #@! TF.SameCoordinates,7ACC302D-5C77-4419-A563-AEFD38389BD4*
G04*
G04*
G04 #@! TF.FilePolarity,Positive*
G04*
G01*
G75*
%ADD11C,0.2540*%
%ADD17C,0.2032*%
%ADD126C,0.3810*%
%ADD127C,0.2413*%
%ADD217C,0.7000*%
%ADD218O,2.1000X0.9000*%
%ADD219O,1.8000X0.9000*%
%ADD220C,1.5240*%
%ADD221C,0.6000*%
%ADD222C,1.3980*%
%ADD223C,1.2000*%
%ADD224C,0.3000*%
%ADD225R,1.3980X1.3980*%
%ADD226C,1.5300*%
%ADD227C,2.4450*%
%ADD228C,1.5000*%
%ADD229C,5.0000*%
%ADD230R,2.4281X17.9282*%
G36*
X996950Y387350D02*
Y11430D01*
X988060Y2540D01*
X590550D01*
Y62715D01*
X591723Y63201D01*
X599677Y55248D01*
X600433Y54743D01*
X601325Y54565D01*
X644170D01*
X645062Y54743D01*
X645818Y55248D01*
X652360Y61790D01*
X652865Y62546D01*
X653043Y63438D01*
Y69524D01*
X653131Y69561D01*
X654332Y70762D01*
X654982Y72331D01*
Y74030D01*
X654332Y75599D01*
X653131Y76800D01*
X651561Y77450D01*
X649863D01*
X648293Y76800D01*
X647092Y75599D01*
X646442Y74030D01*
Y72331D01*
X647092Y70762D01*
X648293Y69561D01*
X648381Y69524D01*
Y64404D01*
X643205Y59227D01*
X602290D01*
X571731Y89786D01*
X570975Y90291D01*
X570261Y90433D01*
X570386Y91703D01*
X600431D01*
X600957Y90433D01*
X600481Y89958D01*
X599831Y88389D01*
Y86690D01*
X600481Y85120D01*
X601683Y83919D01*
X603252Y83269D01*
X604951D01*
X606520Y83919D01*
X607721Y85120D01*
X608371Y86690D01*
Y88389D01*
X607721Y89958D01*
X607246Y90433D01*
X607772Y91703D01*
X689815D01*
X690707Y91881D01*
X691463Y92386D01*
X700337Y101260D01*
X700425Y101223D01*
X702124D01*
X703693Y101873D01*
X704894Y103074D01*
X705544Y104644D01*
Y106342D01*
X704894Y107912D01*
X703693Y109113D01*
X702124Y109763D01*
X700425D01*
X698856Y109113D01*
X697654Y107912D01*
X697004Y106342D01*
Y104644D01*
X697041Y104556D01*
X688850Y96365D01*
X684544D01*
X684018Y97635D01*
X687944Y101561D01*
X688032Y101525D01*
X689731D01*
X691300Y102175D01*
X692502Y103376D01*
X693152Y104946D01*
Y106644D01*
X692502Y108214D01*
X691300Y109415D01*
X689731Y110065D01*
X688032D01*
X686463Y109415D01*
X685262Y108214D01*
X684612Y106644D01*
Y104946D01*
X684648Y104858D01*
X680673Y100883D01*
X667028D01*
X666776Y102153D01*
X666823Y102172D01*
X668024Y103373D01*
X668674Y104943D01*
Y106642D01*
X668024Y108211D01*
X666823Y109412D01*
X665253Y110062D01*
X663555D01*
X661985Y109412D01*
X660784Y108211D01*
X660134Y106642D01*
Y104943D01*
X660784Y103373D01*
X661985Y102172D01*
X662032Y102153D01*
X661779Y100883D01*
X647337D01*
X646998Y101462D01*
X646866Y102153D01*
X665178Y120464D01*
X695225D01*
X695262Y120376D01*
X696463Y119175D01*
X698032Y118525D01*
X699731D01*
X701300Y119175D01*
X702502Y120376D01*
X703152Y121946D01*
Y123644D01*
X702502Y125214D01*
X701300Y126415D01*
X699731Y127065D01*
X698032D01*
X696463Y126415D01*
X695262Y125214D01*
X695225Y125126D01*
X664212D01*
X663320Y124948D01*
X662564Y124443D01*
X644081Y105960D01*
X545578D01*
X545069Y107230D01*
X545910Y108071D01*
X545946Y108159D01*
X554482D01*
X555374Y108337D01*
X556130Y108842D01*
X566853Y119565D01*
X620676D01*
X620712Y119477D01*
X621913Y118276D01*
X623483Y117626D01*
X625181D01*
X626751Y118276D01*
X627952Y119477D01*
X628602Y121047D01*
Y122745D01*
X627952Y124315D01*
X626751Y125516D01*
X625181Y126166D01*
X623483D01*
X621913Y125516D01*
X620712Y124315D01*
X620676Y124227D01*
X565888D01*
X564996Y124049D01*
X564240Y123544D01*
X553873Y113177D01*
X553164Y113275D01*
X552712Y114620D01*
X553022Y114929D01*
X553672Y116499D01*
Y118197D01*
X553022Y119767D01*
X551821Y120968D01*
X550251Y121618D01*
X548553D01*
X546983Y120968D01*
X545782Y119767D01*
X545132Y118197D01*
Y116499D01*
X545697Y115136D01*
X545435Y114240D01*
X545181Y113735D01*
X545100Y113718D01*
X544709Y114110D01*
X543139Y114760D01*
X541441D01*
X539871Y114110D01*
X538670Y112909D01*
X538020Y111339D01*
Y109641D01*
X538670Y108071D01*
X539511Y107230D01*
X539002Y105960D01*
X448618D01*
X399053Y155525D01*
Y160708D01*
X399141Y160744D01*
X400342Y161945D01*
X400992Y163515D01*
Y165214D01*
X400342Y166783D01*
X399141Y167984D01*
X397571Y168634D01*
X395872D01*
X394303Y167984D01*
X393102Y166783D01*
X392452Y165214D01*
Y163515D01*
X393102Y161945D01*
X394303Y160744D01*
X394391Y160708D01*
Y154560D01*
X394568Y153668D01*
X395074Y152912D01*
X445833Y102153D01*
X445700Y101462D01*
X445362Y100883D01*
X430223D01*
X399053Y132053D01*
Y135601D01*
X399141Y135638D01*
X400342Y136839D01*
X400992Y138408D01*
Y140107D01*
X400342Y141676D01*
X399141Y142877D01*
X397571Y143527D01*
X395872D01*
X394303Y142877D01*
X393102Y141676D01*
X392452Y140107D01*
Y138408D01*
X393102Y136839D01*
X394303Y135638D01*
X394391Y135601D01*
Y131088D01*
X394568Y130196D01*
X395074Y129439D01*
X426878Y97635D01*
X426352Y96365D01*
X400502D01*
X396809Y100059D01*
X396845Y100147D01*
Y101845D01*
X396195Y103415D01*
X394994Y104616D01*
X393424Y105266D01*
X391726D01*
X390156Y104616D01*
X388955Y103415D01*
X388305Y101845D01*
Y100147D01*
X388955Y98577D01*
X390156Y97376D01*
X391726Y96726D01*
X393424D01*
X393512Y96763D01*
X397889Y92386D01*
X398645Y91881D01*
X399359Y91739D01*
X399234Y90469D01*
X396093D01*
X394994Y91568D01*
X393424Y92218D01*
X391726D01*
X390156Y91568D01*
X388955Y90367D01*
X388305Y88798D01*
Y87099D01*
X388955Y85529D01*
X390156Y84328D01*
X391726Y83678D01*
X393424D01*
X394994Y84328D01*
X396195Y85529D01*
X396310Y85807D01*
X569117D01*
X588981Y65943D01*
X588495Y64770D01*
X403860D01*
Y2540D01*
X12700D01*
X2540Y12700D01*
Y386080D01*
X12700Y396240D01*
X40403D01*
X40929Y394970D01*
X25268Y379309D01*
X24514Y379744D01*
X22253Y380350D01*
X19913D01*
X17652Y379744D01*
X15624Y378574D01*
X13969Y376919D01*
X12799Y374891D01*
X12193Y372630D01*
Y370290D01*
X12799Y368029D01*
X13969Y366001D01*
X15624Y364346D01*
X17652Y363176D01*
X19913Y362570D01*
X22253D01*
X24514Y363176D01*
X26542Y364346D01*
X28197Y366001D01*
X29367Y368029D01*
X29973Y370290D01*
Y372630D01*
X29367Y374891D01*
X28931Y375647D01*
X44531Y391246D01*
X268938D01*
X269190Y389977D01*
X269131Y389952D01*
X267930Y388751D01*
X267280Y387181D01*
Y385483D01*
X267930Y383913D01*
X269131Y382712D01*
X270700Y382062D01*
X272399D01*
X273968Y382712D01*
X275170Y383913D01*
X275820Y385483D01*
Y387181D01*
X275170Y388751D01*
X273968Y389952D01*
X273909Y389977D01*
X274162Y391246D01*
X441539D01*
X464284Y368502D01*
X465124Y367941D01*
X466115Y367743D01*
X561536D01*
X572960Y356320D01*
Y313583D01*
X571929Y312553D01*
X571279Y310983D01*
Y309285D01*
X571929Y307715D01*
X573130Y306514D01*
X574700Y305864D01*
X576399D01*
X577968Y306514D01*
X579169Y307715D01*
X579819Y309285D01*
Y310983D01*
X579169Y312553D01*
X578139Y313583D01*
Y357393D01*
X577942Y358384D01*
X577380Y359224D01*
X564440Y372164D01*
X563600Y372726D01*
X562609Y372923D01*
X467188D01*
X465516Y374595D01*
X466002Y375769D01*
X546047D01*
X567788Y397510D01*
X986790D01*
X996950Y387350D01*
D02*
G37*
%LPC*%
G36*
X272399Y379937D02*
X270700D01*
X269131Y379287D01*
X267930Y378086D01*
X267280Y376516D01*
Y374818D01*
X267930Y373248D01*
X269131Y372047D01*
X270700Y371397D01*
X272399D01*
X273968Y372047D01*
X275170Y373248D01*
X275820Y374818D01*
Y376516D01*
X275170Y378086D01*
X273968Y379287D01*
X272399Y379937D01*
D02*
G37*
G36*
X42253Y380350D02*
X39913D01*
X37652Y379744D01*
X35624Y378574D01*
X33969Y376919D01*
X32799Y374891D01*
X32193Y372630D01*
Y370290D01*
X32799Y368029D01*
X33969Y366001D01*
X35624Y364346D01*
X37652Y363176D01*
X39913Y362570D01*
X42253D01*
X44514Y363176D01*
X46542Y364346D01*
X48197Y366001D01*
X49367Y368029D01*
X49973Y370290D01*
Y372630D01*
X49367Y374891D01*
X48197Y376919D01*
X46542Y378574D01*
X44514Y379744D01*
X42253Y380350D01*
D02*
G37*
G36*
X443469Y353493D02*
X441770D01*
X440201Y352843D01*
X439106Y351748D01*
X370006D01*
X368987Y352768D01*
X367417Y353418D01*
X365719D01*
X364149Y352768D01*
X362948Y351567D01*
X362298Y349997D01*
Y348299D01*
X362948Y346729D01*
X364149Y345528D01*
X365719Y344878D01*
X367417D01*
X368987Y345528D01*
X370157Y346698D01*
X439106D01*
X440201Y345603D01*
X441770Y344953D01*
X443469D01*
X445038Y345603D01*
X446239Y346805D01*
X446889Y348374D01*
Y350073D01*
X446239Y351642D01*
X445038Y352843D01*
X443469Y353493D01*
D02*
G37*
G36*
X54252Y356850D02*
X51912D01*
X49651Y356244D01*
X47623Y355074D01*
X45968Y353419D01*
X44798Y351391D01*
X44192Y349130D01*
Y346790D01*
X44798Y344529D01*
X45968Y342501D01*
X47623Y340846D01*
X49651Y339676D01*
X51912Y339070D01*
X54252D01*
X56513Y339676D01*
X58541Y340846D01*
X60196Y342501D01*
X61366Y344529D01*
X61972Y346790D01*
Y349130D01*
X61366Y351391D01*
X60196Y353419D01*
X58541Y355074D01*
X56513Y356244D01*
X54252Y356850D01*
D02*
G37*
G36*
X242636Y334574D02*
X240937D01*
X239368Y333924D01*
X238166Y332722D01*
X237516Y331153D01*
Y329454D01*
X238166Y327885D01*
X239368Y326684D01*
X240937Y326034D01*
X242636D01*
X244205Y326684D01*
X245406Y327885D01*
X246056Y329454D01*
Y331153D01*
X245406Y332722D01*
X244205Y333924D01*
X242636Y334574D01*
D02*
G37*
G36*
X167640Y378311D02*
X156519D01*
X155547Y377908D01*
X155145Y376936D01*
Y319637D01*
X63307D01*
X62335Y320609D01*
Y335788D01*
X61932Y336760D01*
X60960Y337163D01*
X45080D01*
X44108Y336760D01*
X43705Y335788D01*
Y324610D01*
X32147Y313052D01*
X31745Y312080D01*
X31745Y312080D01*
Y296840D01*
X32147Y295868D01*
X33119Y295465D01*
X47679D01*
X47932Y295570D01*
X48205Y295570D01*
X48398Y295763D01*
X48651Y295868D01*
X48756Y296121D01*
X48949Y296314D01*
X48964Y296350D01*
X48964Y296623D01*
X49054Y296840D01*
X49054Y296840D01*
X49068Y296875D01*
Y300511D01*
X49367Y301028D01*
X49973Y303290D01*
Y305598D01*
X167640D01*
X168612Y306000D01*
X169015Y306972D01*
Y319252D01*
X209006D01*
X229527Y298731D01*
Y287773D01*
X229930Y286801D01*
X229930Y286801D01*
X267163Y249568D01*
X266637Y248298D01*
X265737D01*
X264168Y247648D01*
X263794Y247274D01*
X262964Y246449D01*
X262135Y247274D01*
X261761Y247648D01*
X260192Y248298D01*
X258493D01*
X256924Y247648D01*
X255723Y246447D01*
X255073Y244877D01*
Y243179D01*
X255723Y241609D01*
X256924Y240408D01*
X258493Y239758D01*
X260192D01*
X261761Y240408D01*
X262135Y240782D01*
X262964Y241607D01*
X263794Y240782D01*
X264168Y240408D01*
X265737Y239758D01*
X267436D01*
X269005Y240408D01*
X270206Y241609D01*
X270856Y243179D01*
Y244078D01*
X272127Y244604D01*
X273272Y243459D01*
Y204852D01*
X272300Y203879D01*
X193928D01*
X193036Y203701D01*
X192280Y203196D01*
X168901Y179817D01*
X168396Y179061D01*
X168218Y178169D01*
Y98503D01*
X168130Y98467D01*
X166929Y97265D01*
X166279Y95696D01*
Y93997D01*
X166929Y92428D01*
X168130Y91227D01*
X169700Y90577D01*
X171398D01*
X172968Y91227D01*
X174169Y92428D01*
X174819Y93997D01*
Y95696D01*
X174169Y97265D01*
X172968Y98467D01*
X172880Y98503D01*
Y177204D01*
X194893Y199217D01*
X207103D01*
X207488Y197947D01*
X207172Y197736D01*
X188842Y179406D01*
X188337Y178649D01*
X188159Y177757D01*
Y98507D01*
X188122Y98492D01*
X186921Y97291D01*
X186271Y95721D01*
Y94023D01*
X186921Y92453D01*
X188122Y91252D01*
X189691Y90602D01*
X191390D01*
X192959Y91252D01*
X194160Y92453D01*
X194811Y94023D01*
Y95721D01*
X194160Y97291D01*
X192959Y98492D01*
X192821Y98549D01*
Y176792D01*
X209786Y193757D01*
X226735D01*
X226906Y193263D01*
X226946Y192487D01*
X226375Y192106D01*
X209541Y175271D01*
X209035Y174515D01*
X208858Y173623D01*
Y98503D01*
X208770Y98467D01*
X207569Y97265D01*
X206919Y95696D01*
Y93997D01*
X207569Y92428D01*
X208770Y91227D01*
X210340Y90577D01*
X212038D01*
X213608Y91227D01*
X214571Y92190D01*
X215686Y91895D01*
X215841Y91801D01*
Y84634D01*
X208257Y77050D01*
X158774D01*
X120893Y114932D01*
X120136Y115437D01*
X119244Y115615D01*
X36070D01*
X35943Y116090D01*
X34986Y117748D01*
X33632Y119101D01*
X31975Y120058D01*
X30126Y120554D01*
X28211D01*
X26362Y120058D01*
X24705Y119101D01*
X23351Y117748D01*
X22394Y116090D01*
X21899Y114241D01*
Y112327D01*
X22394Y110478D01*
X23351Y108820D01*
X24705Y107466D01*
X26362Y106509D01*
X28211Y106014D01*
X30126D01*
X31975Y106509D01*
X33632Y107466D01*
X34986Y108820D01*
X35943Y110478D01*
X36070Y110953D01*
X118279D01*
X156161Y73072D01*
X156917Y72566D01*
X157809Y72389D01*
X209223D01*
X210115Y72566D01*
X210871Y73072D01*
X219820Y82021D01*
X220325Y82777D01*
X220502Y83669D01*
Y168478D01*
X234702Y182677D01*
X309473D01*
X310287Y181407D01*
X309936Y180561D01*
Y178862D01*
X310586Y177293D01*
X311451Y176429D01*
X311665Y175643D01*
X311451Y174857D01*
X310586Y173992D01*
X309936Y172423D01*
Y170724D01*
X310586Y169155D01*
X311787Y167953D01*
X313357Y167303D01*
X315055D01*
X316625Y167953D01*
X317826Y169155D01*
X318476Y170724D01*
Y172423D01*
X317826Y173992D01*
X316961Y174857D01*
X316747Y175643D01*
X316961Y176429D01*
X317826Y177293D01*
X318476Y178862D01*
Y180561D01*
X318126Y181407D01*
X318939Y182677D01*
X347314D01*
X347567Y181407D01*
X346635Y181021D01*
X345434Y179820D01*
X344784Y178251D01*
Y176552D01*
X345434Y174983D01*
X346635Y173782D01*
X348205Y173131D01*
X349903D01*
X351473Y173782D01*
X352674Y174983D01*
X353324Y176552D01*
Y177545D01*
X425103D01*
X431884Y170763D01*
X431848Y170675D01*
Y168976D01*
X432498Y167407D01*
X433699Y166206D01*
X435269Y165555D01*
X436967D01*
X438537Y166206D01*
X439738Y167407D01*
X440388Y168976D01*
Y170675D01*
X439738Y172244D01*
X438537Y173445D01*
X436967Y174095D01*
X435269D01*
X435181Y174059D01*
X427832Y181407D01*
X427896Y181894D01*
X428276Y182677D01*
X562881D01*
X567425Y178133D01*
X567388Y178045D01*
Y176347D01*
X568038Y174777D01*
X569239Y173576D01*
X570809Y172926D01*
X572507D01*
X574077Y173576D01*
X575278Y174777D01*
X575928Y176347D01*
Y178045D01*
X575278Y179615D01*
X574077Y180816D01*
X572507Y181466D01*
X570809D01*
X570721Y181430D01*
X565494Y186656D01*
X564738Y187161D01*
X563846Y187339D01*
X420450D01*
X420064Y188609D01*
X420365Y188809D01*
X483478Y251923D01*
X580798D01*
X580834Y251835D01*
X582035Y250634D01*
X583605Y249984D01*
X585303D01*
X586873Y250634D01*
X588074Y251835D01*
X588724Y253405D01*
Y255103D01*
X588074Y256673D01*
X586873Y257874D01*
X585303Y258524D01*
X583605D01*
X582035Y257874D01*
X580834Y256673D01*
X580798Y256585D01*
X482513D01*
X481621Y256407D01*
X480865Y255902D01*
X417751Y192788D01*
X412006D01*
X411835Y193283D01*
X411795Y194058D01*
X412366Y194440D01*
X441188Y223262D01*
X441693Y224018D01*
X441871Y224910D01*
Y236978D01*
X441959Y237014D01*
X443160Y238215D01*
X443810Y239785D01*
Y241483D01*
X443160Y243053D01*
X441959Y244254D01*
X440389Y244904D01*
X438691D01*
X437121Y244254D01*
X435920Y243053D01*
X435270Y241483D01*
Y239785D01*
X435920Y238215D01*
X437121Y237014D01*
X437209Y236978D01*
Y225875D01*
X409753Y198419D01*
X298585D01*
X298200Y199689D01*
X298516Y199900D01*
X307680Y209065D01*
X377765D01*
X378657Y209242D01*
X379413Y209747D01*
X393429Y223762D01*
X393517Y223726D01*
X395215D01*
X396785Y224376D01*
X397986Y225577D01*
X398636Y227147D01*
Y228845D01*
X397986Y230415D01*
X396785Y231616D01*
X395215Y232266D01*
X393517D01*
X391947Y231616D01*
X390746Y230415D01*
X390096Y228845D01*
Y227147D01*
X390132Y227059D01*
X376800Y213726D01*
X372490D01*
X372237Y214996D01*
X373013Y215317D01*
X374214Y216519D01*
X374864Y218088D01*
Y219787D01*
X374214Y221356D01*
X373013Y222557D01*
X371443Y223207D01*
X369745D01*
X368175Y222557D01*
X366974Y221356D01*
X366324Y219787D01*
Y218088D01*
X366974Y216519D01*
X368175Y215317D01*
X368951Y214996D01*
X368698Y213726D01*
X306715D01*
X305823Y213549D01*
X305067Y213043D01*
X295902Y203879D01*
X286064D01*
X285093Y204852D01*
Y248302D01*
X285093Y248302D01*
X284690Y249274D01*
X243161Y290803D01*
Y297926D01*
X359549D01*
X370674Y286801D01*
X371646Y286398D01*
X371646Y286398D01*
X640675D01*
X641647Y286801D01*
X641647Y286801D01*
X649382Y294535D01*
X742871D01*
X742872Y294535D01*
X743844Y294938D01*
X743844Y294938D01*
X754528Y305622D01*
X754930Y306594D01*
X754930Y306594D01*
Y336808D01*
X754528Y337780D01*
X753556Y338182D01*
X746593D01*
X745621Y337780D01*
X745219Y336808D01*
Y310791D01*
X738571Y304143D01*
X735618D01*
X734964Y305413D01*
X735427Y306530D01*
Y308229D01*
X734777Y309798D01*
X733576Y310999D01*
X732006Y311649D01*
X730307D01*
X728738Y310999D01*
X727537Y309798D01*
X726887Y308229D01*
Y306530D01*
X727350Y305413D01*
X726696Y304143D01*
X645160D01*
X644188Y303740D01*
X644188Y303740D01*
X636971Y296523D01*
X378914D01*
X365238Y310198D01*
X364266Y310601D01*
X364266Y310601D01*
X234649D01*
X212808Y332442D01*
X211836Y332845D01*
X211836Y332845D01*
X169015D01*
Y376936D01*
X168612Y377908D01*
X167640Y378311D01*
D02*
G37*
G36*
X323947Y324015D02*
X322249D01*
X320679Y323365D01*
X319478Y322164D01*
X318828Y320594D01*
Y318896D01*
X319478Y317326D01*
X320679Y316125D01*
X322249Y315475D01*
X323947D01*
X325517Y316125D01*
X326718Y317326D01*
X328086Y317311D01*
X328104Y317267D01*
X329305Y316066D01*
X330875Y315416D01*
X332573D01*
X334143Y316066D01*
X335344Y317267D01*
X335994Y318836D01*
Y320535D01*
X335344Y322105D01*
X334143Y323306D01*
X332573Y323956D01*
X330875D01*
X329305Y323306D01*
X328104Y322105D01*
X326736Y322120D01*
X326718Y322164D01*
X325517Y323365D01*
X323947Y324015D01*
D02*
G37*
G36*
X450047Y307236D02*
X448348D01*
X446779Y306586D01*
X445578Y305385D01*
X444928Y303815D01*
Y302117D01*
X445578Y300547D01*
X446779Y299346D01*
X448348Y298696D01*
X450047D01*
X451617Y299346D01*
X452818Y300547D01*
X453468Y302117D01*
Y303815D01*
X452818Y305385D01*
X451617Y306586D01*
X450047Y307236D01*
D02*
G37*
G36*
X438122D02*
X436423D01*
X434854Y306586D01*
X433652Y305385D01*
X433002Y303815D01*
Y302117D01*
X433652Y300547D01*
X434854Y299346D01*
X436423Y298696D01*
X438122D01*
X439691Y299346D01*
X440892Y300547D01*
X441542Y302117D01*
Y303815D01*
X440892Y305385D01*
X439691Y306586D01*
X438122Y307236D01*
D02*
G37*
G36*
X426196D02*
X424498D01*
X422928Y306586D01*
X421727Y305385D01*
X421077Y303815D01*
Y302117D01*
X421727Y300547D01*
X422928Y299346D01*
X424498Y298696D01*
X426196D01*
X427766Y299346D01*
X428967Y300547D01*
X429617Y302117D01*
Y303815D01*
X428967Y305385D01*
X427766Y306586D01*
X426196Y307236D01*
D02*
G37*
G36*
X414271D02*
X412572D01*
X411003Y306586D01*
X409802Y305385D01*
X409152Y303815D01*
Y302117D01*
X409802Y300547D01*
X411003Y299346D01*
X412572Y298696D01*
X414271D01*
X415840Y299346D01*
X417042Y300547D01*
X417692Y302117D01*
Y303815D01*
X417042Y305385D01*
X415840Y306586D01*
X414271Y307236D01*
D02*
G37*
G36*
X402346D02*
X400647D01*
X399078Y306586D01*
X397877Y305385D01*
X397226Y303815D01*
Y302117D01*
X397877Y300547D01*
X399078Y299346D01*
X400647Y298696D01*
X402346D01*
X403915Y299346D01*
X405116Y300547D01*
X405766Y302117D01*
Y303815D01*
X405116Y305385D01*
X403915Y306586D01*
X402346Y307236D01*
D02*
G37*
G36*
X197200Y297910D02*
X195502D01*
X193932Y297260D01*
X192731Y296059D01*
X192081Y294489D01*
Y292790D01*
X192731Y291221D01*
X193932Y290020D01*
X195502Y289370D01*
X197200D01*
X198770Y290020D01*
X199971Y291221D01*
X200621Y292790D01*
Y294489D01*
X199971Y296059D01*
X198770Y297260D01*
X197200Y297910D01*
D02*
G37*
G36*
X177633D02*
X175935D01*
X174365Y297260D01*
X173164Y296059D01*
X172514Y294489D01*
Y292790D01*
X173164Y291221D01*
X174365Y290020D01*
X175935Y289370D01*
X177633D01*
X179203Y290020D01*
X180404Y291221D01*
X181054Y292790D01*
Y294489D01*
X180404Y296059D01*
X179203Y297260D01*
X177633Y297910D01*
D02*
G37*
G36*
X197200Y285406D02*
X195502D01*
X193932Y284756D01*
X192731Y283554D01*
X192081Y281985D01*
X190837D01*
X190187Y283554D01*
X188986Y284756D01*
X187417Y285406D01*
X185718D01*
X184149Y284756D01*
X182948Y283554D01*
X182297Y281985D01*
X181054D01*
X180404Y283554D01*
X179203Y284756D01*
X177633Y285406D01*
X175935D01*
X174365Y284756D01*
X173164Y283554D01*
X172514Y281985D01*
Y280286D01*
X173164Y278717D01*
X174365Y277516D01*
X175935Y276866D01*
X177633D01*
X179203Y277516D01*
X180404Y278717D01*
X181054Y280286D01*
X182297D01*
X182948Y278717D01*
X184149Y277516D01*
X185718Y276866D01*
X187417D01*
X188986Y277516D01*
X190187Y278717D01*
X190837Y280286D01*
X192081D01*
X192731Y278717D01*
X193932Y277516D01*
X195502Y276866D01*
X197200D01*
X198770Y277516D01*
X199971Y278717D01*
X200621Y280286D01*
Y281985D01*
X199971Y283554D01*
X198770Y284756D01*
X197200Y285406D01*
D02*
G37*
G36*
X307351Y296208D02*
X284314D01*
X283422Y296030D01*
X282666Y295525D01*
X276688Y289548D01*
X276183Y288792D01*
X276006Y287899D01*
Y275704D01*
X276183Y274812D01*
X276688Y274056D01*
X292309Y258435D01*
Y231240D01*
X292221Y231204D01*
X291020Y230003D01*
X290370Y228433D01*
Y226735D01*
X291020Y225165D01*
X292221Y223964D01*
X293791Y223314D01*
X295489D01*
X297059Y223964D01*
X298260Y225165D01*
X298910Y226735D01*
Y228433D01*
X298260Y230003D01*
X297059Y231204D01*
X296971Y231240D01*
Y259400D01*
X296793Y260292D01*
X296288Y261049D01*
X280667Y276669D01*
Y286934D01*
X285279Y291546D01*
X306386D01*
X311498Y286433D01*
X311462Y286345D01*
Y284647D01*
X312112Y283077D01*
X313313Y281876D01*
X314883Y281226D01*
X316581D01*
X318151Y281876D01*
X319352Y283077D01*
X320002Y284647D01*
Y286345D01*
X319352Y287915D01*
X318151Y289116D01*
X316581Y289766D01*
X314883D01*
X314795Y289729D01*
X308999Y295525D01*
X308243Y296030D01*
X307351Y296208D01*
D02*
G37*
G36*
X976904Y275830D02*
X974556D01*
X972287Y275222D01*
X970253Y274048D01*
X968592Y272387D01*
X967418Y270353D01*
X966810Y268084D01*
Y265736D01*
X967418Y263467D01*
X968592Y261433D01*
X970253Y259772D01*
X972287Y258598D01*
X974556Y257990D01*
X976904D01*
X979173Y258598D01*
X981207Y259772D01*
X982868Y261433D01*
X984042Y263467D01*
X984650Y265736D01*
Y268084D01*
X984042Y270353D01*
X982868Y272387D01*
X981207Y274048D01*
X979173Y275222D01*
X976904Y275830D01*
D02*
G37*
G36*
X716888Y263477D02*
X715189D01*
X713620Y262827D01*
X712419Y261625D01*
X711768Y260056D01*
Y258357D01*
X712419Y256788D01*
X713620Y255587D01*
X715189Y254937D01*
X716888D01*
X718457Y255587D01*
X719658Y256788D01*
X720309Y258357D01*
Y260056D01*
X719658Y261625D01*
X718457Y262827D01*
X716888Y263477D01*
D02*
G37*
G36*
X392009Y260440D02*
X390311D01*
X388741Y259790D01*
X387540Y258588D01*
X386890Y257019D01*
Y255320D01*
X387540Y253751D01*
X388741Y252550D01*
X390311Y251900D01*
X392009D01*
X393579Y252550D01*
X394780Y253751D01*
X395430Y255320D01*
Y257019D01*
X394780Y258588D01*
X393579Y259790D01*
X392009Y260440D01*
D02*
G37*
G36*
X86528Y254612D02*
X74528D01*
X72277Y254164D01*
X70368Y252889D01*
X69093Y250980D01*
X68645Y248729D01*
X69093Y246478D01*
X70368Y244569D01*
X72277Y243294D01*
X74528Y242846D01*
X86528D01*
X88779Y243294D01*
X90688Y244569D01*
X91963Y246478D01*
X92411Y248729D01*
X91963Y250980D01*
X90688Y252889D01*
X88779Y254164D01*
X86528Y254612D01*
D02*
G37*
G36*
X43230D02*
X34230D01*
X31979Y254164D01*
X30070Y252889D01*
X28795Y250980D01*
X28347Y248729D01*
X28795Y246478D01*
X30070Y244569D01*
X31979Y243294D01*
X34230Y242846D01*
X43230D01*
X45481Y243294D01*
X47390Y244569D01*
X48665Y246478D01*
X49113Y248729D01*
X48665Y250980D01*
X47390Y252889D01*
X45481Y254164D01*
X43230Y254612D01*
D02*
G37*
G36*
X291425Y289766D02*
X289727D01*
X288157Y289116D01*
X286956Y287915D01*
X286306Y286345D01*
Y284647D01*
X286956Y283077D01*
X288157Y281876D01*
X288245Y281840D01*
Y275590D01*
X288423Y274698D01*
X288928Y273942D01*
X318532Y244338D01*
X319288Y243832D01*
X320180Y243655D01*
X322167D01*
X322203Y243567D01*
X323404Y242366D01*
X324974Y241716D01*
X326672D01*
X328242Y242366D01*
X329443Y243567D01*
X330093Y245137D01*
Y246835D01*
X329443Y248405D01*
X328242Y249606D01*
X326672Y250256D01*
X324974D01*
X323404Y249606D01*
X322203Y248405D01*
X320993Y248469D01*
X292907Y276556D01*
Y281840D01*
X292995Y281876D01*
X294196Y283077D01*
X294846Y284647D01*
Y286345D01*
X294196Y287915D01*
X292995Y289116D01*
X291425Y289766D01*
D02*
G37*
G36*
X908455Y291710D02*
X884174D01*
X883202Y291307D01*
X882799Y290335D01*
Y280127D01*
X882735Y279887D01*
Y276333D01*
X882799Y276093D01*
Y125227D01*
X882735Y124987D01*
Y121433D01*
X882799Y121193D01*
Y111053D01*
X883202Y110081D01*
X884174Y109678D01*
X908455D01*
X909427Y110081D01*
X909830Y111053D01*
Y135210D01*
X911100Y135463D01*
X911204Y135211D01*
X913121Y132342D01*
X915562Y129901D01*
X918431Y127984D01*
X921620Y126663D01*
X925004Y125990D01*
X928456D01*
X931840Y126663D01*
X935029Y127984D01*
X937898Y129901D01*
X940339Y132342D01*
X942256Y135211D01*
X943577Y138400D01*
X944250Y141784D01*
Y145236D01*
X943577Y148620D01*
X942256Y151809D01*
X940339Y154678D01*
X937898Y157119D01*
X935029Y159036D01*
X931840Y160357D01*
X928456Y161030D01*
X925004D01*
X921620Y160357D01*
X918431Y159036D01*
X915562Y157119D01*
X913121Y154678D01*
X911204Y151809D01*
X911100Y151557D01*
X909830Y151810D01*
Y249510D01*
X911100Y249763D01*
X911204Y249511D01*
X913121Y246642D01*
X915562Y244201D01*
X918431Y242284D01*
X921620Y240963D01*
X925004Y240290D01*
X928456D01*
X931840Y240963D01*
X935029Y242284D01*
X937898Y244201D01*
X940339Y246642D01*
X942256Y249511D01*
X943577Y252700D01*
X944250Y256084D01*
Y259536D01*
X943577Y262920D01*
X942256Y266109D01*
X940339Y268978D01*
X937898Y271419D01*
X935029Y273336D01*
X931840Y274657D01*
X928456Y275330D01*
X925004D01*
X921620Y274657D01*
X918431Y273336D01*
X915562Y271419D01*
X913121Y268978D01*
X911204Y266109D01*
X911100Y265857D01*
X909830Y266110D01*
Y290335D01*
X909427Y291307D01*
X908455Y291710D01*
D02*
G37*
G36*
X976904Y250430D02*
X974556D01*
X972287Y249822D01*
X970253Y248648D01*
X968592Y246987D01*
X967418Y244953D01*
X966810Y242684D01*
Y240336D01*
X967418Y238067D01*
X968592Y236033D01*
X970253Y234372D01*
X972287Y233198D01*
X974556Y232590D01*
X976904D01*
X979173Y233198D01*
X981207Y234372D01*
X982868Y236033D01*
X984042Y238067D01*
X984650Y240336D01*
Y242684D01*
X984042Y244953D01*
X982868Y246987D01*
X981207Y248648D01*
X979173Y249822D01*
X976904Y250430D01*
D02*
G37*
G36*
X316172Y239715D02*
X314473D01*
X312904Y239064D01*
X311703Y237863D01*
X311052Y236294D01*
Y234595D01*
X311703Y233026D01*
X312904Y231825D01*
X314473Y231175D01*
X316172D01*
X317741Y231825D01*
X318942Y233026D01*
X319592Y234595D01*
Y236294D01*
X318942Y237863D01*
X317741Y239064D01*
X316172Y239715D01*
D02*
G37*
G36*
X75879Y239201D02*
X73981D01*
X72228Y238475D01*
X70886Y237133D01*
X70160Y235380D01*
Y233482D01*
X70886Y231729D01*
X72228Y230387D01*
X73981Y229661D01*
X75879D01*
X77632Y230387D01*
X78974Y231729D01*
X79700Y233482D01*
Y235380D01*
X78974Y237133D01*
X77632Y238475D01*
X75879Y239201D01*
D02*
G37*
G36*
X864317Y240620D02*
X862143D01*
X860042Y240057D01*
X858158Y238970D01*
X856620Y237432D01*
X855533Y235548D01*
X854970Y233447D01*
Y231273D01*
X855533Y229172D01*
X856620Y227288D01*
X858158Y225750D01*
X860042Y224663D01*
X862143Y224100D01*
X864317D01*
X866418Y224663D01*
X868302Y225750D01*
X869840Y227288D01*
X870927Y229172D01*
X871490Y231273D01*
Y233447D01*
X870927Y235548D01*
X869840Y237432D01*
X868302Y238970D01*
X866418Y240057D01*
X864317Y240620D01*
D02*
G37*
G36*
X597135Y232266D02*
X595436D01*
X593867Y231616D01*
X592665Y230415D01*
X592015Y228845D01*
Y227147D01*
X592665Y225577D01*
X593867Y224376D01*
X595436Y223726D01*
X597135D01*
X598704Y224376D01*
X599905Y225577D01*
X600555Y227147D01*
Y228845D01*
X599905Y230415D01*
X598704Y231616D01*
X597135Y232266D01*
D02*
G37*
G36*
X838917Y227920D02*
X836743D01*
X834642Y227357D01*
X832758Y226270D01*
X831220Y224732D01*
X830133Y222848D01*
X829570Y220747D01*
Y218573D01*
X830133Y216472D01*
X831220Y214588D01*
X832758Y213050D01*
X834642Y211963D01*
X836743Y211400D01*
X838917D01*
X841018Y211963D01*
X842902Y213050D01*
X844440Y214588D01*
X845527Y216472D01*
X846090Y218573D01*
Y220747D01*
X845527Y222848D01*
X844440Y224732D01*
X842902Y226270D01*
X841018Y227357D01*
X838917Y227920D01*
D02*
G37*
G36*
X721875Y213175D02*
X720176D01*
X718607Y212525D01*
X717405Y211324D01*
X716755Y209755D01*
Y208056D01*
X717405Y206486D01*
X718607Y205285D01*
X720176Y204635D01*
X721875D01*
X723444Y205285D01*
X724645Y206486D01*
X725295Y208056D01*
Y209755D01*
X724645Y211324D01*
X723444Y212525D01*
X721875Y213175D01*
D02*
G37*
G36*
X757122Y212939D02*
X755424D01*
X753854Y212289D01*
X752653Y211087D01*
X752003Y209518D01*
Y207819D01*
X752653Y206250D01*
X753854Y205049D01*
X755424Y204399D01*
X757122D01*
X758692Y205049D01*
X759893Y206250D01*
X760543Y207819D01*
Y209518D01*
X759893Y211087D01*
X758692Y212289D01*
X757122Y212939D01*
D02*
G37*
G36*
X864317Y215220D02*
X862143D01*
X860042Y214657D01*
X858158Y213570D01*
X856620Y212032D01*
X855533Y210148D01*
X854970Y208047D01*
Y207911D01*
X854626D01*
X853660Y207719D01*
X852841Y207171D01*
X845575Y199905D01*
X845440Y199837D01*
X843822Y199949D01*
X842902Y200870D01*
X841018Y201957D01*
X838917Y202520D01*
X836743D01*
X834642Y201957D01*
X832758Y200870D01*
X831220Y199332D01*
X830133Y197448D01*
X829570Y195347D01*
Y193172D01*
X830133Y191072D01*
X831220Y189188D01*
X832758Y187650D01*
X834642Y186563D01*
X836743Y186000D01*
X838917D01*
X841018Y186563D01*
X842902Y187650D01*
X844440Y189188D01*
X845527Y191072D01*
X846090Y193172D01*
Y194023D01*
X846680Y194140D01*
X847499Y194688D01*
X854988Y202176D01*
X856573Y201970D01*
X856620Y201888D01*
X858158Y200350D01*
X860042Y199263D01*
X862143Y198700D01*
X864317D01*
X866418Y199263D01*
X868302Y200350D01*
X869840Y201888D01*
X870927Y203772D01*
X871490Y205872D01*
Y208047D01*
X870927Y210148D01*
X869840Y212032D01*
X868302Y213570D01*
X866418Y214657D01*
X864317Y215220D01*
D02*
G37*
G36*
X630782Y188444D02*
X629084D01*
X627514Y187794D01*
X626313Y186593D01*
X625663Y185023D01*
Y183325D01*
X626313Y181755D01*
X627514Y180554D01*
X629084Y179904D01*
X630782D01*
X632352Y180554D01*
X633553Y181755D01*
X634203Y183325D01*
Y185023D01*
X633553Y186593D01*
X632352Y187794D01*
X630782Y188444D01*
D02*
G37*
G36*
X765813Y184618D02*
X764114D01*
X762545Y183967D01*
X761344Y182766D01*
X760693Y181197D01*
Y179498D01*
X761344Y177929D01*
X762545Y176728D01*
X764114Y176077D01*
X765813D01*
X767382Y176728D01*
X768583Y177929D01*
X769233Y179498D01*
Y181197D01*
X768583Y182766D01*
X767382Y183967D01*
X765813Y184618D01*
D02*
G37*
G36*
X864317Y189820D02*
X862143D01*
X860042Y189257D01*
X858158Y188170D01*
X856620Y186632D01*
X855533Y184748D01*
X854970Y182647D01*
Y180473D01*
X855533Y178372D01*
X856620Y176488D01*
X858158Y174950D01*
X860042Y173863D01*
X862143Y173300D01*
X864317D01*
X866418Y173863D01*
X868302Y174950D01*
X869840Y176488D01*
X870927Y178372D01*
X871490Y180473D01*
Y182647D01*
X870927Y184748D01*
X869840Y186632D01*
X868302Y188170D01*
X866418Y189257D01*
X864317Y189820D01*
D02*
G37*
G36*
X75879Y181401D02*
X73981D01*
X72228Y180675D01*
X70886Y179333D01*
X70160Y177580D01*
Y175682D01*
X70886Y173929D01*
X72228Y172587D01*
X73981Y171861D01*
X75879D01*
X77632Y172587D01*
X78974Y173929D01*
X79700Y175682D01*
Y177580D01*
X78974Y179333D01*
X77632Y180675D01*
X75879Y181401D01*
D02*
G37*
G36*
X102355Y239382D02*
X100656D01*
X99087Y238731D01*
X97886Y237530D01*
X97236Y235961D01*
Y234262D01*
X97886Y232693D01*
X99087Y231492D01*
X100656Y230842D01*
X101198D01*
X106180Y225859D01*
Y175821D01*
X105797Y175439D01*
X105147Y173869D01*
Y172171D01*
X105797Y170601D01*
X106998Y169400D01*
X108567Y168750D01*
X110266D01*
X111836Y169400D01*
X113037Y170601D01*
X113687Y172171D01*
Y173869D01*
X113037Y175439D01*
X112654Y175821D01*
Y227200D01*
X112408Y228439D01*
X111706Y229489D01*
X105776Y235420D01*
Y235961D01*
X105126Y237530D01*
X103924Y238731D01*
X102355Y239382D01*
D02*
G37*
G36*
X630782Y175160D02*
X629084D01*
X627514Y174510D01*
X626313Y173309D01*
X625663Y171740D01*
Y170041D01*
X626313Y168472D01*
X627514Y167271D01*
X629084Y166620D01*
X630782D01*
X632352Y167271D01*
X633553Y168472D01*
X634203Y170041D01*
Y171740D01*
X633553Y173309D01*
X632352Y174510D01*
X630782Y175160D01*
D02*
G37*
G36*
X240760Y175077D02*
X239061D01*
X237492Y174427D01*
X236290Y173226D01*
X235640Y171656D01*
Y169958D01*
X236290Y168388D01*
X237492Y167187D01*
X239061Y166537D01*
X240760D01*
X242329Y167187D01*
X243530Y168388D01*
X244180Y169958D01*
Y171656D01*
X243530Y173226D01*
X242329Y174427D01*
X240760Y175077D01*
D02*
G37*
G36*
X371461Y173477D02*
X369762D01*
X368193Y172827D01*
X366992Y171626D01*
X366342Y170056D01*
Y168358D01*
X366992Y166788D01*
X368193Y165587D01*
X369762Y164937D01*
X371461D01*
X373030Y165587D01*
X374231Y166788D01*
X374882Y168358D01*
Y170056D01*
X374231Y171626D01*
X373030Y172827D01*
X371461Y173477D01*
D02*
G37*
G36*
X765814Y172513D02*
X764116D01*
X762546Y171863D01*
X761345Y170662D01*
X760695Y169092D01*
Y167393D01*
X761345Y165824D01*
X762546Y164623D01*
X764116Y163973D01*
X765814D01*
X767384Y164623D01*
X768585Y165824D01*
X769235Y167393D01*
Y169092D01*
X768585Y170662D01*
X767384Y171863D01*
X765814Y172513D01*
D02*
G37*
G36*
X838917Y177120D02*
X836743D01*
X834642Y176557D01*
X832758Y175470D01*
X831220Y173932D01*
X830133Y172048D01*
X829570Y169947D01*
Y167773D01*
X830133Y165672D01*
X831220Y163788D01*
X832758Y162250D01*
X834642Y161163D01*
X836743Y160600D01*
X838917D01*
X841018Y161163D01*
X842902Y162250D01*
X844440Y163788D01*
X845527Y165672D01*
X846090Y167773D01*
Y169947D01*
X845527Y172048D01*
X844440Y173932D01*
X842902Y175470D01*
X841018Y176557D01*
X838917Y177120D01*
D02*
G37*
G36*
X598765Y169116D02*
X597067D01*
X595497Y168466D01*
X594296Y167265D01*
X593646Y165695D01*
Y163997D01*
X594296Y162427D01*
X595497Y161226D01*
X597067Y160576D01*
X598765D01*
X600335Y161226D01*
X601536Y162427D01*
X602186Y163997D01*
Y165695D01*
X601536Y167265D01*
X600335Y168466D01*
X598765Y169116D01*
D02*
G37*
G36*
X624610Y277921D02*
X442359D01*
X441467Y277743D01*
X440711Y277238D01*
X406437Y242965D01*
X388466D01*
X388430Y243053D01*
X387229Y244254D01*
X385659Y244904D01*
X383961D01*
X382391Y244254D01*
X381190Y243053D01*
X380540Y241483D01*
Y239785D01*
X381190Y238215D01*
X382391Y237014D01*
X383961Y236364D01*
X385659D01*
X387229Y237014D01*
X388430Y238215D01*
X388466Y238303D01*
X407403D01*
X408295Y238481D01*
X409051Y238986D01*
X443324Y273259D01*
X623645D01*
X625389Y271514D01*
X625353Y271426D01*
Y269728D01*
X626003Y268158D01*
X627204Y266957D01*
X627335Y266903D01*
Y224537D01*
X627513Y223645D01*
X628018Y222889D01*
X652958Y197949D01*
Y160951D01*
X651688Y160454D01*
X650838Y161304D01*
X650750Y161341D01*
Y196893D01*
X650573Y197785D01*
X650068Y198541D01*
X631314Y217294D01*
X630558Y217799D01*
X629666Y217977D01*
X599942D01*
X599905Y218065D01*
X598704Y219266D01*
X597135Y219916D01*
X595436D01*
X593867Y219266D01*
X592665Y218065D01*
X592015Y216495D01*
Y214797D01*
X592665Y213227D01*
X593867Y212026D01*
X595436Y211376D01*
X597135D01*
X598704Y212026D01*
X599905Y213227D01*
X599942Y213315D01*
X628701D01*
X646089Y195927D01*
Y161341D01*
X646001Y161304D01*
X644799Y160103D01*
X644149Y158534D01*
Y156835D01*
X644799Y155266D01*
X646001Y154064D01*
X647570Y153414D01*
X649269D01*
X650838Y154064D01*
X651688Y154914D01*
X652958Y154417D01*
Y147666D01*
X653135Y146774D01*
X653641Y146018D01*
X660847Y138812D01*
X661603Y138306D01*
X662495Y138129D01*
X672268D01*
X672304Y138041D01*
X673505Y136840D01*
X675075Y136190D01*
X676773D01*
X678343Y136840D01*
X679544Y138041D01*
X679567Y138098D01*
X700247D01*
X708582Y129762D01*
Y101770D01*
X682882Y76070D01*
X682377Y75314D01*
X682199Y74422D01*
Y59790D01*
X682111Y59754D01*
X680910Y58553D01*
X680260Y56983D01*
Y55285D01*
X680910Y53715D01*
X682111Y52514D01*
X683681Y51864D01*
X685379D01*
X686949Y52514D01*
X688150Y53715D01*
X688800Y55285D01*
Y56983D01*
X688150Y58553D01*
X686949Y59754D01*
X686861Y59790D01*
Y73457D01*
X712561Y99157D01*
X713066Y99913D01*
X713244Y100805D01*
Y130728D01*
X713066Y131620D01*
X712561Y132376D01*
X702860Y142077D01*
X702104Y142582D01*
X701212Y142759D01*
X679593D01*
X679544Y142878D01*
X678343Y144080D01*
X676773Y144730D01*
X675075D01*
X673505Y144080D01*
X672304Y142878D01*
X672268Y142790D01*
X663460D01*
X657619Y148631D01*
Y198915D01*
X657442Y199807D01*
X656937Y200563D01*
X631997Y225503D01*
Y266939D01*
X632042Y266957D01*
X633243Y268158D01*
X633893Y269728D01*
Y271426D01*
X633243Y272996D01*
X632042Y274197D01*
X630472Y274847D01*
X628774D01*
X628686Y274811D01*
X626258Y277238D01*
X625502Y277743D01*
X624610Y277921D01*
D02*
G37*
G36*
X86528Y168214D02*
X74528D01*
X72277Y167766D01*
X70368Y166491D01*
X69093Y164582D01*
X68645Y162331D01*
X69093Y160080D01*
X70368Y158171D01*
X72277Y156896D01*
X74528Y156448D01*
X86528D01*
X88779Y156896D01*
X90688Y158171D01*
X91963Y160080D01*
X92411Y162331D01*
X91963Y164582D01*
X90688Y166491D01*
X88779Y167766D01*
X86528Y168214D01*
D02*
G37*
G36*
X43230D02*
X34230D01*
X31979Y167766D01*
X30070Y166491D01*
X28795Y164582D01*
X28347Y162331D01*
X28795Y160080D01*
X30070Y158171D01*
X31979Y156896D01*
X34230Y156448D01*
X43230D01*
X45481Y156896D01*
X47390Y158171D01*
X48665Y160080D01*
X49113Y162331D01*
X48665Y164582D01*
X47390Y166491D01*
X45481Y167766D01*
X43230Y168214D01*
D02*
G37*
G36*
X630782Y161877D02*
X629084D01*
X627514Y161227D01*
X626313Y160026D01*
X625663Y158456D01*
Y156758D01*
X626313Y155188D01*
X627514Y153987D01*
X629084Y153337D01*
X630782D01*
X632352Y153987D01*
X633553Y155188D01*
X634203Y156758D01*
Y158456D01*
X633553Y160026D01*
X632352Y161227D01*
X630782Y161877D01*
D02*
G37*
G36*
X976904Y168730D02*
X974556D01*
X972287Y168122D01*
X970253Y166948D01*
X968592Y165287D01*
X967418Y163253D01*
X966810Y160984D01*
Y158636D01*
X967418Y156367D01*
X968592Y154333D01*
X970253Y152672D01*
X972287Y151498D01*
X974556Y150890D01*
X976904D01*
X979173Y151498D01*
X981207Y152672D01*
X982868Y154333D01*
X984042Y156367D01*
X984650Y158636D01*
Y160984D01*
X984042Y163253D01*
X982868Y165287D01*
X981207Y166948D01*
X979173Y168122D01*
X976904Y168730D01*
D02*
G37*
G36*
X289393Y158021D02*
X287695D01*
X286125Y157371D01*
X284924Y156169D01*
X284274Y154600D01*
Y152901D01*
X284924Y151332D01*
X286125Y150131D01*
X287695Y149481D01*
X289393D01*
X290963Y150131D01*
X292164Y151332D01*
X292814Y152901D01*
Y154600D01*
X292164Y156169D01*
X290963Y157371D01*
X289393Y158021D01*
D02*
G37*
G36*
X279291D02*
X277593D01*
X276023Y157371D01*
X274822Y156169D01*
X274172Y154600D01*
Y152901D01*
X274822Y151332D01*
X276023Y150131D01*
X277593Y149481D01*
X279291D01*
X280861Y150131D01*
X282062Y151332D01*
X282712Y152901D01*
Y154600D01*
X282062Y156169D01*
X280861Y157371D01*
X279291Y158021D01*
D02*
G37*
G36*
X269189D02*
X267491D01*
X265921Y157371D01*
X264720Y156169D01*
X264070Y154600D01*
Y152901D01*
X264720Y151332D01*
X265921Y150131D01*
X267491Y149481D01*
X269189D01*
X270759Y150131D01*
X271960Y151332D01*
X272610Y152901D01*
Y154600D01*
X271960Y156169D01*
X270759Y157371D01*
X269189Y158021D01*
D02*
G37*
G36*
X350061Y156476D02*
X348363D01*
X346793Y155826D01*
X345592Y154625D01*
X344942Y153055D01*
Y151356D01*
X345592Y149787D01*
X346793Y148586D01*
X348363Y147936D01*
X350061D01*
X351631Y148586D01*
X352832Y149787D01*
X353482Y151356D01*
Y153055D01*
X352832Y154625D01*
X351631Y155826D01*
X350061Y156476D01*
D02*
G37*
G36*
X871490Y164420D02*
X854970D01*
Y147900D01*
X871490D01*
Y164420D01*
D02*
G37*
G36*
X541869Y234394D02*
X540171D01*
X538601Y233744D01*
X537400Y232543D01*
X536750Y230973D01*
Y229275D01*
X537400Y227705D01*
X538601Y226504D01*
X540171Y225854D01*
X541719D01*
X581333Y186240D01*
Y160470D01*
X581525Y159504D01*
X582072Y158685D01*
X591414Y149342D01*
X592234Y148795D01*
X593200Y148603D01*
X608932D01*
X610027Y147508D01*
X611597Y146858D01*
X613296D01*
X614865Y147508D01*
X616066Y148709D01*
X616716Y150279D01*
Y151977D01*
X616066Y153547D01*
X614865Y154748D01*
X613296Y155398D01*
X611597D01*
X610027Y154748D01*
X608932Y153653D01*
X594246D01*
X586383Y161516D01*
Y187286D01*
X586190Y188253D01*
X585643Y189072D01*
X545290Y229425D01*
Y230973D01*
X544640Y232543D01*
X543439Y233744D01*
X541869Y234394D01*
D02*
G37*
G36*
X157499Y144340D02*
X155801D01*
X154231Y143690D01*
X153030Y142489D01*
X152380Y140920D01*
Y139221D01*
X153030Y137652D01*
X154231Y136451D01*
X155801Y135801D01*
X157499D01*
X159069Y136451D01*
X160270Y137652D01*
X160920Y139221D01*
Y140920D01*
X160270Y142489D01*
X159069Y143690D01*
X157499Y144340D01*
D02*
G37*
G36*
X757216Y144098D02*
X755517D01*
X753948Y143448D01*
X752747Y142247D01*
X752097Y140677D01*
Y138979D01*
X752747Y137409D01*
X753948Y136208D01*
X755517Y135558D01*
X757216D01*
X758785Y136208D01*
X759986Y137409D01*
X760637Y138979D01*
Y140677D01*
X759986Y142247D01*
X758785Y143448D01*
X757216Y144098D01*
D02*
G37*
G36*
X795658Y140973D02*
X793960D01*
X792390Y140323D01*
X791189Y139122D01*
X790539Y137553D01*
Y135854D01*
X791189Y134285D01*
X792390Y133083D01*
X793960Y132433D01*
X795658D01*
X797228Y133083D01*
X798429Y134285D01*
X799079Y135854D01*
Y137553D01*
X798429Y139122D01*
X797228Y140323D01*
X795658Y140973D01*
D02*
G37*
G36*
X717988Y140561D02*
X716289D01*
X714720Y139910D01*
X713519Y138709D01*
X712869Y137140D01*
Y135441D01*
X713519Y133872D01*
X714720Y132671D01*
X716289Y132021D01*
X717988D01*
X719557Y132671D01*
X720759Y133872D01*
X721409Y135441D01*
Y137140D01*
X720759Y138709D01*
X719557Y139910D01*
X717988Y140561D01*
D02*
G37*
G36*
X739933Y140292D02*
X738234D01*
X736665Y139642D01*
X735464Y138441D01*
X734814Y136871D01*
Y135173D01*
X735464Y133603D01*
X736665Y132402D01*
X738234Y131752D01*
X739933D01*
X741502Y132402D01*
X742703Y133603D01*
X743354Y135173D01*
Y136871D01*
X742703Y138441D01*
X741502Y139642D01*
X739933Y140292D01*
D02*
G37*
G36*
X728831D02*
X727133D01*
X725563Y139642D01*
X724362Y138441D01*
X723712Y136871D01*
Y135173D01*
X724362Y133603D01*
X725563Y132402D01*
X727133Y131752D01*
X728831D01*
X730401Y132402D01*
X731602Y133603D01*
X732252Y135173D01*
Y136871D01*
X731602Y138441D01*
X730401Y139642D01*
X728831Y140292D01*
D02*
G37*
G36*
X613713Y138808D02*
X612014D01*
X610444Y138158D01*
X609243Y136957D01*
X608593Y135388D01*
Y133689D01*
X609243Y132120D01*
X610444Y130919D01*
X612014Y130268D01*
X613713D01*
X615282Y130919D01*
X616483Y132120D01*
X617133Y133689D01*
Y135388D01*
X616483Y136957D01*
X615282Y138158D01*
X613713Y138808D01*
D02*
G37*
G36*
X976904Y143330D02*
X974556D01*
X972287Y142722D01*
X970253Y141548D01*
X968592Y139887D01*
X967418Y137853D01*
X966810Y135584D01*
Y133236D01*
X967418Y130967D01*
X968592Y128933D01*
X970253Y127272D01*
X972287Y126098D01*
X974556Y125490D01*
X976904D01*
X979173Y126098D01*
X981207Y127272D01*
X982868Y128933D01*
X984042Y130967D01*
X984650Y133236D01*
Y135584D01*
X984042Y137853D01*
X982868Y139887D01*
X981207Y141548D01*
X979173Y142722D01*
X976904Y143330D01*
D02*
G37*
G36*
X55223Y134604D02*
X52914D01*
X50683Y134006D01*
X48684Y132852D01*
X47051Y131219D01*
X45896Y129219D01*
X45299Y126988D01*
Y124679D01*
X45896Y122449D01*
X47051Y120449D01*
X48684Y118816D01*
X50683Y117662D01*
X52914Y117064D01*
X55223D01*
X57454Y117662D01*
X59453Y118816D01*
X61086Y120449D01*
X62241Y122449D01*
X62839Y124679D01*
Y126988D01*
X62241Y129219D01*
X61086Y131219D01*
X59453Y132852D01*
X57454Y134006D01*
X55223Y134604D01*
D02*
G37*
G36*
X762216Y121865D02*
X760517D01*
X758948Y121215D01*
X757747Y120014D01*
X757097Y118444D01*
Y116746D01*
X757747Y115176D01*
X758948Y113975D01*
X760517Y113325D01*
X762216D01*
X763785Y113975D01*
X764986Y115176D01*
X765637Y116746D01*
Y118444D01*
X764986Y120014D01*
X763785Y121215D01*
X762216Y121865D01*
D02*
G37*
G36*
X573811Y117966D02*
X572113D01*
X570543Y117316D01*
X569342Y116115D01*
X568692Y114545D01*
Y112847D01*
X569342Y111277D01*
X570543Y110076D01*
X572113Y109426D01*
X573811D01*
X575381Y110076D01*
X576582Y111277D01*
X577232Y112847D01*
Y114545D01*
X576582Y116115D01*
X575381Y117316D01*
X573811Y117966D01*
D02*
G37*
G36*
X96891Y100905D02*
X95193D01*
X93623Y100254D01*
X92422Y99053D01*
X91772Y97484D01*
Y95785D01*
X92422Y94216D01*
X93623Y93015D01*
X95193Y92365D01*
X96891D01*
X98461Y93015D01*
X99662Y94216D01*
X100312Y95785D01*
Y97484D01*
X99662Y99053D01*
X98461Y100254D01*
X96891Y100905D01*
D02*
G37*
G36*
X350607Y91900D02*
X348909D01*
X347339Y91250D01*
X346138Y90049D01*
X345488Y88479D01*
Y86781D01*
X346138Y85211D01*
X347339Y84010D01*
X348909Y83360D01*
X350607D01*
X352177Y84010D01*
X353378Y85211D01*
X354028Y86781D01*
Y88479D01*
X353378Y90049D01*
X352177Y91250D01*
X350607Y91900D01*
D02*
G37*
G36*
X720831Y87865D02*
X719133D01*
X717563Y87215D01*
X716362Y86014D01*
X715712Y84444D01*
Y82746D01*
X716362Y81176D01*
X717563Y79975D01*
X719133Y79325D01*
X720831D01*
X722401Y79975D01*
X723602Y81176D01*
X724252Y82746D01*
Y84444D01*
X723602Y86014D01*
X722401Y87215D01*
X720831Y87865D01*
D02*
G37*
G36*
X350607Y78607D02*
X348909D01*
X347339Y77957D01*
X346138Y76756D01*
X345488Y75187D01*
Y73488D01*
X346138Y71919D01*
X347339Y70717D01*
X348909Y70067D01*
X350607D01*
X352177Y70717D01*
X353378Y71919D01*
X354028Y73488D01*
Y75187D01*
X353378Y76756D01*
X352177Y77957D01*
X350607Y78607D01*
D02*
G37*
G36*
X30438Y76585D02*
Y69354D01*
X37669D01*
X37127Y71380D01*
X36002Y73328D01*
X34412Y74918D01*
X32465Y76042D01*
X30438Y76585D01*
D02*
G37*
G36*
X27898D02*
X25872Y76042D01*
X23925Y74918D01*
X22335Y73328D01*
X21210Y71380D01*
X20668Y69354D01*
X27898D01*
Y76585D01*
D02*
G37*
G36*
X615609Y70205D02*
X613910D01*
X612341Y69555D01*
X611140Y68354D01*
X610490Y66784D01*
Y65086D01*
X611140Y63516D01*
X612341Y62315D01*
X613910Y61665D01*
X615609D01*
X617178Y62315D01*
X618380Y63516D01*
X619030Y65086D01*
Y66784D01*
X618380Y68354D01*
X617178Y69555D01*
X615609Y70205D01*
D02*
G37*
G36*
X37669Y66814D02*
X30438D01*
Y59583D01*
X32465Y60126D01*
X34412Y61250D01*
X36002Y62840D01*
X37127Y64788D01*
X37669Y66814D01*
D02*
G37*
G36*
X27898D02*
X20668D01*
X21210Y64788D01*
X22335Y62840D01*
X23925Y61250D01*
X25872Y60126D01*
X27898Y59583D01*
Y66814D01*
D02*
G37*
G36*
X350607Y65315D02*
X348909D01*
X347339Y64665D01*
X346138Y63463D01*
X345488Y61894D01*
Y60195D01*
X346138Y58626D01*
X347339Y57425D01*
X348909Y56775D01*
X350607D01*
X352177Y57425D01*
X353378Y58626D01*
X354028Y60195D01*
Y61894D01*
X353378Y63463D01*
X352177Y64665D01*
X350607Y65315D01*
D02*
G37*
G36*
X55223Y64504D02*
X52914D01*
X50683Y63906D01*
X48684Y62752D01*
X47051Y61119D01*
X45896Y59119D01*
X45299Y56888D01*
Y54579D01*
X45896Y52349D01*
X47051Y50349D01*
X48684Y48716D01*
X50683Y47562D01*
X52914Y46964D01*
X55223D01*
X57454Y47562D01*
X59453Y48716D01*
X61086Y50349D01*
X62241Y52349D01*
X62839Y54579D01*
Y56888D01*
X62241Y59119D01*
X61086Y61119D01*
X59453Y62752D01*
X57454Y63906D01*
X55223Y64504D01*
D02*
G37*
G36*
X350607Y52022D02*
X348909D01*
X347339Y51372D01*
X346138Y50171D01*
X345488Y48601D01*
Y46903D01*
X346138Y45333D01*
X347339Y44132D01*
X348909Y43482D01*
X350607D01*
X352177Y44132D01*
X353378Y45333D01*
X354028Y46903D01*
Y48601D01*
X353378Y50171D01*
X352177Y51372D01*
X350607Y52022D01*
D02*
G37*
G36*
X606893Y35120D02*
X605195D01*
X603625Y34470D01*
X602424Y33269D01*
X601774Y31700D01*
Y30001D01*
X602424Y28432D01*
X603625Y27230D01*
X605195Y26580D01*
X606893D01*
X608463Y27230D01*
X609664Y28432D01*
X610314Y30001D01*
Y31700D01*
X609664Y33269D01*
X608463Y34470D01*
X606893Y35120D01*
D02*
G37*
%LPD*%
G36*
X167640Y331470D02*
X211836D01*
X234079Y309226D01*
X364266D01*
X378345Y295148D01*
X637540D01*
X645160Y302768D01*
X739140D01*
X746593Y310221D01*
Y336808D01*
X753556D01*
Y306594D01*
X742872Y295910D01*
X648812D01*
X640675Y287773D01*
X371646D01*
X360118Y299300D01*
X241786D01*
Y290234D01*
X283718Y248302D01*
Y204852D01*
X274647D01*
Y244028D01*
X230902Y287773D01*
Y299300D01*
X209575Y320627D01*
X167640D01*
Y306972D01*
X47892D01*
X47694Y306774D01*
Y296875D01*
X47679Y296840D01*
X33119D01*
Y312080D01*
X45080Y324041D01*
Y335788D01*
X60960D01*
Y320040D01*
X62738Y318262D01*
X156519D01*
Y376936D01*
X167640D01*
Y331470D01*
D02*
G37*
D11*
X442612Y393836D02*
X466115Y370333D01*
X21082Y371460D02*
X43458Y393836D01*
X442612D01*
X466115Y370333D02*
X562609D01*
X575549Y357393D01*
Y310134D02*
Y357393D01*
D17*
X399537Y94034D02*
X689815D01*
X701274Y105493D01*
X392575Y100996D02*
X399537Y94034D01*
X396722Y154560D02*
X447652Y103629D01*
X645046D01*
X664212Y122795D01*
X542290Y110490D02*
X554482D01*
X377765Y211395D02*
X394366Y227996D01*
X306715Y211395D02*
X377765D01*
X384810Y240634D02*
X407403D01*
X442359Y275590D01*
X624610D01*
X684530Y56134D02*
Y74422D01*
X710913Y100805D01*
Y130728D01*
X629666Y215646D02*
X648419Y196893D01*
Y157684D02*
Y196893D01*
X565888Y121896D02*
X624332D01*
X629666Y224537D02*
X655289Y198915D01*
Y147666D02*
X662495Y140460D01*
X655289Y147666D02*
Y198915D01*
X601325Y56896D02*
X644170D01*
X392765Y88138D02*
X570083D01*
X601325Y56896D01*
X644170D02*
X650712Y63438D01*
Y73180D01*
X426068Y179876D02*
X436118Y169825D01*
X349754Y177401D02*
X352228Y179876D01*
X349054Y177401D02*
X349754D01*
X352228Y179876D02*
X426068D01*
X392575Y87948D02*
X392765Y88138D01*
X278337Y275704D02*
Y287899D01*
X284314Y293877D02*
X307351D01*
X278337Y287899D02*
X284314Y293877D01*
X278337Y275704D02*
X294640Y259400D01*
Y227584D02*
Y259400D01*
X307351Y293877D02*
X315732Y285496D01*
X290576Y275590D02*
Y285496D01*
X320180Y245986D02*
X325823D01*
X290576Y275590D02*
X320180Y245986D01*
X157809Y74720D02*
X209223D01*
X218172Y83669D02*
Y169444D01*
X209223Y74720D02*
X218172Y83669D01*
X119244Y113284D02*
X157809Y74720D01*
X218172Y169444D02*
X233736Y185008D01*
X563846D01*
X211189Y173623D02*
X228023Y190457D01*
X211189Y94847D02*
Y173623D01*
X29169Y113284D02*
X119244D01*
X170549Y178169D02*
X193928Y201548D01*
X296868D01*
X306715Y211395D01*
X208820Y196088D02*
X410718D01*
X190490Y177757D02*
X208820Y196088D01*
X170549Y94847D02*
Y178169D01*
X554482Y110490D02*
X565888Y121896D01*
X396722Y154560D02*
Y164364D01*
X563846Y185008D02*
X571658Y177196D01*
X439540Y224910D02*
Y240634D01*
X596285Y215646D02*
X629666D01*
X482513Y254254D02*
X584454D01*
X418717Y190457D02*
X482513Y254254D01*
X624610Y275590D02*
X629623Y270577D01*
X629666Y270534D01*
X681639Y98552D02*
X688882Y105795D01*
X429257Y98552D02*
X681639D01*
X664212Y122795D02*
X698882D01*
X701212Y140429D02*
X710913Y130728D01*
X629666Y224537D02*
Y270534D01*
X675955Y140429D02*
X701212D01*
X662495Y140460D02*
X675924D01*
X190490Y94923D02*
Y177757D01*
X228023Y190457D02*
X418717D01*
X410718Y196088D02*
X439540Y224910D01*
X190490Y94923D02*
X190541Y94872D01*
X396722Y131088D02*
Y139257D01*
Y131088D02*
X429257Y98552D01*
D126*
X101506Y235112D02*
X109417Y227200D01*
Y173020D02*
Y227200D01*
D127*
X541020Y230124D02*
X583858Y187286D01*
Y160470D02*
Y187286D01*
X593200Y151128D02*
X612446D01*
X583858Y160470D02*
X593200Y151128D01*
X366644Y349223D02*
X442620D01*
X840043Y196473D02*
X845714D01*
X854626Y205386D02*
X861656D01*
X837830Y194260D02*
X840043Y196473D01*
X845714D02*
X854626Y205386D01*
X861656D02*
X863230Y206960D01*
D217*
X74930Y234431D02*
D03*
Y176631D02*
D03*
D218*
X80528Y162331D02*
D03*
Y248729D02*
D03*
D219*
X38730Y162331D02*
D03*
Y248729D02*
D03*
D220*
X53082Y347960D02*
D03*
X41083Y371460D02*
D03*
X21083Y304460D02*
D03*
X41083D02*
D03*
X53082Y327960D02*
D03*
X21083Y371460D02*
D03*
D221*
X516240Y138796D02*
D03*
X502240D02*
D03*
Y152796D02*
D03*
X495240Y145796D02*
D03*
X509240D02*
D03*
X523240D02*
D03*
Y159796D02*
D03*
X516240Y166796D02*
D03*
X502240D02*
D03*
X495240Y159796D02*
D03*
X509240D02*
D03*
X516240Y152796D02*
D03*
X823722Y294132D02*
D03*
X833628D02*
D03*
Y322411D02*
D03*
X823722D02*
D03*
X842772Y350689D02*
D03*
X822960D02*
D03*
X832866D02*
D03*
X822960Y378968D02*
D03*
X832866D02*
D03*
X842772D02*
D03*
X843534Y322411D02*
D03*
Y294132D02*
D03*
X210813Y256166D02*
D03*
X200907D02*
D03*
X191001D02*
D03*
X614315Y238712D02*
D03*
Y248618D02*
D03*
Y258524D02*
D03*
X757428Y45720D02*
D03*
X767334D02*
D03*
X777240D02*
D03*
X757428Y60960D02*
D03*
X767334D02*
D03*
X777240D02*
D03*
X495554Y238506D02*
D03*
X505460D02*
D03*
X515366D02*
D03*
X326136Y219821D02*
D03*
X336042D02*
D03*
X345948D02*
D03*
X87186Y127133D02*
D03*
X97092D02*
D03*
X106998D02*
D03*
X103378Y384048D02*
D03*
X113284D02*
D03*
X123190D02*
D03*
X48980Y146558D02*
D03*
X39074D02*
D03*
X29169D02*
D03*
X50546Y21844D02*
D03*
X40640D02*
D03*
X30734D02*
D03*
X250698Y44908D02*
D03*
Y54814D02*
D03*
Y64720D02*
D03*
X604101Y87539D02*
D03*
X109417Y173020D02*
D03*
X101506Y235112D02*
D03*
X97991Y251263D02*
D03*
X99623Y162219D02*
D03*
X339154Y176582D02*
D03*
X329285D02*
D03*
X542290Y110490D02*
D03*
X612863Y134538D02*
D03*
X370594Y218937D02*
D03*
X140628Y232826D02*
D03*
X121074Y177679D02*
D03*
X156429Y116184D02*
D03*
X156650Y140070D02*
D03*
X614760Y65935D02*
D03*
X349212Y152206D02*
D03*
X370611Y169207D02*
D03*
X361455Y153751D02*
D03*
X599813Y76424D02*
D03*
X394366Y227996D02*
D03*
X384810Y240634D02*
D03*
X391160Y256170D02*
D03*
X719982Y83595D02*
D03*
X716039Y259207D02*
D03*
X743361Y265243D02*
D03*
X736198Y278726D02*
D03*
X648419Y157684D02*
D03*
X629933Y157607D02*
D03*
Y170890D02*
D03*
Y184174D02*
D03*
X679356Y182720D02*
D03*
X624332Y121896D02*
D03*
X664404Y105792D02*
D03*
X650712Y73180D02*
D03*
X630673Y82325D02*
D03*
X630439Y73180D02*
D03*
X606044Y30850D02*
D03*
X266586Y244028D02*
D03*
X259343D02*
D03*
X327998Y153289D02*
D03*
X318600D02*
D03*
X337395D02*
D03*
X96042Y96635D02*
D03*
X392575Y75596D02*
D03*
Y100996D02*
D03*
Y87948D02*
D03*
X349758Y47752D02*
D03*
Y61045D02*
D03*
Y74337D02*
D03*
Y87630D02*
D03*
X731157Y307379D02*
D03*
X294640Y227584D02*
D03*
X749782Y318665D02*
D03*
Y326175D02*
D03*
Y333686D02*
D03*
X279873Y207730D02*
D03*
Y219173D02*
D03*
X239910Y170807D02*
D03*
X211189Y94847D02*
D03*
X227654Y126616D02*
D03*
X329254Y204615D02*
D03*
X339277Y204701D02*
D03*
X270377Y302713D02*
D03*
X322979Y302823D02*
D03*
X721025Y208905D02*
D03*
X738056Y225712D02*
D03*
X756273Y208669D02*
D03*
X764963Y180347D02*
D03*
X764965Y168243D02*
D03*
X794809Y136703D02*
D03*
X756367Y139828D02*
D03*
X761367Y117595D02*
D03*
X739083Y136022D02*
D03*
X727982D02*
D03*
X717139Y136291D02*
D03*
X349054Y177401D02*
D03*
X314206Y171573D02*
D03*
Y179712D02*
D03*
X549402Y117348D02*
D03*
X314810Y204852D02*
D03*
X396722Y164364D02*
D03*
X436118Y169825D02*
D03*
X571658Y177196D02*
D03*
X541020Y230124D02*
D03*
X439540Y240634D02*
D03*
X331724Y319686D02*
D03*
X449198Y302966D02*
D03*
X437272D02*
D03*
X425347D02*
D03*
X401496D02*
D03*
X413422D02*
D03*
X315732Y285496D02*
D03*
X290576D02*
D03*
X553796Y266291D02*
D03*
X281858Y259332D02*
D03*
X196351Y293640D02*
D03*
X288544Y153751D02*
D03*
X196351Y281136D02*
D03*
X186567D02*
D03*
X176784D02*
D03*
Y293640D02*
D03*
X278442Y153751D02*
D03*
X268340D02*
D03*
X323098Y319745D02*
D03*
X271550Y375667D02*
D03*
Y386332D02*
D03*
X324525Y380930D02*
D03*
Y375047D02*
D03*
X290332Y386993D02*
D03*
X336760Y377109D02*
D03*
X449551Y374365D02*
D03*
X262401Y170824D02*
D03*
X45080Y280924D02*
D03*
X33119D02*
D03*
X596285Y215646D02*
D03*
X661273Y327105D02*
D03*
X739569Y339920D02*
D03*
X199220Y306972D02*
D03*
X144272Y254672D02*
D03*
X134830Y182479D02*
D03*
X132864Y267891D02*
D03*
X187826Y315365D02*
D03*
X237351Y256166D02*
D03*
X584454Y254254D02*
D03*
X614544Y190661D02*
D03*
X614542Y178194D02*
D03*
X608840Y164505D02*
D03*
X597916Y164846D02*
D03*
X664464Y5334D02*
D03*
X689610Y5080D02*
D03*
X637286D02*
D03*
X681015Y281901D02*
D03*
X249660Y122044D02*
D03*
X249642Y134116D02*
D03*
X701274Y105493D02*
D03*
X676594Y105493D02*
D03*
X688882Y105795D02*
D03*
X695800Y166276D02*
D03*
Y182720D02*
D03*
X663704Y229881D02*
D03*
X629623Y270577D02*
D03*
X679356Y166276D02*
D03*
X687578Y174498D02*
D03*
X767472Y231220D02*
D03*
X892302Y71397D02*
D03*
Y54610D02*
D03*
X864362D02*
D03*
X836168Y70104D02*
D03*
Y54610D02*
D03*
X665372Y311387D02*
D03*
X689562Y324357D02*
D03*
X795092Y124714D02*
D03*
X627919Y65082D02*
D03*
X617982Y30850D02*
D03*
X761367Y88595D02*
D03*
X739083Y98191D02*
D03*
X640833Y255459D02*
D03*
X651761Y229878D02*
D03*
X717806Y313380D02*
D03*
X708877D02*
D03*
X772172Y333140D02*
D03*
X689079Y392938D02*
D03*
X711615D02*
D03*
X734822D02*
D03*
X755142D02*
D03*
Y384048D02*
D03*
X587122Y374650D02*
D03*
X597918D02*
D03*
X576326D02*
D03*
X257505Y219669D02*
D03*
X257506Y207728D02*
D03*
X370855Y34155D02*
D03*
X223266Y37720D02*
D03*
Y53720D02*
D03*
Y69342D02*
D03*
X144272Y222448D02*
D03*
Y188722D02*
D03*
X84101Y96637D02*
D03*
X241786Y330304D02*
D03*
X237352Y244226D02*
D03*
X384164Y333285D02*
D03*
X337659Y368148D02*
D03*
X310186Y357886D02*
D03*
X283210Y340222D02*
D03*
X296682Y348830D02*
D03*
X310186Y340222D02*
D03*
X283210Y357886D02*
D03*
X249044Y377915D02*
D03*
X161791Y320627D02*
D03*
Y371935D02*
D03*
X170549Y94847D02*
D03*
X190541Y94872D02*
D03*
X315322Y235445D02*
D03*
X596285Y227996D02*
D03*
X325823Y245986D02*
D03*
X572962Y113696D02*
D03*
X698882Y122795D02*
D03*
X396722Y139257D02*
D03*
X612446Y151128D02*
D03*
X575549Y310134D02*
D03*
X675924Y140460D02*
D03*
X684530Y56134D02*
D03*
X366568Y349148D02*
D03*
X442620Y349223D02*
D03*
D222*
X837830Y245060D02*
D03*
Y168860D02*
D03*
X863230Y181560D02*
D03*
X837830Y194260D02*
D03*
X863230Y206960D02*
D03*
X837830Y219660D02*
D03*
X863230Y232360D02*
D03*
D223*
X29169Y68084D02*
D03*
Y113284D02*
D03*
D224*
X630938Y351384D02*
D03*
X635938D02*
D03*
X640938D02*
D03*
X630938Y346384D02*
D03*
X635938D02*
D03*
X640938D02*
D03*
X630938Y341384D02*
D03*
X635938D02*
D03*
X640938D02*
D03*
X630938Y336384D02*
D03*
X635938D02*
D03*
X640938D02*
D03*
X630938Y331384D02*
D03*
X635938D02*
D03*
X640938D02*
D03*
D225*
X863230Y156160D02*
D03*
D226*
X975730Y134410D02*
D03*
Y159810D02*
D03*
Y266910D02*
D03*
Y241510D02*
D03*
D227*
X896230Y123210D02*
D03*
Y278110D02*
D03*
D228*
X54068Y125834D02*
D03*
Y55734D02*
D03*
D229*
X946281Y346281D02*
D03*
X946281Y53720D02*
D03*
X113720Y346281D02*
D03*
Y53720D02*
D03*
D230*
X896314Y200694D02*
D03*
M02*
