M48
;Layer_Color=9474304
;FILE_FORMAT=4:4
METRIC,LZ
;TYPE=PLATED
T01F00S00C0.2000
T02F00S00C0.3000
T04F00S00C0.7000
T05F00S00C0.8900
T06F00S00C0.9144
T07F00S00C1.0000
T08F00S00C1.0200
T09F00S00C1.2000
T10F00S00C1.6300
T11F00S00C3.0000
;TYPE=NON_PLATED
T12F00S00C3.2500
%
T01
X00630938Y00331384
X00635938
X00640938
Y00336384
Y00341384
Y00346384
X00635938
X00630938
Y00341384
X00635938
Y00336384
X00630938
Y00351384
X00635938
X00640938
T02
X00030734Y00021844
X0004064
X00050546
X00084101Y00096637
X00096042Y00096635
X00097092Y00127133
X00087186
X00106998
X00156429Y00116184
X0015665Y0014007
X00170549Y00094847
X00190541Y00094872
X00211189Y00094847
X00223266Y00069342
Y0005372
Y0003772
X00250698Y00044908
Y00054814
Y0006472
X0024966Y00122044
X00249642Y00134116
X00227654Y00126616
X00349758Y0008763
Y00074337
Y00061045
Y00047752
X00370855Y00034155
X00392575Y00075596
Y00087948
Y00100996
X00396722Y00139257
X0050224Y00138796
X0051624
X0054229Y0011049
X00549402Y00117348
X00572962Y00113696
X00604101Y00087539
X00599813Y00076424
X0061476Y00065935
X00627919Y00065082
X00630439Y0007318
X00630673Y00082325
X00650712Y0007318
X00664404Y00105792
X00676594Y00105493
X00688882Y00105795
X00701274Y00105493
X00698882Y00122795
X00717139Y00136291
X00727982Y00136022
X00739083
X00756367Y00139828
X00761367Y00117595
Y00088595
X00757428Y0006096
X00767334
X0077724
Y0004572
X00767334
X00757428
X00739083Y00098191
X00719982Y00083595
X0068453Y00056134
X0068961Y0000508
X00664464Y00005334
X00637286Y0000508
X00617982Y0003085
X00606044
X00624332Y00121896
X00612863Y00134538
X00675924Y0014046
X00794809Y00136703
X00795092Y00124714
X00836168Y00070104
Y0005461
X00864362
X00892302
Y00071397
X00764965Y00168243
X00764963Y00180347
X00756273Y00208669
X00767472Y0023122
X00738056Y00225712
X00721025Y00208905
X006958Y0018272
X00679356
Y00166276
X00687578Y00174498
X006958Y00166276
X00648419Y00157684
X00629933Y00157607
Y0017089
Y00184174
X00614542Y00178194
X00614544Y00190661
X0060884Y00164505
X00597916Y00164846
X00612446Y00151128
X00571658Y00177196
X00596285Y00215646
Y00227996
X00614315Y00238712
Y00248618
Y00258524
X00629623Y00270577
X00640833Y00255459
X00651761Y00229878
X00663704Y00229881
X00681015Y00281901
X00665372Y00311387
X00661273Y00327105
X00689562Y00324357
X00708877Y0031338
X00717806
X00731157Y00307379
X00749782Y00318665
Y00326175
Y00333686
X00739569Y0033992
X00772172Y0033314
X00823722Y00322411
X00833628
X00843534
Y00294132
X00833628
X00823722
X0082296Y00350689
X00832866
X00842772
Y00378968
X00832866
X0082296
X00755142Y00384048
Y00392938
X00734822
X00711615
X00689079
X00597918Y0037465
X00587122
X00576326
X00575549Y00310134
X00584454Y00254254
X00553796Y00266291
X0054102Y00230124
X00716039Y00259207
X00743361Y00265243
X00736198Y00278726
X00515366Y00238506
X0050546
X00495554
X0043954Y00240634
X0038481
X0039116Y0025617
X00394366Y00227996
X00370594Y00218937
X00345948Y00219821
X00336042
X00326136
X00329254Y00204615
X00339277Y00204701
X0031481Y00204852
X00314206Y00179712
Y00171573
X00329285Y00176582
X00339154
X00349054Y00177401
X00349212Y00152206
X00337395Y00153289
X00327998
X003186
X00288544Y00153751
X00278442
X0026834
X00262401Y00170824
X0023991Y00170807
X00257506Y00207728
X00257505Y00219669
X00279873Y00219173
Y0020773
X0029464Y00227584
X00315322Y00235445
X00325823Y00245986
X00315732Y00285496
X00322979Y00302823
X00323098Y00319745
X00331724Y00319686
X00310186Y00340222
Y00357886
X00296682Y0034883
X0028321Y00340222
Y00357886
X0027155Y00375667
Y00386332
X00290332Y00386993
X00324525Y0038093
Y00375047
X0033676Y00377109
X00337659Y00368148
X00366568Y00349148
X00384164Y00333285
X00401496Y00302966
X00413422
X00425347
X00437272
X00449198
X0044262Y00349223
X00449551Y00374365
X00249044Y00377915
X00241786Y00330304
X00270377Y00302713
X00290576Y00285496
X00281858Y00259332
X00266586Y00244028
X00259343
X00237352Y00244226
X00237351Y00256166
X00210813
X00200907
X00191001
X00186567Y00281136
X00196351
Y0029364
X0019922Y00306972
X00187826Y00315365
X00161791Y00320627
X00176784Y0029364
Y00281136
X00144272Y00254672
Y00222448
Y00188722
X00161791Y00371935
X00370611Y00169207
X00361455Y00153751
X00396722Y00164364
X00436118Y00169825
X0050224Y00166796
Y00152796
X0050924Y00159796
Y00145796
X0049524
Y00159796
X0052324
X0051624Y00152796
X0052324Y00145796
X0051624Y00166796
X0013483Y00182479
X00121074Y00177679
X00109417Y0017302
X00099623Y00162219
X0004898Y00146558
X00039074
X00029169
X00033119Y00280924
X0004508
X00097991Y00251263
X00101506Y00235112
X00140628Y00232826
X00132864Y00267891
X0012319Y00384048
X00113284
X00103378
T04
X0007493Y00176631
Y00234431
T05
X0083783Y0016886
Y0019426
Y0021966
Y0024506
X0086323Y0023236
Y0020696
Y0018156
Y0015616
T06
X00021082Y0030446
X00041082
X00053082Y0032796
Y0034796
X00041082Y0037146
X00021082
T07
X00029169Y00068084
Y00113284
T08
X0097573Y0013441
Y0015981
Y0024151
Y0026691
T09
X00054068Y00055734
Y00125834
T10
X0089623Y0012321
Y0027811
T11
X0011372Y0005372
X00946281
X00946281Y00346281
X0011372Y00346281
T12
X0092673Y0014351
Y0025781
M30
