G04*
G04 #@! TF.GenerationSoftware,Altium Limited,Altium Designer,25.8.1 (18)*
G04*
G04 Layer_Color=16711935*
%FSLAX44Y44*%
%MOMM*%
G71*
G04*
G04 #@! TF.SameCoordinates,7ACC302D-5C77-4419-A563-AEFD38389BD4*
G04*
G04*
G04 #@! TF.FilePolarity,Negative*
G04*
G01*
G75*
%ADD111C,0.7300*%
%ADD112O,2.3032X1.1032*%
%ADD113O,2.0032X1.1032*%
%ADD114C,1.7272*%
%ADD115C,1.6012*%
%ADD116C,1.2300*%
%ADD117C,0.5032*%
%ADD118R,1.6012X1.6012*%
%ADD119C,1.7332*%
%ADD120C,2.6482*%
%ADD121C,0.2032*%
%ADD122C,1.5300*%
%ADD123C,5.0300*%
%ADD221C,0.6000*%
D111*
X74930Y234431D02*
D03*
Y176631D02*
D03*
D112*
X80528Y162331D02*
D03*
Y248729D02*
D03*
D113*
X38730Y162331D02*
D03*
Y248729D02*
D03*
D114*
X53082Y347960D02*
D03*
X41083Y371460D02*
D03*
X21083Y304460D02*
D03*
X41083D02*
D03*
X53082Y327960D02*
D03*
X21083Y371460D02*
D03*
D115*
X837830Y245060D02*
D03*
Y168860D02*
D03*
X863230Y181560D02*
D03*
X837830Y194260D02*
D03*
X863230Y206960D02*
D03*
X837830Y219660D02*
D03*
X863230Y232360D02*
D03*
D116*
X29169Y68084D02*
D03*
Y113284D02*
D03*
D117*
X630938Y351384D02*
D03*
X635938D02*
D03*
X640938D02*
D03*
X630938Y346384D02*
D03*
X635938D02*
D03*
X640938D02*
D03*
X630938Y341384D02*
D03*
X635938D02*
D03*
X640938D02*
D03*
X630938Y336384D02*
D03*
X635938D02*
D03*
X640938D02*
D03*
X630938Y331384D02*
D03*
X635938D02*
D03*
X640938D02*
D03*
D118*
X863230Y156160D02*
D03*
D119*
X975730Y134410D02*
D03*
Y159810D02*
D03*
Y266910D02*
D03*
Y241510D02*
D03*
D120*
X896230Y123210D02*
D03*
Y278110D02*
D03*
D121*
X926730Y257810D02*
D03*
Y143510D02*
D03*
D122*
X54068Y125834D02*
D03*
Y55734D02*
D03*
D123*
X946281Y346281D02*
D03*
X946281Y53720D02*
D03*
X113720Y346281D02*
D03*
Y53720D02*
D03*
D221*
X823722Y294132D02*
D03*
X833628D02*
D03*
Y322411D02*
D03*
X823722D02*
D03*
X842772Y350689D02*
D03*
X822960D02*
D03*
X832866D02*
D03*
X822960Y378968D02*
D03*
X832866D02*
D03*
X842772D02*
D03*
X843534Y322411D02*
D03*
Y294132D02*
D03*
X210813Y256166D02*
D03*
X200907D02*
D03*
X191001D02*
D03*
X614315Y238712D02*
D03*
Y248618D02*
D03*
Y258524D02*
D03*
X757428Y45720D02*
D03*
X767334D02*
D03*
X777240D02*
D03*
X757428Y60960D02*
D03*
X767334D02*
D03*
X777240D02*
D03*
X495554Y238506D02*
D03*
X505460D02*
D03*
X515366D02*
D03*
X326136Y219821D02*
D03*
X336042D02*
D03*
X345948D02*
D03*
X87186Y127133D02*
D03*
X97092D02*
D03*
X106998D02*
D03*
X103378Y384048D02*
D03*
X113284D02*
D03*
X123190D02*
D03*
X48980Y146558D02*
D03*
X39074D02*
D03*
X29169D02*
D03*
X50546Y21844D02*
D03*
X40640D02*
D03*
X30734D02*
D03*
X250698Y44908D02*
D03*
Y54814D02*
D03*
Y64720D02*
D03*
X604101Y87539D02*
D03*
X109417Y173020D02*
D03*
X101506Y235112D02*
D03*
X97991Y251263D02*
D03*
X99623Y162219D02*
D03*
X339154Y176582D02*
D03*
X329285D02*
D03*
X542290Y110490D02*
D03*
X612863Y134538D02*
D03*
X370594Y218937D02*
D03*
X140628Y232826D02*
D03*
X121074Y177679D02*
D03*
X156429Y116184D02*
D03*
X156650Y140070D02*
D03*
X614760Y65935D02*
D03*
X349212Y152206D02*
D03*
X370611Y169207D02*
D03*
X361455Y153751D02*
D03*
X599813Y76424D02*
D03*
X394366Y227996D02*
D03*
X384810Y240634D02*
D03*
X391160Y256170D02*
D03*
X719982Y83595D02*
D03*
X716039Y259207D02*
D03*
X743361Y265243D02*
D03*
X736198Y278726D02*
D03*
X648419Y157684D02*
D03*
X629933Y157607D02*
D03*
Y170890D02*
D03*
Y184174D02*
D03*
X679356Y182720D02*
D03*
X624332Y121896D02*
D03*
X664404Y105792D02*
D03*
X650712Y73180D02*
D03*
X630673Y82325D02*
D03*
X630439Y73180D02*
D03*
X606044Y30850D02*
D03*
X266586Y244028D02*
D03*
X259343D02*
D03*
X327998Y153289D02*
D03*
X318600D02*
D03*
X337395D02*
D03*
X96042Y96635D02*
D03*
X392575Y75596D02*
D03*
Y100996D02*
D03*
Y87948D02*
D03*
X349758Y47752D02*
D03*
Y61045D02*
D03*
Y74337D02*
D03*
Y87630D02*
D03*
X731157Y307379D02*
D03*
X294640Y227584D02*
D03*
X749782Y318665D02*
D03*
Y326175D02*
D03*
Y333686D02*
D03*
X279873Y207730D02*
D03*
Y219173D02*
D03*
X239910Y170807D02*
D03*
X211189Y94847D02*
D03*
X227654Y126616D02*
D03*
X329254Y204615D02*
D03*
X339277Y204701D02*
D03*
X270377Y302713D02*
D03*
X322979Y302823D02*
D03*
X721025Y208905D02*
D03*
X738056Y225712D02*
D03*
X756273Y208669D02*
D03*
X764963Y180347D02*
D03*
X764965Y168243D02*
D03*
X794809Y136703D02*
D03*
X756367Y139828D02*
D03*
X761367Y117595D02*
D03*
X739083Y136022D02*
D03*
X727982D02*
D03*
X717139Y136291D02*
D03*
X349054Y177401D02*
D03*
X314206Y171573D02*
D03*
Y179712D02*
D03*
X549402Y117348D02*
D03*
X314810Y204852D02*
D03*
X396722Y164364D02*
D03*
X436118Y169825D02*
D03*
X571658Y177196D02*
D03*
X541020Y230124D02*
D03*
X439540Y240634D02*
D03*
X331724Y319686D02*
D03*
X449198Y302966D02*
D03*
X437272D02*
D03*
X425347D02*
D03*
X401496D02*
D03*
X413422D02*
D03*
X315732Y285496D02*
D03*
X290576D02*
D03*
X553796Y266291D02*
D03*
X281858Y259332D02*
D03*
X196351Y293640D02*
D03*
X288544Y153751D02*
D03*
X196351Y281136D02*
D03*
X186567D02*
D03*
X176784D02*
D03*
Y293640D02*
D03*
X278442Y153751D02*
D03*
X268340D02*
D03*
X323098Y319745D02*
D03*
X271550Y375667D02*
D03*
Y386332D02*
D03*
X324525Y380930D02*
D03*
Y375047D02*
D03*
X290332Y386993D02*
D03*
X336760Y377109D02*
D03*
X449551Y374365D02*
D03*
X262401Y170824D02*
D03*
X45080Y280924D02*
D03*
X33119D02*
D03*
X596285Y215646D02*
D03*
X661273Y327105D02*
D03*
X739569Y339920D02*
D03*
X199220Y306972D02*
D03*
X144272Y254672D02*
D03*
X134830Y182479D02*
D03*
X132864Y267891D02*
D03*
X187826Y315365D02*
D03*
X237351Y256166D02*
D03*
X584454Y254254D02*
D03*
X614544Y190661D02*
D03*
X614542Y178194D02*
D03*
X608840Y164505D02*
D03*
X597916Y164846D02*
D03*
X664464Y5334D02*
D03*
X689610Y5080D02*
D03*
X637286D02*
D03*
X681015Y281901D02*
D03*
X249660Y122044D02*
D03*
X249642Y134116D02*
D03*
X701274Y105493D02*
D03*
X676594Y105493D02*
D03*
X688882Y105795D02*
D03*
X695800Y166276D02*
D03*
Y182720D02*
D03*
X663704Y229881D02*
D03*
X629623Y270577D02*
D03*
X679356Y166276D02*
D03*
X687578Y174498D02*
D03*
X767472Y231220D02*
D03*
X892302Y71397D02*
D03*
Y54610D02*
D03*
X864362D02*
D03*
X836168Y70104D02*
D03*
Y54610D02*
D03*
X665372Y311387D02*
D03*
X689562Y324357D02*
D03*
X795092Y124714D02*
D03*
X627919Y65082D02*
D03*
X617982Y30850D02*
D03*
X761367Y88595D02*
D03*
X739083Y98191D02*
D03*
X640833Y255459D02*
D03*
X651761Y229878D02*
D03*
X717806Y313380D02*
D03*
X708877D02*
D03*
X772172Y333140D02*
D03*
X689079Y392938D02*
D03*
X711615D02*
D03*
X734822D02*
D03*
X755142D02*
D03*
Y384048D02*
D03*
X587122Y374650D02*
D03*
X597918D02*
D03*
X576326D02*
D03*
X257505Y219669D02*
D03*
X257506Y207728D02*
D03*
X370855Y34155D02*
D03*
X223266Y37720D02*
D03*
Y53720D02*
D03*
Y69342D02*
D03*
X144272Y222448D02*
D03*
Y188722D02*
D03*
X84101Y96637D02*
D03*
X241786Y330304D02*
D03*
X237352Y244226D02*
D03*
X384164Y333285D02*
D03*
X337659Y368148D02*
D03*
X310186Y357886D02*
D03*
X283210Y340222D02*
D03*
X296682Y348830D02*
D03*
X310186Y340222D02*
D03*
X283210Y357886D02*
D03*
X249044Y377915D02*
D03*
X161791Y320627D02*
D03*
Y371935D02*
D03*
X170549Y94847D02*
D03*
X190541Y94872D02*
D03*
X315322Y235445D02*
D03*
X596285Y227996D02*
D03*
X325823Y245986D02*
D03*
X572962Y113696D02*
D03*
X698882Y122795D02*
D03*
X396722Y139257D02*
D03*
X612446Y151128D02*
D03*
X575549Y310134D02*
D03*
X675924Y140460D02*
D03*
X684530Y56134D02*
D03*
X366568Y349148D02*
D03*
X442620Y349223D02*
D03*
M02*
