M48
;Layer_Color=9474304
;FILE_FORMAT=4:4
METRIC,LZ
;TYPE=PLATED
T01F00S00C0.2000
T02F00S00C0.3000
T04F00S00C0.7000
T05F00S00C0.9000
T06F00S00C0.9144
T07F00S00C1.0000
T09F00S00C1.2000
T10F00S00C3.0000
%
T01
X00277145Y00059561
Y00064561
Y00069561
X00282145
X00287145
X00292145
Y00064561
Y00059561
X00287145
Y00064561
X00282145
Y00059561
X00297145
Y00064561
Y00069561
T02
X0007817Y00089261
X00093074Y00113284
X00151182Y00086948
X00228197Y00094748
X00226361Y00069814
X00226267Y0005372
Y0003772
X00249875Y00019358
X0026035Y00019447
X00265957Y00041805
X00249749Y00069814
X00272895Y00118049
X00295681Y00098577
X00352006Y00113048
Y00119886
X00376667Y00110226
X00394538Y00101091
X00394462Y00088296
X00397313Y00075802
X00373634Y0007239
Y00062738
Y00053086
X0038481Y00043434
X0037211Y00011684
X0034646Y00007192
X00305474Y00007665
X00373365Y00084189
X00440182Y00089662
X00482092Y00073914
X00529252Y00073862
X00538904
X0051624Y00138796
X0050224
X00394716Y00139192
X00241274Y00139811
X00548556Y00073862
X00558208
X00597291Y0007535
X00612132Y00073778
X00623626
X00635121
X00641313Y00066267
X00629622Y00092796
X00617834
X00619876Y00109196
Y00118196
X00641006Y00116586
X00649986Y00113284
X00676438Y00139143
X00689807Y00134
X0072544Y00124984
X00725551Y00115951
X00757809Y00122682
X00757428Y00084582
X00823934Y00080172
X00904876Y00096774
X00904749Y00108712
X00641059Y00026899
X00641313Y00007511
X00641462Y00156411
X00632968Y00163672
X0061722Y00170034
X00611484Y0017715
X00604012Y00183896
X00621228Y0019808
X00604012Y00219796
X00569994Y002159
X00570546Y00164284
X00554748Y00158513
X00544576Y00174498
X0059174Y00253196
X00634721Y00251205
X00644398
X0064131Y00261108
X00671068Y00260858
X00649784Y00291566
X00620784Y00288584
X00604792Y00298704
X00604774Y00309337
X00599948Y00321564
Y0033669
X00599814Y00370402
X0058801Y00390906
X00578358
X00568706
X00559054
X00636091Y00392307
X00638947Y00357564
X00676652Y00341135
X00691896Y00390906
X00701548
X007112
X00720852
X00725395Y00303558
Y00292737
X00758602Y00294967
X00761458Y00308003
X00753965Y00319843
X00743474Y00249539
X00733806Y00238506
X00743733Y00227239
X00723684Y0021082
Y0020196
X00676544Y00202934
Y0018808
X0066179Y0018809
Y0020308
X00682986Y00147636
X00705451Y00163439
X00764333Y00152962
X0077194Y00175233
X00799846Y0018161
Y00191262
Y00200914
Y00210566
X00788686Y0023496
X00780145Y00243294
X00723684Y00256276
X0070794Y00243766
X00810627Y00290798
X0057674Y00288584
X00472572Y0029083
Y00303717
X00472655Y00315769
X00434518Y00320071
X00425748Y00318414
X00415848Y00327183
Y0033512
X00425865Y00344589
X00447548Y0034012
X00406015Y00365097
X0040513Y0038735
X0038045Y00330601
X00350589Y00342199
X00331491Y0032069
X00313543Y00318683
X00287782Y00305571
X00255247Y00312127
X00246155Y00318658
X00233172Y00312127
X00226295Y00285411
X00241Y00274417
X00236758Y00266439
X00239594Y00259697
X00258304Y00224597
X00284846Y00236917
Y00247524
X00303897
X00303276Y00236917
X00331545Y00259096
X00345821Y00286998
X00376072Y00289992
X00374888Y00280162
Y0027051
Y00260858
Y00251206
X00378508Y00240596
X00420624Y00240273
Y00227584
X0045224Y00240273
Y00202596
X00394716Y00177546
X00393603Y00164053
X00366754Y00170341
X00314882Y00185058
X0027531Y00173067
X00265658
X0025804Y00146733
X00197353Y00219753
X00187447
X00175599Y00250362
X00185008Y0031469
X00284175Y00342228
X00399288Y00281939
X00409702Y00289992
X00517906Y0022733
X00536702Y00184404
X0051624Y00166796
X0050224
X0050924Y00159796
X0050224Y00152796
X0049524Y00159796
Y00145796
X0050924
X0052324
Y00159796
X0051624Y00152796
X00128524Y00148844
X00128272Y00183007
X00138686Y00179579
Y00224789
X00128267Y00222505
X00095805Y00237519
X00101346Y00283844
X00112776
X00076453Y00278638
X00065023
X00064899Y00145796
X00055247
X00045595
X00035943
X00095793Y00173537
T04
X0007493Y00176631
X00074935Y00234431
T05
X00894082Y00129806
Y00152706
X00883082Y00174906
Y00195306
Y00215706
Y00236106
X00872082Y00225906
Y00205506
Y00185106
Y00164706
X00894082Y00248106
Y00271006
T06
X00021082Y0030446
X00041082
X00053082Y0032796
Y0034796
X00041082Y0037146
X00021082
T07
X00029169Y00068084
Y00113284
T09
X00054068Y00055734
Y00125834
T10
X0011372Y0005372
X00946281
X00946281Y00346281
X0011372Y00346281
M30
