G04*
G04 #@! TF.GenerationSoftware,Altium Limited,Altium Designer,25.6.2 (33)*
G04*
G04 Layer_Color=16711935*
%FSLAX44Y44*%
%MOMM*%
G71*
G04*
G04 #@! TF.SameCoordinates,74A0C76D-BA1E-4C2F-91DF-59A38CA8629C*
G04*
G04*
G04 #@! TF.FilePolarity,Negative*
G04*
G01*
G75*
%ADD118C,1.5300*%
%ADD119C,1.2300*%
%ADD120C,1.7272*%
%ADD121C,1.4000*%
%ADD122C,0.5032*%
%ADD123O,3.1000X1.6000*%
%ADD124C,5.0300*%
%ADD125C,0.7300*%
%ADD126O,2.3032X1.1032*%
%ADD127O,2.0032X1.1032*%
%ADD184C,0.6000*%
D118*
X54068Y125834D02*
D03*
Y55734D02*
D03*
D119*
X29169Y113284D02*
D03*
Y68084D02*
D03*
D120*
X21083Y304460D02*
D03*
X41083D02*
D03*
X21083Y371460D02*
D03*
X41083D02*
D03*
X53082Y327960D02*
D03*
Y347960D02*
D03*
D121*
X883082Y236106D02*
D03*
X872082Y185106D02*
D03*
Y225906D02*
D03*
X883082Y215706D02*
D03*
X872082Y205506D02*
D03*
X883082Y195306D02*
D03*
Y174906D02*
D03*
X872082Y164706D02*
D03*
X894082Y271006D02*
D03*
Y248106D02*
D03*
Y152706D02*
D03*
Y129806D02*
D03*
D122*
X297145Y69561D02*
D03*
Y64561D02*
D03*
Y59561D02*
D03*
X292145Y69561D02*
D03*
Y64561D02*
D03*
Y59561D02*
D03*
X287145Y69561D02*
D03*
Y64561D02*
D03*
Y59561D02*
D03*
X282145Y69561D02*
D03*
Y64561D02*
D03*
Y59561D02*
D03*
X277145Y69561D02*
D03*
Y64561D02*
D03*
Y59561D02*
D03*
D123*
X948082Y280406D02*
D03*
Y120406D02*
D03*
D124*
X946281Y346281D02*
D03*
X946281Y53720D02*
D03*
X113720Y346281D02*
D03*
Y53720D02*
D03*
D125*
X74930Y176631D02*
D03*
X74935Y234431D02*
D03*
D126*
X80528Y162331D02*
D03*
Y248729D02*
D03*
D127*
X38730Y162331D02*
D03*
Y248729D02*
D03*
D184*
X576740Y288584D02*
D03*
X604792Y298704D02*
D03*
X604774Y309337D02*
D03*
X599948Y336690D02*
D03*
Y321564D02*
D03*
X620784Y288584D02*
D03*
X649784Y291566D02*
D03*
X671068Y260858D02*
D03*
X676544Y188080D02*
D03*
Y202934D02*
D03*
X384810Y43434D02*
D03*
X397313Y75802D02*
D03*
X440182Y89662D02*
D03*
X799846Y181610D02*
D03*
Y191262D02*
D03*
Y200914D02*
D03*
Y210566D02*
D03*
X373634Y72390D02*
D03*
Y62738D02*
D03*
Y53086D02*
D03*
X64899Y145796D02*
D03*
X55247D02*
D03*
X45595D02*
D03*
X35943D02*
D03*
X275310Y173067D02*
D03*
X265658D02*
D03*
X374888Y251206D02*
D03*
Y260858D02*
D03*
Y270510D02*
D03*
Y280162D02*
D03*
X529252Y73862D02*
D03*
X538904D02*
D03*
X548556D02*
D03*
X558208D02*
D03*
X691896Y390906D02*
D03*
X701548D02*
D03*
X711200D02*
D03*
X720852D02*
D03*
X588010D02*
D03*
X578358D02*
D03*
X568706D02*
D03*
X559054D02*
D03*
X265957Y41805D02*
D03*
X78170Y89261D02*
D03*
X249749Y69814D02*
D03*
X226267Y37720D02*
D03*
Y53720D02*
D03*
X226361Y69814D02*
D03*
X272895Y118049D02*
D03*
X226295Y285411D02*
D03*
X185008Y314690D02*
D03*
X233172Y312127D02*
D03*
X249875Y19358D02*
D03*
X345821Y286998D02*
D03*
X287782Y305571D02*
D03*
X313543Y318683D02*
D03*
X246155Y318658D02*
D03*
X352006Y113048D02*
D03*
Y119886D02*
D03*
X757809Y122682D02*
D03*
X771940Y175233D02*
D03*
X764333Y152962D02*
D03*
X723684Y201960D02*
D03*
Y210820D02*
D03*
Y256276D02*
D03*
X743474Y249539D02*
D03*
X733806Y238506D02*
D03*
X780145Y243294D02*
D03*
X743733Y227239D02*
D03*
X788686Y234960D02*
D03*
X707940Y243766D02*
D03*
X758602Y294967D02*
D03*
X705451Y163439D02*
D03*
X376667Y110226D02*
D03*
X239594Y259697D02*
D03*
X241000Y274417D02*
D03*
X366754Y170341D02*
D03*
X725440Y124984D02*
D03*
X725551Y115951D02*
D03*
X810627Y290798D02*
D03*
X636091Y392307D02*
D03*
X346460Y7192D02*
D03*
X305474Y7665D02*
D03*
X372110Y11684D02*
D03*
X260350Y19447D02*
D03*
X380450Y330601D02*
D03*
X331545Y259096D02*
D03*
X228197Y94748D02*
D03*
X641313Y7511D02*
D03*
X635121Y73778D02*
D03*
X623626D02*
D03*
X612132D02*
D03*
X641313Y66267D02*
D03*
X641059Y26899D02*
D03*
X757428Y84582D02*
D03*
X823934Y80172D02*
D03*
X904749Y108712D02*
D03*
X904876Y96774D02*
D03*
X676652Y341135D02*
D03*
X753965Y319843D02*
D03*
X761458Y308003D02*
D03*
X621228Y198080D02*
D03*
X634721Y251205D02*
D03*
X644398D02*
D03*
X641310Y261108D02*
D03*
X599814Y370402D02*
D03*
X472572Y290830D02*
D03*
Y303717D02*
D03*
X472655Y315769D02*
D03*
X425865Y344589D02*
D03*
X406015Y365097D02*
D03*
X405130Y387350D02*
D03*
X425748Y318414D02*
D03*
X434518Y320071D02*
D03*
X399288Y281939D02*
D03*
X314882Y185058D02*
D03*
X258304Y224597D02*
D03*
X175599Y250362D02*
D03*
X197353Y219753D02*
D03*
X187447D02*
D03*
X236758Y266439D02*
D03*
X373365Y84189D02*
D03*
X295681Y98577D02*
D03*
X151182Y86948D02*
D03*
X93074Y113284D02*
D03*
X138686Y224789D02*
D03*
X128267Y222505D02*
D03*
X138686Y179579D02*
D03*
X128272Y183007D02*
D03*
X95793Y173537D02*
D03*
X95805Y237519D02*
D03*
X112776Y283844D02*
D03*
X101346D02*
D03*
X76453Y278638D02*
D03*
X65023D02*
D03*
X241274Y139811D02*
D03*
X258040Y146733D02*
D03*
X255247Y312127D02*
D03*
X331491Y320690D02*
D03*
X649986Y113284D02*
D03*
X641006Y116586D02*
D03*
X452240Y240273D02*
D03*
X591740Y253196D02*
D03*
X409702Y289992D02*
D03*
X303897Y247524D02*
D03*
X303276Y236917D02*
D03*
X284846D02*
D03*
Y247524D02*
D03*
X415848Y327183D02*
D03*
Y335120D02*
D03*
X376072Y289992D02*
D03*
X597291Y75350D02*
D03*
X482092Y73914D02*
D03*
X517906Y227330D02*
D03*
X641462Y156411D02*
D03*
X544576Y174498D02*
D03*
X536702Y184404D02*
D03*
X452240Y202596D02*
D03*
X554748Y158513D02*
D03*
X570546Y164284D02*
D03*
X447548Y340120D02*
D03*
X420624Y227584D02*
D03*
X350589Y342199D02*
D03*
X284175Y342228D02*
D03*
X604012Y219796D02*
D03*
X393603Y164053D02*
D03*
X394538Y101091D02*
D03*
X128524Y148844D02*
D03*
X378508Y240596D02*
D03*
X420624Y240273D02*
D03*
X632968Y163672D02*
D03*
X682986Y147636D02*
D03*
X638947Y357564D02*
D03*
X617220Y170034D02*
D03*
X611484Y177150D02*
D03*
X604012Y183896D02*
D03*
X629622Y92796D02*
D03*
X617834D02*
D03*
X619876Y109196D02*
D03*
Y118196D02*
D03*
X661790Y188090D02*
D03*
Y203080D02*
D03*
X689807Y134000D02*
D03*
X676438Y139143D02*
D03*
X725395Y292737D02*
D03*
Y303558D02*
D03*
X394462Y88296D02*
D03*
X394716Y139192D02*
D03*
X569994Y215900D02*
D03*
X394716Y177546D02*
D03*
M02*
