G04*
G04 #@! TF.GenerationSoftware,Altium Limited,Altium Designer,25.6.2 (33)*
G04*
G04 Layer_Physical_Order=1*
G04 Layer_Color=255*
%FSLAX44Y44*%
%MOMM*%
G71*
G04*
G04 #@! TF.SameCoordinates,74A0C76D-BA1E-4C2F-91DF-59A38CA8629C*
G04*
G04*
G04 #@! TF.FilePolarity,Positive*
G04*
G01*
G75*
%ADD11C,0.2540*%
%ADD17C,0.1778*%
%ADD32R,1.6000X1.0000*%
%ADD33R,1.2000X1.4000*%
%ADD34R,0.8890X0.7620*%
%ADD35R,0.4572X0.6350*%
%ADD36R,0.2393X0.9611*%
G04:AMPARAMS|DCode=37|XSize=0.9611mm|YSize=0.2393mm|CornerRadius=0.1196mm|HoleSize=0mm|Usage=FLASHONLY|Rotation=270.000|XOffset=0mm|YOffset=0mm|HoleType=Round|Shape=RoundedRectangle|*
%AMROUNDEDRECTD37*
21,1,0.9611,0.0000,0,0,270.0*
21,1,0.7218,0.2393,0,0,270.0*
1,1,0.2393,0.0000,-0.3609*
1,1,0.2393,0.0000,0.3609*
1,1,0.2393,0.0000,0.3609*
1,1,0.2393,0.0000,-0.3609*
%
%ADD37ROUNDEDRECTD37*%
G04:AMPARAMS|DCode=38|XSize=0.2393mm|YSize=0.9611mm|CornerRadius=0.1196mm|HoleSize=0mm|Usage=FLASHONLY|Rotation=270.000|XOffset=0mm|YOffset=0mm|HoleType=Round|Shape=RoundedRectangle|*
%AMROUNDEDRECTD38*
21,1,0.2393,0.7218,0,0,270.0*
21,1,0.0000,0.9611,0,0,270.0*
1,1,0.2393,-0.3609,0.0000*
1,1,0.2393,-0.3609,0.0000*
1,1,0.2393,0.3609,0.0000*
1,1,0.2393,0.3609,0.0000*
%
%ADD38ROUNDEDRECTD38*%
%ADD39R,1.6700X0.7600*%
%ADD40R,1.7780X1.5240*%
%ADD41R,0.6350X0.4572*%
%ADD42R,1.5240X1.7780*%
%ADD43R,0.3800X0.7300*%
%ADD44R,0.8200X0.9200*%
%ADD45R,0.2400X0.2000*%
%ADD46R,1.4617X0.5588*%
%ADD47R,1.7200X0.8200*%
%ADD48R,0.9000X0.9000*%
%ADD49R,0.9000X1.5000*%
%ADD50R,1.5000X0.9000*%
%ADD51R,0.7620X0.8890*%
%ADD52R,1.0000X3.8000*%
%ADD53R,0.9000X0.8000*%
%ADD54R,0.6000X1.2000*%
%ADD55R,3.3000X2.4000*%
%ADD56R,0.6200X1.2200*%
%ADD57R,1.0160X1.5240*%
%ADD58R,0.9200X0.8200*%
%ADD59R,1.5240X1.0160*%
%ADD60R,2.8000X1.5000*%
%ADD61R,0.2400X0.6000*%
%ADD62R,0.7000X0.3000*%
%ADD63R,0.8000X1.3800*%
%ADD64R,1.8200X1.4000*%
%ADD65R,0.7000X0.6000*%
%ADD66R,2.2000X0.6500*%
%ADD67R,1.2700X1.0160*%
%ADD68R,1.4000X1.4000*%
%ADD69R,1.4000X1.8200*%
%ADD70R,1.0000X1.7000*%
%ADD71R,1.5000X3.4000*%
%ADD79R,2.6000X2.6000*%
%ADD128R,1.1500X0.6000*%
%ADD129R,1.1500X0.3000*%
%ADD130C,0.3810*%
%ADD131C,0.2413*%
%ADD132C,0.2032*%
%ADD133C,0.5080*%
%ADD134R,2.3814X0.8797*%
%ADD135R,0.6000X1.2113*%
%ADD136R,1.7698X1.5298*%
%ADD137R,2.8620X0.4953*%
%ADD138R,3.2385X0.6350*%
%ADD139R,1.7780X2.4130*%
%ADD140R,1.6764X0.4572*%
%ADD141R,4.2611X1.0400*%
%ADD142R,0.6096X1.4732*%
%ADD143R,2.3213X0.4572*%
%ADD144R,6.7328X0.4572*%
%ADD145R,3.2216X0.4889*%
%ADD146R,2.2050X0.3000*%
%ADD147R,0.4758X2.1694*%
%ADD148R,0.7000X1.5194*%
%ADD149R,0.4574X1.7528*%
%ADD150R,0.6350X1.5533*%
%ADD151R,2.3194X0.8000*%
%ADD152R,2.2555X0.8000*%
%ADD153R,0.4699X1.8288*%
%ADD154R,5.6134X0.4572*%
%ADD155R,0.7400X0.6000*%
%ADD156R,0.4572X1.8034*%
%ADD157R,2.2571X0.5005*%
%ADD158R,3.1320X0.6500*%
%ADD159R,3.4749X1.1695*%
%ADD160R,0.4572X1.9258*%
%ADD161R,1.9553X0.7620*%
%ADD162R,0.6350X4.4027*%
%ADD163R,4.9642X0.3888*%
%ADD164R,0.5080X1.8038*%
%ADD165R,2.0406X1.7148*%
%ADD166R,0.6000X2.3843*%
%ADD167R,0.6000X2.3845*%
%ADD168R,1.6510X0.4572*%
%ADD169R,1.7415X0.6350*%
%ADD170R,0.8890X2.2860*%
%ADD171R,2.7671X1.4000*%
%ADD172R,1.4000X4.1008*%
%ADD173R,1.3950X4.0233*%
%ADD174R,1.8681X1.7590*%
%ADD175R,0.9000X8.6400*%
%ADD176R,4.6300X0.9000*%
%ADD177R,1.3889X0.4302*%
%ADD178R,1.3889X0.4234*%
%ADD179C,1.5000*%
%ADD180C,1.2000*%
%ADD181C,1.5240*%
%ADD182C,1.3000*%
%ADD183C,0.3000*%
%ADD184C,0.6000*%
%ADD185O,3.0000X1.5000*%
%ADD186C,5.0000*%
%ADD187C,0.7000*%
%ADD188O,2.1000X0.9000*%
%ADD189O,1.8000X0.9000*%
G36*
X989753Y396612D02*
X991603Y395846D01*
X993267Y394734D01*
X994682Y393319D01*
X995794Y391655D01*
X996560Y389805D01*
X996950Y387843D01*
Y386842D01*
Y273304D01*
X962716D01*
X962161Y274574D01*
X963243Y275983D01*
X964126Y278116D01*
X964428Y280406D01*
X964126Y282695D01*
X963243Y284829D01*
X961837Y286661D01*
X960005Y288067D01*
X957871Y288950D01*
X955582Y289252D01*
X940582D01*
X938293Y288950D01*
X936159Y288067D01*
X934327Y286661D01*
X932922Y284829D01*
X932038Y282695D01*
X931736Y280406D01*
X932038Y278116D01*
X932922Y275983D01*
X934003Y274574D01*
X933448Y273304D01*
X906805D01*
Y281301D01*
X906628Y282193D01*
X906122Y282949D01*
X885671Y303400D01*
X884915Y303905D01*
X884023Y304083D01*
X876046D01*
Y306197D01*
X868934D01*
Y297307D01*
X876046D01*
Y299421D01*
X883057D01*
X902143Y280335D01*
Y275123D01*
X900873Y274783D01*
X900299Y275777D01*
X898853Y277223D01*
X897081Y278246D01*
X896413Y278426D01*
Y282647D01*
X896235Y283539D01*
X895730Y284295D01*
X888055Y291970D01*
X887299Y292475D01*
X886407Y292653D01*
X875919D01*
Y294767D01*
X868807D01*
Y285877D01*
X875919D01*
Y287991D01*
X885442D01*
X891751Y281682D01*
Y278426D01*
X891083Y278246D01*
X889311Y277223D01*
X887864Y275777D01*
X886841Y274005D01*
X886312Y272029D01*
Y269983D01*
X886841Y268007D01*
X887864Y266235D01*
X889311Y264788D01*
X891083Y263766D01*
X893059Y263236D01*
X895105D01*
X897081Y263766D01*
X898853Y264788D01*
X900299Y266235D01*
X900873Y267229D01*
X902143Y266889D01*
Y252223D01*
X900873Y251882D01*
X900299Y252877D01*
X898853Y254323D01*
X897081Y255346D01*
X895105Y255876D01*
X893059D01*
X891083Y255346D01*
X889311Y254323D01*
X887864Y252877D01*
X886841Y251105D01*
X886312Y249129D01*
Y247083D01*
X886841Y245107D01*
X887476Y244007D01*
X886546Y243078D01*
X886081Y243346D01*
X884105Y243876D01*
X882059D01*
X880083Y243346D01*
X879658Y243101D01*
X869513Y253245D01*
X868694Y253793D01*
X867728Y253985D01*
X854402D01*
Y256530D01*
X835162D01*
Y246390D01*
X854402D01*
Y248935D01*
X866682D01*
X876087Y239530D01*
X875842Y239105D01*
X875312Y237129D01*
Y235083D01*
X875526Y234284D01*
X874472Y233309D01*
X873105Y233676D01*
X871059D01*
X869083Y233146D01*
X867311Y232124D01*
X865864Y230677D01*
X864842Y228905D01*
X864715Y228431D01*
X854402D01*
Y231130D01*
X837832D01*
X837346Y232303D01*
X838733Y233690D01*
X854402D01*
Y243830D01*
X835162D01*
Y237261D01*
X809142Y211241D01*
X808595Y210422D01*
X808403Y209456D01*
Y136017D01*
X806483D01*
Y128905D01*
X815373D01*
Y136017D01*
X813453D01*
Y208410D01*
X833989Y228946D01*
X835162Y228460D01*
Y220990D01*
X854402D01*
Y223381D01*
X864715D01*
X864842Y222907D01*
X865864Y221135D01*
X867311Y219688D01*
X867636Y219501D01*
X867526Y218568D01*
X867344Y218203D01*
X866519Y218039D01*
X865700Y217491D01*
X857497Y209287D01*
X856949Y208468D01*
X856757Y207502D01*
Y192652D01*
X855672Y191567D01*
X854402Y192093D01*
Y193030D01*
X835162D01*
Y182890D01*
X854402D01*
Y185435D01*
X855636D01*
X856602Y185627D01*
X857421Y186175D01*
X861067Y189820D01*
X861615Y190640D01*
X861807Y191606D01*
Y206456D01*
X863406Y208055D01*
X864545Y207398D01*
X864312Y206529D01*
Y204483D01*
X864842Y202507D01*
X865864Y200735D01*
X867311Y199288D01*
X869083Y198265D01*
X871059Y197736D01*
X873105D01*
X874472Y198102D01*
X875526Y197128D01*
X875312Y196329D01*
Y194283D01*
X875526Y193484D01*
X874472Y192509D01*
X873105Y192876D01*
X871059D01*
X869083Y192346D01*
X867311Y191324D01*
X865864Y189877D01*
X864842Y188105D01*
X864312Y186129D01*
Y184083D01*
X864842Y182107D01*
X865864Y180335D01*
X866515Y179684D01*
X855270Y168439D01*
X854402Y167630D01*
Y167630D01*
X854402Y167630D01*
X837832D01*
X837346Y168803D01*
X838733Y170190D01*
X854402D01*
Y180330D01*
X835162D01*
Y173761D01*
X822445Y161043D01*
X821897Y160224D01*
X821705Y159258D01*
Y136017D01*
X819785D01*
Y128905D01*
X828675D01*
Y136017D01*
X826755D01*
Y158212D01*
X833989Y165446D01*
X835162Y164960D01*
Y157490D01*
X854402D01*
Y162166D01*
X855094D01*
X856060Y162358D01*
X856879Y162906D01*
X871309Y177336D01*
X873105D01*
X874472Y177702D01*
X875526Y176728D01*
X875312Y175929D01*
Y173883D01*
X875526Y173084D01*
X874472Y172110D01*
X873105Y172476D01*
X871059D01*
X869083Y171946D01*
X867311Y170924D01*
X865864Y169477D01*
X864842Y167705D01*
X864312Y165729D01*
Y163683D01*
X864842Y161707D01*
X865187Y161108D01*
X846329Y142249D01*
X845824Y141493D01*
X845647Y140601D01*
Y136017D01*
X843532D01*
Y128905D01*
X852422D01*
Y136017D01*
X850308D01*
Y139636D01*
X868484Y157811D01*
X869083Y157465D01*
X871059Y156936D01*
X873105D01*
X875081Y157465D01*
X876853Y158488D01*
X878299Y159935D01*
X879322Y161707D01*
X879852Y163683D01*
Y165729D01*
X879638Y166528D01*
X880692Y167502D01*
X882059Y167136D01*
X884105D01*
X886081Y167665D01*
X887853Y168688D01*
X889299Y170135D01*
X890322Y171907D01*
X890481Y172499D01*
X891751Y172332D01*
Y170076D01*
X859928Y138253D01*
X859423Y137497D01*
X859245Y136605D01*
Y136017D01*
X856267D01*
Y128905D01*
X865157D01*
Y136017D01*
X865157Y136017D01*
X865157D01*
X865469Y137202D01*
X895730Y167463D01*
X896235Y168219D01*
X896413Y169111D01*
Y185510D01*
X896235Y186402D01*
X895730Y187158D01*
X890377Y192511D01*
X890852Y194283D01*
Y196329D01*
X890322Y198305D01*
X889299Y200077D01*
X887853Y201523D01*
X886081Y202546D01*
X884105Y203076D01*
X882059D01*
X880692Y202709D01*
X879638Y203684D01*
X879852Y204483D01*
Y206529D01*
X879638Y207328D01*
X880692Y208302D01*
X882059Y207936D01*
X884105D01*
X886081Y208465D01*
X887853Y209488D01*
X889299Y210935D01*
X890322Y212707D01*
X890852Y214683D01*
Y216729D01*
X890322Y218705D01*
X889299Y220477D01*
X887853Y221923D01*
X886081Y222946D01*
X884105Y223476D01*
X882059D01*
X880692Y223109D01*
X879638Y224084D01*
X879852Y224883D01*
Y226929D01*
X879638Y227728D01*
X880692Y228702D01*
X882059Y228336D01*
X884105D01*
X886081Y228865D01*
X887853Y229888D01*
X889299Y231335D01*
X890322Y233107D01*
X890852Y235083D01*
Y237129D01*
X890322Y239105D01*
X889688Y240204D01*
X890617Y241134D01*
X891083Y240865D01*
X893059Y240336D01*
X895105D01*
X897081Y240865D01*
X898853Y241888D01*
X900299Y243335D01*
X900873Y244329D01*
X902143Y243989D01*
Y164064D01*
X897680Y159600D01*
X897081Y159946D01*
X895105Y160476D01*
X893059D01*
X891083Y159946D01*
X889311Y158924D01*
X887864Y157477D01*
X886841Y155705D01*
X886312Y153729D01*
Y151683D01*
X886841Y149707D01*
X887864Y147935D01*
X889311Y146488D01*
X891083Y145465D01*
X893059Y144936D01*
X895105D01*
X897081Y145465D01*
X898853Y146488D01*
X900299Y147935D01*
X901322Y149707D01*
X901700Y151116D01*
X902970Y150949D01*
Y137477D01*
X901700Y137224D01*
X901554Y137577D01*
X900582Y137979D01*
X887678D01*
X886706Y137577D01*
X886706Y137577D01*
X853738Y104609D01*
X853335Y103637D01*
X853335Y103637D01*
Y67415D01*
X799062D01*
Y114808D01*
X798659Y115780D01*
X797687Y116183D01*
X775833D01*
X774861Y115780D01*
X774458Y114808D01*
Y107353D01*
X774341Y107071D01*
X774341Y107071D01*
Y73511D01*
X745722D01*
Y120523D01*
X745617Y120776D01*
Y121793D01*
X744600D01*
X744347Y121898D01*
X732514D01*
Y134000D01*
X732111Y134972D01*
X731139Y135375D01*
X707390D01*
X706418Y134972D01*
X706015Y134000D01*
Y56134D01*
X706418Y55162D01*
X707390Y54759D01*
X867410D01*
X868382Y55162D01*
X868785Y56134D01*
Y98237D01*
X892236Y121688D01*
X900582D01*
X901554Y122091D01*
X901956Y123063D01*
Y129963D01*
X903226Y130326D01*
X905283Y128270D01*
X934338D01*
X934769Y127000D01*
X934327Y126661D01*
X932922Y124829D01*
X932056Y122740D01*
X922143D01*
X920904Y122493D01*
X919854Y121792D01*
X917064Y119002D01*
X916362Y117952D01*
X916116Y116713D01*
Y113157D01*
X915797D01*
Y112140D01*
X915692Y111887D01*
Y93599D01*
X915924Y93040D01*
Y92329D01*
X916814D01*
X917067Y92224D01*
X921766D01*
X922019Y92329D01*
X923036D01*
Y93346D01*
X923141Y93599D01*
Y111887D01*
X922909Y112446D01*
Y113157D01*
X922590D01*
Y115372D01*
X923484Y116265D01*
X932805D01*
X932922Y115983D01*
X934327Y114151D01*
X936159Y112746D01*
X938293Y111862D01*
X940582Y111560D01*
X955582D01*
X957871Y111862D01*
X960005Y112746D01*
X961837Y114151D01*
X963243Y115983D01*
X964126Y118117D01*
X964428Y120406D01*
X964126Y122696D01*
X963243Y124829D01*
X961837Y126661D01*
X961395Y127000D01*
X961826Y128270D01*
X997458D01*
Y13716D01*
Y12615D01*
X997029Y10456D01*
X996186Y8422D01*
X994963Y6592D01*
X993406Y5035D01*
X991576Y3812D01*
X989542Y2970D01*
X987383Y2540D01*
X591820D01*
X590550Y3810D01*
Y60960D01*
X587508Y64002D01*
X499509D01*
X499023Y65176D01*
X532318Y98471D01*
X575470D01*
Y95336D01*
X575470Y95226D01*
Y94066D01*
X575470Y93956D01*
Y82526D01*
X593010D01*
Y84721D01*
X651568D01*
X651821Y84826D01*
X652838D01*
Y85843D01*
X652943Y86096D01*
Y96496D01*
X653447Y97063D01*
X654319Y96342D01*
Y83375D01*
X653049Y82468D01*
X652838Y82540D01*
Y82540D01*
X643948D01*
Y75428D01*
X646149D01*
Y56327D01*
X645758Y55219D01*
X644487D01*
X644234Y55324D01*
X638138D01*
X637886Y55219D01*
X636868D01*
Y54202D01*
X636764Y53949D01*
Y45164D01*
X630892D01*
Y46881D01*
X611152D01*
Y36141D01*
X630892D01*
Y37843D01*
X644234D01*
X644487Y37947D01*
X645504D01*
Y38965D01*
X645609Y39217D01*
Y48107D01*
X645758D01*
Y49138D01*
X647261D01*
X648227Y49330D01*
X649046Y49878D01*
X650460Y51291D01*
X651007Y52110D01*
X651199Y53077D01*
Y75428D01*
X652838D01*
Y76459D01*
X654558D01*
X655524Y76651D01*
X656343Y77199D01*
X658629Y79485D01*
X659177Y80304D01*
X659369Y81270D01*
Y98552D01*
X659177Y99518D01*
X658629Y100337D01*
X657337Y101630D01*
X657863Y102900D01*
X666123D01*
X666123Y102900D01*
X667095Y103303D01*
X667095Y103303D01*
X671105Y107313D01*
X671508Y108285D01*
X671508Y108285D01*
Y136570D01*
X672778Y136822D01*
X672818Y136724D01*
X674020Y135523D01*
X675589Y134873D01*
X677288D01*
X678857Y135523D01*
X680058Y136724D01*
X680708Y138293D01*
Y139992D01*
X680058Y141561D01*
X678857Y142763D01*
X678765Y142801D01*
Y144023D01*
X680035Y144549D01*
X680568Y144016D01*
X682137Y143366D01*
X683836D01*
X685405Y144016D01*
X686488Y145099D01*
X687040Y145026D01*
X687758Y144710D01*
Y137773D01*
X687389Y137620D01*
X686187Y136419D01*
X685537Y134850D01*
Y133151D01*
X686187Y131581D01*
X687389Y130380D01*
X688958Y129730D01*
X690657D01*
X692226Y130380D01*
X693427Y131581D01*
X694077Y133151D01*
Y134850D01*
X693427Y136419D01*
X692808Y137038D01*
Y155454D01*
X692616Y156420D01*
X692068Y157239D01*
X684315Y164993D01*
Y175825D01*
X684305Y175876D01*
Y179434D01*
X684292Y179498D01*
X685372Y180578D01*
X685436Y180565D01*
X687437D01*
Y179667D01*
X687629Y178701D01*
X688176Y177882D01*
X701353Y164705D01*
X701181Y164288D01*
Y162589D01*
X701831Y161020D01*
X703032Y159819D01*
X704601Y159169D01*
X706300D01*
X707869Y159819D01*
X709071Y161020D01*
X709263Y161485D01*
X710533Y161233D01*
Y148566D01*
X710725Y147600D01*
X711273Y146781D01*
X720012Y138042D01*
X720831Y137494D01*
X721797Y137302D01*
X774354D01*
X775320Y137494D01*
X776139Y138042D01*
X788043Y149945D01*
X788590Y150764D01*
X788782Y151730D01*
Y230515D01*
X788957Y230690D01*
X789535D01*
X791104Y231340D01*
X792305Y232541D01*
X792955Y234111D01*
Y235809D01*
X792305Y237379D01*
X791104Y238580D01*
X789535Y239230D01*
X787836D01*
X786267Y238580D01*
X785066Y237379D01*
X784477Y235957D01*
X784106Y235700D01*
X783146Y235359D01*
X782671Y235708D01*
Y239780D01*
X783765Y240875D01*
X784416Y242444D01*
Y244143D01*
X783765Y245712D01*
X782564Y246914D01*
X780995Y247564D01*
X779296D01*
X777727Y246914D01*
X776526Y245712D01*
X775875Y244143D01*
Y242444D01*
X776526Y240875D01*
X777620Y239780D01*
Y233959D01*
X777813Y232993D01*
X778360Y232174D01*
X780049Y230485D01*
Y154302D01*
X771783Y146035D01*
X749299D01*
Y150606D01*
X760687D01*
X760713Y150543D01*
X761914Y149342D01*
X763483Y148692D01*
X765182D01*
X766751Y149342D01*
X767953Y150543D01*
X768603Y152113D01*
Y153812D01*
X767953Y155381D01*
X767114Y156220D01*
X767626Y157490D01*
X769102D01*
Y167630D01*
X753433D01*
X752143Y168920D01*
X752669Y170190D01*
X769102D01*
Y170412D01*
X770372Y171261D01*
X771090Y170963D01*
X772789D01*
X774359Y171613D01*
X775560Y172814D01*
X776210Y174384D01*
Y176082D01*
X775560Y177652D01*
X774359Y178853D01*
X772789Y179503D01*
X771090D01*
X770372Y179205D01*
X769102Y180054D01*
Y180330D01*
X752669D01*
X752143Y181600D01*
X753433Y182890D01*
X769102D01*
Y193030D01*
X749862D01*
Y190388D01*
X743584D01*
X742617Y190196D01*
X742357Y190022D01*
X737869D01*
Y184301D01*
X736695Y183815D01*
X726492Y194019D01*
X727302Y195005D01*
X727417Y194928D01*
X728383Y194736D01*
X743584D01*
X744550Y194928D01*
X744810Y195102D01*
X749299Y195102D01*
X750367Y195590D01*
X750569Y195590D01*
X769102D01*
Y205730D01*
X750375D01*
X749862Y205730D01*
X748786Y205262D01*
X748592Y205262D01*
X737869D01*
Y199786D01*
X729429D01*
X727954Y201261D01*
Y202809D01*
X727304Y204379D01*
X726103Y205580D01*
X725807Y205703D01*
Y207077D01*
X726103Y207200D01*
X727304Y208401D01*
X727954Y209971D01*
Y211519D01*
X729429Y212994D01*
X737869D01*
Y207518D01*
X748912D01*
X749299Y207518D01*
X750249Y208290D01*
X750569Y208290D01*
X769102D01*
Y218430D01*
X750257D01*
X749862Y218430D01*
X748904Y217678D01*
X748592Y217678D01*
X744810D01*
X744550Y217852D01*
X743584Y218044D01*
X728383D01*
X727417Y217852D01*
X726598Y217304D01*
X724384Y215090D01*
X722835D01*
X721266Y214440D01*
X720065Y213239D01*
X719415Y211669D01*
Y209971D01*
X720065Y208401D01*
X721266Y207200D01*
X721562Y207077D01*
Y205703D01*
X721266Y205580D01*
X720065Y204379D01*
X719415Y202809D01*
X718145Y202366D01*
X716304Y204207D01*
X715485Y204754D01*
X714519Y204946D01*
X696124D01*
X695441Y205403D01*
X695266Y205438D01*
X695249Y205455D01*
X694784Y206828D01*
X694978Y207118D01*
X695169Y208080D01*
X694978Y209042D01*
X694432Y209858D01*
X693745Y210318D01*
Y211870D01*
X707202Y225328D01*
X712521D01*
Y232440D01*
X703631D01*
Y228899D01*
X689434Y214701D01*
X688887Y213882D01*
X688695Y212916D01*
Y210595D01*
X685436D01*
X684256Y211655D01*
Y218589D01*
X684310Y218856D01*
X684329Y218885D01*
X684521Y219851D01*
Y242399D01*
X695780Y253659D01*
X720263D01*
X721266Y252656D01*
X722835Y252006D01*
X724534D01*
X726103Y252656D01*
X727234Y253786D01*
X728185D01*
X729151Y253979D01*
X729970Y254526D01*
X736599Y261155D01*
X737869Y260803D01*
Y258816D01*
X749299D01*
Y268976D01*
X737869D01*
Y266454D01*
X735802D01*
X734836Y266261D01*
X734016Y265714D01*
X727151Y258848D01*
X726103Y259896D01*
X724534Y260546D01*
X722835D01*
X721266Y259896D01*
X720079Y258709D01*
X694734D01*
X693768Y258516D01*
X692949Y257969D01*
X681297Y246317D01*
X679936Y246752D01*
X679846Y247286D01*
X703303Y270743D01*
X861552D01*
X862518Y270935D01*
X863337Y271483D01*
X864750Y272896D01*
X865298Y273715D01*
X865490Y274681D01*
Y285877D01*
X866521D01*
Y294767D01*
X859409D01*
Y285877D01*
X860440D01*
Y275793D01*
X857431D01*
X856819Y277063D01*
X857043Y277398D01*
X857235Y278365D01*
Y297412D01*
X858266Y298443D01*
X859536Y297917D01*
Y297307D01*
X866648D01*
Y306197D01*
X859536D01*
Y304277D01*
X858004D01*
X857037Y304085D01*
X856218Y303537D01*
X852925Y300244D01*
X852377Y299425D01*
X852185Y298458D01*
Y279476D01*
X782798D01*
X781812Y280162D01*
X781812Y281179D01*
X781917Y281432D01*
Y299212D01*
X781812Y299465D01*
Y300482D01*
X780795D01*
X780542Y300587D01*
X765302D01*
X765049Y300482D01*
X764032D01*
Y299698D01*
X748157D01*
X747904Y299593D01*
X746887D01*
Y298576D01*
X746782Y298323D01*
Y291973D01*
X746887Y291720D01*
Y290703D01*
X747904D01*
X748157Y290598D01*
X763927D01*
Y281432D01*
X764032Y281179D01*
X764032Y280162D01*
X763046Y279476D01*
X744113D01*
X743708Y280746D01*
X744303Y281341D01*
X744706Y282313D01*
X744706Y282313D01*
Y301497D01*
X745496Y302288D01*
X746092D01*
Y303305D01*
X746197Y303558D01*
X746197Y303558D01*
Y313493D01*
X746197Y313493D01*
X745794Y314465D01*
X745794Y314465D01*
X743022Y317237D01*
Y323018D01*
X742917Y323270D01*
Y324288D01*
X741900D01*
X741647Y324392D01*
X737075D01*
X736823Y324288D01*
X735805D01*
Y323270D01*
X735701Y323018D01*
Y308111D01*
X694226D01*
X693973Y308007D01*
X692956D01*
Y306989D01*
X692851Y306737D01*
Y283176D01*
X692851Y283176D01*
X693254Y282204D01*
X693254Y282204D01*
X694998Y280460D01*
X695883Y280093D01*
X696040Y279697D01*
X696215Y278787D01*
X696139Y278736D01*
X676219Y258816D01*
X675142Y259536D01*
X675338Y260009D01*
Y261707D01*
X674688Y263277D01*
X673487Y264478D01*
X671917Y265128D01*
X670219D01*
X670142Y265096D01*
X669737Y265352D01*
X669137Y266054D01*
X669272Y266733D01*
Y294067D01*
X674016D01*
Y310607D01*
X659477D01*
Y294067D01*
X664221D01*
Y267779D01*
X663265Y266823D01*
X656676D01*
Y255393D01*
X659265D01*
Y251968D01*
X657345D01*
Y244856D01*
X666235D01*
Y251968D01*
X664315D01*
Y255393D01*
X666836D01*
Y257255D01*
X668106Y257781D01*
X668649Y257238D01*
X670219Y256588D01*
X671917D01*
X672390Y256784D01*
X673110Y255707D01*
X670005Y252602D01*
X669457Y251783D01*
X669265Y250817D01*
Y221784D01*
X667995Y221105D01*
X667752Y221268D01*
X666790Y221459D01*
X665828Y221268D01*
X665585Y221105D01*
X664315Y221784D01*
Y235458D01*
X666235D01*
Y242570D01*
X657345D01*
Y235458D01*
X659265D01*
Y227990D01*
X657995Y227464D01*
X648843Y236616D01*
Y240157D01*
X639953D01*
Y239126D01*
X638317D01*
Y240157D01*
X629427D01*
Y233045D01*
X638317D01*
Y234076D01*
X639953D01*
Y233045D01*
X645272D01*
X654265Y224052D01*
Y215335D01*
X654275Y215284D01*
Y211726D01*
X654288Y211662D01*
X653208Y210582D01*
X653144Y210595D01*
X649586D01*
X649535Y210605D01*
X637585D01*
X635077Y213113D01*
X634258Y213661D01*
X633292Y213853D01*
X602084D01*
X601118Y213661D01*
X600299Y213113D01*
X594183Y206998D01*
X593010Y207484D01*
Y208256D01*
X593010Y208366D01*
Y209526D01*
X593010Y209636D01*
Y220956D01*
X593010Y221066D01*
Y222226D01*
X593010Y222336D01*
Y233656D01*
X593010Y233766D01*
Y234926D01*
X593010Y235036D01*
Y246466D01*
X575470D01*
Y243221D01*
X547067D01*
X546910Y244426D01*
X546910Y244491D01*
Y261966D01*
X548107Y262143D01*
X601487D01*
Y223310D01*
X600392Y222215D01*
X599742Y220645D01*
Y218947D01*
X600392Y217377D01*
X601593Y216176D01*
X603163Y215526D01*
X604861D01*
X606431Y216176D01*
X607632Y217377D01*
X608282Y218947D01*
Y220645D01*
X607632Y222215D01*
X606537Y223310D01*
Y263255D01*
X606345Y264221D01*
X605797Y265040D01*
X604837Y266000D01*
X605363Y267270D01*
X624618D01*
X625584Y267462D01*
X626403Y268010D01*
X633737Y275344D01*
X634285Y276163D01*
X634477Y277129D01*
Y317470D01*
X638909Y321903D01*
X642477D01*
Y316067D01*
X657017D01*
Y332607D01*
X652272D01*
Y334089D01*
X656793Y338610D01*
X658492D01*
Y336690D01*
X665603D01*
Y345580D01*
X658492D01*
Y343660D01*
X655747D01*
X654780Y343468D01*
X653961Y342921D01*
X647961Y336921D01*
X647414Y336101D01*
X647222Y335135D01*
Y332607D01*
X642477D01*
Y326953D01*
X637864D01*
X636897Y326760D01*
X636078Y326213D01*
X630167Y320301D01*
X629619Y319482D01*
X629427Y318516D01*
Y278175D01*
X623572Y272320D01*
X586236D01*
X586150Y272431D01*
X585771Y273590D01*
X592365Y280184D01*
X592913Y281004D01*
X593105Y281970D01*
Y345592D01*
X599602Y352089D01*
X629622D01*
X629874Y352194D01*
X630892D01*
Y353211D01*
X630996Y353464D01*
Y355039D01*
X635434D01*
X636529Y353944D01*
X638098Y353294D01*
X639797D01*
X641366Y353944D01*
X642567Y355145D01*
X643217Y356715D01*
Y358413D01*
X642567Y359983D01*
X641366Y361184D01*
X639797Y361834D01*
X638098D01*
X636529Y361184D01*
X635434Y360089D01*
X630892D01*
Y362934D01*
X611152D01*
Y359727D01*
X597406D01*
X596505Y359354D01*
X595369D01*
Y354998D01*
X588794Y348423D01*
X588247Y347604D01*
X588055Y346638D01*
Y283016D01*
X582646Y277607D01*
X572137D01*
X571611Y278877D01*
X577048Y284314D01*
X577589D01*
X579159Y284964D01*
X580360Y286166D01*
X581010Y287735D01*
Y289434D01*
X580360Y291003D01*
X579159Y292204D01*
X577589Y292854D01*
X575891D01*
X574321Y292204D01*
X573120Y291003D01*
X572470Y289434D01*
Y288892D01*
X567408Y283830D01*
X518947D01*
Y323666D01*
X518544Y324638D01*
X518544Y324638D01*
X507090Y336092D01*
X506118Y336495D01*
X506118Y336495D01*
X451757D01*
X451168Y337701D01*
X451818Y339271D01*
Y340969D01*
X451168Y342539D01*
X450073Y343634D01*
Y373126D01*
X449881Y374092D01*
X449333Y374911D01*
X442983Y381261D01*
X442164Y381809D01*
X441198Y382001D01*
X406693D01*
X406441Y383271D01*
X407549Y383730D01*
X408750Y384931D01*
X409400Y386501D01*
Y388199D01*
X408750Y389769D01*
X407549Y390970D01*
X405979Y391620D01*
X404281D01*
X402711Y390970D01*
X401616Y389875D01*
X376174D01*
X375208Y389683D01*
X374389Y389135D01*
X346680Y361427D01*
X301244D01*
X300278Y361235D01*
X299459Y360687D01*
X295761Y356990D01*
X295214Y356171D01*
X295021Y355205D01*
Y330604D01*
X293200Y328782D01*
X288620D01*
Y329813D01*
X280466D01*
X279252Y331027D01*
X279976Y332099D01*
X280898Y332099D01*
X288620D01*
Y339211D01*
X288620D01*
X288074Y340481D01*
X288445Y341379D01*
Y343032D01*
X289444D01*
Y354772D01*
X278704D01*
Y343032D01*
X279905D01*
Y341379D01*
X280277Y340481D01*
X279730Y339211D01*
X279730D01*
Y333343D01*
X279730Y332345D01*
X278658Y331621D01*
X272647Y337632D01*
X271828Y338180D01*
X270861Y338372D01*
X270030D01*
Y343032D01*
X270444D01*
Y354772D01*
X259704D01*
Y353933D01*
X241880D01*
X241627Y353828D01*
X240610D01*
Y352811D01*
X240505Y352558D01*
Y344558D01*
X240610Y344305D01*
Y343288D01*
X241627D01*
X241880Y343183D01*
X259704D01*
Y343032D01*
X260931D01*
Y333629D01*
X261035Y333376D01*
Y332359D01*
X262053D01*
X262305Y332254D01*
X268655D01*
X268692Y332270D01*
X269925Y332359D01*
D01*
X271065Y332072D01*
X277651Y325486D01*
X278470Y324939D01*
X279436Y324747D01*
X279730D01*
Y322701D01*
X288620D01*
Y323732D01*
X294245D01*
X295212Y323924D01*
X296031Y324472D01*
X299332Y327772D01*
X299879Y328592D01*
X300072Y329558D01*
Y354159D01*
X302290Y356377D01*
X347726D01*
X348692Y356569D01*
X349511Y357117D01*
X355534Y363139D01*
X356704Y362514D01*
X356646Y362219D01*
Y355717D01*
X355861Y354772D01*
X355376Y354772D01*
X345121D01*
Y343032D01*
X346319D01*
Y341350D01*
X346704Y340420D01*
X346144Y339150D01*
X346144D01*
Y332038D01*
X355034D01*
Y339150D01*
X355034D01*
X354473Y340420D01*
X354859Y341350D01*
Y342134D01*
X355027Y342302D01*
X355737Y342376D01*
X356646Y341610D01*
Y328721D01*
X355034D01*
Y329752D01*
X346144D01*
X346144Y329752D01*
Y329752D01*
X345211Y330476D01*
X338675Y337012D01*
X337855Y337560D01*
X336889Y337752D01*
X336040D01*
Y343032D01*
X336861D01*
Y354772D01*
X326121D01*
Y353933D01*
X308936D01*
X308683Y353828D01*
X307666D01*
Y352811D01*
X307561Y352558D01*
Y344558D01*
X307666Y344305D01*
Y343288D01*
X308683D01*
X308936Y343183D01*
X326121D01*
Y343032D01*
X326941D01*
Y333369D01*
X327046Y333116D01*
Y332099D01*
X328063D01*
X328316Y331994D01*
X334666D01*
X334703Y332010D01*
X335936Y332099D01*
X336993Y331552D01*
X343592Y324953D01*
X344411Y324406D01*
X345378Y324213D01*
X346144D01*
Y322640D01*
X355034D01*
Y323671D01*
X357757D01*
X358724Y323863D01*
X359543Y324410D01*
X360956Y325824D01*
X361504Y326643D01*
X361613Y327192D01*
X362883Y327067D01*
Y298829D01*
X356767Y292714D01*
X339470Y292713D01*
X338999Y292517D01*
X338498Y292310D01*
X338498Y292310D01*
X338498Y292310D01*
X338291Y291810D01*
X338096Y291338D01*
Y285662D01*
X335121Y282687D01*
X310422D01*
X309450Y282285D01*
X309047Y281312D01*
Y265209D01*
X309151Y264956D01*
Y263939D01*
X310169D01*
X310422Y263834D01*
X316422D01*
X316674Y263939D01*
X317691D01*
Y264535D01*
X323196Y270039D01*
X338200D01*
Y270017D01*
X339218D01*
X339470Y269912D01*
X339470Y269912D01*
X339470Y269912D01*
X359171Y269912D01*
X360143Y270315D01*
X360546Y271287D01*
Y284523D01*
X370283Y294260D01*
X370686Y295232D01*
X370686Y295233D01*
Y311033D01*
X371955Y311544D01*
X373684Y309816D01*
X374503Y309268D01*
X375469Y309076D01*
X376732D01*
Y307156D01*
X377763D01*
Y294824D01*
X376921Y294262D01*
X375223D01*
X373653Y293612D01*
X372452Y292411D01*
X371802Y290841D01*
Y289142D01*
X372452Y287573D01*
X373653Y286372D01*
X375223Y285722D01*
X376921D01*
X378491Y286372D01*
X379692Y287573D01*
X380298Y289036D01*
X381463Y290201D01*
X382733Y289675D01*
Y244205D01*
X381463Y243679D01*
X380927Y244216D01*
X379357Y244866D01*
X377659D01*
X376089Y244216D01*
X374888Y243014D01*
X374238Y241445D01*
Y239746D01*
X374888Y238177D01*
X375983Y237082D01*
Y149395D01*
X369431Y142842D01*
X329509D01*
X328983Y144112D01*
X330816Y145944D01*
X331363Y146764D01*
X331555Y147730D01*
Y150986D01*
X332453Y151884D01*
X334160Y151884D01*
X334527Y151884D01*
X335797Y151539D01*
Y148203D01*
X335989Y147236D01*
X336537Y146417D01*
X337950Y145004D01*
X338769Y144457D01*
X339736Y144264D01*
X361192D01*
X362159Y144457D01*
X362978Y145004D01*
X365266Y147293D01*
X365814Y148112D01*
X366006Y149078D01*
Y150999D01*
X367926D01*
Y158111D01*
X359036D01*
Y150999D01*
X359036D01*
X359646Y149729D01*
X359358Y149314D01*
X340847D01*
Y150986D01*
X341745Y151884D01*
X343660Y151884D01*
X344170Y151884D01*
X352400D01*
Y166624D01*
X350555D01*
Y168910D01*
X350363Y169876D01*
X349815Y170695D01*
X348385Y172126D01*
X347565Y172674D01*
X346599Y172866D01*
X328797D01*
X328442Y173510D01*
X328335Y174136D01*
X329595Y175396D01*
X330143Y176215D01*
X330335Y177181D01*
Y177186D01*
X331233Y178084D01*
X334160Y178084D01*
X334670Y178084D01*
X342390D01*
X343660Y178084D01*
X344170Y178084D01*
X352400D01*
Y192824D01*
X344170D01*
X343660Y192824D01*
X342753Y193701D01*
Y203492D01*
X342488Y204132D01*
Y232729D01*
X348441Y238682D01*
X349283Y239942D01*
X349579Y241429D01*
Y249697D01*
X353441D01*
Y262397D01*
X338200D01*
Y249697D01*
X341809D01*
Y243038D01*
X335856Y237085D01*
X335014Y235825D01*
X334719Y234338D01*
Y200410D01*
X334700Y200317D01*
X334924Y199191D01*
Y193722D01*
X334026Y192824D01*
X333745D01*
X332847Y193722D01*
Y203492D01*
X332743Y203744D01*
Y204762D01*
X331725D01*
X331473Y204866D01*
X326901D01*
X326648Y204762D01*
X325631D01*
Y203744D01*
X325526Y203492D01*
Y192824D01*
X324660D01*
Y178293D01*
X304546D01*
Y192428D01*
X295806D01*
Y192428D01*
X295046D01*
Y192428D01*
X286306D01*
Y177688D01*
X289767D01*
Y177181D01*
X289960Y176215D01*
X290507Y175396D01*
X291920Y173983D01*
X292740Y173435D01*
X293706Y173243D01*
X309572D01*
X309927Y172600D01*
X310034Y171973D01*
X307891Y169830D01*
X307343Y169011D01*
X307151Y168044D01*
Y167126D01*
X306253Y166228D01*
X304546Y166228D01*
X304036Y166228D01*
X296316D01*
X295046Y166228D01*
X294536Y166228D01*
X286306D01*
Y151488D01*
X288151D01*
Y150154D01*
X288343Y149188D01*
X288891Y148369D01*
X293147Y144112D01*
X292621Y142842D01*
X285327D01*
X271889Y156281D01*
X271069Y156828D01*
X270103Y157021D01*
X250736D01*
X249770Y156828D01*
X248951Y156281D01*
X241753Y149083D01*
X237502D01*
Y156972D01*
X225152D01*
X224607Y157788D01*
X223995Y158401D01*
X223243Y159258D01*
X223995Y160115D01*
X224607Y160728D01*
X225152Y161544D01*
X237502D01*
Y169672D01*
X220345D01*
Y164264D01*
X220296Y164021D01*
Y163624D01*
X213707D01*
X207884Y169448D01*
Y196280D01*
X207692Y197246D01*
X207145Y198065D01*
X199399Y205811D01*
X198580Y206358D01*
X197614Y206551D01*
X151591D01*
X150742Y207820D01*
X150775Y207899D01*
Y212133D01*
X150670Y212385D01*
Y213403D01*
X149653D01*
X149400Y213507D01*
X143131D01*
Y213741D01*
X134241D01*
Y212385D01*
X134136Y212133D01*
Y207899D01*
X134192Y207764D01*
Y207169D01*
X133574Y206551D01*
X128087D01*
X126814Y207824D01*
X126616Y207956D01*
Y212452D01*
X119504D01*
Y203562D01*
X123895D01*
X123943Y203552D01*
X124836Y202660D01*
X124783Y202128D01*
X123945Y201290D01*
X123897Y201280D01*
X119505D01*
Y192390D01*
X126617D01*
Y196886D01*
X126815Y197018D01*
X127615Y197817D01*
X133574D01*
X134192Y197199D01*
Y196508D01*
X134176Y196469D01*
Y192167D01*
X134241Y192011D01*
Y190627D01*
X143131D01*
Y190792D01*
X149440D01*
X149693Y190897D01*
X150710D01*
Y191914D01*
X150815Y192167D01*
Y196469D01*
X150782Y196548D01*
X151631Y197817D01*
X195042D01*
X199151Y193709D01*
Y166877D01*
X199343Y165910D01*
X199891Y165091D01*
X209351Y155631D01*
X210170Y155084D01*
X211136Y154892D01*
X220296D01*
Y154495D01*
X220345Y154252D01*
Y149083D01*
X211136D01*
X210170Y148891D01*
X209351Y148343D01*
X197539Y136532D01*
X183007D01*
Y144272D01*
X165850D01*
Y142733D01*
X144290D01*
Y144976D01*
X137950D01*
Y144976D01*
X137790D01*
Y144976D01*
X132491D01*
X131965Y146246D01*
X132144Y146425D01*
X132794Y147995D01*
Y149693D01*
X132144Y151263D01*
X130943Y152464D01*
X129373Y153114D01*
X127675D01*
X126105Y152464D01*
X124904Y151263D01*
X124254Y149693D01*
Y147995D01*
X124904Y146425D01*
X125083Y146246D01*
X124950Y144976D01*
X124950D01*
Y135136D01*
X131290Y135136D01*
X132095Y134199D01*
Y133502D01*
X126334Y127741D01*
X125787Y126922D01*
X125599Y125976D01*
X124950D01*
Y116136D01*
X125595D01*
Y112009D01*
X125787Y111043D01*
X126334Y110224D01*
X128235Y108324D01*
X128829Y107926D01*
X128696Y106856D01*
X128618Y106656D01*
X85580D01*
X85327Y106551D01*
X84310D01*
Y105534D01*
X84205Y105281D01*
Y98931D01*
X84310Y98679D01*
Y97661D01*
X85327D01*
X85580Y97557D01*
X147673D01*
X148480Y97891D01*
X181689D01*
X182058Y98044D01*
X183007D01*
Y99061D01*
X183112Y99314D01*
X183112Y99314D01*
Y100036D01*
X184117Y100708D01*
X219215Y135806D01*
X220345Y136144D01*
X220345Y136144D01*
Y136144D01*
X220345Y136144D01*
X237502D01*
Y136144D01*
X238772Y136275D01*
X238855Y136192D01*
X240424Y135541D01*
X242123D01*
X243692Y136192D01*
X243815Y136314D01*
X245085Y135872D01*
Y135872D01*
X252197D01*
Y144762D01*
X246370D01*
X245844Y146032D01*
X251782Y151971D01*
X269057D01*
X281096Y139932D01*
X280609Y138759D01*
X265824D01*
X264858Y138567D01*
X264039Y138019D01*
X243353Y117333D01*
X237502D01*
Y118872D01*
X220345D01*
Y110983D01*
X218128D01*
X215187Y113924D01*
Y122189D01*
X217951Y124954D01*
X220345D01*
Y123444D01*
X237502D01*
Y131572D01*
X220345D01*
Y130004D01*
X216905D01*
X215939Y129811D01*
X215120Y129264D01*
X210876Y125020D01*
X210329Y124201D01*
X210137Y123235D01*
Y112878D01*
X210329Y111912D01*
X210876Y111093D01*
X215296Y106672D01*
X216116Y106125D01*
X217082Y105933D01*
X245177D01*
X245703Y104663D01*
X230078Y89038D01*
X179461D01*
Y90958D01*
X172349D01*
Y82068D01*
X179461D01*
Y83988D01*
X231124D01*
X232091Y84180D01*
X232910Y84728D01*
X263706Y115524D01*
X269381D01*
X270476Y114429D01*
X272045Y113779D01*
X273744D01*
X275313Y114429D01*
X276515Y115630D01*
X277165Y117199D01*
Y118898D01*
X276515Y120467D01*
X275313Y121669D01*
X273744Y122319D01*
X272045D01*
X270476Y121669D01*
X269381Y120574D01*
X263274D01*
X262748Y121844D01*
X270285Y129381D01*
X292195D01*
X292722Y128111D01*
X232911Y68300D01*
X232363Y67481D01*
X232171Y66514D01*
Y34066D01*
X222982Y24877D01*
X215138D01*
Y26797D01*
X208026D01*
Y17907D01*
X215138D01*
Y19827D01*
X224028D01*
X224994Y20019D01*
X225813Y20567D01*
X236481Y31235D01*
X237029Y32054D01*
X237221Y33020D01*
Y65469D01*
X253477Y81724D01*
X254650Y81238D01*
Y72458D01*
X253380Y72206D01*
X253369Y72232D01*
X252168Y73433D01*
X250598Y74084D01*
X248900D01*
X247330Y73433D01*
X246129Y72232D01*
X245479Y70663D01*
Y69114D01*
X240094Y63729D01*
X239547Y62910D01*
X239354Y61944D01*
Y32002D01*
X223847Y16495D01*
X187149D01*
X181467Y22178D01*
X181269Y22310D01*
Y26806D01*
X174157D01*
Y17916D01*
X178549D01*
X178597Y17906D01*
X184318Y12185D01*
X184406Y12126D01*
X184021Y10856D01*
X14805D01*
X9161Y16499D01*
Y267960D01*
X37477Y296276D01*
X37652Y296176D01*
X39913Y295570D01*
X42253D01*
X44514Y296176D01*
X46542Y297346D01*
X48197Y299001D01*
X49367Y301028D01*
X49973Y303290D01*
Y305630D01*
X49367Y307891D01*
X48197Y309918D01*
X46542Y311574D01*
X44514Y312744D01*
X42253Y313350D01*
X39913D01*
X37652Y312744D01*
X35624Y311574D01*
X33969Y309918D01*
X32799Y307891D01*
X32193Y305630D01*
Y303290D01*
X32799Y301028D01*
X32899Y300854D01*
X4572Y272527D01*
X3302Y273053D01*
Y387300D01*
X3302Y388231D01*
X3665Y390056D01*
X4377Y391776D01*
X5411Y393323D01*
X6727Y394639D01*
X8274Y395673D01*
X9994Y396385D01*
X11819Y396748D01*
X12750Y396748D01*
X455930Y396748D01*
Y392684D01*
X455999Y391271D01*
X456551Y388500D01*
X457632Y385889D01*
X459202Y383539D01*
X461200Y381541D01*
X462296Y380809D01*
X461910Y379539D01*
X460302D01*
Y342999D01*
X477842D01*
Y378269D01*
X527302D01*
Y342999D01*
X544842D01*
Y379539D01*
X544730D01*
X544345Y380809D01*
X545911Y381856D01*
X548101Y384046D01*
X549822Y386622D01*
X551008Y389484D01*
X551612Y392522D01*
X551688Y394071D01*
X551688Y397002D01*
X987791D01*
X989753Y396612D01*
D02*
G37*
G36*
X402825Y367946D02*
X402395Y367516D01*
X401745Y365947D01*
Y364248D01*
X402395Y362679D01*
X403596Y361478D01*
X403684Y361441D01*
Y342860D01*
X402414Y342334D01*
X395478Y349271D01*
X394722Y349776D01*
X393830Y349954D01*
X393242D01*
Y352153D01*
X386130D01*
Y343263D01*
X386130D01*
X386128Y342153D01*
X386128D01*
X386128Y341994D01*
Y333263D01*
X393240D01*
Y333263D01*
X394400Y333744D01*
X395379Y332765D01*
X394853Y331495D01*
X387398D01*
X386426Y331092D01*
X386024Y330120D01*
Y327120D01*
Y308426D01*
X386130Y308169D01*
Y307156D01*
X387146D01*
X387355Y307069D01*
Y295909D01*
X384083Y292637D01*
X382813Y293163D01*
Y307156D01*
X383844D01*
Y316046D01*
X376732D01*
X375905Y316974D01*
Y342336D01*
X376732Y343263D01*
X383844D01*
Y352153D01*
X376732D01*
Y350233D01*
X374794D01*
X373827Y350041D01*
X373008Y349493D01*
X371955Y348441D01*
X370686Y348951D01*
Y358340D01*
X381561Y369216D01*
X402299D01*
X402825Y367946D01*
D02*
G37*
G36*
X435878Y364674D02*
Y336495D01*
X428853D01*
X428581Y336754D01*
X428144Y337702D01*
X428150Y337765D01*
X428332Y338679D01*
Y344295D01*
X428390Y344589D01*
X428198Y345555D01*
X427650Y346375D01*
X426831Y346922D01*
X425865Y347114D01*
X424899Y346922D01*
X424080Y346375D01*
X424021Y346316D01*
X423474Y345497D01*
X423282Y344531D01*
Y338914D01*
X423223Y338620D01*
X423393Y337765D01*
X423370Y337584D01*
X422662Y336495D01*
X422248D01*
X421995Y336390D01*
X420978D01*
Y335373D01*
X420873Y335120D01*
Y327120D01*
X420978Y326867D01*
Y325850D01*
X421995D01*
X422248Y325745D01*
X422662D01*
X423369Y324657D01*
X423393Y324475D01*
X423223Y323620D01*
Y318414D01*
X423415Y317447D01*
X423963Y316628D01*
X424782Y316081D01*
X425748Y315889D01*
X426714Y316081D01*
X427533Y316628D01*
X428081Y317447D01*
X428273Y318414D01*
Y323620D01*
X428103Y324475D01*
X428126Y324657D01*
X428834Y325745D01*
X501651D01*
X506197Y321199D01*
Y283830D01*
X414451D01*
X414209Y283782D01*
X412939Y284813D01*
Y287190D01*
X413322Y287573D01*
X413972Y289142D01*
Y290182D01*
X418836Y295047D01*
X419538Y296097D01*
X419784Y297335D01*
Y307156D01*
X420103D01*
Y316046D01*
X412991D01*
Y307156D01*
X413310D01*
Y298676D01*
X408895Y294262D01*
X408853D01*
X407283Y293612D01*
X406082Y292411D01*
X405432Y290841D01*
Y289142D01*
X406082Y287573D01*
X406465Y287190D01*
Y280289D01*
X405257D01*
Y273177D01*
X411203D01*
X411689Y272004D01*
X410681Y270996D01*
X396113D01*
X395860Y270891D01*
X394843D01*
Y269874D01*
X394738Y269621D01*
Y265049D01*
X394843Y264796D01*
Y263779D01*
X395860D01*
X396113Y263674D01*
X407177D01*
Y246466D01*
X400470D01*
Y235036D01*
X400470Y234926D01*
Y233766D01*
X400470Y233656D01*
Y222336D01*
X400470Y222226D01*
Y221066D01*
X400470Y220956D01*
Y209636D01*
X400470Y209526D01*
Y208366D01*
X400470Y208256D01*
Y204927D01*
X395523D01*
X392017Y208433D01*
Y286904D01*
X408797Y303684D01*
X409302Y304441D01*
X409480Y305333D01*
Y307065D01*
X409701Y307156D01*
X410705D01*
Y308142D01*
X410823Y308426D01*
Y323620D01*
X410718Y323873D01*
Y326867D01*
X410823Y327120D01*
Y330120D01*
X410718Y330373D01*
Y341390D01*
X408346D01*
Y361441D01*
X408434Y361478D01*
X409635Y362679D01*
X410285Y364248D01*
Y365947D01*
X409635Y367516D01*
X409206Y367946D01*
X409732Y369216D01*
X431336D01*
X435878Y364674D01*
D02*
G37*
G36*
X442708Y366897D02*
Y335120D01*
X506118D01*
X517572Y323666D01*
Y283830D01*
X507572D01*
Y321768D01*
X502220Y327120D01*
X422248D01*
Y335120D01*
X436289D01*
X436520Y335120D01*
X437256Y335856D01*
X437252Y335860D01*
X437252Y336087D01*
Y365255D01*
X437240D01*
X431905Y370590D01*
X380992D01*
X369311Y358909D01*
Y295232D01*
X359171Y285093D01*
Y271287D01*
X339470Y271287D01*
X339343Y271414D01*
X322626D01*
X316422Y265209D01*
X310422D01*
Y281312D01*
X335690D01*
X339470Y285093D01*
Y291338D01*
X357337Y291339D01*
X364359Y298362D01*
X364258Y298463D01*
Y360897D01*
X379042Y375681D01*
X433924D01*
X442708Y366897D01*
D02*
G37*
G36*
X401178Y323873D02*
X401073Y323620D01*
Y308426D01*
X401476Y307454D01*
X402448Y307052D01*
X403776D01*
X404302Y305781D01*
X393255Y294734D01*
X392888Y294797D01*
X392017Y295293D01*
Y307051D01*
X392156D01*
X392409Y307156D01*
X393242D01*
Y307729D01*
X393531Y308426D01*
Y325745D01*
X401178D01*
Y323873D01*
D02*
G37*
G36*
X741647Y316668D02*
X744822Y313493D01*
Y303558D01*
X743331Y302066D01*
Y282313D01*
X742450Y281432D01*
X695970D01*
X694226Y283176D01*
Y306737D01*
X737075D01*
Y323018D01*
X741647D01*
Y316668D01*
D02*
G37*
G36*
X540219Y266000D02*
X539259Y265040D01*
X538711Y264221D01*
X538519Y263255D01*
Y261966D01*
X535480D01*
X535370Y261966D01*
X534210D01*
X534100Y261966D01*
X522780D01*
X522670Y261966D01*
X521510D01*
X521400Y261966D01*
X510080D01*
X509970Y261966D01*
X508810D01*
X508700Y261966D01*
X497380D01*
X497270Y261966D01*
X496110D01*
X496000Y261966D01*
X484680D01*
X484570Y261966D01*
X483410D01*
X483300Y261966D01*
X471980D01*
X471870Y261966D01*
X470710D01*
X470600Y261966D01*
X459280D01*
X459170Y261966D01*
X458010D01*
X457900Y261966D01*
X446580D01*
X446470Y261966D01*
X445310D01*
X445200Y261966D01*
X433770D01*
Y244426D01*
X437657D01*
Y93176D01*
X436562Y92081D01*
X435912Y90511D01*
Y88813D01*
X436562Y87243D01*
X437657Y86148D01*
Y71515D01*
X436817Y70675D01*
X392382D01*
X387081Y75976D01*
Y116936D01*
X387195Y117041D01*
X388264Y117549D01*
X394197Y111616D01*
X395016Y111068D01*
X395983Y110876D01*
X400470D01*
Y108036D01*
X400470Y107926D01*
Y106766D01*
X400470Y106656D01*
Y103616D01*
X398052D01*
X396957Y104711D01*
X395388Y105361D01*
X393689D01*
X392120Y104711D01*
X390919Y103510D01*
X390269Y101940D01*
Y100242D01*
X390919Y98672D01*
X392120Y97471D01*
X393689Y96821D01*
X395388D01*
X396957Y97471D01*
X398052Y98566D01*
X400470D01*
Y95336D01*
X400470Y95226D01*
Y94066D01*
X400470Y93956D01*
Y90821D01*
X397976D01*
X396881Y91916D01*
X395311Y92566D01*
X393613D01*
X392043Y91916D01*
X390842Y90715D01*
X390192Y89145D01*
Y87447D01*
X390842Y85877D01*
X392043Y84676D01*
X393613Y84026D01*
X395311D01*
X396881Y84676D01*
X397976Y85771D01*
X400470D01*
Y82526D01*
X418010D01*
Y93956D01*
X418010Y94066D01*
Y95226D01*
X418010Y95336D01*
Y106656D01*
X418010Y106766D01*
Y107926D01*
X418010Y108036D01*
Y119466D01*
X418010D01*
Y120626D01*
X418010D01*
Y132056D01*
X418010Y132166D01*
Y133326D01*
X418010Y133436D01*
Y144756D01*
X418010Y144866D01*
Y146026D01*
X418010Y146136D01*
Y157456D01*
X418010Y157566D01*
Y158726D01*
X418010Y158836D01*
Y170156D01*
X418010Y170266D01*
Y171426D01*
X418010Y171536D01*
Y182856D01*
X418010Y182966D01*
Y184126D01*
X418010Y184236D01*
Y195666D01*
X418010D01*
Y196826D01*
X418010D01*
Y208256D01*
X418010Y208366D01*
Y209526D01*
X418010Y209636D01*
Y212771D01*
X423068D01*
X424034Y212963D01*
X424854Y213511D01*
X430283Y218941D01*
X430831Y219760D01*
X431023Y220726D01*
Y265350D01*
X432943Y267270D01*
X539693D01*
X540219Y266000D01*
D02*
G37*
G36*
X511579Y243156D02*
X510940Y243029D01*
X510121Y242481D01*
X472760Y205121D01*
X455754D01*
X454659Y206216D01*
X453089Y206866D01*
X451391D01*
X449821Y206216D01*
X448620Y205015D01*
X447970Y203445D01*
Y201747D01*
X448620Y200177D01*
X449821Y198976D01*
X451391Y198326D01*
X453089D01*
X454659Y198976D01*
X455754Y200071D01*
X473806D01*
X474772Y200263D01*
X475591Y200811D01*
X512952Y238171D01*
X575470D01*
Y235036D01*
X575470Y234926D01*
Y233766D01*
X575470Y233656D01*
Y229855D01*
X521420D01*
X520325Y230950D01*
X518755Y231600D01*
X517057D01*
X515487Y230950D01*
X514286Y229749D01*
X513636Y228179D01*
Y226481D01*
X514286Y224911D01*
X515487Y223710D01*
X517057Y223060D01*
X518755D01*
X520325Y223710D01*
X521420Y224805D01*
X575470D01*
Y222336D01*
X575470Y222226D01*
Y221066D01*
X575470Y220956D01*
Y218425D01*
X573507D01*
X572412Y219520D01*
X570843Y220170D01*
X569144D01*
X567575Y219520D01*
X566374Y218319D01*
X565723Y216749D01*
Y215051D01*
X566374Y213481D01*
X567575Y212280D01*
X569144Y211630D01*
X570843D01*
X572412Y212280D01*
X573507Y213375D01*
X575470D01*
Y209636D01*
X575470Y209526D01*
Y208366D01*
X575470Y208256D01*
Y196826D01*
X575470D01*
Y195666D01*
X575470D01*
Y184236D01*
X575470Y184126D01*
Y182966D01*
X575470Y182856D01*
Y179721D01*
X560958D01*
X546361Y194317D01*
X545542Y194865D01*
X544576Y195057D01*
X490728D01*
X489762Y194865D01*
X488943Y194317D01*
X480307Y185681D01*
X479759Y184862D01*
X479567Y183896D01*
Y77428D01*
X478472Y76333D01*
X477822Y74763D01*
Y73065D01*
X478472Y71495D01*
X479673Y70294D01*
X481243Y69644D01*
X482941D01*
X484511Y70294D01*
X485712Y71495D01*
X486362Y73065D01*
Y74763D01*
X485712Y76333D01*
X484617Y77428D01*
Y182850D01*
X491774Y190007D01*
X543530D01*
X558126Y175411D01*
X558946Y174863D01*
X559912Y174671D01*
X575470D01*
Y171536D01*
X575470Y171426D01*
Y170266D01*
X575470Y170156D01*
Y166809D01*
X574060D01*
X572965Y167903D01*
X571396Y168554D01*
X569697D01*
X568128Y167903D01*
X566927Y166702D01*
X566277Y165133D01*
Y163434D01*
X566927Y161865D01*
X568128Y160664D01*
X569697Y160014D01*
X571396D01*
X572965Y160664D01*
X574060Y161759D01*
X575470D01*
Y158836D01*
X575470Y158726D01*
Y157566D01*
X575470Y157456D01*
Y146136D01*
X575470Y146026D01*
Y144866D01*
X575470Y144756D01*
Y141269D01*
X564931D01*
X561296Y144904D01*
X560956Y145413D01*
X557079Y149290D01*
Y154857D01*
X557167Y154893D01*
X558368Y156095D01*
X559019Y157664D01*
Y159363D01*
X558368Y160932D01*
X557167Y162133D01*
X555598Y162783D01*
X553899D01*
X552330Y162133D01*
X551129Y160932D01*
X550479Y159363D01*
Y157664D01*
X551129Y156095D01*
X552330Y154893D01*
X552418Y154857D01*
Y148324D01*
X552595Y147432D01*
X553100Y146676D01*
X557320Y142457D01*
X557660Y141948D01*
X562318Y137290D01*
X563074Y136785D01*
X563966Y136607D01*
X575470D01*
Y133436D01*
X575470Y133326D01*
Y132166D01*
X575470Y132056D01*
Y129329D01*
X555556D01*
X547101Y137784D01*
Y170984D01*
X548196Y172079D01*
X548846Y173649D01*
Y175347D01*
X548196Y176917D01*
X546995Y178118D01*
X545425Y178768D01*
X543727D01*
X542157Y178118D01*
X540956Y176917D01*
X540306Y175347D01*
Y173649D01*
X540956Y172079D01*
X542051Y170984D01*
Y136738D01*
X542243Y135772D01*
X542791Y134953D01*
X552725Y125018D01*
X553544Y124471D01*
X554510Y124279D01*
X575470D01*
Y120736D01*
X575470Y120626D01*
Y119466D01*
X575470Y119356D01*
Y116027D01*
X546485D01*
X539033Y123479D01*
Y180748D01*
X539121Y180784D01*
X540322Y181985D01*
X540972Y183555D01*
Y185253D01*
X540322Y186823D01*
X539121Y188024D01*
X537551Y188674D01*
X535853D01*
X534283Y188024D01*
X533082Y186823D01*
X532432Y185253D01*
Y183555D01*
X533082Y181985D01*
X534283Y180784D01*
X534371Y180748D01*
Y122514D01*
X534549Y121622D01*
X535054Y120865D01*
X543871Y112048D01*
X544627Y111543D01*
X545519Y111365D01*
X575470D01*
Y108036D01*
X575470Y107926D01*
Y106766D01*
X575470Y106656D01*
Y103521D01*
X531272D01*
X530306Y103329D01*
X529487Y102781D01*
X493445Y66740D01*
X441683D01*
X441197Y67913D01*
X441968Y68684D01*
X442515Y69503D01*
X442707Y70469D01*
Y86148D01*
X443802Y87243D01*
X444452Y88813D01*
Y90511D01*
X443802Y92081D01*
X442707Y93176D01*
Y244426D01*
X445200D01*
X445310Y244426D01*
X446470D01*
X446580Y244426D01*
X448558D01*
X449085Y243156D01*
X448620Y242692D01*
X447970Y241122D01*
Y239424D01*
X448620Y237854D01*
X449821Y236653D01*
X451391Y236003D01*
X453089D01*
X454659Y236653D01*
X455860Y237854D01*
X456510Y239424D01*
Y241122D01*
X455860Y242692D01*
X455396Y243156D01*
X455922Y244426D01*
X457900D01*
X458010Y244426D01*
X459170D01*
X459280Y244426D01*
X470600D01*
X470710Y244426D01*
X471870D01*
X471980Y244426D01*
X483300D01*
X483410Y244426D01*
X484570D01*
X484680Y244426D01*
X496000D01*
X496110Y244426D01*
X497270D01*
X497380Y244426D01*
X508700D01*
X508810Y244426D01*
X509970D01*
X510080Y244426D01*
X511454D01*
X511579Y243156D01*
D02*
G37*
G36*
X429439Y272446D02*
X429818Y271287D01*
X426713Y268181D01*
X426165Y267362D01*
X425973Y266396D01*
Y241836D01*
X424703Y241583D01*
X424244Y242692D01*
X423043Y243893D01*
X421473Y244543D01*
X419775D01*
X419280Y244338D01*
X418010Y245187D01*
Y246466D01*
X412227D01*
Y263674D01*
X412877D01*
X413130Y263779D01*
X414147D01*
Y264796D01*
X414252Y265049D01*
Y267425D01*
X419384Y272557D01*
X429353D01*
X429439Y272446D01*
D02*
G37*
G36*
X675828Y209403D02*
X676790Y209212D01*
X677752Y209403D01*
X678054Y209604D01*
X679324Y209260D01*
Y209260D01*
X681861D01*
X682922Y208080D01*
X683113Y207118D01*
X683658Y206302D01*
Y204858D01*
X683113Y204042D01*
X682922Y203080D01*
X683113Y202118D01*
X683658Y201302D01*
Y199858D01*
X683113Y199042D01*
X682922Y198080D01*
X683113Y197118D01*
X683658Y196302D01*
Y194858D01*
X683113Y194042D01*
X682922Y193080D01*
X683113Y192118D01*
X683658Y191302D01*
Y189858D01*
X683113Y189042D01*
X682922Y188080D01*
X683113Y187118D01*
X683658Y186302D01*
Y184858D01*
X683113Y184042D01*
X682922Y183080D01*
X682934Y183016D01*
X681854Y181936D01*
X681790Y181948D01*
X680828Y181757D01*
X680012Y181212D01*
X678568D01*
X677752Y181757D01*
X676790Y181948D01*
X675828Y181757D01*
X675012Y181212D01*
X673568D01*
X672752Y181757D01*
X671790Y181948D01*
X670828Y181757D01*
X670012Y181212D01*
X668568D01*
X667752Y181757D01*
X666790Y181948D01*
X665828Y181757D01*
X665012Y181212D01*
X663568D01*
X662752Y181757D01*
X661790Y181948D01*
X660828Y181757D01*
X660012Y181212D01*
X658568D01*
X657752Y181757D01*
X656790Y181948D01*
X656726Y181936D01*
X655646Y183016D01*
X655658Y183080D01*
X655467Y184042D01*
X654922Y184858D01*
Y186302D01*
X655467Y187118D01*
X655658Y188080D01*
X655467Y189042D01*
X654922Y189858D01*
Y191302D01*
X655467Y192118D01*
X655658Y193080D01*
X655467Y194042D01*
X654922Y194858D01*
Y196302D01*
X655467Y197118D01*
X655658Y198080D01*
X655467Y199042D01*
X654922Y199858D01*
Y201302D01*
X655467Y202118D01*
X655658Y203080D01*
X655467Y204042D01*
X654922Y204858D01*
Y206302D01*
X655467Y207118D01*
X655658Y208080D01*
X655646Y208144D01*
X656726Y209224D01*
X656790Y209212D01*
X657752Y209403D01*
X658568Y209948D01*
X660012D01*
X660828Y209403D01*
X661790Y209212D01*
X662752Y209403D01*
X663568Y209948D01*
X665012D01*
X665828Y209403D01*
X666790Y209212D01*
X667752Y209403D01*
X668568Y209948D01*
X670012D01*
X670828Y209403D01*
X671790Y209212D01*
X672752Y209403D01*
X673568Y209948D01*
X675012D01*
X675828Y209403D01*
D02*
G37*
G36*
X631373Y194285D02*
X623509Y186421D01*
X607526D01*
X606431Y187516D01*
X604861Y188166D01*
X603163D01*
X602094Y187724D01*
X601375Y188800D01*
X608130Y195555D01*
X617715D01*
X618810Y194460D01*
X620379Y193810D01*
X622078D01*
X623647Y194460D01*
X624742Y195555D01*
X630847D01*
X631373Y194285D01*
D02*
G37*
G36*
X382733Y235960D02*
Y199390D01*
X382911Y198498D01*
X383416Y197742D01*
X392910Y188248D01*
X393666Y187743D01*
X394558Y187565D01*
X400470D01*
Y184236D01*
X400470Y184126D01*
Y182966D01*
X400470Y182856D01*
Y180071D01*
X398230D01*
X397135Y181166D01*
X395565Y181816D01*
X393867D01*
X392297Y181166D01*
X391096Y179965D01*
X390446Y178395D01*
Y176697D01*
X391096Y175127D01*
X392297Y173926D01*
X393867Y173276D01*
X395565D01*
X397135Y173926D01*
X398230Y175021D01*
X400470D01*
Y171536D01*
X400470Y171426D01*
Y170266D01*
X400470Y170156D01*
Y166578D01*
X397117D01*
X396022Y167673D01*
X394452Y168323D01*
X392754D01*
X391184Y167673D01*
X389983Y166472D01*
X389333Y164902D01*
Y163204D01*
X389983Y161634D01*
X391184Y160433D01*
X392754Y159783D01*
X394452D01*
X396022Y160433D01*
X397117Y161528D01*
X400470D01*
Y158836D01*
X400470Y158726D01*
Y157566D01*
X400470Y157456D01*
Y146136D01*
X400470Y146026D01*
Y144866D01*
X400470Y144756D01*
Y141717D01*
X398230D01*
X397135Y142812D01*
X395565Y143462D01*
X393867D01*
X392297Y142812D01*
X391096Y141611D01*
X390446Y140041D01*
Y138343D01*
X391096Y136773D01*
X392297Y135572D01*
X393867Y134922D01*
X395565D01*
X397135Y135572D01*
X398230Y136667D01*
X400470D01*
Y133436D01*
X400470Y133326D01*
Y132166D01*
X400470Y132056D01*
Y128757D01*
X389956D01*
X380693Y138019D01*
X379874Y138567D01*
X378908Y138759D01*
X374148D01*
X373662Y139932D01*
X380293Y146563D01*
X380841Y147383D01*
X381033Y148349D01*
Y236316D01*
X381463Y236619D01*
X382733Y235960D01*
D02*
G37*
G36*
X710533Y174584D02*
Y165645D01*
X709263Y165392D01*
X709071Y165858D01*
X707869Y167059D01*
X706300Y167709D01*
X705491D01*
X693718Y179482D01*
X693693Y179797D01*
X693990Y181006D01*
X694432Y181302D01*
X694978Y182118D01*
X695169Y183080D01*
X694978Y184042D01*
X694784Y184332D01*
X695249Y185705D01*
X695266Y185722D01*
X695441Y185757D01*
X696124Y186213D01*
X698904D01*
X710533Y174584D01*
D02*
G37*
G36*
X736474Y171687D02*
X736892Y171407D01*
X737869Y170698D01*
Y160538D01*
X742357D01*
X742617Y160364D01*
X743584Y160172D01*
X749862D01*
Y157490D01*
X760263D01*
X760892Y156220D01*
X760462Y155656D01*
X744430D01*
X743584Y155824D01*
X742618Y155632D01*
X742357Y155458D01*
X737869D01*
Y146035D01*
X724369D01*
X719266Y151137D01*
Y177155D01*
X719074Y178121D01*
X718527Y178941D01*
X703260Y194207D01*
X702441Y194754D01*
X701475Y194946D01*
X701482Y196213D01*
X711947D01*
X736474Y171687D01*
D02*
G37*
G36*
X324660Y166624D02*
X324660Y166546D01*
Y151884D01*
X326505D01*
Y148776D01*
X325161Y147432D01*
X296969D01*
X294184Y150218D01*
X294709Y151488D01*
X295806D01*
X296316Y151488D01*
X304036D01*
X305306Y151488D01*
X305816Y151488D01*
X314046D01*
Y166228D01*
X314046D01*
X313731Y167498D01*
X313943Y167816D01*
X324472D01*
X324660Y166624D01*
D02*
G37*
G36*
X600392Y181477D02*
X601487Y180382D01*
Y172316D01*
X601679Y171349D01*
X602227Y170530D01*
X612133Y160623D01*
Y155551D01*
X610214D01*
Y148439D01*
X619104D01*
Y155551D01*
X617184D01*
Y161669D01*
X616991Y162635D01*
X616444Y163454D01*
X614900Y164998D01*
X615620Y166075D01*
X616371Y165764D01*
X617919D01*
X622569Y161114D01*
Y155551D01*
X620649D01*
Y148439D01*
X629539D01*
Y155551D01*
X627619D01*
Y162160D01*
X628860Y162431D01*
X629348Y161253D01*
X630549Y160052D01*
X632118Y159402D01*
X633817D01*
X635386Y160052D01*
X636587Y161253D01*
X637238Y162823D01*
Y164371D01*
X646166Y173300D01*
X654275D01*
Y172216D01*
X654467Y171253D01*
X655012Y170438D01*
X655828Y169892D01*
X656790Y169701D01*
X657752Y169892D01*
X657995Y170054D01*
X659265Y169376D01*
Y167052D01*
X656446Y164234D01*
X646760D01*
X645794Y164042D01*
X644975Y163494D01*
X642161Y160681D01*
X640612D01*
X639043Y160031D01*
X637842Y158829D01*
X637192Y157260D01*
Y155561D01*
X637182Y155547D01*
X636905D01*
Y148435D01*
X645795D01*
Y155547D01*
X645742D01*
X645732Y155561D01*
Y157110D01*
X647806Y159184D01*
X657492D01*
X658458Y159376D01*
X659278Y159923D01*
X663005Y163651D01*
X664275Y163125D01*
Y155551D01*
X662513D01*
Y154520D01*
X660735D01*
Y155551D01*
X651845D01*
Y148439D01*
X660735D01*
Y149470D01*
X662513D01*
Y148439D01*
X671403D01*
Y155551D01*
X669325D01*
Y160628D01*
X670595Y161154D01*
X673715Y158034D01*
Y142458D01*
X672818Y141561D01*
X672778Y141463D01*
X671508Y141716D01*
Y144883D01*
X671403Y145136D01*
Y146153D01*
X670386D01*
X670133Y146258D01*
X663783D01*
X663530Y146153D01*
X662513D01*
Y145136D01*
X662408Y144883D01*
Y117155D01*
X655340Y110087D01*
X652915D01*
X652530Y111357D01*
X652742Y111499D01*
X658075Y116832D01*
X658623Y117651D01*
X658815Y118617D01*
Y142597D01*
X658623Y143563D01*
X658075Y144382D01*
X657256Y144930D01*
X656290Y145122D01*
X655324Y144930D01*
X654505Y144382D01*
X653957Y143563D01*
X653765Y142597D01*
Y119663D01*
X649892Y115790D01*
X649020Y115617D01*
X648201Y115069D01*
X647653Y114250D01*
X647461Y113284D01*
X647653Y112318D01*
X648201Y111499D01*
X648413Y111357D01*
X648028Y110087D01*
X633822Y110087D01*
X629644Y114265D01*
Y140311D01*
Y144883D01*
X629539Y145136D01*
Y146153D01*
X628522D01*
X628269Y146258D01*
X617637D01*
X617445Y146178D01*
X617238Y146199D01*
X617183Y146153D01*
X610214D01*
Y145829D01*
X601200D01*
X598973Y148056D01*
Y181585D01*
X600243Y181838D01*
X600392Y181477D01*
D02*
G37*
G36*
X216569Y143791D02*
X216410Y142157D01*
X180529Y106277D01*
X167120D01*
X167120Y106277D01*
X166867Y106172D01*
X165850D01*
Y105576D01*
X165486Y105212D01*
X148577D01*
X147536Y106253D01*
X147390Y106314D01*
X147642Y107584D01*
X152452D01*
X153419Y107776D01*
X154238Y108324D01*
X156143Y110229D01*
X156690Y111048D01*
X156882Y112014D01*
Y122568D01*
X159298Y124983D01*
X165850D01*
Y123444D01*
X183007D01*
Y131482D01*
X198585D01*
X199551Y131674D01*
X200370Y132221D01*
X212182Y144033D01*
X216375D01*
X216569Y143791D01*
D02*
G37*
G36*
X165850Y130033D02*
X158252D01*
X157285Y129841D01*
X156466Y129293D01*
X152572Y125399D01*
X152025Y124580D01*
X151833Y123614D01*
Y113060D01*
X151407Y112634D01*
X131066D01*
X130645Y113055D01*
Y115199D01*
X131450Y116136D01*
X137790D01*
Y116136D01*
X137950D01*
Y116136D01*
X144290D01*
Y125426D01*
X150346Y131482D01*
X165850D01*
Y130033D01*
D02*
G37*
G36*
X670133Y108285D02*
X666123Y104275D01*
X612705Y104275D01*
X611484Y105496D01*
Y140779D01*
X612923D01*
X613692Y140264D01*
X614659Y140072D01*
X615625Y140264D01*
X616444Y140812D01*
X616991Y141631D01*
X617184Y142597D01*
X616991Y143563D01*
X616958Y143613D01*
X617637Y144883D01*
X628269D01*
Y140311D01*
Y113696D01*
X633253Y108712D01*
X655909Y108712D01*
X663783Y116586D01*
Y144883D01*
X670133D01*
Y108285D01*
D02*
G37*
G36*
X341035Y95047D02*
X337025Y91037D01*
X329157D01*
X326861Y93332D01*
Y112177D01*
X326757Y112430D01*
Y113447D01*
X325739D01*
X325487Y113552D01*
X316287D01*
X316034Y113447D01*
X315017D01*
Y112430D01*
X314912Y112177D01*
Y93738D01*
X312211Y91037D01*
X293809D01*
X292837Y90634D01*
X292836Y90634D01*
X285940Y83737D01*
X284670Y84263D01*
Y97790D01*
X299088Y112207D01*
X306757D01*
Y115052D01*
X308443D01*
X309410Y115245D01*
X310229Y115792D01*
X313822Y119385D01*
X331637D01*
Y107051D01*
X331741Y106798D01*
Y105781D01*
X332759D01*
X333012Y105676D01*
X337584D01*
X337836Y105781D01*
X338853D01*
Y106798D01*
X338958Y107051D01*
Y125036D01*
X341035D01*
Y95047D01*
D02*
G37*
G36*
X594662Y145225D02*
X598369Y141518D01*
X599188Y140971D01*
X600154Y140779D01*
X610109D01*
Y105496D01*
X610401Y104791D01*
X609855Y103521D01*
X593010D01*
Y106656D01*
X593010Y106766D01*
Y107926D01*
X593010Y108036D01*
Y119356D01*
X593010Y119466D01*
Y120626D01*
X593010Y120736D01*
Y132056D01*
X593010Y132166D01*
Y133326D01*
X593010Y133436D01*
Y144756D01*
X593140Y145186D01*
X593195Y145236D01*
X594662Y145225D01*
D02*
G37*
G36*
X148007Y103838D02*
X166056D01*
X167120Y104902D01*
X181737D01*
Y99314D01*
X181689Y99266D01*
X148007D01*
X147673Y98931D01*
X85580D01*
Y105281D01*
X146564D01*
X148007Y103838D01*
D02*
G37*
G36*
X358394Y124976D02*
Y114055D01*
X359287Y113164D01*
X361587D01*
Y106814D01*
X359159D01*
X358394Y106049D01*
Y87122D01*
X356851Y85579D01*
X353117D01*
X352549Y85959D01*
X351558Y86156D01*
X295945D01*
X294954Y85959D01*
X294113Y85397D01*
X293552Y84557D01*
X293513Y84362D01*
X293379Y84227D01*
X293345D01*
Y75561D01*
X285945D01*
Y81798D01*
X293809Y89662D01*
X312780D01*
X316287Y93169D01*
Y112177D01*
X325487D01*
Y92763D01*
X328587Y89662D01*
X337594D01*
X342410Y94477D01*
Y125036D01*
X358333D01*
X358394Y124976D01*
D02*
G37*
G36*
X295017Y121468D02*
Y115278D01*
X280359Y100621D01*
X279812Y99802D01*
X279620Y98835D01*
Y87185D01*
X278350Y86659D01*
X274832Y90177D01*
X274013Y90725D01*
X273046Y90917D01*
X264329D01*
X263843Y92090D01*
X293747Y121994D01*
X295017Y121468D01*
D02*
G37*
G36*
X382031Y115941D02*
Y74930D01*
X382223Y73964D01*
X382771Y73145D01*
X389551Y66364D01*
X390370Y65817D01*
X391336Y65625D01*
X401682D01*
X402168Y64452D01*
X385421Y47704D01*
X383961D01*
X382391Y47054D01*
X381190Y45853D01*
X380540Y44283D01*
Y42585D01*
X381190Y41015D01*
X382391Y39814D01*
X383961Y39164D01*
X385659D01*
X387229Y39814D01*
X388430Y41015D01*
X389080Y42585D01*
Y44222D01*
X401417Y56558D01*
X402590Y56072D01*
Y3302D01*
X378460D01*
Y2794D01*
X287528D01*
Y3302D01*
X267655D01*
X267530Y4572D01*
X267810Y4628D01*
X268860Y5329D01*
X273234Y9703D01*
X273936Y10754D01*
X274182Y11992D01*
Y16404D01*
X275945D01*
X275945Y16404D01*
X276917Y16806D01*
X287690Y27580D01*
X302768D01*
X302768Y27580D01*
X302768Y27580D01*
X364314D01*
X364314Y27580D01*
X364578Y27689D01*
X365588D01*
Y28707D01*
X365693Y28959D01*
X365693Y28959D01*
Y39119D01*
X365588Y39372D01*
Y40389D01*
X364571D01*
X364318Y40494D01*
X303333D01*
X302724Y41102D01*
X301752Y41505D01*
X301752Y41505D01*
X294719D01*
Y45604D01*
X295945Y46186D01*
X303345D01*
X303597Y46291D01*
X304615D01*
Y46302D01*
X351558D01*
X352530Y46705D01*
X352933Y47677D01*
Y59371D01*
X352828Y59624D01*
Y60641D01*
X351811D01*
X351558Y60746D01*
X316809D01*
X315837Y60343D01*
X315434Y59371D01*
Y54057D01*
X309243D01*
X309145Y55286D01*
X310117Y55689D01*
X310519Y56661D01*
Y58661D01*
X310371Y59019D01*
X310182Y59961D01*
X310371Y60902D01*
X310519Y61261D01*
Y63261D01*
X310371Y63619D01*
X310182Y64561D01*
X310371Y65502D01*
X310519Y65861D01*
Y67861D01*
X310371Y68219D01*
X310182Y69161D01*
X310371Y70102D01*
X310519Y70461D01*
Y72461D01*
X310117Y73433D01*
X309145Y73835D01*
X305696D01*
X304615Y74291D01*
X304615Y75308D01*
X304719Y75561D01*
Y77186D01*
X315434D01*
Y71871D01*
X315837Y70899D01*
X316809Y70497D01*
X351558D01*
X351811Y70601D01*
X352828D01*
Y71619D01*
X352933Y71871D01*
Y83031D01*
X353025Y83619D01*
X354043Y84204D01*
X356851D01*
X356851Y84204D01*
X357823Y84607D01*
X359068Y85852D01*
X359664D01*
Y86869D01*
X359769Y87122D01*
X359769Y87122D01*
Y105439D01*
X361587D01*
X361839Y105544D01*
X362857D01*
Y106561D01*
X362962Y106814D01*
Y113164D01*
X362857Y113416D01*
Y114434D01*
X361839D01*
X361587Y114538D01*
X359856D01*
X359769Y114625D01*
Y124976D01*
X359809Y125036D01*
X372935D01*
X382031Y115941D01*
D02*
G37*
G36*
X900582Y123063D02*
X891667D01*
X867410Y98806D01*
Y56134D01*
X707390D01*
Y134000D01*
X731139D01*
Y120523D01*
X744347D01*
Y72136D01*
X775716D01*
Y107071D01*
X775833Y107188D01*
Y114808D01*
X797687D01*
Y66040D01*
X854710D01*
Y103637D01*
X887678Y136605D01*
X900582D01*
Y123063D01*
D02*
G37*
G36*
X309145Y70461D02*
X301395D01*
Y67861D01*
X309145D01*
Y65861D01*
X301395D01*
Y63261D01*
X309145D01*
Y61261D01*
X301395D01*
Y58661D01*
X309145D01*
Y56661D01*
X265145D01*
Y58661D01*
X272895D01*
Y61261D01*
X265145D01*
Y63261D01*
X272895D01*
Y65861D01*
X265145D01*
Y67861D01*
X272895D01*
Y70461D01*
X265145D01*
Y72461D01*
X309145D01*
Y70461D01*
D02*
G37*
G36*
X273767Y84101D02*
X273241Y82831D01*
X269675D01*
X269675Y74291D01*
X268593Y73835D01*
X265145D01*
X264173Y73433D01*
X263770Y72461D01*
Y70461D01*
X263918Y70102D01*
X264107Y69161D01*
X263918Y68219D01*
X263770Y67861D01*
Y65861D01*
X263918Y65502D01*
X264107Y64561D01*
X263918Y63619D01*
X263770Y63261D01*
Y61261D01*
X263918Y60902D01*
X264107Y59961D01*
X263918Y59019D01*
X263770Y58661D01*
Y56661D01*
X264173Y55689D01*
X265145Y55286D01*
X268593D01*
X269168Y55044D01*
X269350Y53659D01*
X268777Y53086D01*
X261380D01*
X259700Y54766D01*
Y82739D01*
X262828Y85867D01*
X272000D01*
X273767Y84101D01*
D02*
G37*
G36*
X279675Y54831D02*
X279675Y54016D01*
Y50837D01*
X279620Y50561D01*
Y45010D01*
X271819Y37209D01*
X266500D01*
Y36305D01*
X264795D01*
Y37209D01*
X255905D01*
Y30097D01*
X264795D01*
Y31255D01*
X266500D01*
Y30097D01*
X274771D01*
X275297Y28827D01*
X274386Y27916D01*
X267770D01*
X267517Y27811D01*
X266500D01*
Y26794D01*
X266395Y26541D01*
Y17778D01*
X266798Y16806D01*
X267708Y16430D01*
Y13333D01*
X265230Y10856D01*
X226975D01*
X226590Y12126D01*
X226678Y12185D01*
X243665Y29171D01*
X243929Y29566D01*
X245178Y29615D01*
X245373Y29615D01*
X254068D01*
Y36727D01*
X252450D01*
Y42450D01*
X256079Y46079D01*
X256079Y46079D01*
X258685Y48684D01*
X259368Y48228D01*
X260334Y48036D01*
X269675D01*
Y46291D01*
X274615D01*
Y50284D01*
X274670Y50561D01*
X274615Y50837D01*
X274615Y54831D01*
X275696Y55286D01*
X278593D01*
X279675Y54831D01*
D02*
G37*
G36*
X254650Y67169D02*
Y53720D01*
X254842Y52753D01*
X255151Y52292D01*
X252508Y49650D01*
X252508Y49650D01*
X248140Y45281D01*
X247592Y44462D01*
X247400Y43496D01*
Y37625D01*
X246502Y36727D01*
X245178Y36727D01*
X244404Y37677D01*
Y60898D01*
X249050Y65544D01*
X250598D01*
X252168Y66194D01*
X253369Y67395D01*
X253380Y67421D01*
X254650Y67169D01*
D02*
G37*
G36*
X293345Y40130D02*
X301752D01*
X302763Y39119D01*
X364318D01*
Y28959D01*
X364314Y28954D01*
X287121D01*
X275945Y17778D01*
X267770D01*
Y26541D01*
X274955D01*
X287528Y39114D01*
X285945Y40698D01*
Y47561D01*
Y53561D01*
X293345D01*
Y40130D01*
D02*
G37*
%LPC*%
G36*
X636091Y394832D02*
X621764D01*
X620798Y394639D01*
X619979Y394092D01*
X619236Y393349D01*
X618689Y392530D01*
X618497Y391564D01*
X618689Y390598D01*
X619236Y389779D01*
X620056Y389231D01*
X621022Y389039D01*
X621988Y389231D01*
X622807Y389779D01*
X622810Y389781D01*
X636091D01*
X637057Y389974D01*
X637876Y390521D01*
X638423Y391340D01*
X638615Y392307D01*
X638423Y393273D01*
X637876Y394092D01*
X637057Y394639D01*
X636091Y394832D01*
D02*
G37*
G36*
X206225Y382981D02*
X199113D01*
Y381061D01*
X192655D01*
X191689Y380869D01*
X190870Y380321D01*
X187783Y377234D01*
X187235Y376415D01*
X187043Y375448D01*
Y351104D01*
X184745Y348806D01*
X171061D01*
Y352551D01*
X152521D01*
Y340011D01*
X171061D01*
Y343756D01*
X185791D01*
X186757Y343948D01*
X187576Y344495D01*
X191353Y348273D01*
X191901Y349092D01*
X192093Y350058D01*
Y374403D01*
X193701Y376011D01*
X199113D01*
Y374091D01*
X206225D01*
Y382981D01*
D02*
G37*
G36*
X322268Y378503D02*
X242628D01*
X241662Y378311D01*
X240843Y377764D01*
X227885Y364806D01*
X219061D01*
Y368551D01*
X200521D01*
Y356011D01*
X219061D01*
Y359756D01*
X228468D01*
X228854Y359679D01*
X229820Y359871D01*
X230639Y360419D01*
X243674Y373453D01*
X269204D01*
Y371427D01*
X246969D01*
X246003Y371235D01*
X245183Y370687D01*
X223302Y348806D01*
X219061D01*
Y352551D01*
X200521D01*
Y340011D01*
X219061D01*
Y343756D01*
X224347D01*
X225314Y343948D01*
X226133Y344495D01*
X248015Y366377D01*
X269204D01*
Y363032D01*
X279944D01*
Y373453D01*
X321222D01*
X327559Y367117D01*
X328379Y366569D01*
X329345Y366377D01*
X335621D01*
Y363032D01*
X346361D01*
Y374772D01*
X335621D01*
Y371427D01*
X330391D01*
X324054Y377764D01*
X323235Y378311D01*
X322268Y378503D01*
D02*
G37*
G36*
X599814Y372927D02*
X598848Y372735D01*
X598028Y372188D01*
X597481Y371369D01*
X597289Y370402D01*
Y365196D01*
X597481Y364230D01*
X598028Y363411D01*
X598848Y362864D01*
X599814Y362671D01*
X600780Y362864D01*
X601599Y363411D01*
X602147Y364230D01*
X602339Y365196D01*
Y370402D01*
X602147Y371369D01*
X601599Y372188D01*
X600780Y372735D01*
X599814Y372927D01*
D02*
G37*
G36*
X22253Y380350D02*
X19913D01*
X17652Y379744D01*
X15624Y378574D01*
X13969Y376919D01*
X12799Y374891D01*
X12193Y372630D01*
Y370290D01*
X12799Y368029D01*
X13969Y366001D01*
X15624Y364346D01*
X17652Y363176D01*
X19913Y362570D01*
X22253D01*
X24514Y363176D01*
X26542Y364346D01*
X28197Y366001D01*
X29367Y368029D01*
X29973Y370290D01*
Y372630D01*
X29367Y374891D01*
X28197Y376919D01*
X26542Y378574D01*
X24514Y379744D01*
X22253Y380350D01*
D02*
G37*
G36*
X708066Y361379D02*
X708066Y361379D01*
X652104D01*
X652104Y361379D01*
X651132Y360976D01*
X632666Y342510D01*
X616204D01*
X615951Y342405D01*
X614934D01*
Y341388D01*
X614829Y341135D01*
Y317119D01*
X614934Y316866D01*
Y315849D01*
X615951D01*
X616204Y315744D01*
X616905D01*
X616988Y315661D01*
Y290579D01*
X616514Y289434D01*
Y287735D01*
X616988Y286589D01*
Y286093D01*
X617391Y285121D01*
X618363Y284718D01*
X618959D01*
X619934Y284314D01*
X621633D01*
X622608Y284718D01*
X622935D01*
X623907Y285121D01*
X624295Y286056D01*
X624404Y286166D01*
X625054Y287735D01*
Y289434D01*
X624404Y291003D01*
X624310Y291097D01*
Y311896D01*
X624796Y312382D01*
X625199Y313354D01*
X625199Y313354D01*
Y325440D01*
X651848Y352089D01*
X688935D01*
X692851Y348173D01*
Y335311D01*
X675347D01*
X675347Y335311D01*
X674374Y334909D01*
X674374Y334909D01*
X672177Y332711D01*
X660747D01*
X660494Y332607D01*
X659477D01*
Y331589D01*
X659372Y331337D01*
Y317337D01*
X659477Y317084D01*
Y316067D01*
X660494D01*
X660747Y315962D01*
X672747D01*
X672747Y315962D01*
X672999Y316067D01*
X674016D01*
Y316663D01*
X675916Y318562D01*
X712426D01*
X712679Y318667D01*
X713696D01*
Y319684D01*
X713801Y319937D01*
Y355644D01*
X713801Y355644D01*
X713398Y356616D01*
X713398Y356616D01*
X709038Y360976D01*
X708066Y361379D01*
D02*
G37*
G36*
X172533Y382494D02*
X165421D01*
Y377659D01*
X164215Y376452D01*
X163667Y375633D01*
X163475Y374667D01*
Y368551D01*
X152521D01*
Y356011D01*
X171061D01*
Y368551D01*
X168525D01*
Y373604D01*
X172533D01*
Y382494D01*
D02*
G37*
G36*
X54252Y356850D02*
X51912D01*
X49651Y356244D01*
X47623Y355074D01*
X45968Y353419D01*
X44798Y351391D01*
X44192Y349130D01*
Y346790D01*
X44798Y344529D01*
X45968Y342501D01*
X47623Y340846D01*
X49651Y339676D01*
X51912Y339070D01*
X54252D01*
X56513Y339676D01*
X58541Y340846D01*
X60196Y342501D01*
X61366Y344529D01*
X61972Y346790D01*
Y349130D01*
X61366Y351391D01*
X60196Y353419D01*
X58541Y355074D01*
X56513Y356244D01*
X54252Y356850D01*
D02*
G37*
G36*
X676652Y343660D02*
X671445D01*
X670479Y343468D01*
X669660Y342921D01*
X669113Y342102D01*
X668921Y341135D01*
X669113Y340169D01*
X669660Y339350D01*
X670479Y338802D01*
X671445Y338610D01*
X676652D01*
X677618Y338802D01*
X678437Y339350D01*
X678985Y340169D01*
X679177Y341135D01*
X678985Y342102D01*
X678437Y342921D01*
X677618Y343468D01*
X676652Y343660D01*
D02*
G37*
G36*
X604774Y339215D02*
X599568D01*
X598601Y339023D01*
X597782Y338476D01*
X597235Y337657D01*
X597043Y336690D01*
X597235Y335724D01*
X597782Y334905D01*
X598601Y334357D01*
X599568Y334165D01*
X604774D01*
X605740Y334357D01*
X606559Y334905D01*
X607107Y335724D01*
X607299Y336690D01*
X607107Y337657D01*
X606559Y338476D01*
X605740Y339023D01*
X604774Y339215D01*
D02*
G37*
G36*
X54252Y336850D02*
X51912D01*
X49651Y336244D01*
X47623Y335074D01*
X45968Y333419D01*
X44798Y331391D01*
X44192Y329130D01*
Y326790D01*
X44798Y324529D01*
X45968Y322501D01*
X47623Y320846D01*
X49651Y319676D01*
X51912Y319070D01*
X54252D01*
X56513Y319676D01*
X58541Y320846D01*
X60196Y322501D01*
X61366Y324529D01*
X61972Y326790D01*
Y329130D01*
X61366Y331391D01*
X60196Y333419D01*
X58541Y335074D01*
X56513Y336244D01*
X54252Y336850D01*
D02*
G37*
G36*
X604774Y324089D02*
X599568D01*
X598601Y323897D01*
X597782Y323349D01*
X597235Y322530D01*
X597043Y321564D01*
X597235Y320598D01*
X597782Y319779D01*
X598601Y319231D01*
X599568Y319039D01*
X604774D01*
X605740Y319231D01*
X606559Y319779D01*
X607107Y320598D01*
X607299Y321564D01*
X607107Y322530D01*
X606559Y323349D01*
X605740Y323897D01*
X604774Y324089D01*
D02*
G37*
G36*
X753965Y322368D02*
X748759D01*
X747793Y322175D01*
X746974Y321628D01*
X746426Y320809D01*
X746234Y319843D01*
X746426Y318876D01*
X746974Y318057D01*
X747793Y317510D01*
X748759Y317318D01*
X753965D01*
X754932Y317510D01*
X755751Y318057D01*
X756298Y318876D01*
X756490Y319843D01*
X756298Y320809D01*
X755751Y321628D01*
X754932Y322175D01*
X753965Y322368D01*
D02*
G37*
G36*
X313436Y328083D02*
X312470Y327891D01*
X311651Y327343D01*
X311103Y326524D01*
X310911Y325558D01*
X311018Y325022D01*
Y318683D01*
X311210Y317717D01*
X311757Y316897D01*
X312576Y316350D01*
X313543Y316158D01*
X314509Y316350D01*
X315328Y316897D01*
X315875Y317717D01*
X316068Y318683D01*
Y325451D01*
X315875Y326418D01*
X315328Y327237D01*
X315221Y327343D01*
X314402Y327891D01*
X313436Y328083D01*
D02*
G37*
G36*
X246380D02*
X245414Y327891D01*
X244595Y327343D01*
X244370Y327119D01*
X243823Y326300D01*
X243631Y325334D01*
Y318658D01*
X243790Y317854D01*
X243565Y317404D01*
X242947Y316716D01*
X222814D01*
X221842Y316313D01*
X221439Y315341D01*
Y298193D01*
X221544Y297940D01*
Y296924D01*
X222557D01*
X222814Y296818D01*
X243220D01*
X243473Y296923D01*
X244490D01*
Y297940D01*
X244595Y298193D01*
Y315247D01*
X244698Y315434D01*
X245595Y316244D01*
X246155Y316133D01*
X247122Y316325D01*
X247941Y316873D01*
X248488Y317692D01*
X248680Y318658D01*
Y324543D01*
X248713Y324592D01*
X248905Y325558D01*
X248713Y326524D01*
X248165Y327343D01*
X247346Y327891D01*
X246380Y328083D01*
D02*
G37*
G36*
X611333Y311897D02*
X611244Y311879D01*
X604792D01*
X603825Y311687D01*
X603006Y311140D01*
X602989Y311122D01*
X602441Y310303D01*
X602249Y309337D01*
X602441Y308370D01*
X602989Y307551D01*
X603808Y307004D01*
X604774Y306812D01*
X604863Y306829D01*
X611315D01*
X612282Y307022D01*
X613101Y307569D01*
X613119Y307587D01*
X613666Y308406D01*
X613858Y309372D01*
X613666Y310338D01*
X613119Y311157D01*
X612299Y311705D01*
X611333Y311897D01*
D02*
G37*
G36*
X761458Y310528D02*
X756252D01*
X755286Y310335D01*
X754467Y309788D01*
X753919Y308969D01*
X753727Y308003D01*
X753919Y307036D01*
X754467Y306217D01*
X755286Y305670D01*
X756252Y305478D01*
X761458D01*
X762425Y305670D01*
X763244Y306217D01*
X763791Y307036D01*
X763983Y308003D01*
X763791Y308969D01*
X763244Y309788D01*
X762425Y310335D01*
X761458Y310528D01*
D02*
G37*
G36*
X335936Y329813D02*
X327046D01*
Y322701D01*
X327046D01*
X327451Y322095D01*
X327221Y321540D01*
Y319841D01*
X327871Y318272D01*
X328966Y317177D01*
Y304904D01*
X325037Y300975D01*
X305166D01*
Y302006D01*
X296276D01*
Y294894D01*
X305166D01*
Y295925D01*
X326083D01*
X327049Y296117D01*
X327868Y296665D01*
X333276Y302073D01*
X333824Y302892D01*
X334016Y303858D01*
Y317177D01*
X335111Y318272D01*
X335761Y319841D01*
Y321540D01*
X335531Y322095D01*
X335936Y322701D01*
X335936D01*
Y329813D01*
D02*
G37*
G36*
X611251Y301229D02*
X604792D01*
X603825Y301037D01*
X603006Y300489D01*
X602459Y299670D01*
X602267Y298704D01*
X602459Y297738D01*
X603006Y296919D01*
X603825Y296371D01*
X604792Y296179D01*
X611251D01*
X612217Y296371D01*
X613036Y296919D01*
X613584Y297738D01*
X613776Y298704D01*
X613584Y299670D01*
X613036Y300489D01*
X612217Y301037D01*
X611251Y301229D01*
D02*
G37*
G36*
X22253Y313350D02*
X19913D01*
X17652Y312744D01*
X15624Y311574D01*
X13969Y309918D01*
X12799Y307891D01*
X12193Y305630D01*
Y303290D01*
X12799Y301028D01*
X13969Y299001D01*
X15624Y297346D01*
X17652Y296176D01*
X19913Y295570D01*
X22253D01*
X24514Y296176D01*
X26542Y297346D01*
X28197Y299001D01*
X29367Y301028D01*
X29973Y303290D01*
Y305630D01*
X29367Y307891D01*
X28197Y309918D01*
X26542Y311574D01*
X24514Y312744D01*
X22253Y313350D01*
D02*
G37*
G36*
X269925Y330073D02*
X261035D01*
Y322961D01*
X262955D01*
Y302004D01*
X261034D01*
Y294892D01*
X269924D01*
Y295925D01*
X283577D01*
Y294896D01*
X292467D01*
Y302008D01*
X292053D01*
X291674Y302675D01*
X291454Y303278D01*
X292052Y304722D01*
Y306420D01*
X291402Y307990D01*
X290201Y309191D01*
X288631Y309841D01*
X286933D01*
X285363Y309191D01*
X284162Y307990D01*
X283512Y306420D01*
Y304722D01*
X284110Y303278D01*
X283647Y302008D01*
X283577D01*
Y300975D01*
X269924D01*
Y302004D01*
X268004D01*
Y322961D01*
X269925D01*
Y330073D01*
D02*
G37*
G36*
X256097Y316397D02*
X254398D01*
X252829Y315747D01*
X251628Y314546D01*
X250977Y312976D01*
Y311278D01*
X251628Y309708D01*
X252829Y308507D01*
X252917Y308471D01*
Y302004D01*
X250874D01*
Y294892D01*
X259764D01*
Y302004D01*
X257578D01*
Y308471D01*
X257666Y308507D01*
X258867Y309708D01*
X259517Y311278D01*
Y312976D01*
X258867Y314546D01*
X257666Y315747D01*
X256097Y316397D01*
D02*
G37*
G36*
X649747Y304862D02*
X648780Y304669D01*
X647961Y304122D01*
X647414Y303303D01*
X647222Y302337D01*
X647259Y302147D01*
Y291566D01*
X647451Y290600D01*
X647999Y289781D01*
X648818Y289233D01*
X649784Y289041D01*
X650751Y289233D01*
X651570Y289781D01*
X652117Y290600D01*
X652309Y291566D01*
Y302299D01*
X652117Y303265D01*
X651570Y304084D01*
X651532Y304122D01*
X650713Y304669D01*
X649747Y304862D01*
D02*
G37*
G36*
X810627Y293323D02*
X798798D01*
X797832Y293131D01*
X797013Y292584D01*
X796537Y292107D01*
X795989Y291288D01*
X795797Y290322D01*
X795989Y289356D01*
X796537Y288537D01*
X797356Y287989D01*
X798322Y287797D01*
X799288Y287989D01*
X799713Y288273D01*
X810627D01*
X811594Y288465D01*
X812413Y289013D01*
X812960Y289832D01*
X813152Y290798D01*
X812960Y291765D01*
X812413Y292584D01*
X811594Y293131D01*
X810627Y293323D01*
D02*
G37*
G36*
X42253Y380350D02*
X39913D01*
X37652Y379744D01*
X35624Y378574D01*
X33969Y376919D01*
X32799Y374891D01*
X32193Y372630D01*
Y370290D01*
X32799Y368029D01*
X33969Y366001D01*
X35624Y364346D01*
X37652Y363176D01*
X39913Y362570D01*
X42253D01*
X44514Y363176D01*
X46542Y364346D01*
X48197Y366001D01*
X49367Y368029D01*
X49419Y368223D01*
X56459D01*
X70208Y354474D01*
Y313905D01*
X70455Y312666D01*
X71156Y311616D01*
X78483Y304289D01*
X79533Y303587D01*
X80772Y303341D01*
X181065D01*
X197500Y286905D01*
X198551Y286204D01*
X199790Y285957D01*
X204625D01*
Y283397D01*
X205028Y282425D01*
X206000Y282023D01*
X223645D01*
X223876Y281791D01*
X225445Y281141D01*
X226922D01*
X227354Y280525D01*
X227544Y279968D01*
X220962Y273385D01*
X220414Y272566D01*
X220222Y271600D01*
Y270884D01*
X218598D01*
Y261994D01*
X219820D01*
Y257994D01*
X214944D01*
Y246254D01*
X225684D01*
Y257994D01*
X224870D01*
Y261994D01*
X225710D01*
Y270884D01*
X225710Y270884D01*
X225710D01*
X226496Y271778D01*
X239212Y284494D01*
X239499Y284923D01*
X244490D01*
Y286597D01*
X250839D01*
X250874Y286512D01*
Y285494D01*
X251891D01*
X252144Y285390D01*
X268654D01*
X268906Y285494D01*
X269924D01*
Y286512D01*
X270028Y286764D01*
Y291336D01*
X269924Y291589D01*
Y292606D01*
X268906D01*
X268654Y292711D01*
X252144D01*
X251891Y292606D01*
X250874D01*
Y291647D01*
X244490D01*
Y293463D01*
X234950D01*
Y287643D01*
X234902Y287399D01*
Y287325D01*
X232362Y284785D01*
X231189Y285271D01*
Y292194D01*
X231084Y292447D01*
Y293464D01*
X230067D01*
X229814Y293569D01*
X217237D01*
Y324011D01*
X219061D01*
Y336551D01*
X200521D01*
Y324011D01*
X210763D01*
Y293569D01*
X206000D01*
X205028Y293166D01*
X204724Y292432D01*
X201130D01*
X184695Y308867D01*
X184271Y309151D01*
X184656Y310420D01*
X185858D01*
X187427Y311071D01*
X188628Y312272D01*
X189278Y313841D01*
Y315540D01*
X188628Y317109D01*
X187427Y318310D01*
X185858Y318960D01*
X184159D01*
X183069Y318509D01*
X181799Y319151D01*
Y319151D01*
X174687D01*
X174687Y310261D01*
X173602Y309815D01*
X173486D01*
X172401Y310261D01*
X172401Y311085D01*
Y319151D01*
X168525D01*
Y324011D01*
X171061D01*
Y336551D01*
X152521D01*
Y324011D01*
X163475D01*
Y316100D01*
X163667Y315134D01*
X164215Y314315D01*
X165289Y313240D01*
X165289Y310261D01*
X164204Y309815D01*
X82113D01*
X76683Y315246D01*
Y355815D01*
X76436Y357054D01*
X75734Y358104D01*
X60089Y373749D01*
X59039Y374451D01*
X57800Y374697D01*
X49419D01*
X49367Y374891D01*
X48197Y376919D01*
X46542Y378574D01*
X44514Y379744D01*
X42253Y380350D01*
D02*
G37*
G36*
X112776Y286369D02*
X111810Y286177D01*
X110991Y285630D01*
X110443Y284811D01*
X110251Y283844D01*
Y278638D01*
X110443Y277672D01*
X110991Y276853D01*
X111810Y276305D01*
X112776Y276113D01*
X113742Y276305D01*
X114561Y276853D01*
X115109Y277672D01*
X115301Y278638D01*
Y283844D01*
X115109Y284811D01*
X114561Y285630D01*
X113742Y286177D01*
X112776Y286369D01*
D02*
G37*
G36*
X101346D02*
X100380Y286177D01*
X99561Y285630D01*
X99013Y284811D01*
X98821Y283844D01*
Y278638D01*
X99013Y277672D01*
X99561Y276853D01*
X100380Y276305D01*
X101346Y276113D01*
X102312Y276305D01*
X103131Y276853D01*
X103679Y277672D01*
X103871Y278638D01*
Y283844D01*
X103679Y284811D01*
X103131Y285630D01*
X102312Y286177D01*
X101346Y286369D01*
D02*
G37*
G36*
X241000Y276942D02*
X240034Y276750D01*
X239215Y276203D01*
X238668Y275383D01*
X238475Y274417D01*
X238668Y273451D01*
X239215Y272632D01*
X239350Y272496D01*
X240169Y271949D01*
X241136Y271757D01*
X253115D01*
X253795Y271622D01*
X254761Y271814D01*
X255580Y272361D01*
X256127Y273181D01*
X256320Y274147D01*
X256127Y275113D01*
X255580Y275932D01*
X255445Y276067D01*
X254626Y276615D01*
X253659Y276807D01*
X241680D01*
X241000Y276942D01*
D02*
G37*
G36*
X76453Y281163D02*
X75487Y280971D01*
X74668Y280423D01*
X74120Y279604D01*
X73928Y278638D01*
Y273432D01*
X74120Y272465D01*
X74668Y271646D01*
X75487Y271099D01*
X76453Y270907D01*
X77420Y271099D01*
X78239Y271646D01*
X78786Y272465D01*
X78978Y273432D01*
Y278638D01*
X78786Y279604D01*
X78239Y280423D01*
X77420Y280971D01*
X76453Y281163D01*
D02*
G37*
G36*
X65023D02*
X64057Y280971D01*
X63238Y280423D01*
X62690Y279604D01*
X62498Y278638D01*
Y273432D01*
X62690Y272465D01*
X63238Y271646D01*
X64057Y271099D01*
X65023Y270907D01*
X65989Y271099D01*
X66809Y271646D01*
X67356Y272465D01*
X67548Y273432D01*
Y278638D01*
X67356Y279604D01*
X66809Y280423D01*
X65989Y280971D01*
X65023Y281163D01*
D02*
G37*
G36*
X236758Y268964D02*
X231552D01*
X230585Y268772D01*
X229766Y268225D01*
X229219Y267405D01*
X229027Y266439D01*
X229219Y265473D01*
X229766Y264654D01*
X230585Y264106D01*
X231552Y263914D01*
X236758D01*
X237724Y264106D01*
X238543Y264654D01*
X239091Y265473D01*
X239283Y266439D01*
X239091Y267405D01*
X238543Y268225D01*
X237724Y268772D01*
X236758Y268964D01*
D02*
G37*
G36*
X305166Y292608D02*
X296276D01*
Y285496D01*
X296347D01*
Y265209D01*
X296451Y264956D01*
Y263939D01*
X297469D01*
X297722Y263834D01*
X303722D01*
X303974Y263939D01*
X304991D01*
Y264956D01*
X305096Y265209D01*
Y285496D01*
X305166D01*
Y292608D01*
D02*
G37*
G36*
X292467Y292610D02*
X283577D01*
Y285498D01*
X283647D01*
Y265209D01*
X283752Y264956D01*
Y263939D01*
X284769D01*
X285021Y263834D01*
X291021D01*
X291274Y263939D01*
X292292D01*
Y264956D01*
X292396Y265209D01*
Y285498D01*
X292467D01*
Y292610D01*
D02*
G37*
G36*
X179959Y299713D02*
X152288D01*
X152035Y299608D01*
X151018D01*
Y298591D01*
X150913Y298338D01*
Y284338D01*
X151018Y284085D01*
Y283068D01*
X152035D01*
X152288Y282963D01*
X169694D01*
Y276098D01*
Y268478D01*
X169799Y268225D01*
Y267208D01*
X170816D01*
X171069Y267103D01*
X182897D01*
Y235563D01*
X180778D01*
Y235632D01*
X175838D01*
Y231092D01*
X180778D01*
Y231161D01*
X183002D01*
Y230802D01*
X184019D01*
X184272Y230697D01*
X190622D01*
X190659Y230712D01*
X191892Y230801D01*
X192908D01*
Y230802D01*
X201798D01*
Y231120D01*
X224444D01*
Y226254D01*
X226577D01*
Y223337D01*
X226823Y222099D01*
X227525Y221049D01*
X253612Y194961D01*
X254662Y194259D01*
X255901Y194013D01*
X308362D01*
X309601Y194259D01*
X310651Y194961D01*
X315711Y200021D01*
X316412Y201071D01*
X316659Y202310D01*
Y205769D01*
X317691D01*
Y220309D01*
X309151D01*
Y205769D01*
X310184D01*
Y203651D01*
X307021Y200487D01*
X289232D01*
X288746Y201661D01*
X290133Y203048D01*
X290680Y203867D01*
X290872Y204833D01*
Y205769D01*
X292292D01*
Y220309D01*
X283752D01*
Y205769D01*
X283752D01*
X283376Y204655D01*
X283230Y204437D01*
X263050D01*
X262380Y205278D01*
X262749Y206437D01*
X262749D01*
Y213549D01*
X253859D01*
Y206437D01*
X255953D01*
Y205239D01*
X256145Y204273D01*
X256693Y203454D01*
X257819Y202327D01*
X257370Y200980D01*
X256826Y200903D01*
X233051Y224678D01*
Y226254D01*
X235184D01*
Y228887D01*
X247350D01*
X248589Y229133D01*
X249639Y229835D01*
X265482Y245678D01*
X266183Y246728D01*
X266430Y247966D01*
Y269597D01*
X270947D01*
Y265209D01*
X271052Y264956D01*
Y263939D01*
X272069D01*
X272321Y263834D01*
X278321D01*
X278574Y263939D01*
X279592D01*
Y264956D01*
X279696Y265209D01*
Y277322D01*
X279592Y277574D01*
Y278479D01*
X278846D01*
X278321Y278696D01*
X260907D01*
X260654Y278592D01*
X259637D01*
Y277574D01*
X259532Y277322D01*
Y270972D01*
X259637Y270719D01*
Y269702D01*
X259956D01*
Y249307D01*
X246009Y235361D01*
X235289D01*
Y236724D01*
X235184Y236977D01*
Y237994D01*
X234167D01*
X233914Y238099D01*
X191996D01*
Y276098D01*
X191594Y277070D01*
X190622Y277473D01*
X181334D01*
Y291338D01*
Y298338D01*
X180931Y299310D01*
X179959Y299713D01*
D02*
G37*
G36*
X646516Y263633D02*
X641310D01*
X640344Y263440D01*
X639525Y262893D01*
X638977Y262074D01*
X638785Y261108D01*
X638977Y260141D01*
X639525Y259322D01*
X640344Y258775D01*
X641310Y258583D01*
X646516D01*
X647483Y258775D01*
X648302Y259322D01*
X648849Y260141D01*
X649041Y261108D01*
X648849Y262074D01*
X648302Y262893D01*
X647483Y263440D01*
X646516Y263633D01*
D02*
G37*
G36*
X138288Y299713D02*
X124338D01*
X124085Y299608D01*
X123018D01*
Y298470D01*
X122963Y298338D01*
Y258106D01*
X123068Y257853D01*
Y256836D01*
X124085D01*
X124338Y256731D01*
X138288D01*
X138541Y256836D01*
X139608D01*
Y257974D01*
X139663Y258106D01*
Y298338D01*
X139558Y298591D01*
Y299608D01*
X138541D01*
X138288Y299713D01*
D02*
G37*
G36*
X331545Y266827D02*
X330579Y266635D01*
X329760Y266087D01*
X329212Y265268D01*
X329020Y264302D01*
Y259096D01*
X329212Y258130D01*
X329760Y257310D01*
X330579Y256763D01*
X331545Y256571D01*
X332512Y256763D01*
X333331Y257310D01*
X333878Y258130D01*
X334070Y259096D01*
Y264302D01*
X333878Y265268D01*
X333331Y266087D01*
X332512Y266635D01*
X331545Y266827D01*
D02*
G37*
G36*
X80529Y267694D02*
X61848D01*
X61596Y267590D01*
X60578D01*
Y266572D01*
X60474Y266320D01*
Y254605D01*
X43267D01*
X43230Y254612D01*
X34230D01*
X31979Y254164D01*
X30070Y252889D01*
X28795Y250980D01*
X28347Y248729D01*
X28355Y248689D01*
Y162370D01*
X28347Y162331D01*
X28795Y160080D01*
X30070Y158171D01*
X31979Y156896D01*
X34230Y156448D01*
X43230D01*
X43270Y156456D01*
X74489D01*
X74528Y156448D01*
X86528D01*
X88779Y156896D01*
X90688Y158171D01*
X91963Y160080D01*
X92411Y162331D01*
X91963Y164582D01*
X90688Y166491D01*
X88779Y167766D01*
X86528Y168214D01*
X74528D01*
X74483Y168205D01*
X43275D01*
X43230Y168214D01*
X40104D01*
Y242846D01*
X43230D01*
X43277Y242855D01*
X74481D01*
X74528Y242846D01*
X86528D01*
X88779Y243294D01*
X90688Y244569D01*
X91963Y246478D01*
X92411Y248729D01*
X91963Y250980D01*
X90688Y252889D01*
X88779Y254164D01*
X86528Y254612D01*
X81904D01*
Y266320D01*
X81502Y267292D01*
X80898Y267542D01*
Y267590D01*
X80782D01*
X80529Y267694D01*
D02*
G37*
G36*
X769102Y256530D02*
X749862D01*
Y253985D01*
X746366D01*
X745400Y253793D01*
X745315Y253736D01*
X744498D01*
X744323Y253809D01*
X742625D01*
X742449Y253736D01*
X737869D01*
Y243576D01*
X748592D01*
Y243576D01*
X749299Y243576D01*
X749862Y242539D01*
Y241031D01*
X737320D01*
X736225Y242126D01*
X734655Y242776D01*
X732957D01*
X731387Y242126D01*
X730186Y240925D01*
X729536Y239355D01*
Y237657D01*
X730186Y236087D01*
X731387Y234886D01*
X732957Y234236D01*
X734655D01*
X736225Y234886D01*
X737320Y235981D01*
X748964D01*
X749862Y235083D01*
X749862Y234275D01*
X749831Y234159D01*
X749650Y233565D01*
X749604Y233481D01*
X749068Y233045D01*
X748421Y232923D01*
X748282Y232918D01*
X748140Y232918D01*
X737869D01*
Y222758D01*
X749299D01*
X749862Y221721D01*
Y220990D01*
X769102D01*
Y231130D01*
X750386D01*
X749474Y231853D01*
X749466Y231867D01*
X749466Y231972D01*
X749523Y232705D01*
X749682Y233082D01*
X749778Y233307D01*
X750093Y233563D01*
X750740Y233685D01*
X750879Y233690D01*
X751021Y233690D01*
X769102D01*
Y243830D01*
X750569D01*
Y243830D01*
X749862Y243830D01*
X749299Y244867D01*
Y245353D01*
X749862Y246390D01*
X769102D01*
Y256530D01*
D02*
G37*
G36*
X591740Y256433D02*
X553840D01*
X552601Y256187D01*
X551551Y255485D01*
X550849Y254435D01*
X550603Y253196D01*
X550849Y251957D01*
X551551Y250907D01*
X552601Y250205D01*
X553840Y249959D01*
X591740D01*
X592979Y250205D01*
X594029Y250907D01*
X594731Y251957D01*
X594977Y253196D01*
X594731Y254435D01*
X594029Y255485D01*
X592979Y256187D01*
X591740Y256433D01*
D02*
G37*
G36*
X239594Y262222D02*
X238628Y262030D01*
X237809Y261483D01*
X237261Y260664D01*
X237069Y259697D01*
Y253222D01*
X236981Y253090D01*
X236789Y252124D01*
X236981Y251158D01*
X237529Y250339D01*
X238348Y249791D01*
X239314Y249599D01*
X240280Y249791D01*
X241099Y250339D01*
X241380Y250619D01*
X241927Y251438D01*
X242119Y252404D01*
Y259697D01*
X241927Y260664D01*
X241380Y261483D01*
X240560Y262030D01*
X239594Y262222D01*
D02*
G37*
G36*
X175514Y259573D02*
X174548Y259381D01*
X173729Y258833D01*
X173181Y258014D01*
X172989Y257048D01*
X173074Y256622D01*
Y250362D01*
X173266Y249396D01*
X173813Y248577D01*
X174632Y248030D01*
X175599Y247837D01*
X176565Y248030D01*
X177384Y248577D01*
X177932Y249396D01*
X178124Y250362D01*
Y256963D01*
X177932Y257929D01*
X177384Y258749D01*
X177299Y258833D01*
X176480Y259381D01*
X175514Y259573D01*
D02*
G37*
G36*
X634721Y253730D02*
X633755Y253538D01*
X632936Y252991D01*
X632511Y252566D01*
X631964Y251747D01*
X631772Y250780D01*
Y247313D01*
X631539Y246965D01*
X631347Y245999D01*
X631539Y245033D01*
X632086Y244214D01*
X632906Y243666D01*
X633872Y243474D01*
X634838Y243666D01*
X635657Y244214D01*
X636082Y244638D01*
X636629Y245457D01*
X636822Y246424D01*
Y249891D01*
X637054Y250239D01*
X637247Y251205D01*
X637054Y252171D01*
X636507Y252991D01*
X635688Y253538D01*
X634721Y253730D01*
D02*
G37*
G36*
X644398D02*
X643432Y253538D01*
X642613Y252991D01*
X642065Y252171D01*
X641873Y251205D01*
Y245999D01*
X642065Y245033D01*
X642613Y244214D01*
X643432Y243666D01*
X644398Y243474D01*
X645364Y243666D01*
X646183Y244214D01*
X646731Y245033D01*
X646923Y245999D01*
Y251205D01*
X646731Y252171D01*
X646183Y252991D01*
X645364Y253538D01*
X644398Y253730D01*
D02*
G37*
G36*
X707940Y246291D02*
X706974Y246099D01*
X706155Y245552D01*
X705608Y244732D01*
X705415Y243766D01*
X705483Y243425D01*
Y238350D01*
X705676Y237383D01*
X706223Y236564D01*
X706291Y236496D01*
X707110Y235949D01*
X708076Y235757D01*
X709042Y235949D01*
X709862Y236496D01*
X710409Y237316D01*
X710601Y238282D01*
X710533Y238623D01*
Y243698D01*
X710341Y244665D01*
X709794Y245484D01*
X709726Y245552D01*
X708907Y246099D01*
X707940Y246291D01*
D02*
G37*
G36*
X165538Y277680D02*
X151538D01*
X151285Y277575D01*
X150268D01*
Y276558D01*
X150163Y276306D01*
Y253610D01*
X145192D01*
Y234070D01*
X151183D01*
X151538Y233923D01*
X165538D01*
X166510Y234326D01*
X166913Y235298D01*
Y276306D01*
X166808Y276558D01*
Y277575D01*
X165791D01*
X165538Y277680D01*
D02*
G37*
G36*
X115951Y272901D02*
X98171D01*
X97918Y272796D01*
X96901D01*
Y271779D01*
X96796Y271526D01*
Y270329D01*
X91571D01*
X91319Y270224D01*
X90301D01*
Y269207D01*
X90197Y268954D01*
Y266954D01*
X90301Y266701D01*
Y265684D01*
X91319D01*
X91571Y265579D01*
X103146D01*
Y236645D01*
X100405Y233904D01*
X96833D01*
X96708Y235174D01*
X96771Y235186D01*
X97590Y235734D01*
X98138Y236553D01*
X98330Y237519D01*
X98138Y238485D01*
X97590Y239305D01*
X97585Y239310D01*
X96765Y239857D01*
X95799Y240050D01*
X86208D01*
X86180Y240055D01*
X85213Y239863D01*
X84394Y239316D01*
X83847Y238496D01*
X83655Y237530D01*
X83847Y236564D01*
X84394Y235745D01*
X84400Y235739D01*
X85219Y235192D01*
X85835Y235069D01*
X85710Y233799D01*
X79705D01*
Y235380D01*
X78979Y237133D01*
X77637Y238475D01*
X75884Y239201D01*
X73986D01*
X72233Y238475D01*
X70891Y237133D01*
X70165Y235380D01*
Y233482D01*
X70891Y231729D01*
X72233Y230387D01*
X73986Y229661D01*
X74955D01*
X75481Y228391D01*
X72184Y225095D01*
X56061D01*
X55070Y224898D01*
X54229Y224336D01*
X51255Y221362D01*
X50693Y220522D01*
X50496Y219531D01*
Y191529D01*
X50693Y190538D01*
X51255Y189698D01*
X53253Y187699D01*
X54094Y187138D01*
X55085Y186941D01*
X71206D01*
X75476Y182671D01*
X74950Y181401D01*
X73981D01*
X72228Y180675D01*
X70886Y179333D01*
X70160Y177580D01*
Y175682D01*
X70886Y173929D01*
X72228Y172587D01*
X73981Y171861D01*
X75879D01*
X77632Y172587D01*
X78974Y173929D01*
X79700Y175682D01*
Y177261D01*
X85718D01*
X85843Y175991D01*
X85217Y175866D01*
X84398Y175319D01*
X84394Y175315D01*
X83847Y174496D01*
X83655Y173530D01*
X83847Y172563D01*
X84394Y171744D01*
X85213Y171197D01*
X86180Y171005D01*
X86198Y171008D01*
X95790D01*
X96756Y171201D01*
X97575Y171748D01*
X97579Y171752D01*
X98126Y172571D01*
X98318Y173537D01*
X98126Y174503D01*
X97579Y175323D01*
X96760Y175870D01*
X95793Y176062D01*
X95775Y176058D01*
X93363D01*
X93200Y177261D01*
X93200Y177328D01*
Y185506D01*
X108488D01*
X110112Y183881D01*
Y178562D01*
X117224D01*
Y187452D01*
X113683D01*
X111319Y189816D01*
X110500Y190363D01*
X109533Y190556D01*
X93200D01*
Y195506D01*
X100389D01*
X100831Y195065D01*
X101650Y194517D01*
X102616Y194325D01*
X108767D01*
X108836Y194311D01*
X108905Y194325D01*
X110107D01*
Y192390D01*
X117219D01*
Y201280D01*
X110107D01*
Y200932D01*
X108837Y200406D01*
X104994Y204249D01*
X105031Y204501D01*
X105558Y205482D01*
X110106D01*
Y203562D01*
X117218D01*
Y212452D01*
X110106D01*
Y210532D01*
X106221D01*
X102517Y214235D01*
X103043Y215506D01*
X110078D01*
X111044Y215698D01*
X111863Y216245D01*
X113678Y218060D01*
X117219D01*
Y226950D01*
X110107D01*
Y221631D01*
X109032Y220556D01*
X93200D01*
Y225154D01*
X103093D01*
X103093Y225154D01*
X104065Y225557D01*
X104065Y225557D01*
X112473Y233965D01*
X134462Y233965D01*
X134715Y234070D01*
X135732D01*
Y235087D01*
X135837Y235340D01*
Y252340D01*
X135732Y252593D01*
Y253610D01*
X134715D01*
X134462Y253715D01*
X120209D01*
X117322Y256601D01*
Y266946D01*
X117326Y266954D01*
X117326Y266954D01*
Y271526D01*
X117221Y271779D01*
Y272796D01*
X116204D01*
X115951Y272901D01*
D02*
G37*
G36*
X128267Y225030D02*
X123061D01*
X122095Y224838D01*
X121276Y224291D01*
X120729Y223472D01*
X120536Y222505D01*
X120729Y221539D01*
X121276Y220720D01*
X122095Y220173D01*
X123061Y219980D01*
X128267D01*
X129234Y220173D01*
X130053Y220720D01*
X130600Y221539D01*
X130793Y222505D01*
X130600Y223472D01*
X130053Y224291D01*
X129234Y224838D01*
X128267Y225030D01*
D02*
G37*
G36*
X197353Y227484D02*
X196386Y227292D01*
X195567Y226745D01*
X195020Y225926D01*
X194828Y224960D01*
Y219753D01*
X195020Y218787D01*
X195567Y217968D01*
X196386Y217421D01*
X197353Y217228D01*
X198319Y217421D01*
X199138Y217968D01*
X199685Y218787D01*
X199878Y219753D01*
Y224960D01*
X199685Y225926D01*
X199138Y226745D01*
X198319Y227292D01*
X197353Y227484D01*
D02*
G37*
G36*
X187447D02*
X186480Y227292D01*
X185661Y226745D01*
X185114Y225926D01*
X184922Y224960D01*
Y219753D01*
X185114Y218787D01*
X185661Y217968D01*
X186480Y217421D01*
X187447Y217228D01*
X188413Y217421D01*
X189232Y217968D01*
X189779Y218787D01*
X189972Y219753D01*
Y224960D01*
X189779Y225926D01*
X189232Y226745D01*
X188413Y227292D01*
X187447Y227484D01*
D02*
G37*
G36*
X138686Y227314D02*
X137719Y227122D01*
X136900Y226575D01*
X136353Y225756D01*
X136161Y224789D01*
Y219583D01*
X136353Y218617D01*
X136900Y217798D01*
X137719Y217250D01*
X138686Y217058D01*
X139652Y217250D01*
X140471Y217798D01*
X141018Y218617D01*
X141211Y219583D01*
Y224789D01*
X141018Y225756D01*
X140471Y226575D01*
X139652Y227122D01*
X138686Y227314D01*
D02*
G37*
G36*
X271539Y227122D02*
X258304D01*
X257337Y226930D01*
X256518Y226383D01*
X255971Y225564D01*
X255779Y224597D01*
Y219391D01*
X255971Y218425D01*
X256518Y217606D01*
X257337Y217058D01*
X258304Y216866D01*
X259270Y217058D01*
X260089Y217606D01*
X260636Y218425D01*
X260828Y219391D01*
Y222072D01*
X270493D01*
X272366Y220199D01*
Y213469D01*
X272559Y212503D01*
X273106Y211684D01*
X273536Y211254D01*
X274355Y210706D01*
X275322Y210514D01*
X276288Y210706D01*
X277107Y211254D01*
X277654Y212073D01*
X277847Y213039D01*
X277654Y214005D01*
X277416Y214361D01*
Y221245D01*
X277224Y222211D01*
X276677Y223030D01*
X273325Y226383D01*
X272505Y226930D01*
X271539Y227122D01*
D02*
G37*
G36*
X854402Y218430D02*
X835162D01*
Y208290D01*
X854402D01*
Y218430D01*
D02*
G37*
G36*
Y205730D02*
X835162D01*
Y195590D01*
X854402D01*
Y205730D01*
D02*
G37*
G36*
X237502Y195072D02*
X220345D01*
Y186944D01*
X237502D01*
Y195072D01*
D02*
G37*
G36*
X183007D02*
X165850D01*
Y186944D01*
X183007D01*
Y195072D01*
D02*
G37*
G36*
X314882Y187583D02*
X309676D01*
X308710Y187391D01*
X307891Y186843D01*
X307343Y186024D01*
X307151Y185058D01*
X307343Y184092D01*
X307891Y183272D01*
X308710Y182725D01*
X309676Y182533D01*
X314882D01*
X315849Y182725D01*
X316668Y183272D01*
X317215Y184092D01*
X317407Y185058D01*
X317215Y186024D01*
X316668Y186843D01*
X315849Y187391D01*
X314882Y187583D01*
D02*
G37*
G36*
X128272Y185532D02*
X123066D01*
X122100Y185340D01*
X121281Y184792D01*
X120733Y183973D01*
X120541Y183007D01*
X120733Y182041D01*
X121281Y181221D01*
X122100Y180674D01*
X123066Y180482D01*
X128272D01*
X129239Y180674D01*
X130058Y181221D01*
X130605Y182041D01*
X130797Y183007D01*
X130605Y183973D01*
X130058Y184792D01*
X129239Y185340D01*
X128272Y185532D01*
D02*
G37*
G36*
X138686Y187310D02*
X137719Y187118D01*
X136900Y186570D01*
X136353Y185751D01*
X136161Y184785D01*
Y179579D01*
X136353Y178612D01*
X136900Y177793D01*
X137719Y177246D01*
X138686Y177054D01*
X139652Y177246D01*
X140471Y177793D01*
X141018Y178612D01*
X141211Y179579D01*
Y184785D01*
X141018Y185751D01*
X140471Y186570D01*
X139652Y187118D01*
X138686Y187310D01*
D02*
G37*
G36*
X237502Y182372D02*
X220345D01*
Y174244D01*
X237502D01*
Y182372D01*
D02*
G37*
G36*
X183007D02*
X165850D01*
Y174244D01*
X183007D01*
Y182372D01*
D02*
G37*
G36*
Y169672D02*
X165850D01*
Y161544D01*
X183007D01*
Y169672D01*
D02*
G37*
G36*
X366754Y173578D02*
X365515Y173332D01*
X364465Y172630D01*
X363763Y171580D01*
X363703Y171275D01*
X362462Y170034D01*
X361760Y168984D01*
X361514Y167745D01*
Y166457D01*
X361192Y166242D01*
X360490Y165192D01*
X360244Y163953D01*
X360490Y162714D01*
X361192Y161664D01*
X362242Y160962D01*
X363481Y160716D01*
X364370D01*
X365609Y160962D01*
X366659Y161664D01*
X367040Y162045D01*
X367742Y163095D01*
X367988Y164334D01*
Y166404D01*
X369043Y167459D01*
X369745Y168510D01*
X369991Y169748D01*
Y170341D01*
X369745Y171580D01*
X369043Y172630D01*
X367993Y173332D01*
X366754Y173578D01*
D02*
G37*
G36*
X183007Y156972D02*
X165850D01*
Y148844D01*
X183007D01*
Y156972D01*
D02*
G37*
G36*
X258040Y149258D02*
X257074Y149066D01*
X256255Y148518D01*
X256254Y148518D01*
X255706Y147698D01*
X255514Y146732D01*
Y140321D01*
X255514Y140317D01*
X255706Y139351D01*
X256253Y138532D01*
X257072Y137984D01*
X258039Y137792D01*
X259005Y137984D01*
X259824Y138532D01*
X259825Y138532D01*
X260372Y139352D01*
X260564Y140318D01*
Y146730D01*
X260565Y146733D01*
X260373Y147699D01*
X259825Y148518D01*
X259006Y149066D01*
X258040Y149258D01*
D02*
G37*
G36*
X55223Y134604D02*
X52914D01*
X50683Y134006D01*
X48684Y132852D01*
X47051Y131219D01*
X45896Y129219D01*
X45299Y126988D01*
Y124679D01*
X45896Y122449D01*
X47051Y120449D01*
X48684Y118816D01*
X50683Y117662D01*
X52914Y117064D01*
X52878Y115809D01*
X36018D01*
X35943Y116090D01*
X34986Y117748D01*
X33632Y119101D01*
X31975Y120058D01*
X30126Y120554D01*
X28211D01*
X26362Y120058D01*
X24705Y119101D01*
X23351Y117748D01*
X22394Y116090D01*
X21899Y114241D01*
Y112327D01*
X22394Y110478D01*
X23351Y108820D01*
X24705Y107466D01*
X26362Y106509D01*
X28211Y106014D01*
X30126D01*
X31975Y106509D01*
X33632Y107466D01*
X34986Y108820D01*
X35943Y110478D01*
X36018Y110759D01*
X74807D01*
Y98931D01*
X74912Y98679D01*
Y97661D01*
X75795D01*
Y92898D01*
X75752Y92881D01*
X74550Y91679D01*
X73900Y90110D01*
Y88412D01*
X74550Y86842D01*
X75752Y85641D01*
X77321Y84991D01*
X79020D01*
X80589Y85641D01*
X81790Y86842D01*
X82440Y88412D01*
Y90110D01*
X81790Y91679D01*
X80844Y92625D01*
Y97594D01*
X81008Y97661D01*
X82024D01*
Y98675D01*
X82130Y98931D01*
Y116459D01*
X82025Y116712D01*
Y117729D01*
X81008D01*
X80755Y117834D01*
X76182D01*
X75929Y117729D01*
X74913D01*
Y116716D01*
X74807Y116459D01*
Y115809D01*
X55259D01*
X55223Y117064D01*
X57454Y117662D01*
X59453Y118816D01*
X61086Y120449D01*
X62241Y122449D01*
X62839Y124679D01*
Y126988D01*
X62241Y129219D01*
X61086Y131219D01*
X59453Y132852D01*
X57454Y134006D01*
X55223Y134604D01*
D02*
G37*
G36*
X766617Y131734D02*
X748919D01*
X748780Y131677D01*
X737997D01*
X737025Y131274D01*
X736991Y131191D01*
X736727D01*
Y130555D01*
X736622Y130302D01*
Y125349D01*
X736727Y125096D01*
Y124079D01*
X737744D01*
X737997Y123974D01*
X747544D01*
Y115062D01*
X747649Y114809D01*
Y113792D01*
X748666D01*
X748919Y113687D01*
X766617D01*
X766870Y113792D01*
X767969D01*
Y115007D01*
X767992Y115062D01*
Y130359D01*
X767969Y130414D01*
Y131572D01*
X767008D01*
X766617Y131734D01*
D02*
G37*
G36*
X93074Y115809D02*
X87867D01*
X86901Y115617D01*
X86082Y115069D01*
X85534Y114250D01*
X85342Y113284D01*
X85534Y112318D01*
X86082Y111499D01*
X86901Y110951D01*
X87867Y110759D01*
X93074D01*
X94040Y110951D01*
X94859Y111499D01*
X95406Y112318D01*
X95598Y113284D01*
X95406Y114250D01*
X94859Y115069D01*
X94040Y115617D01*
X93074Y115809D01*
D02*
G37*
G36*
X909955Y111237D02*
X904749D01*
X903783Y111045D01*
X902963Y110497D01*
X902416Y109678D01*
X902224Y108712D01*
X902416Y107746D01*
X902963Y106927D01*
X903783Y106379D01*
X904749Y106187D01*
X909955D01*
X910921Y106379D01*
X911740Y106927D01*
X912288Y107746D01*
X912480Y108712D01*
X912288Y109678D01*
X911740Y110497D01*
X910921Y111045D01*
X909955Y111237D01*
D02*
G37*
G36*
X863887Y126724D02*
X807753D01*
X807500Y126619D01*
X806483D01*
Y125602D01*
X806378Y125349D01*
Y120777D01*
X806483Y120524D01*
Y119507D01*
X807500D01*
X807753Y119402D01*
X826919D01*
Y98298D01*
X827024Y98045D01*
Y97028D01*
X828041D01*
X828294Y96923D01*
X846074D01*
X846327Y97028D01*
X847344D01*
Y98045D01*
X847449Y98298D01*
Y119402D01*
X863887D01*
X864139Y119507D01*
X865157D01*
Y120524D01*
X865262Y120777D01*
Y125349D01*
X865157Y125602D01*
Y126619D01*
X864139D01*
X863887Y126724D01*
D02*
G37*
G36*
X910082Y99299D02*
X904876D01*
X903910Y99107D01*
X903090Y98559D01*
X902543Y97740D01*
X902351Y96774D01*
X902543Y95808D01*
X903090Y94989D01*
X903910Y94441D01*
X904876Y94249D01*
X910082D01*
X911048Y94441D01*
X911867Y94989D01*
X912415Y95808D01*
X912607Y96774D01*
X912415Y97740D01*
X911867Y98559D01*
X911048Y99107D01*
X910082Y99299D01*
D02*
G37*
G36*
X228923Y104633D02*
X227957Y104441D01*
X227138Y103893D01*
X226412Y103167D01*
X225865Y102348D01*
X225672Y101382D01*
Y94748D01*
X225865Y93781D01*
X226412Y92962D01*
X227231Y92415D01*
X228197Y92223D01*
X229164Y92415D01*
X229983Y92962D01*
X230530Y93781D01*
X230722Y94748D01*
Y100343D01*
X231256Y101142D01*
X231448Y102108D01*
X231256Y103074D01*
X230709Y103893D01*
X229890Y104441D01*
X228923Y104633D01*
D02*
G37*
G36*
X151182Y94679D02*
X150216Y94487D01*
X149397Y93939D01*
X148850Y93120D01*
X148658Y92154D01*
Y86948D01*
X148850Y85981D01*
X149397Y85162D01*
X150216Y84615D01*
X151182Y84423D01*
X152149Y84615D01*
X152968Y85162D01*
X153515Y85981D01*
X153708Y86948D01*
Y92154D01*
X153515Y93120D01*
X152968Y93939D01*
X152149Y94487D01*
X151182Y94679D01*
D02*
G37*
G36*
X757809Y99807D02*
X756843Y99615D01*
X756023Y99067D01*
X755643Y98686D01*
X755095Y97867D01*
X754903Y96901D01*
Y84582D01*
X755095Y83616D01*
X755643Y82797D01*
X756462Y82249D01*
X757428Y82057D01*
X758394Y82249D01*
X759213Y82797D01*
X759761Y83616D01*
X759953Y84582D01*
Y96033D01*
X760142Y96316D01*
X760334Y97282D01*
X760142Y98248D01*
X759594Y99067D01*
X758775Y99615D01*
X757809Y99807D01*
D02*
G37*
G36*
X837184Y83043D02*
X836218Y82851D01*
X835988Y82697D01*
X823934D01*
X822968Y82505D01*
X822148Y81958D01*
X821601Y81138D01*
X821409Y80172D01*
X821601Y79206D01*
X822148Y78387D01*
X822968Y77839D01*
X823934Y77647D01*
X836838D01*
X837804Y77839D01*
X838624Y78387D01*
X838969Y78733D01*
X839517Y79552D01*
X839709Y80518D01*
X839517Y81484D01*
X838969Y82303D01*
X838150Y82851D01*
X837184Y83043D01*
D02*
G37*
G36*
X584240Y78833D02*
X583001Y78587D01*
X581951Y77885D01*
X581249Y76835D01*
X581003Y75596D01*
X581249Y74357D01*
X581951Y73307D01*
X582074Y73184D01*
X583124Y72482D01*
X584363Y72236D01*
X596672D01*
X597291Y72113D01*
X598530Y72359D01*
X599580Y73061D01*
X600282Y74111D01*
X600528Y75350D01*
X600282Y76589D01*
X599580Y77639D01*
X599457Y77762D01*
X598407Y78464D01*
X597168Y78710D01*
X584859D01*
X584240Y78833D01*
D02*
G37*
G36*
X635121Y81509D02*
X634154Y81317D01*
X633335Y80769D01*
X632788Y79950D01*
X632596Y78984D01*
Y73778D01*
X632788Y72811D01*
X633335Y71992D01*
X634154Y71445D01*
X635121Y71253D01*
X636087Y71445D01*
X636906Y71992D01*
X637453Y72811D01*
X637646Y73778D01*
Y78984D01*
X637453Y79950D01*
X636906Y80769D01*
X636087Y81317D01*
X635121Y81509D01*
D02*
G37*
G36*
X623626D02*
X622660Y81317D01*
X621841Y80769D01*
X621293Y79950D01*
X621101Y78984D01*
Y73778D01*
X621293Y72811D01*
X621841Y71992D01*
X622660Y71445D01*
X623626Y71253D01*
X624593Y71445D01*
X625412Y71992D01*
X625959Y72811D01*
X626151Y73778D01*
Y78984D01*
X625959Y79950D01*
X625412Y80769D01*
X624593Y81317D01*
X623626Y81509D01*
D02*
G37*
G36*
X612132D02*
X611166Y81317D01*
X610346Y80769D01*
X609799Y79950D01*
X609607Y78984D01*
Y73778D01*
X609799Y72811D01*
X610346Y71992D01*
X611166Y71445D01*
X612132Y71253D01*
X613098Y71445D01*
X613917Y71992D01*
X614465Y72811D01*
X614657Y73778D01*
Y78984D01*
X614465Y79950D01*
X613917Y80769D01*
X613098Y81317D01*
X612132Y81509D01*
D02*
G37*
G36*
X30438Y76585D02*
Y69354D01*
X37669D01*
X37127Y71380D01*
X36002Y73328D01*
X34412Y74918D01*
X32465Y76042D01*
X30438Y76585D01*
D02*
G37*
G36*
X27898D02*
X25872Y76042D01*
X23925Y74918D01*
X22335Y73328D01*
X21210Y71380D01*
X20668Y69354D01*
X27898D01*
Y76585D01*
D02*
G37*
G36*
X226361Y72339D02*
X214094D01*
X213128Y72146D01*
X212309Y71599D01*
X212215Y71505D01*
X211667Y70686D01*
X211475Y69720D01*
X211667Y68753D01*
X212215Y67934D01*
X213034Y67387D01*
X214000Y67195D01*
X214472Y67289D01*
X226361D01*
X227328Y67481D01*
X228147Y68028D01*
X228694Y68847D01*
X228886Y69814D01*
X228694Y70780D01*
X228147Y71599D01*
X227328Y72146D01*
X226361Y72339D01*
D02*
G37*
G36*
X170063Y90958D02*
X162952D01*
Y82068D01*
X163983D01*
Y75990D01*
X156161D01*
Y63450D01*
X174701D01*
Y75990D01*
X169032D01*
Y82068D01*
X170063D01*
Y90958D01*
D02*
G37*
G36*
X37669Y66814D02*
X30438D01*
Y59583D01*
X32465Y60126D01*
X34412Y61250D01*
X36002Y62840D01*
X37127Y64788D01*
X37669Y66814D01*
D02*
G37*
G36*
X27898D02*
X20668D01*
X21210Y64788D01*
X22335Y62840D01*
X23925Y61250D01*
X25872Y60126D01*
X27898Y59583D01*
Y66814D01*
D02*
G37*
G36*
X641313Y68792D02*
X640347Y68600D01*
X639528Y68053D01*
X638980Y67234D01*
X638788Y66267D01*
Y61061D01*
X638980Y60095D01*
X639528Y59276D01*
X640347Y58728D01*
X641313Y58536D01*
X642280Y58728D01*
X643099Y59276D01*
X643646Y60095D01*
X643838Y61061D01*
Y66267D01*
X643646Y67234D01*
X643099Y68053D01*
X642280Y68600D01*
X641313Y68792D01*
D02*
G37*
G36*
X226267Y56245D02*
X214000D01*
X213034Y56052D01*
X212215Y55505D01*
X211667Y54686D01*
X211475Y53720D01*
X211667Y52753D01*
X212215Y51934D01*
X213034Y51387D01*
X214000Y51195D01*
X226267D01*
X227234Y51387D01*
X228053Y51934D01*
X228600Y52753D01*
X228792Y53720D01*
X228600Y54686D01*
X228053Y55505D01*
X227234Y56052D01*
X226267Y56245D01*
D02*
G37*
G36*
X55223Y64504D02*
X52914D01*
X50683Y63906D01*
X48684Y62752D01*
X47051Y61119D01*
X45896Y59119D01*
X45299Y56888D01*
Y54579D01*
X45896Y52349D01*
X47051Y50349D01*
X48684Y48716D01*
X50683Y47562D01*
X52914Y46964D01*
X55223D01*
X57454Y47562D01*
X59453Y48716D01*
X61086Y50349D01*
X62241Y52349D01*
X62839Y54579D01*
Y56888D01*
X62241Y59119D01*
X61086Y61119D01*
X59453Y62752D01*
X57454Y63906D01*
X55223Y64504D01*
D02*
G37*
G36*
X226267Y40245D02*
X214000D01*
X213034Y40052D01*
X212215Y39505D01*
X211667Y38686D01*
X211475Y37720D01*
X211667Y36753D01*
X212215Y35934D01*
X213034Y35387D01*
X214000Y35195D01*
X226267D01*
X227234Y35387D01*
X228053Y35934D01*
X228600Y36753D01*
X228792Y37720D01*
X228600Y38686D01*
X228053Y39505D01*
X227234Y40052D01*
X226267Y40245D01*
D02*
G37*
G36*
X641059Y34630D02*
X640093Y34438D01*
X639274Y33891D01*
X638727Y33071D01*
X638534Y32105D01*
Y26899D01*
X638727Y25933D01*
X639274Y25113D01*
X640093Y24566D01*
X641059Y24374D01*
X642026Y24566D01*
X642845Y25113D01*
X643392Y25933D01*
X643584Y26899D01*
Y32105D01*
X643392Y33071D01*
X642845Y33891D01*
X642026Y34438D01*
X641059Y34630D01*
D02*
G37*
G36*
X174701Y43990D02*
X156161D01*
Y31450D01*
X163475D01*
Y25564D01*
X163667Y24598D01*
X164215Y23779D01*
X164759Y23235D01*
Y17916D01*
X171871D01*
Y26806D01*
X168525D01*
Y31450D01*
X174701D01*
Y43990D01*
D02*
G37*
G36*
Y59990D02*
X156161D01*
Y47450D01*
X174701D01*
Y51195D01*
X180438D01*
X186906Y44727D01*
Y28066D01*
X187098Y27099D01*
X187645Y26280D01*
X193359Y20567D01*
X194178Y20019D01*
X195145Y19827D01*
X198628D01*
Y17907D01*
X205740D01*
Y26797D01*
X198628D01*
Y24877D01*
X196190D01*
X191956Y29111D01*
Y45773D01*
X191764Y46740D01*
X191216Y47559D01*
X183270Y55505D01*
X182451Y56052D01*
X181484Y56245D01*
X174701D01*
Y59990D01*
D02*
G37*
%LPD*%
G36*
X712426Y355644D02*
Y319937D01*
X675347D01*
X672747Y317337D01*
X660747D01*
Y331337D01*
X672747D01*
X675347Y333937D01*
X694226D01*
Y348742D01*
X689504Y353464D01*
X651279D01*
X623824Y326009D01*
Y313354D01*
X622935Y312465D01*
Y286093D01*
X618363D01*
Y316230D01*
X617474Y317119D01*
X616204D01*
Y341135D01*
X633235D01*
X652104Y360004D01*
X708066D01*
X712426Y355644D01*
D02*
G37*
G36*
X115951Y266954D02*
X115948Y266951D01*
Y256032D01*
X119640Y252340D01*
X134462D01*
Y235340D01*
X111904Y235340D01*
X103093Y226529D01*
X88495D01*
X88219Y227197D01*
X88079Y227799D01*
X88572Y228538D01*
X88769Y229529D01*
X88572Y230520D01*
X88079Y231259D01*
X88195Y231762D01*
X88548Y232529D01*
X100975D01*
X104521Y236075D01*
Y266954D01*
X91571D01*
Y268954D01*
X97885D01*
X98171Y269240D01*
Y271526D01*
X115951D01*
Y266954D01*
D02*
G37*
G36*
X79160Y223086D02*
Y215554D01*
X64713D01*
X63747Y215362D01*
X62927Y214815D01*
X58535Y210422D01*
X57988Y209603D01*
X57796Y208637D01*
Y206638D01*
X57988Y205672D01*
X58535Y204853D01*
X62144Y201244D01*
X62963Y200697D01*
X63929Y200504D01*
X79160D01*
Y187971D01*
X77986Y187485D01*
X74110Y191362D01*
X73270Y191923D01*
X72279Y192120D01*
X56157D01*
X55676Y192602D01*
Y218458D01*
X57133Y219916D01*
X73257D01*
X74248Y220113D01*
X75088Y220674D01*
X77986Y223572D01*
X79160Y223086D01*
D02*
G37*
%LPC*%
G36*
X380286Y340233D02*
X379320Y340041D01*
X378501Y339493D01*
X377953Y338674D01*
X377761Y337708D01*
X377843Y337296D01*
Y330683D01*
X378036Y329717D01*
X378583Y328898D01*
X378665Y328815D01*
X379484Y328268D01*
X380450Y328076D01*
X381417Y328268D01*
X382236Y328815D01*
X382783Y329635D01*
X382975Y330601D01*
X382893Y331013D01*
Y337626D01*
X382701Y338592D01*
X382154Y339411D01*
X382072Y339493D01*
X381253Y340041D01*
X380286Y340233D01*
D02*
G37*
G36*
X439724Y322596D02*
X434518D01*
X433551Y322404D01*
X432732Y321856D01*
X432185Y321037D01*
X431993Y320071D01*
X432185Y319105D01*
X432732Y318286D01*
X433551Y317738D01*
X434518Y317546D01*
X439724D01*
X440690Y317738D01*
X441509Y318286D01*
X442057Y319105D01*
X442249Y320071D01*
X442057Y321037D01*
X441509Y321856D01*
X440690Y322404D01*
X439724Y322596D01*
D02*
G37*
G36*
X399288Y284464D02*
X398322Y284272D01*
X397503Y283725D01*
X396955Y282906D01*
X396763Y281939D01*
Y276733D01*
X396955Y275767D01*
X397503Y274948D01*
X398322Y274400D01*
X399288Y274208D01*
X400254Y274400D01*
X401073Y274948D01*
X401621Y275767D01*
X401813Y276733D01*
Y281939D01*
X401621Y282906D01*
X401073Y283725D01*
X400254Y284272D01*
X399288Y284464D01*
D02*
G37*
G36*
X512572Y306005D02*
X511333Y305759D01*
X510283Y305057D01*
X509581Y304007D01*
X509335Y302768D01*
X509581Y301529D01*
X510283Y300479D01*
X510791Y299971D01*
X511841Y299269D01*
X513080Y299023D01*
X514319Y299269D01*
X515369Y299971D01*
X516071Y301021D01*
X516317Y302260D01*
X516071Y303499D01*
X515369Y304549D01*
X514861Y305057D01*
X513811Y305759D01*
X512572Y306005D01*
D02*
G37*
G36*
X409034Y78327D02*
X397313D01*
X396347Y78135D01*
X395528Y77588D01*
X394980Y76768D01*
X394788Y75802D01*
X394980Y74836D01*
X395528Y74017D01*
X396347Y73469D01*
X397313Y73277D01*
X408253D01*
X408274Y73263D01*
X409240Y73071D01*
X410206Y73263D01*
X411026Y73811D01*
X411573Y74630D01*
X411765Y75596D01*
X411573Y76562D01*
X411026Y77382D01*
X410819Y77588D01*
X410000Y78135D01*
X409034Y78327D01*
D02*
G37*
G36*
X645795Y146149D02*
X636905D01*
Y139037D01*
X638653D01*
Y120233D01*
X638587Y120206D01*
X637386Y119005D01*
X636736Y117435D01*
Y115737D01*
X637386Y114167D01*
X638587Y112966D01*
X640156Y112316D01*
X641855D01*
X643424Y112966D01*
X644625Y114167D01*
X645276Y115737D01*
Y117435D01*
X644625Y119005D01*
X643703Y119927D01*
Y139037D01*
X645795D01*
Y146149D01*
D02*
G37*
G36*
X183007Y118872D02*
X165850D01*
Y110744D01*
X183007D01*
Y118872D01*
D02*
G37*
G36*
X300887Y101102D02*
X295681D01*
X294714Y100910D01*
X293895Y100363D01*
X293348Y99544D01*
X293155Y98577D01*
X293348Y97611D01*
X293895Y96792D01*
X294714Y96245D01*
X295681Y96052D01*
X300887D01*
X301853Y96245D01*
X302672Y96792D01*
X303219Y97611D01*
X303412Y98577D01*
X303219Y99544D01*
X302672Y100363D01*
X301853Y100910D01*
X300887Y101102D01*
D02*
G37*
G36*
X373365Y112751D02*
X372768Y112632D01*
X368818D01*
X367851Y112440D01*
X367032Y111893D01*
X366485Y111074D01*
X366293Y110107D01*
X366485Y109141D01*
X367032Y108322D01*
X367851Y107774D01*
X368818Y107582D01*
X376548D01*
X377514Y107774D01*
X378333Y108322D01*
X378881Y109141D01*
X379073Y110107D01*
X378881Y111074D01*
X378333Y111893D01*
X377514Y112440D01*
X376548Y112632D01*
X373961D01*
X373365Y112751D01*
D02*
G37*
G36*
X373634Y97267D02*
X372668Y97075D01*
X371849Y96528D01*
X371579Y96258D01*
X371032Y95439D01*
X370840Y94473D01*
Y84189D01*
X371032Y83223D01*
X371579Y82404D01*
X372398Y81856D01*
X373365Y81664D01*
X374331Y81856D01*
X375150Y82404D01*
X375697Y83223D01*
X375890Y84189D01*
Y93660D01*
X375967Y93776D01*
X376159Y94742D01*
X375967Y95708D01*
X375420Y96528D01*
X374600Y97075D01*
X373634Y97267D01*
D02*
G37*
G36*
X260350Y26780D02*
X259384Y26588D01*
X258565Y26041D01*
X258017Y25222D01*
X257825Y24255D01*
Y19447D01*
X258017Y18480D01*
X258565Y17661D01*
X259384Y17114D01*
X260350Y16921D01*
X261316Y17114D01*
X262135Y17661D01*
X262683Y18480D01*
X262875Y19447D01*
Y24255D01*
X262683Y25222D01*
X262135Y26041D01*
X261316Y26588D01*
X260350Y26780D01*
D02*
G37*
G36*
X249623Y26298D02*
X248657Y26106D01*
X247838Y25559D01*
X247290Y24739D01*
X247098Y23773D01*
X247224Y23140D01*
Y19484D01*
X247416Y18518D01*
X247964Y17699D01*
X248090Y17573D01*
X248909Y17025D01*
X249875Y16833D01*
X250841Y17025D01*
X251661Y17573D01*
X252208Y18392D01*
X252400Y19358D01*
X252274Y19992D01*
Y23647D01*
X252082Y24613D01*
X251535Y25433D01*
X251409Y25559D01*
X250589Y26106D01*
X249623Y26298D01*
D02*
G37*
%LPD*%
D11*
X53086Y191529D02*
Y219531D01*
X56061Y222505D02*
X73257D01*
X53086Y219531D02*
X56061Y222505D01*
X55085Y189531D02*
X72279D01*
X53086Y191529D02*
X55085Y189531D01*
X73257Y222505D02*
X78709Y227957D01*
X84608D01*
X86180Y229529D01*
X72279Y189531D02*
X78485Y183324D01*
X84386D01*
X86180Y181531D01*
D17*
X186451Y233362D02*
X187447Y234357D01*
X178308Y233362D02*
X186451D01*
D32*
X209791Y330281D02*
D03*
Y346281D02*
D03*
Y362281D02*
D03*
X161791D02*
D03*
Y346281D02*
D03*
Y330281D02*
D03*
X165431Y69720D02*
D03*
Y53720D02*
D03*
Y37720D02*
D03*
X213431D02*
D03*
Y53720D02*
D03*
Y69720D02*
D03*
D33*
X649747Y324337D02*
D03*
Y302337D02*
D03*
X666747D02*
D03*
Y324337D02*
D03*
D34*
X743584Y150378D02*
D03*
Y165618D02*
D03*
Y200182D02*
D03*
Y184942D02*
D03*
Y212598D02*
D03*
Y227838D02*
D03*
Y263896D02*
D03*
Y248656D02*
D03*
X175514Y257048D02*
D03*
Y272288D02*
D03*
D35*
X168315Y22360D02*
D03*
X166507Y86513D02*
D03*
X750443Y295148D02*
D03*
X368699Y109989D02*
D03*
X359301D02*
D03*
X231552Y266439D02*
D03*
X87867Y113284D02*
D03*
X258039Y140317D02*
D03*
X671445Y341135D02*
D03*
X611251Y298704D02*
D03*
X611333Y309372D02*
D03*
X748759Y319843D02*
D03*
X212067Y378536D02*
D03*
X178375Y378049D02*
D03*
X123066Y183007D02*
D03*
X123061Y222505D02*
D03*
X253795Y274147D02*
D03*
X910082Y96774D02*
D03*
X909955Y108712D02*
D03*
X380286Y337708D02*
D03*
X620649Y298704D02*
D03*
X620731Y309372D02*
D03*
X380288Y311601D02*
D03*
X416547D02*
D03*
X380288Y347708D02*
D03*
X248640Y140317D02*
D03*
X87866Y102106D02*
D03*
X177713Y22360D02*
D03*
X389686Y311601D02*
D03*
X662048Y341135D02*
D03*
X407149Y311601D02*
D03*
X78469Y113284D02*
D03*
X78468Y102106D02*
D03*
X175905Y86513D02*
D03*
X211582Y22352D02*
D03*
X389686Y347708D02*
D03*
X178243Y314706D02*
D03*
X389684Y337708D02*
D03*
X344696Y110226D02*
D03*
X335298D02*
D03*
X344696Y121910D02*
D03*
X335298D02*
D03*
X222154Y266439D02*
D03*
X919353Y108712D02*
D03*
X919480Y96774D02*
D03*
X202184Y22352D02*
D03*
X329187Y200317D02*
D03*
X338585D02*
D03*
X263193Y274147D02*
D03*
X113662Y208007D02*
D03*
X123060D02*
D03*
X113663Y196835D02*
D03*
X123061D02*
D03*
X113663Y222505D02*
D03*
X113668Y183007D02*
D03*
X168977Y378049D02*
D03*
X202669Y378536D02*
D03*
X168845Y314706D02*
D03*
X739361Y319843D02*
D03*
X872490Y301752D02*
D03*
X863092D02*
D03*
X872363Y290322D02*
D03*
X862965D02*
D03*
X741045Y295148D02*
D03*
D36*
X681790Y215335D02*
D03*
D37*
X676790D02*
D03*
X671790D02*
D03*
X666790D02*
D03*
X661790D02*
D03*
X656790D02*
D03*
Y175825D02*
D03*
X661790D02*
D03*
X666790D02*
D03*
X671790D02*
D03*
X676790D02*
D03*
X681790D02*
D03*
D38*
X649535Y208080D02*
D03*
Y203080D02*
D03*
Y198080D02*
D03*
Y193080D02*
D03*
Y188080D02*
D03*
Y183080D02*
D03*
X689045D02*
D03*
Y188080D02*
D03*
Y193080D02*
D03*
Y198080D02*
D03*
Y203080D02*
D03*
Y208080D02*
D03*
D39*
X759482Y251460D02*
D03*
Y238760D02*
D03*
Y226060D02*
D03*
Y213360D02*
D03*
Y200660D02*
D03*
Y187960D02*
D03*
Y175260D02*
D03*
Y162560D02*
D03*
X844782D02*
D03*
Y175260D02*
D03*
Y187960D02*
D03*
Y200660D02*
D03*
Y213360D02*
D03*
Y226060D02*
D03*
Y238760D02*
D03*
Y251460D02*
D03*
D40*
X757809Y122682D02*
D03*
X837184Y80518D02*
D03*
X757809Y97282D02*
D03*
X837184Y105918D02*
D03*
D41*
X741172Y127635D02*
D03*
X824230Y132461D02*
D03*
X810928D02*
D03*
X635121Y88382D02*
D03*
Y78984D02*
D03*
X623626Y88382D02*
D03*
Y78984D02*
D03*
X648393D02*
D03*
Y88382D02*
D03*
X612132D02*
D03*
Y78984D02*
D03*
X151182Y92154D02*
D03*
X599814Y365196D02*
D03*
X641059Y32105D02*
D03*
X641313Y61061D02*
D03*
X708076Y238282D02*
D03*
X656290Y142597D02*
D03*
X644398Y245999D02*
D03*
X633872D02*
D03*
X187447Y224960D02*
D03*
X76453Y273432D02*
D03*
X65023D02*
D03*
X138686Y219583D02*
D03*
Y184785D02*
D03*
X258304Y219391D02*
D03*
X112776Y278638D02*
D03*
X101346D02*
D03*
X363481Y163953D02*
D03*
X331545Y264302D02*
D03*
X197353Y224960D02*
D03*
X249623Y23773D02*
D03*
X260350Y24255D02*
D03*
X439724Y320071D02*
D03*
X399288Y276733D02*
D03*
X641059Y41503D02*
D03*
X641313Y51663D02*
D03*
X614659Y142597D02*
D03*
X625094D02*
D03*
X666958D02*
D03*
X409702Y276733D02*
D03*
X151182Y101552D02*
D03*
X599814Y355798D02*
D03*
X641350Y151991D02*
D03*
X399288Y267335D02*
D03*
X409702D02*
D03*
X614659Y151995D02*
D03*
X284175Y326257D02*
D03*
X265480Y335915D02*
D03*
X331491Y326257D02*
D03*
X300721Y298450D02*
D03*
X255319Y298448D02*
D03*
X331491Y335655D02*
D03*
X350589Y326196D02*
D03*
X265480Y326517D02*
D03*
X288022Y298452D02*
D03*
X265479Y298448D02*
D03*
X625094Y151995D02*
D03*
X439724Y329469D02*
D03*
X260350Y33653D02*
D03*
X270945D02*
D03*
Y24255D02*
D03*
X249623Y33171D02*
D03*
X331545Y273700D02*
D03*
X741172Y118237D02*
D03*
X847977Y132461D02*
D03*
Y123063D02*
D03*
X860712Y132461D02*
D03*
Y123063D02*
D03*
X810928D02*
D03*
X824230D02*
D03*
X197353Y234357D02*
D03*
X363481Y154555D02*
D03*
X101346Y269240D02*
D03*
X265479Y289050D02*
D03*
X255319D02*
D03*
X112776Y269240D02*
D03*
X258304Y209993D02*
D03*
X138686Y194183D02*
D03*
Y210185D02*
D03*
X300721Y289052D02*
D03*
X288022Y289054D02*
D03*
X65023Y264034D02*
D03*
X76453D02*
D03*
X350589Y335594D02*
D03*
X284175Y335655D02*
D03*
X187447Y234357D02*
D03*
X633872Y236601D02*
D03*
X644398D02*
D03*
X666958Y151995D02*
D03*
X641350Y142593D02*
D03*
X656290Y151995D02*
D03*
X661790Y239014D02*
D03*
Y248412D02*
D03*
X708076Y228884D02*
D03*
D42*
X772922Y290322D02*
D03*
X798322D02*
D03*
X772922Y290322D02*
D03*
D43*
X128120Y121056D02*
D03*
X134620D02*
D03*
X141120Y140056D02*
D03*
X128120D02*
D03*
X134620D02*
D03*
X141120Y121056D02*
D03*
D44*
X239314Y252124D02*
D03*
X265074Y348902D02*
D03*
X331491D02*
D03*
X220314Y252124D02*
D03*
X229814Y232124D02*
D03*
X350491Y348902D02*
D03*
X340991Y368902D02*
D03*
X284074Y348902D02*
D03*
X274574Y368902D02*
D03*
D45*
X148200Y215133D02*
D03*
X148240Y189167D02*
D03*
X92771Y271954D02*
D03*
X178308Y229362D02*
D03*
Y233362D02*
D03*
X92771Y267954D02*
D03*
X148240Y193167D02*
D03*
X148200Y211133D02*
D03*
D46*
X228923Y102108D02*
D03*
Y140208D02*
D03*
X174429Y102108D02*
D03*
X228923Y127508D02*
D03*
Y114808D02*
D03*
Y152908D02*
D03*
Y165608D02*
D03*
Y178308D02*
D03*
Y191008D02*
D03*
X174429D02*
D03*
Y178308D02*
D03*
Y165608D02*
D03*
Y152908D02*
D03*
Y140208D02*
D03*
Y127508D02*
D03*
Y114808D02*
D03*
D47*
X621022Y391564D02*
D03*
Y7511D02*
D03*
Y41511D02*
D03*
Y357564D02*
D03*
D48*
X495240Y166796D02*
D03*
X509240D02*
D03*
X523240D02*
D03*
X495240Y152796D02*
D03*
X523240D02*
D03*
X495240Y138796D02*
D03*
X509240D02*
D03*
X523240D02*
D03*
X509240Y152796D02*
D03*
D49*
X553840Y253196D02*
D03*
X439540D02*
D03*
X452240D02*
D03*
X464940D02*
D03*
X477640D02*
D03*
X490340D02*
D03*
X503040D02*
D03*
X515740D02*
D03*
X528440D02*
D03*
X541140D02*
D03*
D50*
X409240Y75596D02*
D03*
X584240D02*
D03*
Y100996D02*
D03*
Y88296D02*
D03*
X409240Y240696D02*
D03*
Y88296D02*
D03*
Y100996D02*
D03*
Y113696D02*
D03*
Y126396D02*
D03*
Y139096D02*
D03*
Y151796D02*
D03*
Y164496D02*
D03*
Y177196D02*
D03*
Y215296D02*
D03*
Y227996D02*
D03*
X584240Y113696D02*
D03*
Y126396D02*
D03*
Y151796D02*
D03*
Y164496D02*
D03*
Y177196D02*
D03*
Y189896D02*
D03*
Y202596D02*
D03*
Y215296D02*
D03*
Y227996D02*
D03*
Y240696D02*
D03*
Y139096D02*
D03*
X409240Y202596D02*
D03*
Y189896D02*
D03*
D51*
X604774Y336690D02*
D03*
X646516Y261108D02*
D03*
X604774Y321564D02*
D03*
X756252Y308003D02*
D03*
X620014Y336690D02*
D03*
Y321564D02*
D03*
X741012Y308003D02*
D03*
X661756Y261108D02*
D03*
D52*
X492572Y302768D02*
D03*
X512572D02*
D03*
D53*
X246380Y325558D02*
D03*
X313436D02*
D03*
X246380Y348558D02*
D03*
X313436D02*
D03*
D54*
X300721Y213039D02*
D03*
X275322D02*
D03*
X313421Y271209D02*
D03*
X288022Y213039D02*
D03*
X313421D02*
D03*
X300721Y271209D02*
D03*
X288022D02*
D03*
X275322D02*
D03*
D55*
X294371Y242124D02*
D03*
D56*
X309676Y185058D02*
D03*
X300176D02*
D03*
X290676D02*
D03*
Y158858D02*
D03*
X300176D02*
D03*
X309676D02*
D03*
X329030Y159254D02*
D03*
X338530D02*
D03*
X348030D02*
D03*
Y185454D02*
D03*
X338530D02*
D03*
X329030D02*
D03*
D57*
X373634Y94742D02*
D03*
X353314D02*
D03*
D58*
X300887Y98577D02*
D03*
X320887Y108077D02*
D03*
X300887Y117577D02*
D03*
D59*
X315665Y13714D02*
D03*
X356698Y13719D02*
D03*
X295148Y13714D02*
D03*
X336182Y13717D02*
D03*
Y34037D02*
D03*
X295148Y34034D02*
D03*
X356698Y34039D02*
D03*
X315665Y34034D02*
D03*
D60*
X287145Y64561D02*
D03*
D61*
X277145Y50561D02*
D03*
X272145Y78561D02*
D03*
X277145D02*
D03*
X282145D02*
D03*
X287145D02*
D03*
X292145D02*
D03*
X297145D02*
D03*
X302145D02*
D03*
Y50561D02*
D03*
X297145D02*
D03*
X292145D02*
D03*
X287145D02*
D03*
X282145D02*
D03*
X272145D02*
D03*
D62*
X425748Y323620D02*
D03*
Y338620D02*
D03*
X405948Y328620D02*
D03*
Y323620D02*
D03*
Y338620D02*
D03*
Y333620D02*
D03*
X425748Y328620D02*
D03*
Y333620D02*
D03*
D63*
X415848Y331120D02*
D03*
D64*
X703326Y326937D02*
D03*
Y299737D02*
D03*
D65*
X226314Y289194D02*
D03*
X239720Y301193D02*
D03*
Y289193D02*
D03*
X226314Y301194D02*
D03*
D66*
X340558Y56121D02*
D03*
Y75121D02*
D03*
D67*
X345821Y276367D02*
D03*
Y256047D02*
D03*
D68*
X131288Y291338D02*
D03*
X159288D02*
D03*
D69*
X131338Y267206D02*
D03*
X158538D02*
D03*
D70*
X151462Y243840D02*
D03*
X129462D02*
D03*
D71*
X469072Y361269D02*
D03*
X536072D02*
D03*
D79*
X669290Y195580D02*
D03*
D128*
X86180Y237530D02*
D03*
Y173530D02*
D03*
Y181531D02*
D03*
Y229529D02*
D03*
D129*
Y223029D02*
D03*
Y218031D02*
D03*
Y213029D02*
D03*
Y208031D02*
D03*
Y203029D02*
D03*
Y198031D02*
D03*
Y193029D02*
D03*
Y188031D02*
D03*
D130*
X409702Y276733D02*
X410083Y277114D01*
X410972D02*
X414451Y280593D01*
X568749D01*
X576740Y288584D01*
X410083Y277114D02*
X410972D01*
X214000Y289194D02*
Y330281D01*
Y287979D02*
Y289194D01*
X226314D01*
X199790D02*
X214000D01*
X57800Y371460D02*
X73445Y355815D01*
X41082Y371460D02*
X57800D01*
X73445Y313905D02*
Y355815D01*
Y313905D02*
X80772Y306578D01*
X182406D01*
X199790Y289194D01*
X41082Y304459D02*
Y304460D01*
X5924Y269301D02*
X41082Y304459D01*
X5924Y15158D02*
Y269301D01*
Y15158D02*
X13464Y7618D01*
X263193Y247966D02*
Y274147D01*
X197353Y234357D02*
X227619D01*
X229814Y232124D02*
Y232162D01*
X227619Y234357D02*
X229814Y232162D01*
X187447Y234357D02*
X197353D01*
X247350Y232124D02*
X263193Y247966D01*
X229814Y223337D02*
Y232124D01*
X308362Y197250D02*
X313421Y202310D01*
X229814Y223337D02*
X255901Y197250D01*
X308362D01*
X313421Y202310D02*
Y210039D01*
X229814Y232124D02*
X247350D01*
X364370Y163953D02*
X364751Y164334D01*
Y167745D02*
X366754Y169748D01*
X363481Y163953D02*
X364370D01*
X364751Y164334D02*
Y167745D01*
X366754Y169748D02*
Y170341D01*
X13464Y7618D02*
X266571D01*
X270945Y11992D01*
X409702Y289992D02*
Y290491D01*
Y276733D02*
Y289992D01*
X175317Y102997D02*
X181828D01*
X228584Y139868D02*
X228923Y140208D01*
X218699Y139868D02*
X228584D01*
X181828Y102997D02*
X218699Y139868D01*
X174429Y102108D02*
X175317Y102997D01*
X241483Y140064D02*
X248388D01*
X248640Y140317D01*
X241075Y140010D02*
X241274Y139811D01*
X229122Y140010D02*
X241075D01*
X241271Y140276D02*
X241483Y140064D01*
X228923Y140208D02*
X229122Y140010D01*
X553840Y253196D02*
X591740D01*
X416547Y311601D02*
X416621Y311527D01*
X416547Y297335D02*
Y311601D01*
X409702Y290491D02*
X416547Y297335D01*
X597168Y75473D02*
X597291Y75350D01*
X584363Y75473D02*
X597168D01*
X584240Y75596D02*
X584363Y75473D01*
X270945Y11992D02*
Y24255D01*
X919353Y116713D02*
X922143Y119503D01*
X947179D02*
X948082Y120406D01*
X922143Y119503D02*
X947179D01*
X919353Y108712D02*
Y116713D01*
X512572Y302768D02*
X513080Y302260D01*
D131*
X418338Y275082D02*
X583692D01*
X590580Y281970D02*
Y346638D01*
X583692Y275082D02*
X590580Y281970D01*
Y346638D02*
X598612Y354670D01*
X604792Y298704D02*
X611251D01*
X604774Y309337D02*
X604792Y309354D01*
X611315D01*
X611333Y309372D01*
X376072Y288381D02*
X380288Y292597D01*
X649747Y324337D02*
Y335135D01*
X655747Y341135D01*
X662048D01*
X631952Y277129D02*
Y318516D01*
X624618Y269795D02*
X631952Y277129D01*
X431897Y269795D02*
X624618D01*
X631952Y318516D02*
X637864Y324427D01*
X649656D01*
X649747Y302337D02*
X649784Y302299D01*
Y291566D02*
Y302299D01*
X649437Y324646D02*
X649747Y324337D01*
X662006Y260858D02*
X671068D01*
X661756Y261108D02*
X662006Y260858D01*
X661756Y261743D02*
X666747Y266733D01*
Y302337D01*
X437863Y68150D02*
X440182Y70469D01*
X384556Y74930D02*
X391336Y68150D01*
X437863D01*
X397313Y75802D02*
X409034D01*
X440182Y89662D02*
Y252554D01*
Y70469D02*
Y89662D01*
X409034Y75802D02*
X409240Y75596D01*
X384810Y43434D02*
Y43522D01*
X405502Y64215D02*
X494491D01*
X531272Y100996D01*
X384810Y43522D02*
X405502Y64215D01*
X584240Y100996D02*
X654400D01*
X531272D02*
X584240D01*
X439540Y253196D02*
X440182Y252554D01*
X723684Y256276D02*
X723720Y256311D01*
X728185D01*
X735802Y263929D01*
X694734Y256184D02*
X723592D01*
X681996Y243445D02*
X694734Y256184D01*
X735802Y263929D02*
X743551D01*
X681800Y219655D02*
X681996Y219851D01*
X681800Y218934D02*
Y219655D01*
X681996Y219851D02*
Y243445D01*
X861552Y273268D02*
X862965Y274681D01*
X854710Y278365D02*
Y298458D01*
X671790Y250817D02*
X697924Y276951D01*
X702257Y273268D02*
X861552D01*
X676790Y247801D02*
X702257Y273268D01*
X853297Y276951D02*
X854710Y278365D01*
X697924Y276951D02*
X853297D01*
X862965Y274681D02*
Y290322D01*
X78469Y113284D02*
X78469Y113284D01*
X29169Y113284D02*
X78469D01*
X222154Y266439D02*
X222747Y267032D01*
X237426Y286279D02*
Y287399D01*
X222747Y271600D02*
X237426Y286279D01*
Y287399D02*
X239109Y289082D01*
X222747Y267032D02*
Y271600D01*
X239109Y289082D02*
X239720D01*
Y289193D02*
X239791Y289121D01*
X78170Y89261D02*
X78320Y89410D01*
Y101958D01*
X78468Y102106D01*
X166507Y70227D02*
Y86513D01*
X166000Y69720D02*
X166507Y70227D01*
X166000Y53720D02*
X181484D01*
X189431Y45773D01*
Y28066D02*
Y45773D01*
Y28066D02*
X195145Y22352D01*
X202184D01*
X211582D02*
X224028D01*
X234696Y33020D02*
Y66514D01*
X224028Y22352D02*
X234696Y33020D01*
X241879Y30956D02*
Y61944D01*
X186103Y13970D02*
X224893D01*
X241879Y30956D01*
Y61944D02*
X249749Y69814D01*
X177713Y21472D02*
Y22360D01*
Y21472D02*
X178792Y20392D01*
X179681D01*
X186103Y13970D01*
X234696Y66514D02*
X295743Y127562D01*
X257175Y53720D02*
X260334Y50561D01*
X257175Y53720D02*
Y83785D01*
X261782Y88392D01*
X273046D01*
X214000Y37720D02*
X226267D01*
X214000Y53720D02*
X226267D01*
X214094Y69814D02*
X226361D01*
X214000Y69720D02*
X214094Y69814D01*
X166000Y25564D02*
X168315Y23249D01*
Y22360D02*
Y23249D01*
X166000Y25564D02*
Y37720D01*
X262660Y118049D02*
X272895D01*
X175905Y86513D02*
X231124D01*
X262660Y118049D01*
X249925Y33473D02*
Y43496D01*
X254293Y47864D01*
X249623Y33171D02*
X249925Y33473D01*
X260334Y50561D02*
X272145D01*
X166000Y316100D02*
Y330281D01*
Y316100D02*
X167394Y314706D01*
X168845D01*
X189568Y375448D02*
X192655Y378536D01*
X189568Y350058D02*
Y375448D01*
X192655Y378536D02*
X202669D01*
X166000Y346281D02*
X185791D01*
X189568Y350058D01*
X166000Y362281D02*
Y374667D01*
X167414Y376080D02*
X167898D01*
X168977Y377160D01*
Y378049D01*
X166000Y374667D02*
X167414Y376080D01*
X242628Y375979D02*
X322268D01*
X329345Y368902D01*
X340991D01*
X214000Y346281D02*
X224347D01*
X246969Y368902D02*
X274574D01*
X224347Y346281D02*
X246969Y368902D01*
X228777Y362281D02*
X228854Y362204D01*
X214000Y362281D02*
X228777D01*
X228854Y362204D02*
X242628Y375979D01*
X185000Y314698D02*
X185008Y314690D01*
X178243Y314706D02*
X178251Y314698D01*
X185000D01*
X295743Y127562D02*
X373981D01*
X254294Y47864D02*
X258662Y52233D01*
X254293Y47864D02*
X254294D01*
X269239Y131906D02*
X377478D01*
X245791Y108458D02*
X269239Y131906D01*
X217082Y108458D02*
X245791D01*
X244399Y114808D02*
X265824Y136234D01*
X228923Y114808D02*
X244399D01*
X265824Y136234D02*
X378908D01*
X212662Y112878D02*
X217082Y108458D01*
X212662Y112878D02*
Y123235D01*
X249623Y23773D02*
X249749Y23647D01*
Y19484D02*
X249875Y19358D01*
X249749Y19484D02*
Y23647D01*
X287902Y298568D02*
Y305451D01*
X287782Y305571D02*
X287902Y305451D01*
X313543Y318683D02*
Y325451D01*
X287902Y298568D02*
X288020Y298450D01*
X313436Y325558D02*
X313543Y325451D01*
X313421Y210039D02*
Y213039D01*
X246155Y318658D02*
Y325334D01*
X246380Y325558D01*
X151462Y243840D02*
X158538Y250916D01*
Y267206D01*
X614659Y142597D02*
X625094D01*
X621228Y198080D02*
X649535D01*
X641406Y156355D02*
X641462Y156411D01*
X641406Y152047D02*
Y156355D01*
X641350Y151991D02*
X641406Y152047D01*
X759509Y175233D02*
X771940D01*
X759482Y175260D02*
X759509Y175233D01*
X716741Y150091D02*
Y177155D01*
X723323Y143510D02*
X772829D01*
X721797Y139827D02*
X774354D01*
X716741Y150091D02*
X723323Y143510D01*
X713058Y148566D02*
X721797Y139827D01*
X713058Y148566D02*
Y175630D01*
X699949Y188738D02*
X713058Y175630D01*
X701475Y192421D02*
X716741Y177155D01*
X844782Y187960D02*
X855636D01*
X859282Y191606D02*
Y207502D01*
X855636Y187960D02*
X859282Y191606D01*
Y207502D02*
X867486Y215706D01*
X883082D01*
X844782Y162560D02*
X846913Y164691D01*
X855094D02*
X870056Y179654D01*
Y183080D02*
X872082Y185106D01*
X846913Y164691D02*
X855094D01*
X870056Y179654D02*
Y183080D01*
X844782Y226060D02*
X844936Y225906D01*
X872082D01*
X844782Y251460D02*
X867728D01*
X883082Y236106D01*
X840232Y175260D02*
X844782D01*
X824230Y159258D02*
X840232Y175260D01*
X824230Y132461D02*
Y159258D01*
X840232Y238760D02*
X844782D01*
X810928Y209456D02*
X840232Y238760D01*
X810928Y132461D02*
Y209456D01*
X743584Y153299D02*
X743752Y153131D01*
X764164D02*
X764333Y152962D01*
X743752Y153131D02*
X764164D01*
X774354Y139827D02*
X786257Y151730D01*
X772829Y143510D02*
X782574Y153256D01*
X728383Y197261D02*
X743584D01*
X723684Y201960D02*
X728383Y197261D01*
Y215519D02*
X743584D01*
X723684Y210820D02*
X728383Y215519D01*
X744445Y249539D02*
X746366Y251460D01*
X743474Y249539D02*
X744445D01*
X733806Y238506D02*
X759228D01*
X759482Y238760D01*
X786257Y151730D02*
Y231561D01*
X780145Y233959D02*
Y243294D01*
X782574Y153256D02*
Y231530D01*
X780145Y233959D02*
X782574Y231530D01*
X786257Y231561D02*
X788686Y233989D01*
Y234960D01*
X743733Y227239D02*
X744704D01*
X745882Y226060D01*
X759482D01*
X746366Y251460D02*
X759482D01*
X695124Y188738D02*
X699949D01*
X694475Y188090D02*
X695124Y188738D01*
X689055Y188090D02*
X694475D01*
X689045Y188080D02*
X689055Y188090D01*
X689045Y193080D02*
X689055Y193070D01*
X694475D02*
X695124Y192421D01*
X689055Y193070D02*
X694475D01*
X695124Y192421D02*
X701475D01*
X743584Y162697D02*
X759345D01*
X743584Y187863D02*
X759385D01*
X712993Y198738D02*
X738259Y173472D01*
X748655Y181684D02*
X754932Y187960D01*
X714519Y202421D02*
X739785Y177155D01*
X748655Y168836D02*
X754932Y162560D01*
X759345Y162697D02*
X759482Y162560D01*
X759385Y187863D02*
X759482Y187960D01*
X695124Y198738D02*
X712993D01*
X695124Y202421D02*
X714519D01*
X738259Y173472D02*
X747242D01*
X739785Y177155D02*
X747242D01*
Y173472D02*
X748655Y172059D01*
Y178569D02*
Y181684D01*
X747242Y177155D02*
X748655Y178569D01*
Y168836D02*
Y172059D01*
X754932Y162560D02*
X759482D01*
X689045Y198080D02*
X689055Y198090D01*
X694475D01*
X695124Y198738D01*
X754932Y187960D02*
X759482D01*
X694475Y203070D02*
X695124Y202421D01*
X689055Y203070D02*
X694475D01*
X689045Y203080D02*
X689055Y203070D01*
X708008Y238350D02*
Y243698D01*
X707940Y243766D02*
X708008Y243698D01*
Y238350D02*
X708076Y238282D01*
X705702Y164204D02*
X705959Y163947D01*
X705425Y164204D02*
X705702D01*
X705959Y163947D02*
Y163947D01*
X689962Y179667D02*
X705425Y164204D01*
X689045Y183080D02*
X689952D01*
X689962Y179667D02*
Y183070D01*
X689952Y183080D02*
X689962Y183070D01*
X707187Y228884D02*
X708076D01*
X691219Y212916D02*
X707187Y228884D01*
X691219Y208090D02*
Y212916D01*
X691209Y208080D02*
X691219Y208090D01*
X689045Y208080D02*
X691209D01*
X676790Y215335D02*
Y247801D01*
X671790Y215335D02*
Y250817D01*
X368818Y110107D02*
X376548D01*
X373246D02*
X373365Y110226D01*
X241136Y274282D02*
X253659D01*
X239594Y252404D02*
Y259697D01*
X241000Y274417D02*
X241136Y274282D01*
X239314Y252124D02*
X239594Y252404D01*
X373981Y127562D02*
X384556Y116987D01*
Y74930D02*
Y116987D01*
X377478Y131906D02*
X395983Y113401D01*
X798322Y290322D02*
X798798Y290798D01*
X810627D01*
X621022Y391564D02*
X621764Y392307D01*
X636091D01*
X260350Y19447D02*
Y24255D01*
X380286Y337708D02*
X380368Y337626D01*
Y330683D02*
X380450Y330601D01*
X380368Y330683D02*
Y337626D01*
X331545Y259096D02*
Y264302D01*
X339736Y146789D02*
X361192D01*
X363481Y149078D02*
Y154555D01*
X361192Y146789D02*
X363481Y149078D01*
X338322Y148203D02*
X339736Y146789D01*
X338322Y148203D02*
Y159046D01*
X338530Y159254D01*
X228197Y101382D02*
X228923Y102108D01*
X228197Y94748D02*
Y101382D01*
X635121Y73778D02*
Y78984D01*
X623626Y73778D02*
Y78984D01*
X612132Y73778D02*
Y78984D01*
X641313Y61061D02*
Y66267D01*
X641059Y26899D02*
Y32105D01*
X757428Y96901D02*
X757809Y97282D01*
X757428Y84582D02*
Y96901D01*
X836838Y80172D02*
X837184Y80518D01*
X823934Y80172D02*
X836838D01*
X904749Y108712D02*
X909955D01*
X904876Y96774D02*
X910082D01*
X671445Y341135D02*
X676652D01*
X748759Y319843D02*
X753965D01*
X756252Y308003D02*
X761458D01*
X634297Y246424D02*
Y250780D01*
X633872Y245999D02*
X634297Y246424D01*
X607084Y198080D02*
X621228D01*
X634297Y250780D02*
X634721Y251205D01*
X644398Y245999D02*
Y251205D01*
X641310Y261108D02*
X646516D01*
X599568Y321564D02*
X604774D01*
X599568Y336690D02*
X604774D01*
X599814Y365196D02*
Y370402D01*
X425748Y338620D02*
X425807Y338679D01*
Y344531D02*
X425865Y344589D01*
X425807Y338679D02*
Y344531D01*
X376428Y379476D02*
X441198D01*
X447548Y373126D01*
X359171Y362219D02*
X376428Y379476D01*
X447548Y340120D02*
Y373126D01*
X347726Y358902D02*
X376174Y387350D01*
X405130D01*
X425748Y318414D02*
Y323620D01*
X434518Y320071D02*
X439724D01*
X399288Y276733D02*
Y281939D01*
X309676Y185058D02*
X314882D01*
X274891Y213469D02*
Y221245D01*
X258304Y224597D02*
X271539D01*
X274891Y213469D02*
X275322Y213039D01*
X271539Y224597D02*
X274891Y221245D01*
X258304Y219391D02*
Y224597D01*
X175514Y257048D02*
X175599Y256963D01*
Y250362D02*
Y256963D01*
X197353Y219753D02*
Y224960D01*
X187447Y219753D02*
Y224960D01*
X253659Y274282D02*
X253795Y274147D01*
X231552Y266439D02*
X236758D01*
X373365Y94473D02*
X373634Y94742D01*
X373365Y84189D02*
Y94473D01*
X297493Y114684D02*
X300387Y117577D01*
X282145Y78561D02*
Y98835D01*
X297493Y114184D01*
Y114684D01*
X300387Y117577D02*
X308443D01*
X295681Y98577D02*
X300887D01*
X277138Y80354D02*
Y84300D01*
X273046Y88392D02*
X277138Y84300D01*
X151182Y86948D02*
Y92154D01*
X87867Y113284D02*
X93074D01*
X138686Y219583D02*
Y224789D01*
X123061Y222505D02*
X128267D01*
X138686Y179579D02*
Y184785D01*
X123066Y183007D02*
X128272D01*
X86180Y173530D02*
X86183Y173533D01*
X95790D02*
X95793Y173537D01*
X86183Y173533D02*
X95790D01*
X86180Y237530D02*
X86185Y237525D01*
X95799D02*
X95805Y237519D01*
X86185Y237525D02*
X95799D01*
X112776Y278638D02*
Y283844D01*
X101346Y278638D02*
Y283844D01*
X76453Y273432D02*
Y278638D01*
X65023Y273432D02*
Y278638D01*
X216905Y127479D02*
X228894D01*
X212662Y123235D02*
X216905Y127479D01*
X250736Y154495D02*
X270103D01*
X284281Y140317D02*
X370476D01*
X270103Y154495D02*
X284281Y140317D01*
X295924Y144907D02*
X326207D01*
X290676Y150154D02*
Y158858D01*
Y150154D02*
X295924Y144907D01*
X242799Y146558D02*
X250736Y154495D01*
X211136Y146558D02*
X242799D01*
X258039Y146732D02*
X258040Y146733D01*
X258039Y140318D02*
Y146732D01*
X258039Y140317D02*
X258039Y140318D01*
X198585Y134007D02*
X211136Y146558D01*
X149300Y134007D02*
X198585D01*
X378908Y136234D02*
X388910Y126231D01*
X370476Y140317D02*
X378508Y148349D01*
X326207Y144907D02*
X329030Y147730D01*
X265480Y298450D02*
X288020D01*
X265479Y298448D02*
X265480Y298449D01*
X265480Y298450D01*
X331491Y303858D02*
Y326257D01*
X650957Y113284D02*
X656290Y118617D01*
Y142597D01*
X649986Y113284D02*
X650957D01*
X641178Y142421D02*
X641350Y142593D01*
X641006Y116586D02*
X641178Y116758D01*
Y142421D01*
X410591Y267335D02*
X418338Y275082D01*
X452240Y240273D02*
Y253196D01*
X428498Y266396D02*
X431897Y269795D01*
X604012Y219796D02*
Y263255D01*
X541044Y253292D02*
Y263255D01*
X542458Y264668D01*
X602598D02*
X604012Y263255D01*
X542458Y264668D02*
X602598D01*
X380288Y292597D02*
Y311601D01*
X482092Y73914D02*
Y183896D01*
X490728Y192532D01*
X544576D01*
X559912Y177196D01*
X584240D01*
X583574Y227330D02*
X584240Y227996D01*
X517906Y227330D02*
X583574D01*
X452240Y202596D02*
X473806D01*
X511906Y240696D01*
X584240D01*
X128120Y125956D02*
X134620Y132456D01*
X128120Y121056D02*
Y125956D01*
X141656Y126363D02*
X149300Y134007D01*
X141656Y121592D02*
Y126363D01*
X141120Y133490D02*
Y140056D01*
X134620Y132456D02*
Y140056D01*
Y121208D02*
Y126990D01*
X141120Y133490D01*
Y121056D02*
X141656Y121592D01*
X128120Y112009D02*
Y121056D01*
X598612Y354670D02*
Y354670D01*
X599740Y355798D01*
X599814D01*
X409702Y267335D02*
X410591D01*
X409663Y240273D02*
X420624D01*
X409240Y240696D02*
X409663Y240273D01*
X641462Y156411D02*
X646760Y161709D01*
X657492D01*
X661790Y166007D01*
Y175825D01*
X621022Y357564D02*
X638947D01*
X544576Y136738D02*
X554510Y126804D01*
X544576Y136738D02*
Y174498D01*
X409240Y240696D02*
X409702Y241158D01*
Y267335D01*
X554510Y126804D02*
X583832D01*
X350589Y342199D02*
Y348804D01*
X284175Y342228D02*
Y348801D01*
X428498Y220726D02*
Y266396D01*
X423068Y215296D02*
X428498Y220726D01*
X409240Y215296D02*
X423068D01*
X584028Y164284D02*
X584240Y164496D01*
X570546Y164284D02*
X584028D01*
X583832Y126804D02*
X584240Y126396D01*
X409652Y227584D02*
X420624D01*
X409240Y227996D02*
X409652Y227584D01*
X301244Y358902D02*
X347726D01*
X297547Y355205D02*
X301244Y358902D01*
X297547Y329558D02*
Y355205D01*
X294245Y326257D02*
X297547Y329558D01*
X284175Y326257D02*
X294245D01*
X541044Y253292D02*
X541140Y253196D01*
X359171Y327609D02*
Y362219D01*
X357757Y326196D02*
X359171Y327609D01*
X350589Y326196D02*
X357757D01*
X393603Y164053D02*
X408797D01*
X409240Y164496D01*
X394716Y139192D02*
X409144D01*
X409240Y139096D01*
X394538Y101091D02*
X409145D01*
X409240Y100996D01*
X128322Y148642D02*
X128524Y148844D01*
X128322Y140258D02*
Y148642D01*
X128120Y140056D02*
X128322Y140258D01*
X378508Y148349D02*
Y240596D01*
X329030Y147730D02*
Y159254D01*
X690283Y134476D02*
Y155454D01*
X632968Y163672D02*
X645120Y175825D01*
X682986Y147636D02*
Y157542D01*
X681790Y163947D02*
X690283Y155454D01*
X689807Y134000D02*
X690283Y134476D01*
X676790Y163738D02*
X682986Y157542D01*
X645120Y175825D02*
X656790D01*
X625429Y170034D02*
X638475Y183080D01*
X625094Y151995D02*
Y162160D01*
X617220Y170034D02*
X625094Y162160D01*
X617220Y170034D02*
X625429D01*
X604012Y172316D02*
Y183896D01*
Y172316D02*
X614659Y161669D01*
Y151995D02*
Y161669D01*
X611484Y177150D02*
X626772D01*
X604012Y183896D02*
X624555D01*
X633739Y193080D01*
X626772Y177150D02*
X637703Y188080D01*
X596448Y187444D02*
X607084Y198080D01*
X596448Y147010D02*
X600154Y143303D01*
X613952D01*
X596448Y147010D02*
Y187444D01*
X587533Y193190D02*
X592337D01*
X606031Y206884D02*
X631026D01*
X584240Y189896D02*
X587533Y193190D01*
X592337D02*
X606031Y206884D01*
X584834Y203190D02*
X593946D01*
X602084Y211328D01*
X633292D01*
X584240Y202596D02*
X584834Y203190D01*
X613952Y143303D02*
X614659Y142597D01*
X641313Y51663D02*
X647261D01*
X648674Y53077D02*
Y77905D01*
X647261Y51663D02*
X648674Y53077D01*
X648393Y78185D02*
Y78984D01*
Y78185D02*
X648674Y77905D01*
X649473Y78984D02*
X654558D01*
X656844Y81270D01*
Y98552D01*
X654400Y100996D02*
X656844Y98552D01*
X671790Y163530D02*
X676240Y159080D01*
Y139341D02*
Y159080D01*
Y139341D02*
X676438Y139143D01*
X374794Y347708D02*
X380288D01*
X375469Y311601D02*
X380288D01*
X373380Y346295D02*
X374794Y347708D01*
X373380Y313690D02*
Y346295D01*
Y313690D02*
X375469Y311601D01*
X394462Y88296D02*
X409240D01*
X656290Y151995D02*
X666958D01*
X666800Y152153D02*
X666958Y151995D01*
X666800Y152153D02*
Y175815D01*
X666790Y175825D02*
X666800Y175815D01*
X681790Y163947D02*
Y175825D01*
X676790Y163738D02*
Y175825D01*
X671790Y163530D02*
Y175825D01*
X661756Y261108D02*
X661790Y261074D01*
Y248412D02*
Y261074D01*
X656790Y215335D02*
Y225098D01*
X645287Y236601D02*
X656790Y225098D01*
X644398Y236601D02*
X645287D01*
X633872D02*
X644398D01*
X661790Y215335D02*
Y239014D01*
X854710Y298458D02*
X858004Y301752D01*
X863092D01*
X633739Y193080D02*
X649535D01*
X638475Y183080D02*
X649535D01*
X633292Y211328D02*
X636540Y208080D01*
X631026Y206884D02*
X634829Y203080D01*
X649535D01*
X636540Y208080D02*
X649535D01*
X569994Y215900D02*
X583636D01*
X584240Y215296D01*
X395983Y113401D02*
X408945D01*
X409240Y113696D01*
X637703Y188080D02*
X649535D01*
X265548Y335847D02*
X270861D01*
X265480Y335915D02*
X265548Y335847D01*
X283160Y327272D02*
X284175Y326257D01*
X270861Y335847D02*
X279436Y327272D01*
X283160D01*
X326083Y298450D02*
X331491Y303858D01*
X300721Y298450D02*
X326083D01*
X331491Y335655D02*
X331919Y335227D01*
X345378Y326739D02*
X350006D01*
X331919Y335227D02*
X336889D01*
X345378Y326739D01*
X350006D02*
X350569Y326176D01*
X265480Y326516D02*
X265480Y326517D01*
X265480Y298449D02*
Y326516D01*
X394716Y177546D02*
X408890D01*
X409240Y177196D01*
X388910Y126231D02*
X409076D01*
X284175Y335655D02*
Y342228D01*
X284074Y348902D02*
X284175Y348801D01*
X350589Y335594D02*
Y342199D01*
X350491Y348902D02*
X350589Y348804D01*
X270818Y33780D02*
X270945Y33653D01*
X260477Y33780D02*
X270818D01*
X260350Y33907D02*
X260477Y33780D01*
X271834Y33653D02*
X282145Y43964D01*
Y50561D01*
X308443Y117577D02*
X312776Y121910D01*
X335298D01*
X292292Y177181D02*
X293706Y175768D01*
X290676Y185058D02*
X292292Y183442D01*
X293706Y175768D02*
X326396D01*
X292292Y177181D02*
Y183442D01*
X327810Y177181D02*
Y184234D01*
X329030Y185454D01*
X326396Y175768D02*
X327810Y177181D01*
X261806Y201912D02*
X285426D01*
X258478Y205239D02*
Y208913D01*
Y205239D02*
X261806Y201912D01*
X258304Y209088D02*
X258478Y208913D01*
X258304Y209088D02*
Y209993D01*
X285426Y201912D02*
X288347Y204833D01*
X288022Y213039D02*
X288347Y212713D01*
Y204833D02*
Y212713D01*
X311973Y170341D02*
X346599D01*
X309676Y158858D02*
Y168044D01*
X311973Y170341D01*
X346599D02*
X348030Y168910D01*
Y159254D02*
Y168910D01*
X220314Y252124D02*
X222345Y254155D01*
X222154Y266439D02*
X222345Y266248D01*
Y254155D02*
Y266248D01*
X239791Y289121D02*
X255247D01*
X255319Y289050D01*
X113649Y196850D02*
X113662Y196836D01*
X102616Y196850D02*
X113649D01*
X101435Y198031D02*
X102616Y196850D01*
X86180Y198031D02*
X101435D01*
X97733Y207939D02*
X108836Y196836D01*
X86271Y207939D02*
X97733D01*
X86180Y213029D02*
X100153D01*
X105175Y208007D02*
X113662D01*
X100153Y213029D02*
X105175Y208007D01*
X158252Y127508D02*
X174429D01*
X154358Y123614D02*
X158252Y127508D01*
X154358Y112014D02*
Y123614D01*
X152452Y110109D02*
X154358Y112014D01*
X130020Y110109D02*
X152452D01*
X128120Y112009D02*
X130020Y110109D01*
X141272Y140208D02*
X174429D01*
X141120Y140056D02*
X141272Y140208D01*
X64713Y213029D02*
X86180D01*
X60321Y206638D02*
Y208637D01*
X64713Y213029D01*
X60321Y206638D02*
X63929Y203029D01*
X113663Y221616D02*
Y222505D01*
X110078Y218031D02*
X113663Y221616D01*
X86180Y218031D02*
X110078D01*
X113668Y183007D02*
Y183896D01*
X109533Y188031D02*
X113668Y183896D01*
X86180Y188031D02*
X109533D01*
X63929Y203029D02*
X86180D01*
X123061Y197724D02*
X124141Y198804D01*
X123061Y196835D02*
Y197724D01*
X127041Y204025D02*
X134620D01*
X123060Y207118D02*
X124139Y206038D01*
X125030Y198804D02*
X126569Y200343D01*
X125028Y206038D02*
X127041Y204025D01*
X123060Y207118D02*
Y208007D01*
X126569Y200343D02*
X134620D01*
X124141Y198804D02*
X125030D01*
X124139Y206038D02*
X125028D01*
X222822Y154495D02*
Y156003D01*
X221408Y157416D02*
X222822Y156003D01*
X201676Y166877D02*
X211136Y157416D01*
X221408D01*
X222822Y154495D02*
X224409Y152908D01*
X201676Y166877D02*
Y194755D01*
X224409Y152908D02*
X228923D01*
X196088Y200343D02*
X201676Y194755D01*
X142711Y200343D02*
X196088D01*
X139575Y194183D02*
X140654Y195263D01*
Y198286D01*
X138686Y194183D02*
X139575D01*
X140654Y198286D02*
X142711Y200343D01*
X212662Y161099D02*
X221408D01*
X222822Y162513D02*
Y164021D01*
X224409Y165608D01*
X205359Y168402D02*
X212662Y161099D01*
X221408D02*
X222822Y162513D01*
X224409Y165608D02*
X228923D01*
X205359Y168402D02*
Y196280D01*
X142711Y204025D02*
X197614D01*
X205359Y196280D01*
X138686Y210185D02*
X139575D01*
X140654Y206082D02*
Y209105D01*
Y206082D02*
X142711Y204025D01*
X139575Y210185D02*
X140654Y209105D01*
X136717Y195263D02*
Y198245D01*
X134620Y200343D02*
X136717Y198245D01*
Y195263D02*
X137797Y194183D01*
X138686D01*
X134620Y204025D02*
X136717Y206123D01*
Y209105D01*
X137797Y210185D02*
X138686D01*
X136717Y209105D02*
X137797Y210185D01*
D132*
X904474Y163098D02*
Y281301D01*
X884023Y301752D02*
X904474Y281301D01*
X405464Y339104D02*
X405948Y338620D01*
X406015Y339104D02*
Y365097D01*
X402348Y339104D02*
X405464D01*
X255247Y298519D02*
Y312127D01*
X536702Y122514D02*
X545519Y113696D01*
X536702Y122514D02*
Y184404D01*
X255247Y298519D02*
X255319Y298448D01*
X554748Y148324D02*
Y158513D01*
X563966Y138938D02*
X584082D01*
X559308Y143596D02*
Y143765D01*
X554748Y148324D02*
X559308Y143765D01*
Y143596D02*
X563966Y138938D01*
X545519Y113696D02*
X584240D01*
X584082Y138938D02*
X584240Y139096D01*
X385064Y199390D02*
Y290322D01*
X389686Y294944D01*
X385064Y199390D02*
X394558Y189896D01*
X409240D01*
X389686Y294944D02*
Y311601D01*
X394558Y202596D02*
X409240D01*
X389686Y207468D02*
X394558Y202596D01*
X407149Y305333D02*
Y311601D01*
X389686Y287869D02*
X407149Y305333D01*
X389686Y207468D02*
Y287869D01*
X389771Y347623D02*
X393830D01*
X402348Y339104D01*
X389686Y347708D02*
X389771Y347623D01*
X389684Y337708D02*
X389780Y337612D01*
X393828D02*
X397820Y333620D01*
X389780Y337612D02*
X393828D01*
X397820Y333620D02*
X405948D01*
X894082Y152706D02*
X904474Y163098D01*
X872363Y290322D02*
X886407D01*
X894082Y282647D01*
Y271006D02*
Y282647D01*
X872490Y301752D02*
X884023D01*
X861576Y133325D02*
Y136605D01*
X894082Y169111D02*
Y185510D01*
X861576Y136605D02*
X894082Y169111D01*
X860712Y132461D02*
X861576Y133325D01*
X884286Y195306D02*
X894082Y185510D01*
X872082Y205506D02*
X872482D01*
X882682Y195306D01*
X883082D01*
X884286D01*
X882682Y174906D02*
X883082D01*
X872482Y164706D02*
X882682Y174906D01*
X872082Y164706D02*
X872482D01*
X847977Y140601D02*
X872082Y164706D01*
X847977Y132461D02*
Y140601D01*
D133*
X338603Y200335D02*
Y234338D01*
X345694Y241429D01*
Y256286D01*
X338585Y200317D02*
X338603Y200335D01*
D134*
X217907Y287796D02*
D03*
D135*
X275322Y271265D02*
D03*
D136*
X757768Y122711D02*
D03*
D137*
X752307Y127825D02*
D03*
D138*
X764350Y295148D02*
D03*
D139*
X837184Y110363D02*
D03*
D140*
X404495Y267335D02*
D03*
D141*
X630262Y91296D02*
D03*
D142*
X641186Y46583D02*
D03*
D143*
X632628Y41503D02*
D03*
D144*
X617904Y88382D02*
D03*
D145*
X613514Y355908D02*
D03*
D146*
X398423Y328620D02*
D03*
D147*
X389777Y319273D02*
D03*
D148*
X405948Y316023D02*
D03*
D149*
X78468Y107695D02*
D03*
D150*
X265480Y341395D02*
D03*
X331491Y341135D02*
D03*
D151*
X253477Y348558D02*
D03*
D152*
X320213D02*
D03*
D153*
X919417Y102743D02*
D03*
D154*
X835820Y123063D02*
D03*
D155*
X299645Y78561D02*
D03*
Y50561D02*
D03*
D156*
X335298Y116068D02*
D03*
D157*
X307230Y50179D02*
D03*
Y81063D02*
D03*
D158*
X335898Y75121D02*
D03*
Y56121D02*
D03*
D159*
X334184Y53524D02*
D03*
Y77719D02*
D03*
D160*
X329187Y193863D02*
D03*
D161*
X180845Y272288D02*
D03*
D162*
X187447Y254085D02*
D03*
D163*
X209093Y234780D02*
D03*
D164*
X338839Y194473D02*
D03*
D165*
X233017Y306767D02*
D03*
D166*
X300721Y277131D02*
D03*
D167*
X288022Y277131D02*
D03*
D168*
X260399Y289050D02*
D03*
D169*
X269614Y274147D02*
D03*
D170*
X175514Y279908D02*
D03*
D171*
X166124Y291338D02*
D03*
D172*
X158538Y255802D02*
D03*
D173*
X131313Y278222D02*
D03*
D174*
X71189Y257525D02*
D03*
D175*
X34229Y205530D02*
D03*
D176*
X57379Y162330D02*
D03*
Y248730D02*
D03*
D177*
X142495Y194318D02*
D03*
D178*
X142455Y210016D02*
D03*
D179*
X54068Y125834D02*
D03*
Y55734D02*
D03*
D180*
X29169Y113284D02*
D03*
Y68084D02*
D03*
D181*
X21083Y304460D02*
D03*
X41083D02*
D03*
X21083Y371460D02*
D03*
X41083D02*
D03*
X53082Y327960D02*
D03*
Y347960D02*
D03*
D182*
X883082Y236106D02*
D03*
X872082Y185106D02*
D03*
Y225906D02*
D03*
X883082Y215706D02*
D03*
X872082Y205506D02*
D03*
X883082Y195306D02*
D03*
Y174906D02*
D03*
X872082Y164706D02*
D03*
X894082Y271006D02*
D03*
Y248106D02*
D03*
Y152706D02*
D03*
Y129806D02*
D03*
D183*
X297145Y69561D02*
D03*
Y64561D02*
D03*
Y59561D02*
D03*
X292145Y69561D02*
D03*
Y64561D02*
D03*
Y59561D02*
D03*
X287145Y69561D02*
D03*
Y64561D02*
D03*
Y59561D02*
D03*
X282145Y69561D02*
D03*
Y64561D02*
D03*
Y59561D02*
D03*
X277145Y69561D02*
D03*
Y64561D02*
D03*
Y59561D02*
D03*
D184*
X502240Y166796D02*
D03*
X516240D02*
D03*
X495240Y159796D02*
D03*
X509240D02*
D03*
X523240D02*
D03*
X502240Y152796D02*
D03*
X516240D02*
D03*
X495240Y145796D02*
D03*
X509240D02*
D03*
X523240D02*
D03*
X502240Y138796D02*
D03*
X516240D02*
D03*
X576740Y288584D02*
D03*
X604792Y298704D02*
D03*
X604774Y309337D02*
D03*
X599948Y336690D02*
D03*
Y321564D02*
D03*
X620784Y288584D02*
D03*
X649784Y291566D02*
D03*
X671068Y260858D02*
D03*
X676544Y188080D02*
D03*
Y202934D02*
D03*
X384810Y43434D02*
D03*
X397313Y75802D02*
D03*
X440182Y89662D02*
D03*
X799846Y181610D02*
D03*
Y191262D02*
D03*
Y200914D02*
D03*
Y210566D02*
D03*
X373634Y72390D02*
D03*
Y62738D02*
D03*
Y53086D02*
D03*
X64899Y145796D02*
D03*
X55247D02*
D03*
X45595D02*
D03*
X35943D02*
D03*
X275310Y173067D02*
D03*
X265658D02*
D03*
X374888Y251206D02*
D03*
Y260858D02*
D03*
Y270510D02*
D03*
Y280162D02*
D03*
X529252Y73862D02*
D03*
X538904D02*
D03*
X548556D02*
D03*
X558208D02*
D03*
X691896Y390906D02*
D03*
X701548D02*
D03*
X711200D02*
D03*
X720852D02*
D03*
X588010D02*
D03*
X578358D02*
D03*
X568706D02*
D03*
X559054D02*
D03*
X265957Y41805D02*
D03*
X78170Y89261D02*
D03*
X249749Y69814D02*
D03*
X226267Y37720D02*
D03*
Y53720D02*
D03*
X226361Y69814D02*
D03*
X272895Y118049D02*
D03*
X226295Y285411D02*
D03*
X185008Y314690D02*
D03*
X233172Y312127D02*
D03*
X249875Y19358D02*
D03*
X345821Y286998D02*
D03*
X287782Y305571D02*
D03*
X313543Y318683D02*
D03*
X246155Y318658D02*
D03*
X352006Y113048D02*
D03*
Y119886D02*
D03*
X757809Y122682D02*
D03*
X771940Y175233D02*
D03*
X764333Y152962D02*
D03*
X723684Y201960D02*
D03*
Y210820D02*
D03*
Y256276D02*
D03*
X743474Y249539D02*
D03*
X733806Y238506D02*
D03*
X780145Y243294D02*
D03*
X743733Y227239D02*
D03*
X788686Y234960D02*
D03*
X707940Y243766D02*
D03*
X758602Y294967D02*
D03*
X705451Y163439D02*
D03*
X376667Y110226D02*
D03*
X239594Y259697D02*
D03*
X241000Y274417D02*
D03*
X366754Y170341D02*
D03*
X725440Y124984D02*
D03*
X725551Y115951D02*
D03*
X810627Y290798D02*
D03*
X636091Y392307D02*
D03*
X346460Y7192D02*
D03*
X305474Y7665D02*
D03*
X372110Y11684D02*
D03*
X260350Y19447D02*
D03*
X380450Y330601D02*
D03*
X331545Y259096D02*
D03*
X228197Y94748D02*
D03*
X641313Y7511D02*
D03*
X635121Y73778D02*
D03*
X623626D02*
D03*
X612132D02*
D03*
X641313Y66267D02*
D03*
X641059Y26899D02*
D03*
X757428Y84582D02*
D03*
X823934Y80172D02*
D03*
X904749Y108712D02*
D03*
X904876Y96774D02*
D03*
X676652Y341135D02*
D03*
X753965Y319843D02*
D03*
X761458Y308003D02*
D03*
X621228Y198080D02*
D03*
X634721Y251205D02*
D03*
X644398D02*
D03*
X641310Y261108D02*
D03*
X599814Y370402D02*
D03*
X472572Y290830D02*
D03*
Y303717D02*
D03*
X472655Y315769D02*
D03*
X425865Y344589D02*
D03*
X406015Y365097D02*
D03*
X405130Y387350D02*
D03*
X425748Y318414D02*
D03*
X434518Y320071D02*
D03*
X399288Y281939D02*
D03*
X314882Y185058D02*
D03*
X258304Y224597D02*
D03*
X175599Y250362D02*
D03*
X197353Y219753D02*
D03*
X187447D02*
D03*
X236758Y266439D02*
D03*
X373365Y84189D02*
D03*
X295681Y98577D02*
D03*
X151182Y86948D02*
D03*
X93074Y113284D02*
D03*
X138686Y224789D02*
D03*
X128267Y222505D02*
D03*
X138686Y179579D02*
D03*
X128272Y183007D02*
D03*
X95793Y173537D02*
D03*
X95805Y237519D02*
D03*
X112776Y283844D02*
D03*
X101346D02*
D03*
X76453Y278638D02*
D03*
X65023D02*
D03*
X241274Y139811D02*
D03*
X258040Y146733D02*
D03*
X255247Y312127D02*
D03*
X331491Y320690D02*
D03*
X649986Y113284D02*
D03*
X641006Y116586D02*
D03*
X452240Y240273D02*
D03*
X591740Y253196D02*
D03*
X409702Y289992D02*
D03*
X303897Y247524D02*
D03*
X303276Y236917D02*
D03*
X284846D02*
D03*
Y247524D02*
D03*
X415848Y327183D02*
D03*
Y335120D02*
D03*
X376072Y289992D02*
D03*
X597291Y75350D02*
D03*
X482092Y73914D02*
D03*
X517906Y227330D02*
D03*
X641462Y156411D02*
D03*
X544576Y174498D02*
D03*
X536702Y184404D02*
D03*
X452240Y202596D02*
D03*
X554748Y158513D02*
D03*
X570546Y164284D02*
D03*
X447548Y340120D02*
D03*
X420624Y227584D02*
D03*
X350589Y342199D02*
D03*
X284175Y342228D02*
D03*
X604012Y219796D02*
D03*
X393603Y164053D02*
D03*
X394538Y101091D02*
D03*
X128524Y148844D02*
D03*
X378508Y240596D02*
D03*
X420624Y240273D02*
D03*
X632968Y163672D02*
D03*
X682986Y147636D02*
D03*
X638947Y357564D02*
D03*
X617220Y170034D02*
D03*
X611484Y177150D02*
D03*
X604012Y183896D02*
D03*
X629622Y92796D02*
D03*
X617834D02*
D03*
X619876Y109196D02*
D03*
Y118196D02*
D03*
X661790Y188090D02*
D03*
Y203080D02*
D03*
X689807Y134000D02*
D03*
X676438Y139143D02*
D03*
X725395Y292737D02*
D03*
Y303558D02*
D03*
X394462Y88296D02*
D03*
X394716Y139192D02*
D03*
X569994Y215900D02*
D03*
X394716Y177546D02*
D03*
D185*
X948082Y280406D02*
D03*
Y120406D02*
D03*
D186*
X946281Y346281D02*
D03*
X946281Y53720D02*
D03*
X113720Y346281D02*
D03*
Y53720D02*
D03*
D187*
X74930Y176631D02*
D03*
X74935Y234431D02*
D03*
D188*
X80528Y162331D02*
D03*
Y248729D02*
D03*
D189*
X38730Y162331D02*
D03*
Y248729D02*
D03*
M02*
