<?xml version="1.0" standalone="no"?>
<!DOCTYPE svg PUBLIC "-//W3C//DTD SVG 20010904//EN"
 "http://www.w3.org/TR/2001/REC-SVG-20010904/DTD/svg10.dtd">
<svg version="1.0" xmlns="http://www.w3.org/2000/svg"
 width="300.000000pt" height="332.000000pt" viewBox="0 0 300.000000 332.000000"
 preserveAspectRatio="xMidYMid meet">
<metadata>
Created by potrace 1.10, written by Peter Selinger 2001-2011
</metadata>
<g transform="translate(0.000000,332.000000) scale(0.100000,-0.100000)"
fill="#000000" stroke="none">
<path d="M416 2889 c-56 -44 -56 -45 -56 -461 0 -345 2 -387 18 -418 34 -69
41 -70 465 -70 418 0 430 2 467 62 26 43 26 113 0 156 -35 58 -65 63 -306 60
-118 -2 -214 0 -214 3 0 4 39 37 88 74 210 162 470 237 707 206 393 -52 736
-351 829 -723 41 -165 43 -286 5 -446 -83 -361 -348 -645 -689 -742 -161 -46
-413 -36 -584 22 -163 55 -332 174 -435 306 -91 114 -108 131 -147 138 -107
20 -198 -79 -165 -178 6 -19 40 -70 76 -115 192 -240 458 -403 765 -469 114
-24 362 -24 474 0 212 46 440 172 609 335 119 114 199 223 263 356 90 185 124
338 124 554 0 277 -84 523 -257 753 -90 119 -177 200 -311 288 -220 146 -455
209 -727 197 -189 -9 -337 -47 -498 -128 -78 -40 -193 -117 -241 -162 -20 -19
-36 -32 -37 -28 0 3 0 80 0 171 1 188 -7 223 -58 257 -46 31 -127 32 -165 2z
m129 -29 c44 -17 55 -61 55 -232 0 -123 3 -158 16 -176 8 -12 22 -22 30 -22 9
0 54 29 100 63 221 166 448 242 724 242 212 0 357 -33 535 -122 123 -62 204
-120 311 -227 185 -185 311 -432 344 -675 19 -140 8 -360 -25 -486 -89 -342
-332 -631 -670 -796 -144 -70 -233 -96 -381 -109 -276 -26 -556 47 -800 210
-43 29 -129 103 -190 164 -177 179 -204 268 -96 313 54 23 92 4 151 -75 135
-183 320 -311 546 -378 121 -36 349 -45 476 -19 180 36 341 121 482 255 179
170 296 403 327 654 19 154 -17 361 -91 515 -165 349 -542 591 -918 591 -75 0
-218 -25 -301 -52 -173 -56 -399 -208 -400 -269 0 -9 8 -23 18 -32 14 -13 53
-16 227 -19 238 -3 259 -9 271 -72 9 -51 -7 -88 -47 -108 -30 -16 -71 -18
-392 -18 -393 0 -413 3 -436 57 -9 21 -11 129 -9 407 l3 378 28 24 c30 25 69
30 112 14z"/>
</g>
</svg>
